<svg width="217" height="54" viewBox="0 0 217 54" fill="none" xmlns="http://www.w3.org/2000/svg">
<path d="M0 54H190.867C205.3 54 217 42.2999 217 27.8672V26.1328C217 11.7001 205.3 0 190.867 0H26.1328C11.7001 0 0 11.7001 0 26.1328V54Z" fill="white"/>
<path d="M25.126 22.6921H26.23V26.4001H31.426V22.6921H32.518V31.1641H31.426V27.3601H26.23V31.1641H25.126V22.6921ZM39.1263 29.9521C39.3743 29.7281 39.5223 29.4481 39.5703 29.1121H40.6263C40.5463 29.6881 40.3023 30.1561 39.8943 30.5161C39.5903 30.7881 39.2143 30.9921 38.7663 31.1281C38.3263 31.2641 37.8383 31.3321 37.3023 31.3321C36.5023 31.3321 35.8223 31.1841 35.2623 30.8881C34.7023 30.5841 34.3023 30.1641 34.0623 29.6281C33.8783 29.2361 33.7863 28.7761 33.7863 28.2481C33.7863 27.7281 33.8783 27.2601 34.0623 26.8441C34.3023 26.3081 34.6943 25.8961 35.2383 25.6081C35.7903 25.3121 36.4543 25.1641 37.2303 25.1641C37.9983 25.1641 38.6503 25.3121 39.1863 25.6081C39.7223 25.9041 40.1143 26.3201 40.3623 26.8561C40.4583 27.0961 40.5303 27.3521 40.5783 27.6241C40.6263 27.8881 40.6543 28.1841 40.6623 28.5121H34.8423C34.8663 28.8401 34.9303 29.1241 35.0343 29.3641C35.2023 29.7321 35.4783 30.0121 35.8623 30.2041C36.2543 30.3961 36.7343 30.4921 37.3023 30.4921C37.6863 30.4921 38.0343 30.4481 38.3463 30.3601C38.6583 30.2721 38.9183 30.1361 39.1263 29.9521ZM37.2303 26.0041C36.6783 26.0041 36.2143 26.1041 35.8383 26.3041C35.4703 26.4961 35.2023 26.7801 35.0343 27.1561C34.9543 27.3641 34.8983 27.5561 34.8663 27.7321H39.5823C39.5583 27.5001 39.5063 27.2921 39.4263 27.1081C39.2583 26.7481 38.9863 26.4761 38.6103 26.2921C38.2343 26.1001 37.7743 26.0041 37.2303 26.0041ZM41.823 22.6921H42.867V31.1641H41.823V22.6921ZM44.4245 22.6921H45.4685V31.1641H44.4245V22.6921ZM50.0981 31.3321C49.3061 31.3321 48.6381 31.1841 48.0941 30.8881C47.5501 30.5841 47.1541 30.1601 46.9061 29.6161C46.7221 29.2001 46.6301 28.7441 46.6301 28.2481C46.6301 27.7521 46.7221 27.2961 46.9061 26.8801C47.1541 26.3441 47.5501 25.9241 48.0941 25.6201C48.6381 25.3161 49.3061 25.1641 50.0981 25.1641C50.8981 25.1641 51.5701 25.3161 52.1141 25.6201C52.6581 25.9161 53.0501 26.3321 53.2901 26.8681C53.4741 27.2841 53.5661 27.7441 53.5661 28.2481C53.5661 28.7521 53.4741 29.2121 53.2901 29.6281C53.0501 30.1641 52.6541 30.5841 52.1021 30.8881C51.5581 31.1841 50.8901 31.3321 50.0981 31.3321ZM50.0981 30.4321C50.6341 30.4321 51.0861 30.3321 51.4541 30.1321C51.8301 29.9321 52.1021 29.6521 52.2701 29.2921C52.4061 28.9961 52.4741 28.6481 52.4741 28.2481C52.4741 27.8481 52.4101 27.5041 52.2821 27.2161C52.1141 26.8481 51.8421 26.5641 51.4661 26.3641C51.0901 26.1641 50.6341 26.0641 50.0981 26.0641C49.5621 26.0641 49.1061 26.1641 48.7301 26.3641C48.3621 26.5641 48.0941 26.8481 47.9261 27.2161C47.7981 27.4961 47.7341 27.8401 47.7341 28.2481C47.7341 28.6561 47.7981 29.0041 47.9261 29.2921C48.0941 29.6521 48.3621 29.9321 48.7301 30.1321C49.1061 30.3321 49.5621 30.4321 50.0981 30.4321ZM60.558 25.1641C61.398 25.1641 62.042 25.3921 62.49 25.8481C62.946 26.2961 63.174 26.9561 63.174 27.8281V31.1641H62.13V28.0081C62.13 26.7201 61.518 26.0761 60.294 26.0761C59.63 26.0761 59.122 26.2601 58.77 26.6281C58.418 26.9961 58.242 27.5201 58.242 28.2001V31.1641H57.198V22.6921H58.242V26.2921C58.474 25.9161 58.786 25.6361 59.178 25.4521C59.57 25.2601 60.03 25.1641 60.558 25.1641ZM67.7583 31.3321C66.9663 31.3321 66.2983 31.1841 65.7543 30.8881C65.2103 30.5841 64.8143 30.1601 64.5663 29.6161C64.3823 29.2001 64.2903 28.7441 64.2903 28.2481C64.2903 27.7521 64.3823 27.2961 64.5663 26.8801C64.8143 26.3441 65.2103 25.9241 65.7543 25.6201C66.2983 25.3161 66.9663 25.1641 67.7583 25.1641C68.5583 25.1641 69.2303 25.3161 69.7743 25.6201C70.3183 25.9161 70.7103 26.3321 70.9503 26.8681C71.1343 27.2841 71.2263 27.7441 71.2263 28.2481C71.2263 28.7521 71.1343 29.2121 70.9503 29.6281C70.7103 30.1641 70.3143 30.5841 69.7623 30.8881C69.2183 31.1841 68.5503 31.3321 67.7583 31.3321ZM67.7583 30.4321C68.2943 30.4321 68.7463 30.3321 69.1143 30.1321C69.4903 29.9321 69.7623 29.6521 69.9303 29.2921C70.0663 28.9961 70.1343 28.6481 70.1343 28.2481C70.1343 27.8481 70.0703 27.5041 69.9423 27.2161C69.7743 26.8481 69.5023 26.5641 69.1263 26.3641C68.7503 26.1641 68.2943 26.0641 67.7583 26.0641C67.2223 26.0641 66.7663 26.1641 66.3903 26.3641C66.0223 26.5641 65.7543 26.8481 65.5863 27.2161C65.4583 27.4961 65.3943 27.8401 65.3943 28.2481C65.3943 28.6561 65.4583 29.0041 65.5863 29.2921C65.7543 29.6521 66.0223 29.9321 66.3903 30.1321C66.7663 30.3321 67.2223 30.4321 67.7583 30.4321ZM81.5731 25.3441L79.1971 31.1641H78.1171L76.4851 26.6161L74.8651 31.1641H73.7731L71.3971 25.3441H72.5371L74.3131 29.9761L75.9571 25.3441H77.0131L78.6571 29.9641L80.4331 25.3441H81.5731ZM90.5045 26.4481C90.6645 26.8161 90.7445 27.2521 90.7445 27.7561V31.1641H89.6885V30.2641C89.1925 30.9761 88.3205 31.3321 87.0725 31.3321C86.4885 31.3321 85.9965 31.2481 85.5965 31.0801C85.1965 30.9041 84.9205 30.6441 84.7685 30.3001C84.6725 30.0921 84.6245 29.8481 84.6245 29.5681C84.6245 29.2881 84.6725 29.0481 84.7685 28.8481C84.9685 28.4081 85.3405 28.1081 85.8845 27.9481C86.4365 27.7801 87.1405 27.6961 87.9965 27.6961H89.6885V27.5761C89.6885 27.2721 89.6405 27.0121 89.5445 26.7961C89.3125 26.2681 88.7245 26.0041 87.7805 26.0041C86.8445 26.0041 86.2645 26.2481 86.0405 26.7361C85.9845 26.8561 85.9485 27.0081 85.9325 27.1921H84.8885C84.8885 26.9201 84.9445 26.6521 85.0565 26.3881C85.4165 25.5721 86.3205 25.1641 87.7685 25.1641C88.4885 25.1641 89.0765 25.2681 89.5325 25.4761C89.9885 25.6841 90.3125 26.0081 90.5045 26.4481ZM87.3125 30.4921C87.8565 30.4921 88.3205 30.4001 88.7045 30.2161C89.0885 30.0321 89.3605 29.7641 89.5205 29.4121C89.6325 29.1801 89.6885 28.8881 89.6885 28.5361V28.4641H88.0325C87.4325 28.4641 86.9365 28.5121 86.5445 28.6081C86.1605 28.6961 85.9085 28.8681 85.7885 29.1241C85.7325 29.2521 85.7045 29.3721 85.7045 29.4841C85.7045 29.6361 85.7325 29.7641 85.7885 29.8681C85.8845 30.0841 86.0685 30.2441 86.3405 30.3481C86.6125 30.4441 86.9365 30.4921 87.3125 30.4921ZM95.1288 25.2361C95.3768 25.2361 95.6088 25.2681 95.8248 25.3321V26.2681C95.5848 26.2121 95.3408 26.1841 95.0928 26.1841C94.4928 26.1841 94.0408 26.3481 93.7368 26.6761C93.4408 27.0041 93.2928 27.4761 93.2928 28.0921V31.1641H92.2488V25.3441H93.2928V26.1721C93.4608 25.8761 93.6968 25.6481 94.0008 25.4881C94.3128 25.3201 94.6888 25.2361 95.1288 25.2361ZM101.587 29.9521C101.835 29.7281 101.983 29.4481 102.031 29.1121H103.087C103.007 29.6881 102.763 30.1561 102.355 30.5161C102.051 30.7881 101.675 30.9921 101.227 31.1281C100.787 31.2641 100.299 31.3321 99.7633 31.3321C98.9633 31.3321 98.2833 31.1841 97.7233 30.8881C97.1633 30.5841 96.7633 30.1641 96.5233 29.6281C96.3393 29.2361 96.2473 28.7761 96.2473 28.2481C96.2473 27.7281 96.3393 27.2601 96.5233 26.8441C96.7633 26.3081 97.1553 25.8961 97.6993 25.6081C98.2513 25.3121 98.9153 25.1641 99.6913 25.1641C100.459 25.1641 101.111 25.3121 101.647 25.6081C102.183 25.9041 102.575 26.3201 102.823 26.8561C102.919 27.0961 102.991 27.3521 103.039 27.6241C103.087 27.8881 103.115 28.1841 103.123 28.5121H97.3033C97.3273 28.8401 97.3913 29.1241 97.4953 29.3641C97.6633 29.7321 97.9393 30.0121 98.3233 30.2041C98.7153 30.3961 99.1953 30.4921 99.7633 30.4921C100.147 30.4921 100.495 30.4481 100.807 30.3601C101.119 30.2721 101.379 30.1361 101.587 29.9521ZM99.6913 26.0041C99.1393 26.0041 98.6753 26.1041 98.2993 26.3041C97.9313 26.4961 97.6633 26.7801 97.4953 27.1561C97.4153 27.3641 97.3593 27.5561 97.3273 27.7321H102.043C102.019 27.5001 101.967 27.2921 101.887 27.1081C101.719 26.7481 101.447 26.4761 101.071 26.2921C100.695 26.1001 100.235 26.0041 99.6913 26.0041ZM112.793 25.3441L109.853 31.1641L108.629 33.6001H107.513L108.809 31.0681L106.073 25.3441H107.249L109.385 30.0121L111.641 25.3441H112.793ZM116.415 31.3321C115.623 31.3321 114.955 31.1841 114.411 30.8881C113.867 30.5841 113.471 30.1601 113.223 29.6161C113.039 29.2001 112.947 28.7441 112.947 28.2481C112.947 27.7521 113.039 27.2961 113.223 26.8801C113.471 26.3441 113.867 25.9241 114.411 25.6201C114.955 25.3161 115.623 25.1641 116.415 25.1641C117.215 25.1641 117.887 25.3161 118.431 25.6201C118.975 25.9161 119.367 26.3321 119.607 26.8681C119.791 27.2841 119.883 27.7441 119.883 28.2481C119.883 28.7521 119.791 29.2121 119.607 29.6281C119.367 30.1641 118.971 30.5841 118.419 30.8881C117.875 31.1841 117.207 31.3321 116.415 31.3321ZM116.415 30.4321C116.951 30.4321 117.403 30.3321 117.771 30.1321C118.147 29.9321 118.419 29.6521 118.587 29.2921C118.723 28.9961 118.791 28.6481 118.791 28.2481C118.791 27.8481 118.727 27.5041 118.599 27.2161C118.431 26.8481 118.159 26.5641 117.783 26.3641C117.407 26.1641 116.951 26.0641 116.415 26.0641C115.879 26.0641 115.423 26.1641 115.047 26.3641C114.679 26.5641 114.411 26.8481 114.243 27.2161C114.115 27.4961 114.051 27.8401 114.051 28.2481C114.051 28.6561 114.115 29.0041 114.243 29.2921C114.411 29.6521 114.679 29.9321 115.047 30.1321C115.423 30.3321 115.879 30.4321 116.415 30.4321ZM126.981 25.3441V31.1641H125.925V30.2281C125.685 30.6041 125.369 30.8841 124.977 31.0681C124.593 31.2521 124.141 31.3441 123.621 31.3441C122.781 31.3441 122.133 31.1201 121.677 30.6721C121.229 30.2161 121.005 29.5521 121.005 28.6801V25.3441H122.049V28.5001C122.049 29.7881 122.661 30.4321 123.885 30.4321C124.549 30.4321 125.053 30.2481 125.397 29.8801C125.749 29.5121 125.925 28.9881 125.925 28.3081V25.3441H126.981ZM133.547 31.2721C132.891 31.2721 132.399 31.1081 132.071 30.7801C131.751 30.4521 131.591 29.9601 131.591 29.3041V26.2081H130.499V25.3441H131.591V23.8921H132.635V25.3441H134.783V26.2081H132.635V29.1241C132.635 29.5401 132.735 29.8561 132.935 30.0721C133.135 30.2801 133.423 30.3841 133.799 30.3841C134.079 30.3841 134.387 30.3401 134.723 30.2521V31.1401C134.331 31.2281 133.939 31.2721 133.547 31.2721ZM138.762 31.3321C137.97 31.3321 137.302 31.1841 136.758 30.8881C136.214 30.5841 135.818 30.1601 135.57 29.6161C135.386 29.2001 135.294 28.7441 135.294 28.2481C135.294 27.7521 135.386 27.2961 135.57 26.8801C135.818 26.3441 136.214 25.9241 136.758 25.6201C137.302 25.3161 137.97 25.1641 138.762 25.1641C139.562 25.1641 140.234 25.3161 140.778 25.6201C141.322 25.9161 141.714 26.3321 141.954 26.8681C142.138 27.2841 142.23 27.7441 142.23 28.2481C142.23 28.7521 142.138 29.2121 141.954 29.6281C141.714 30.1641 141.318 30.5841 140.766 30.8881C140.222 31.1841 139.554 31.3321 138.762 31.3321ZM138.762 30.4321C139.298 30.4321 139.75 30.3321 140.118 30.1321C140.494 29.9321 140.766 29.6521 140.934 29.2921C141.07 28.9961 141.138 28.6481 141.138 28.2481C141.138 27.8481 141.074 27.5041 140.946 27.2161C140.778 26.8481 140.506 26.5641 140.13 26.3641C139.754 26.1641 139.298 26.0641 138.762 26.0641C138.226 26.0641 137.77 26.1641 137.394 26.3641C137.026 26.5641 136.758 26.8481 136.59 27.2161C136.462 27.4961 136.398 27.8401 136.398 28.2481C136.398 28.6561 136.462 29.0041 136.59 29.2921C136.758 29.6521 137.026 29.9321 137.394 30.1321C137.77 30.3321 138.226 30.4321 138.762 30.4321ZM149.808 22.6921V31.1641H148.788V30.2161C148.524 30.5841 148.172 30.8641 147.732 31.0561C147.3 31.2401 146.808 31.3321 146.256 31.3321C145.568 31.3321 144.968 31.1881 144.456 30.9001C143.944 30.6121 143.572 30.2081 143.34 29.6881C143.148 29.2401 143.052 28.7601 143.052 28.2481C143.052 27.7361 143.148 27.2561 143.34 26.8081C143.572 26.2881 143.944 25.8841 144.456 25.5961C144.968 25.3081 145.568 25.1641 146.256 25.1641C146.8 25.1641 147.288 25.2561 147.72 25.4401C148.16 25.6241 148.508 25.8921 148.764 26.2441V22.6921H149.808ZM148.764 28.1641C148.764 27.7081 148.664 27.3241 148.464 27.0121C148.264 26.6921 147.992 26.4561 147.648 26.3041C147.304 26.1441 146.912 26.0641 146.472 26.0641C145.968 26.0641 145.532 26.1601 145.164 26.3521C144.796 26.5441 144.528 26.8241 144.36 27.1921C144.224 27.4881 144.156 27.8401 144.156 28.2481C144.156 28.6561 144.224 29.0081 144.36 29.3041C144.528 29.6721 144.796 29.9521 145.164 30.1441C145.532 30.3361 145.968 30.4321 146.472 30.4321C146.912 30.4321 147.304 30.3561 147.648 30.2041C147.992 30.0441 148.264 29.8081 148.464 29.4961C148.664 29.1761 148.764 28.7921 148.764 28.3441V28.1641ZM156.95 26.4481C157.11 26.8161 157.19 27.2521 157.19 27.7561V31.1641H156.134V30.2641C155.638 30.9761 154.766 31.3321 153.518 31.3321C152.934 31.3321 152.442 31.2481 152.042 31.0801C151.642 30.9041 151.366 30.6441 151.214 30.3001C151.118 30.0921 151.07 29.8481 151.07 29.5681C151.07 29.2881 151.118 29.0481 151.214 28.8481C151.414 28.4081 151.786 28.1081 152.33 27.9481C152.882 27.7801 153.586 27.6961 154.442 27.6961H156.134V27.5761C156.134 27.2721 156.086 27.0121 155.99 26.7961C155.758 26.2681 155.17 26.0041 154.226 26.0041C153.29 26.0041 152.71 26.2481 152.486 26.7361C152.43 26.8561 152.394 27.0081 152.378 27.1921H151.334C151.334 26.9201 151.39 26.6521 151.502 26.3881C151.862 25.5721 152.766 25.1641 154.214 25.1641C154.934 25.1641 155.522 25.2681 155.978 25.4761C156.434 25.6841 156.758 26.0081 156.95 26.4481ZM153.758 30.4921C154.302 30.4921 154.766 30.4001 155.15 30.2161C155.534 30.0321 155.806 29.7641 155.966 29.4121C156.078 29.1801 156.134 28.8881 156.134 28.5361V28.4641H154.478C153.878 28.4641 153.382 28.5121 152.99 28.6081C152.606 28.6961 152.354 28.8681 152.234 29.1241C152.178 29.2521 152.15 29.3721 152.15 29.4841C152.15 29.6361 152.178 29.7641 152.234 29.8681C152.33 30.0841 152.514 30.2441 152.786 30.3481C153.058 30.4441 153.382 30.4921 153.758 30.4921ZM164.344 25.3441L161.404 31.1641L160.18 33.6001H159.064L160.36 31.0681L157.624 25.3441H158.8L160.936 30.0121L163.192 25.3441H164.344ZM167.439 28.8001C168.191 27.8401 168.739 27.1161 169.083 26.6281C169.427 26.1321 169.659 25.7481 169.779 25.4761C169.899 25.2041 169.959 24.9401 169.959 24.6841C169.959 24.2761 169.807 23.9521 169.503 23.7121C169.199 23.4641 168.727 23.3401 168.087 23.3401C167.151 23.3401 166.555 23.6281 166.299 24.2041C166.243 24.3241 166.203 24.4481 166.179 24.5761C166.155 24.7041 166.143 24.8601 166.143 25.0441H165.087C165.087 24.7881 165.103 24.5681 165.135 24.3841C165.167 24.1921 165.219 24.0121 165.291 23.8441C165.491 23.4041 165.827 23.0681 166.299 22.8361C166.779 22.6041 167.383 22.4881 168.111 22.4881C168.759 22.4881 169.303 22.5761 169.743 22.7521C170.191 22.9281 170.523 23.1801 170.739 23.5081C170.963 23.8361 171.075 24.2201 171.075 24.6601C171.075 24.9561 171.015 25.2481 170.895 25.5361C170.775 25.8241 170.551 26.2041 170.223 26.6761C169.903 27.1481 169.383 27.8561 168.663 28.8001H167.439ZM167.991 31.3441C167.775 31.3441 167.599 31.2801 167.463 31.1521C167.335 31.0241 167.271 30.8561 167.271 30.6481C167.271 30.4321 167.335 30.2601 167.463 30.1321C167.599 30.0041 167.775 29.9401 167.991 29.9401C168.207 29.9401 168.379 30.0041 168.507 30.1321C168.643 30.2601 168.711 30.4321 168.711 30.6481C168.711 30.8561 168.643 31.0241 168.507 31.1521C168.371 31.2801 168.199 31.3441 167.991 31.3441ZM172.358 31.3441C172.15 31.3441 171.978 31.2801 171.842 31.1521C171.714 31.0241 171.65 30.8521 171.65 30.6361C171.65 30.4201 171.714 30.2481 171.842 30.1201C171.978 29.9921 172.15 29.9281 172.358 29.9281C172.574 29.9281 172.746 29.9921 172.874 30.1201C173.01 30.2481 173.078 30.4201 173.078 30.6361C173.078 30.8521 173.01 31.0241 172.874 31.1521C172.746 31.2801 172.574 31.3441 172.358 31.3441ZM175.897 31.3441C175.689 31.3441 175.517 31.2801 175.381 31.1521C175.253 31.0241 175.189 30.8521 175.189 30.6361C175.189 30.4201 175.253 30.2481 175.381 30.1201C175.517 29.9921 175.689 29.9281 175.897 29.9281C176.113 29.9281 176.285 29.9921 176.413 30.1201C176.549 30.2481 176.617 30.4201 176.617 30.6361C176.617 30.8521 176.549 31.0241 176.413 31.1521C176.285 31.2801 176.113 31.3441 175.897 31.3441ZM179.436 31.3441C179.228 31.3441 179.056 31.2801 178.92 31.1521C178.792 31.0241 178.728 30.8521 178.728 30.6361C178.728 30.4201 178.792 30.2481 178.92 30.1201C179.056 29.9921 179.228 29.9281 179.436 29.9281C179.652 29.9281 179.824 29.9921 179.952 30.1201C180.088 30.2481 180.156 30.4201 180.156 30.6361C180.156 30.8521 180.088 31.0241 179.952 31.1521C179.824 31.2801 179.652 31.3441 179.436 31.3441ZM182.975 31.3441C182.767 31.3441 182.595 31.2801 182.459 31.1521C182.331 31.0241 182.267 30.8521 182.267 30.6361C182.267 30.4201 182.331 30.2481 182.459 30.1201C182.595 29.9921 182.767 29.9281 182.975 29.9281C183.191 29.9281 183.363 29.9921 183.491 30.1201C183.627 30.2481 183.695 30.4201 183.695 30.6361C183.695 30.8521 183.627 31.0241 183.491 31.1521C183.363 31.2801 183.191 31.3441 182.975 31.3441Z" fill="black"/>
</svg>
