<svg width="225" height="160" viewBox="0 0 225 160" fill="none" xmlns="http://www.w3.org/2000/svg">
<g filter="url(#filter0_b_532_71905)">
<g filter="url(#filter1_d_532_71905)">
<path d="M4 112C4 120.837 11.1634 128 20 128H205C213.837 128 221 120.837 221 112V16C221 7.16344 213.837 0 205 0H20C11.1634 0 4 7.16344 4 16V112Z" fill="black" fill-opacity="0.6" shape-rendering="crispEdges"/>
</g>
<path opacity="0.2" d="M155.435 120.822L184.627 88.96C186.526 86.8833 187.979 85.222 188.988 83.976C189.997 82.6707 190.738 81.5137 191.213 80.505C191.688 79.437 191.925 78.369 191.925 77.301C191.925 76.3517 191.747 75.521 191.391 74.809C190.976 73.741 190.204 72.94 189.077 72.406C188.009 71.8127 186.674 71.516 185.072 71.516C183.292 71.516 181.809 71.8423 180.622 72.495C179.495 73.1477 178.605 74.1563 177.952 75.521C177.596 76.2923 177.329 77.1527 177.151 78.102C177.032 78.992 176.973 80.06 176.973 81.306H156.681C156.681 78.992 156.859 76.9153 157.215 75.076C157.571 73.1773 158.105 71.427 158.817 69.825C162.911 60.6877 171.781 56.119 185.428 56.119C191.895 56.119 197.413 57.1573 201.982 59.234C206.551 61.3107 209.755 64.4553 211.594 68.668C212.721 71.2193 213.285 74.008 213.285 77.034C213.285 80.06 212.692 82.73 211.505 85.044C210.318 87.2987 208.538 89.672 206.165 92.164C202.486 95.9613 197.858 100.085 192.281 104.535H214.175V121H155.435V120.822Z" fill="white"/>
<path d="M21.62 45.232V44.368H25.58V45.232H21.62ZM28.8153 45.232V44.368H32.7753V45.232H28.8153ZM36.0106 45.232V44.368H39.9706V45.232H36.0106ZM43.2059 45.232V44.368H47.1659V45.232H43.2059ZM50.4013 45.232V44.368H54.3613V45.232H50.4013ZM56.7686 49V40.6H59.5646C60.4366 40.6 61.0926 40.8 61.5326 41.2C61.9726 41.6 62.1926 42.112 62.1926 42.736C62.1926 43.224 62.0606 43.628 61.7966 43.948C61.5326 44.26 61.2366 44.48 60.9086 44.608V44.692C61.3006 44.82 61.6446 45.052 61.9406 45.388C62.2366 45.724 62.3846 46.156 62.3846 46.684C62.3846 47.116 62.2766 47.508 62.0606 47.86C61.8526 48.204 61.5446 48.48 61.1366 48.688C60.7366 48.896 60.2446 49 59.6606 49H56.7686ZM57.7766 44.224H59.4926C60.0286 44.224 60.4366 44.108 60.7166 43.876C61.0046 43.636 61.1486 43.292 61.1486 42.844C61.1486 42.42 61.0086 42.092 60.7286 41.86C60.4486 41.628 60.0246 41.512 59.4566 41.512H57.7766V44.224ZM57.7766 48.076H59.5526C60.1286 48.076 60.5726 47.948 60.8846 47.692C61.1966 47.428 61.3526 47.06 61.3526 46.588C61.3526 46.116 61.1886 45.752 60.8606 45.496C60.5326 45.232 60.0886 45.1 59.5286 45.1H57.7766V48.076ZM64.2039 49V40.6H69.4479V41.512H65.2119V44.308H69.0879V45.22H65.2119V48.088H69.4479V49H64.2039ZM73.8832 49.144C73.2912 49.144 72.7632 48.972 72.2992 48.628C71.8352 48.276 71.4712 47.776 71.2072 47.128C70.9512 46.48 70.8232 45.704 70.8232 44.8C70.8232 43.904 70.9552 43.132 71.2192 42.484C71.4832 41.836 71.8552 41.336 72.3352 40.984C72.8232 40.632 73.3992 40.456 74.0632 40.456C74.8552 40.456 75.4992 40.688 75.9952 41.152C76.4992 41.616 76.7992 42.24 76.8952 43.024H75.7792C75.6992 42.544 75.5112 42.156 75.2152 41.86C74.9272 41.556 74.5432 41.404 74.0632 41.404C73.3752 41.404 72.8352 41.704 72.4432 42.304C72.0512 42.904 71.8552 43.736 71.8552 44.8C71.8552 45.88 72.0512 46.716 72.4432 47.308C72.8352 47.9 73.3432 48.196 73.9672 48.196C74.4152 48.196 74.7832 48.064 75.0712 47.8C75.3592 47.528 75.5752 47.184 75.7192 46.768C75.8712 46.344 75.9552 45.908 75.9712 45.46H74.0992V44.596H77.0032V49H76.0792L75.9952 47.728H75.9472C75.7792 48.16 75.5312 48.504 75.2032 48.76C74.8832 49.016 74.4432 49.144 73.8832 49.144ZM78.7505 49V48.124H80.6585V41.476H78.7505V40.6H83.5745V41.476H81.6665V48.124H83.5745V49H78.7505ZM85.4418 49V40.6H86.4738L90.2898 47.236V40.6H91.2858V49H90.2418L86.4258 42.364V49H85.4418ZM100.036 49V40.6H102.832C103.472 40.6 103.996 40.716 104.404 40.948C104.812 41.18 105.112 41.488 105.304 41.872C105.496 42.256 105.592 42.68 105.592 43.144C105.592 43.608 105.496 44.032 105.304 44.416C105.112 44.8 104.812 45.108 104.404 45.34C103.996 45.572 103.472 45.688 102.832 45.688H101.044V49H100.036ZM101.044 44.764H102.808C103.4 44.764 103.84 44.616 104.128 44.32C104.416 44.016 104.56 43.624 104.56 43.144C104.56 42.664 104.416 42.272 104.128 41.968C103.84 41.664 103.4 41.512 102.808 41.512H101.044V44.764ZM109.86 49.144C109.268 49.144 108.74 48.972 108.276 48.628C107.812 48.276 107.448 47.776 107.184 47.128C106.928 46.48 106.8 45.704 106.8 44.8C106.8 43.904 106.932 43.132 107.196 42.484C107.46 41.836 107.832 41.336 108.312 40.984C108.8 40.632 109.376 40.456 110.04 40.456C110.832 40.456 111.476 40.688 111.972 41.152C112.476 41.616 112.776 42.24 112.872 43.024H111.756C111.676 42.544 111.488 42.156 111.192 41.86C110.904 41.556 110.52 41.404 110.04 41.404C109.352 41.404 108.812 41.704 108.42 42.304C108.028 42.904 107.832 43.736 107.832 44.8C107.832 45.88 108.028 46.716 108.42 47.308C108.812 47.9 109.32 48.196 109.944 48.196C110.392 48.196 110.76 48.064 111.048 47.8C111.336 47.528 111.552 47.184 111.696 46.768C111.848 46.344 111.932 45.908 111.948 45.46H110.076V44.596H112.98V49H112.056L111.972 47.728H111.924C111.756 48.16 111.508 48.504 111.18 48.76C110.86 49.016 110.42 49.144 109.86 49.144ZM114.427 49V40.6H117.223C117.863 40.6 118.387 40.716 118.795 40.948C119.203 41.18 119.503 41.488 119.695 41.872C119.887 42.256 119.983 42.68 119.983 43.144C119.983 43.608 119.887 44.032 119.695 44.416C119.503 44.8 119.203 45.108 118.795 45.34C118.387 45.572 117.863 45.688 117.223 45.688H115.435V49H114.427ZM115.435 44.764H117.199C117.791 44.764 118.231 44.616 118.519 44.32C118.807 44.016 118.951 43.624 118.951 43.144C118.951 42.664 118.807 42.272 118.519 41.968C118.231 41.664 117.791 41.512 117.199 41.512H115.435V44.764ZM128.53 49V40.6H129.61L131.53 44.596L133.45 40.6H134.53V49H133.546V42.544L131.914 45.94H131.146L129.514 42.556V49H128.53ZM136.157 49V40.6H141.401V41.512H137.165V44.308H141.041V45.22H137.165V48.088H141.401V49H136.157ZM146.004 49.144C145.412 49.144 144.896 49.032 144.456 48.808C144.024 48.584 143.688 48.272 143.448 47.872C143.216 47.472 143.096 47.004 143.088 46.468H144.144C144.152 46.948 144.312 47.364 144.624 47.716C144.944 48.06 145.404 48.232 146.004 48.232C146.556 48.232 146.98 48.1 147.276 47.836C147.58 47.564 147.732 47.24 147.732 46.864C147.732 46.552 147.66 46.292 147.516 46.084C147.372 45.868 147.136 45.68 146.808 45.52C146.488 45.352 146.056 45.18 145.512 45.004C144.744 44.772 144.184 44.456 143.832 44.056C143.48 43.656 143.304 43.16 143.304 42.568C143.304 42.168 143.408 41.808 143.616 41.488C143.824 41.168 144.124 40.916 144.516 40.732C144.908 40.548 145.384 40.456 145.944 40.456C146.472 40.456 146.932 40.556 147.324 40.756C147.724 40.948 148.032 41.22 148.248 41.572C148.472 41.924 148.584 42.328 148.584 42.784H147.528C147.528 42.56 147.468 42.34 147.348 42.124C147.228 41.908 147.048 41.728 146.808 41.584C146.568 41.44 146.264 41.368 145.896 41.368C145.456 41.368 145.088 41.476 144.792 41.692C144.496 41.9 144.348 42.188 144.348 42.556C144.348 42.836 144.412 43.072 144.54 43.264C144.676 43.456 144.896 43.632 145.2 43.792C145.504 43.944 145.916 44.108 146.436 44.284C146.924 44.444 147.34 44.632 147.684 44.848C148.036 45.056 148.304 45.316 148.488 45.628C148.68 45.94 148.776 46.328 148.776 46.792C148.776 47.248 148.66 47.652 148.428 48.004C148.196 48.356 147.872 48.636 147.456 48.844C147.04 49.044 146.556 49.144 146.004 49.144ZM153.2 49.144C152.608 49.144 152.092 49.032 151.652 48.808C151.22 48.584 150.884 48.272 150.644 47.872C150.412 47.472 150.292 47.004 150.284 46.468H151.34C151.348 46.948 151.508 47.364 151.82 47.716C152.14 48.06 152.6 48.232 153.2 48.232C153.752 48.232 154.176 48.1 154.472 47.836C154.776 47.564 154.928 47.24 154.928 46.864C154.928 46.552 154.856 46.292 154.712 46.084C154.568 45.868 154.332 45.68 154.004 45.52C153.684 45.352 153.252 45.18 152.708 45.004C151.94 44.772 151.38 44.456 151.028 44.056C150.676 43.656 150.5 43.16 150.5 42.568C150.5 42.168 150.604 41.808 150.812 41.488C151.02 41.168 151.32 40.916 151.712 40.732C152.104 40.548 152.58 40.456 153.14 40.456C153.668 40.456 154.128 40.556 154.52 40.756C154.92 40.948 155.228 41.22 155.444 41.572C155.668 41.924 155.78 42.328 155.78 42.784H154.724C154.724 42.56 154.664 42.34 154.544 42.124C154.424 41.908 154.244 41.728 154.004 41.584C153.764 41.44 153.46 41.368 153.092 41.368C152.652 41.368 152.284 41.476 151.988 41.692C151.692 41.9 151.544 42.188 151.544 42.556C151.544 42.836 151.608 43.072 151.736 43.264C151.872 43.456 152.092 43.632 152.396 43.792C152.7 43.944 153.112 44.108 153.632 44.284C154.12 44.444 154.536 44.632 154.88 44.848C155.232 45.056 155.5 45.316 155.684 45.628C155.876 45.94 155.972 46.328 155.972 46.792C155.972 47.248 155.856 47.652 155.624 48.004C155.392 48.356 155.068 48.636 154.652 48.844C154.236 49.044 153.752 49.144 153.2 49.144ZM157.107 49L159.735 40.6H160.899L163.515 49H162.411L161.799 46.912H158.823L158.211 49H157.107ZM160.287 42.016L159.075 46.072H161.547L160.335 42.016H160.287ZM167.422 49.144C166.83 49.144 166.302 48.972 165.838 48.628C165.374 48.276 165.01 47.776 164.746 47.128C164.49 46.48 164.362 45.704 164.362 44.8C164.362 43.904 164.494 43.132 164.758 42.484C165.022 41.836 165.394 41.336 165.874 40.984C166.362 40.632 166.938 40.456 167.602 40.456C168.394 40.456 169.038 40.688 169.534 41.152C170.038 41.616 170.338 42.24 170.434 43.024H169.318C169.238 42.544 169.05 42.156 168.754 41.86C168.466 41.556 168.082 41.404 167.602 41.404C166.914 41.404 166.374 41.704 165.982 42.304C165.59 42.904 165.394 43.736 165.394 44.8C165.394 45.88 165.59 46.716 165.982 47.308C166.374 47.9 166.882 48.196 167.506 48.196C167.954 48.196 168.322 48.064 168.61 47.8C168.898 47.528 169.114 47.184 169.258 46.768C169.41 46.344 169.494 45.908 169.51 45.46H167.638V44.596H170.542V49H169.618L169.534 47.728H169.486C169.318 48.16 169.07 48.504 168.742 48.76C168.422 49.016 167.982 49.144 167.422 49.144ZM172.134 49V40.6H177.378V41.512H173.142V44.308H177.018V45.22H173.142V48.088H177.378V49H172.134ZM179.917 45.232V44.368H183.877V45.232H179.917ZM187.112 45.232V44.368H191.072V45.232H187.112ZM194.308 45.232V44.368H198.268V45.232H194.308ZM201.503 45.232V44.368H205.463V45.232H201.503ZM208.698 45.232V44.368H212.658V45.232H208.698ZM41.9819 65L44.6099 56.6H45.7739L48.3899 65H47.2859L46.6739 62.912H43.6979L43.0859 65H41.9819ZM45.1619 58.016L43.9499 62.072H46.4219L45.2099 58.016H45.1619ZM52.4653 65.144C51.8733 65.144 51.3573 65.032 50.9173 64.808C50.4853 64.584 50.1493 64.272 49.9093 63.872C49.6773 63.472 49.5573 63.004 49.5493 62.468H50.6053C50.6133 62.948 50.7733 63.364 51.0853 63.716C51.4053 64.06 51.8653 64.232 52.4653 64.232C53.0173 64.232 53.4413 64.1 53.7373 63.836C54.0413 63.564 54.1933 63.24 54.1933 62.864C54.1933 62.552 54.1213 62.292 53.9773 62.084C53.8333 61.868 53.5973 61.68 53.2693 61.52C52.9493 61.352 52.5173 61.18 51.9733 61.004C51.2053 60.772 50.6453 60.456 50.2933 60.056C49.9413 59.656 49.7653 59.16 49.7653 58.568C49.7653 58.168 49.8693 57.808 50.0773 57.488C50.2853 57.168 50.5853 56.916 50.9773 56.732C51.3693 56.548 51.8453 56.456 52.4053 56.456C52.9333 56.456 53.3933 56.556 53.7853 56.756C54.1853 56.948 54.4933 57.22 54.7093 57.572C54.9333 57.924 55.0453 58.328 55.0453 58.784H53.9893C53.9893 58.56 53.9293 58.34 53.8093 58.124C53.6893 57.908 53.5093 57.728 53.2693 57.584C53.0293 57.44 52.7253 57.368 52.3573 57.368C51.9173 57.368 51.5493 57.476 51.2533 57.692C50.9573 57.9 50.8093 58.188 50.8093 58.556C50.8093 58.836 50.8733 59.072 51.0013 59.264C51.1373 59.456 51.3573 59.632 51.6613 59.792C51.9653 59.944 52.3773 60.108 52.8973 60.284C53.3853 60.444 53.8013 60.632 54.1453 60.848C54.4973 61.056 54.7653 61.316 54.9492 61.628C55.1413 61.94 55.2373 62.328 55.2373 62.792C55.2373 63.248 55.1213 63.652 54.8893 64.004C54.6573 64.356 54.3333 64.636 53.9173 64.844C53.5013 65.044 53.0173 65.144 52.4653 65.144ZM59.5766 65.144C59.0166 65.144 58.5246 65.04 58.1006 64.832C57.6846 64.616 57.3566 64.324 57.1166 63.956C56.8766 63.588 56.7566 63.168 56.7566 62.696C56.7566 62.168 56.8966 61.72 57.1766 61.352C57.4566 60.984 57.7806 60.728 58.1486 60.584V60.524C57.7966 60.356 57.5126 60.116 57.2966 59.804C57.0886 59.484 56.9846 59.112 56.9846 58.688C56.9846 58.28 57.0886 57.908 57.2966 57.572C57.5126 57.228 57.8166 56.956 58.2086 56.756C58.6006 56.556 59.0566 56.456 59.5766 56.456C60.0886 56.456 60.5366 56.556 60.9206 56.756C61.3126 56.956 61.6166 57.228 61.8326 57.572C62.0566 57.908 62.1686 58.28 62.1686 58.688C62.1686 59.112 62.0606 59.484 61.8446 59.804C61.6366 60.116 61.3566 60.356 61.0046 60.524V60.584C61.3726 60.728 61.6966 60.984 61.9766 61.352C62.2566 61.72 62.3966 62.168 62.3966 62.696C62.3966 63.168 62.2766 63.588 62.0366 63.956C61.7966 64.324 61.4646 64.616 61.0406 64.832C60.6246 65.04 60.1366 65.144 59.5766 65.144ZM59.5766 60.152C60.0726 60.152 60.4606 60.024 60.7406 59.768C61.0286 59.504 61.1726 59.164 61.1726 58.748C61.1726 58.34 61.0286 58.008 60.7406 57.752C60.4606 57.488 60.0726 57.356 59.5766 57.356C59.0806 57.356 58.6886 57.488 58.4006 57.752C58.1206 58.008 57.9806 58.34 57.9806 58.748C57.9806 59.164 58.1206 59.504 58.4006 59.768C58.6886 60.024 59.0806 60.152 59.5766 60.152ZM59.5766 64.232C60.1126 64.232 60.5446 64.096 60.8726 63.824C61.2086 63.544 61.3766 63.14 61.3766 62.612C61.3766 62.092 61.2086 61.696 60.8726 61.424C60.5446 61.144 60.1126 61.004 59.5766 61.004C59.0406 61.004 58.6046 61.144 58.2686 61.424C57.9406 61.696 57.7766 62.092 57.7766 62.612C57.7766 63.14 57.9406 63.544 58.2686 63.824C58.6046 64.096 59.0406 64.232 59.5766 64.232ZM66.6279 65.144C66.1159 65.144 65.6599 65.044 65.2599 64.844C64.8679 64.636 64.5519 64.36 64.3119 64.016C64.0799 63.664 63.9439 63.272 63.9039 62.84H64.8759C64.9479 63.264 65.1359 63.604 65.4399 63.86C65.7519 64.108 66.1479 64.232 66.6279 64.232C67.2599 64.232 67.7759 63.948 68.1759 63.38C68.5759 62.804 68.8039 61.908 68.8599 60.692H68.7879C68.5719 61.068 68.2959 61.376 67.9599 61.616C67.6239 61.856 67.1519 61.976 66.5439 61.976C66.0399 61.976 65.5879 61.86 65.1879 61.628C64.7879 61.396 64.4679 61.076 64.2279 60.668C63.9959 60.26 63.8799 59.796 63.8799 59.276C63.8799 58.764 63.9919 58.296 64.2159 57.872C64.4479 57.44 64.7719 57.096 65.1879 56.84C65.6119 56.584 66.1039 56.456 66.6639 56.456C67.7199 56.456 68.5079 56.816 69.0279 57.536C69.5479 58.256 69.8079 59.236 69.8079 60.476C69.8079 61.396 69.6839 62.208 69.4359 62.912C69.1879 63.608 68.8279 64.156 68.3559 64.556C67.8839 64.948 67.3079 65.144 66.6279 65.144ZM66.7359 61.064C67.2959 61.064 67.7439 60.888 68.0799 60.536C68.4159 60.184 68.5839 59.744 68.5839 59.216C68.5839 58.688 68.4159 58.248 68.0799 57.896C67.7439 57.544 67.2959 57.368 66.7359 57.368C66.1759 57.368 65.7279 57.544 65.3919 57.896C65.0639 58.248 64.8999 58.688 64.8999 59.216C64.8999 59.752 65.0639 60.196 65.3919 60.548C65.7279 60.892 66.1759 61.064 66.7359 61.064ZM72.1552 67.64L73.6192 64.424H73.2712L70.9192 59.048H72.0112L73.9672 63.656L76.0312 59.048H77.0872L73.2112 67.64H72.1552ZM81.1625 65.144C80.6025 65.144 80.1105 65.04 79.6865 64.832C79.2705 64.616 78.9425 64.324 78.7025 63.956C78.4625 63.588 78.3425 63.168 78.3425 62.696C78.3425 62.168 78.4825 61.72 78.7625 61.352C79.0425 60.984 79.3665 60.728 79.7345 60.584V60.524C79.3825 60.356 79.0985 60.116 78.8825 59.804C78.6745 59.484 78.5705 59.112 78.5705 58.688C78.5705 58.28 78.6745 57.908 78.8825 57.572C79.0985 57.228 79.4025 56.956 79.7945 56.756C80.1865 56.556 80.6425 56.456 81.1625 56.456C81.6745 56.456 82.1225 56.556 82.5065 56.756C82.8985 56.956 83.2025 57.228 83.4185 57.572C83.6425 57.908 83.7545 58.28 83.7545 58.688C83.7545 59.112 83.6465 59.484 83.4305 59.804C83.2225 60.116 82.9425 60.356 82.5905 60.524V60.584C82.9585 60.728 83.2825 60.984 83.5625 61.352C83.8425 61.72 83.9825 62.168 83.9825 62.696C83.9825 63.168 83.8625 63.588 83.6225 63.956C83.3825 64.324 83.0505 64.616 82.6265 64.832C82.2105 65.04 81.7225 65.144 81.1625 65.144ZM81.1625 60.152C81.6585 60.152 82.0465 60.024 82.3265 59.768C82.6145 59.504 82.7585 59.164 82.7585 58.748C82.7585 58.34 82.6145 58.008 82.3265 57.752C82.0465 57.488 81.6585 57.356 81.1625 57.356C80.6665 57.356 80.2745 57.488 79.9865 57.752C79.7065 58.008 79.5665 58.34 79.5665 58.748C79.5665 59.164 79.7065 59.504 79.9865 59.768C80.2745 60.024 80.6665 60.152 81.1625 60.152ZM81.1625 64.232C81.6985 64.232 82.1305 64.096 82.4585 63.824C82.7945 63.544 82.9625 63.14 82.9625 62.612C82.9625 62.092 82.7945 61.696 82.4585 61.424C82.1305 61.144 81.6985 61.004 81.1625 61.004C80.6265 61.004 80.1905 61.144 79.8545 61.424C79.5265 61.696 79.3625 62.092 79.3625 62.612C79.3625 63.14 79.5265 63.544 79.8545 63.824C80.1905 64.096 80.6265 64.232 81.1625 64.232ZM87.8538 65.144C87.3818 65.144 86.9898 65.06 86.6778 64.892C86.3658 64.724 86.1338 64.504 85.9818 64.232C85.8298 63.952 85.7538 63.648 85.7538 63.32C85.7538 62.712 85.9738 62.252 86.4138 61.94C86.8618 61.62 87.4578 61.46 88.2018 61.46H89.8338V61.34C89.8338 60.3 89.3578 59.78 88.4058 59.78C88.0218 59.78 87.6978 59.864 87.4338 60.032C87.1778 60.2 87.0138 60.464 86.9418 60.824H85.9098C85.9498 60.424 86.0818 60.08 86.3058 59.792C86.5378 59.504 86.8338 59.284 87.1938 59.132C87.5538 58.98 87.9578 58.904 88.4058 58.904C89.2538 58.904 89.8698 59.128 90.2538 59.576C90.6458 60.016 90.8418 60.604 90.8418 61.34V65H89.9778L89.8938 64.076H89.8098C89.6338 64.364 89.3978 64.616 89.1018 64.832C88.8138 65.04 88.3978 65.144 87.8538 65.144ZM88.0338 64.256C88.4178 64.256 88.7418 64.164 89.0058 63.98C89.2778 63.796 89.4818 63.552 89.6178 63.248C89.7618 62.944 89.8338 62.612 89.8338 62.252H88.2858C87.7418 62.252 87.3578 62.344 87.1338 62.528C86.9178 62.712 86.8098 62.956 86.8098 63.26C86.8098 63.572 86.9138 63.816 87.1218 63.992C87.3298 64.168 87.6338 64.256 88.0338 64.256ZM95.4091 65.144C94.8971 65.144 94.4411 65.044 94.0411 64.844C93.6491 64.636 93.3331 64.36 93.0931 64.016C92.8611 63.664 92.7251 63.272 92.6851 62.84H93.6571C93.7291 63.264 93.9171 63.604 94.2211 63.86C94.5331 64.108 94.9291 64.232 95.4091 64.232C96.0411 64.232 96.5571 63.948 96.9571 63.38C97.3571 62.804 97.5851 61.908 97.6411 60.692H97.5691C97.3531 61.068 97.0771 61.376 96.7411 61.616C96.4051 61.856 95.9331 61.976 95.3251 61.976C94.8211 61.976 94.3691 61.86 93.9691 61.628C93.5691 61.396 93.2491 61.076 93.0091 60.668C92.7771 60.26 92.6611 59.796 92.6611 59.276C92.6611 58.764 92.7731 58.296 92.9971 57.872C93.2291 57.44 93.5531 57.096 93.9691 56.84C94.3931 56.584 94.8851 56.456 95.4451 56.456C96.5011 56.456 97.2891 56.816 97.8091 57.536C98.3291 58.256 98.5891 59.236 98.5891 60.476C98.5891 61.396 98.4651 62.208 98.2171 62.912C97.9691 63.608 97.6091 64.156 97.1371 64.556C96.6651 64.948 96.0891 65.144 95.4091 65.144ZM95.5171 61.064C96.0771 61.064 96.5251 60.888 96.8611 60.536C97.1971 60.184 97.3651 59.744 97.3651 59.216C97.3651 58.688 97.1971 58.248 96.8611 57.896C96.5251 57.544 96.0771 57.368 95.5171 57.368C94.9571 57.368 94.5091 57.544 94.1731 57.896C93.8451 58.248 93.6811 58.688 93.6811 59.216C93.6811 59.752 93.8451 60.196 94.1731 60.548C94.5091 60.892 94.9571 61.064 95.5171 61.064ZM100.144 65V56.36H101.152V59.948C101.312 59.644 101.576 59.396 101.944 59.204C102.312 59.004 102.716 58.904 103.156 58.904C103.884 58.904 104.436 59.124 104.812 59.564C105.196 60.004 105.388 60.62 105.388 61.412V65H104.38V61.544C104.38 61.008 104.248 60.592 103.984 60.296C103.728 60 103.368 59.852 102.904 59.852C102.584 59.852 102.292 59.924 102.028 60.068C101.764 60.212 101.552 60.424 101.392 60.704C101.232 60.984 101.152 61.328 101.152 61.736V65H100.144ZM106.74 65L109.368 56.6H110.532L113.148 65H112.044L111.432 62.912H108.456L107.844 65H106.74ZM109.92 58.016L108.708 62.072H111.18L109.968 58.016H109.92ZM116.995 65.144C116.483 65.144 116.027 65.044 115.627 64.844C115.235 64.636 114.919 64.36 114.679 64.016C114.447 63.664 114.311 63.272 114.271 62.84H115.243C115.315 63.264 115.503 63.604 115.807 63.86C116.119 64.108 116.515 64.232 116.995 64.232C117.627 64.232 118.143 63.948 118.543 63.38C118.943 62.804 119.171 61.908 119.227 60.692H119.155C118.939 61.068 118.663 61.376 118.327 61.616C117.991 61.856 117.519 61.976 116.911 61.976C116.407 61.976 115.955 61.86 115.555 61.628C115.155 61.396 114.835 61.076 114.595 60.668C114.363 60.26 114.247 59.796 114.247 59.276C114.247 58.764 114.359 58.296 114.583 57.872C114.815 57.44 115.139 57.096 115.555 56.84C115.979 56.584 116.471 56.456 117.031 56.456C118.087 56.456 118.875 56.816 119.395 57.536C119.915 58.256 120.175 59.236 120.175 60.476C120.175 61.396 120.051 62.208 119.803 62.912C119.555 63.608 119.195 64.156 118.723 64.556C118.251 64.948 117.675 65.144 116.995 65.144ZM117.103 61.064C117.663 61.064 118.111 60.888 118.447 60.536C118.783 60.184 118.951 59.744 118.951 59.216C118.951 58.688 118.783 58.248 118.447 57.896C118.111 57.544 117.663 57.368 117.103 57.368C116.543 57.368 116.095 57.544 115.759 57.896C115.431 58.248 115.267 58.688 115.267 59.216C115.267 59.752 115.431 60.196 115.759 60.548C116.095 60.892 116.543 61.064 117.103 61.064ZM124.334 65.144C123.702 65.144 123.142 64.968 122.654 64.616C122.174 64.264 121.798 63.764 121.526 63.116C121.262 62.468 121.13 61.696 121.13 60.8C121.13 59.904 121.262 59.132 121.526 58.484C121.798 57.836 122.174 57.336 122.654 56.984C123.142 56.632 123.702 56.456 124.334 56.456C124.974 56.456 125.534 56.632 126.014 56.984C126.494 57.336 126.866 57.836 127.13 58.484C127.402 59.132 127.538 59.904 127.538 60.8C127.538 61.696 127.402 62.468 127.13 63.116C126.866 63.764 126.494 64.264 126.014 64.616C125.534 64.968 124.974 65.144 124.334 65.144ZM122.162 60.8C122.162 61.344 122.218 61.836 122.33 62.276C122.45 62.708 122.614 63.072 122.822 63.368L125.15 57.596C124.902 57.46 124.63 57.392 124.334 57.392C123.91 57.392 123.534 57.532 123.206 57.812C122.878 58.084 122.622 58.476 122.438 58.988C122.254 59.492 122.162 60.096 122.162 60.8ZM124.334 64.22C124.758 64.22 125.134 64.084 125.462 63.812C125.79 63.532 126.046 63.136 126.23 62.624C126.414 62.112 126.506 61.504 126.506 60.8C126.506 60.256 126.446 59.768 126.326 59.336C126.214 58.896 126.054 58.528 125.846 58.232L123.506 64.016C123.762 64.152 124.038 64.22 124.334 64.22ZM131.422 63.248C131.006 63.248 130.634 63.172 130.306 63.02L129.898 63.512C129.81 63.632 129.786 63.752 129.826 63.872C129.874 63.984 129.99 64.04 130.174 64.04H131.746C132.458 64.04 133.034 64.18 133.474 64.46C133.914 64.732 134.134 65.168 134.134 65.768C134.134 66.128 134.042 66.46 133.858 66.764C133.674 67.068 133.382 67.312 132.982 67.496C132.59 67.688 132.074 67.784 131.434 67.784C130.602 67.784 129.934 67.628 129.43 67.316C128.926 67.004 128.674 66.528 128.674 65.888C128.674 65.656 128.73 65.44 128.842 65.24C128.962 65.048 129.11 64.876 129.286 64.724C129.054 64.58 128.91 64.364 128.854 64.076C128.806 63.788 128.894 63.504 129.118 63.224L129.658 62.552C129.274 62.152 129.082 61.66 129.082 61.076C129.082 60.692 129.174 60.336 129.358 60.008C129.542 59.672 129.806 59.404 130.15 59.204C130.502 59.004 130.926 58.904 131.422 58.904C131.742 58.904 132.038 58.952 132.31 59.048H134.542V59.804L133.426 59.84V59.924C133.634 60.268 133.738 60.652 133.738 61.076C133.738 61.46 133.646 61.82 133.462 62.156C133.286 62.484 133.022 62.748 132.67 62.948C132.326 63.148 131.91 63.248 131.422 63.248ZM131.422 62.384C131.814 62.384 132.134 62.268 132.382 62.036C132.638 61.804 132.766 61.484 132.766 61.076C132.766 60.668 132.638 60.352 132.382 60.128C132.134 59.896 131.814 59.78 131.422 59.78C131.022 59.78 130.694 59.896 130.438 60.128C130.182 60.352 130.054 60.668 130.054 61.076C130.054 61.484 130.182 61.804 130.438 62.036C130.694 62.268 131.022 62.384 131.422 62.384ZM129.67 65.852C129.67 66.204 129.834 66.468 130.162 66.644C130.49 66.82 130.914 66.908 131.434 66.908C131.938 66.908 132.346 66.808 132.658 66.608C132.978 66.408 133.138 66.14 133.138 65.804C133.138 65.54 133.026 65.316 132.802 65.132C132.578 64.956 132.166 64.868 131.566 64.868H130.21C129.85 65.132 129.67 65.46 129.67 65.852ZM138.785 65.144C138.025 65.144 137.409 64.968 136.937 64.616C136.473 64.256 136.213 63.764 136.157 63.14H137.201C137.249 63.468 137.409 63.736 137.681 63.944C137.961 64.152 138.337 64.256 138.809 64.256C139.257 64.256 139.589 64.16 139.805 63.968C140.029 63.776 140.141 63.556 140.141 63.308C140.141 62.972 140.009 62.744 139.745 62.624C139.481 62.496 139.085 62.4 138.557 62.336C137.925 62.264 137.401 62.092 136.985 61.82C136.569 61.548 136.361 61.14 136.361 60.596C136.361 60.108 136.565 59.704 136.973 59.384C137.381 59.064 137.937 58.904 138.641 58.904C139.337 58.904 139.885 59.064 140.285 59.384C140.685 59.696 140.913 60.144 140.969 60.728H139.973C139.949 60.44 139.809 60.212 139.553 60.044C139.305 59.868 138.993 59.78 138.617 59.78C138.225 59.78 137.921 59.856 137.705 60.008C137.489 60.152 137.381 60.344 137.381 60.584C137.381 60.824 137.501 61.024 137.741 61.184C137.989 61.336 138.377 61.436 138.905 61.484C139.321 61.532 139.701 61.612 140.045 61.724C140.389 61.836 140.661 62.012 140.861 62.252C141.069 62.492 141.173 62.828 141.173 63.26C141.181 63.62 141.081 63.944 140.873 64.232C140.673 64.512 140.393 64.736 140.033 64.904C139.673 65.064 139.257 65.144 138.785 65.144ZM145.776 65.144C145.264 65.144 144.808 65.044 144.408 64.844C144.016 64.636 143.7 64.36 143.46 64.016C143.228 63.664 143.092 63.272 143.052 62.84H144.024C144.096 63.264 144.284 63.604 144.588 63.86C144.9 64.108 145.296 64.232 145.776 64.232C146.408 64.232 146.924 63.948 147.324 63.38C147.724 62.804 147.952 61.908 148.008 60.692H147.936C147.72 61.068 147.444 61.376 147.108 61.616C146.772 61.856 146.3 61.976 145.692 61.976C145.188 61.976 144.736 61.86 144.336 61.628C143.936 61.396 143.616 61.076 143.376 60.668C143.144 60.26 143.028 59.796 143.028 59.276C143.028 58.764 143.14 58.296 143.364 57.872C143.596 57.44 143.92 57.096 144.336 56.84C144.76 56.584 145.252 56.456 145.812 56.456C146.868 56.456 147.656 56.816 148.176 57.536C148.696 58.256 148.956 59.236 148.956 60.476C148.956 61.396 148.832 62.208 148.584 62.912C148.336 63.608 147.976 64.156 147.504 64.556C147.032 64.948 146.456 65.144 145.776 65.144ZM145.884 61.064C146.444 61.064 146.892 60.888 147.228 60.536C147.564 60.184 147.732 59.744 147.732 59.216C147.732 58.688 147.564 58.248 147.228 57.896C146.892 57.544 146.444 57.368 145.884 57.368C145.324 57.368 144.876 57.544 144.54 57.896C144.212 58.248 144.048 58.688 144.048 59.216C144.048 59.752 144.212 60.196 144.54 60.548C144.876 60.892 145.324 61.064 145.884 61.064ZM149.912 65L152.54 56.6H153.704L156.32 65H155.216L154.604 62.912H151.628L151.016 65H149.912ZM153.092 58.016L151.88 62.072H154.352L153.14 58.016H153.092ZM160.311 65.144C159.679 65.144 159.119 64.968 158.631 64.616C158.151 64.264 157.775 63.764 157.503 63.116C157.239 62.468 157.107 61.696 157.107 60.8C157.107 59.904 157.239 59.132 157.503 58.484C157.775 57.836 158.151 57.336 158.631 56.984C159.119 56.632 159.679 56.456 160.311 56.456C160.951 56.456 161.511 56.632 161.991 56.984C162.471 57.336 162.843 57.836 163.107 58.484C163.379 59.132 163.515 59.904 163.515 60.8C163.515 61.696 163.379 62.468 163.107 63.116C162.843 63.764 162.471 64.264 161.991 64.616C161.511 64.968 160.951 65.144 160.311 65.144ZM158.139 60.8C158.139 61.344 158.195 61.836 158.307 62.276C158.427 62.708 158.591 63.072 158.799 63.368L161.127 57.596C160.879 57.46 160.607 57.392 160.311 57.392C159.887 57.392 159.511 57.532 159.183 57.812C158.855 58.084 158.599 58.476 158.415 58.988C158.231 59.492 158.139 60.096 158.139 60.8ZM160.311 64.22C160.735 64.22 161.111 64.084 161.439 63.812C161.767 63.532 162.023 63.136 162.207 62.624C162.391 62.112 162.483 61.504 162.483 60.8C162.483 60.256 162.423 59.768 162.303 59.336C162.191 58.896 162.031 58.528 161.823 58.232L159.483 64.016C159.739 64.152 160.015 64.22 160.311 64.22ZM167.506 65.144C166.826 65.144 166.242 64.964 165.754 64.604C165.266 64.244 164.89 63.74 164.626 63.092C164.37 62.436 164.242 61.672 164.242 60.8C164.242 59.928 164.37 59.168 164.626 58.52C164.89 57.864 165.266 57.356 165.754 56.996C166.242 56.636 166.826 56.456 167.506 56.456C168.186 56.456 168.77 56.636 169.258 56.996C169.746 57.356 170.118 57.864 170.374 58.52C170.638 59.168 170.77 59.928 170.77 60.8C170.77 61.672 170.638 62.436 170.374 63.092C170.118 63.74 169.746 64.244 169.258 64.604C168.77 64.964 168.186 65.144 167.506 65.144ZM167.506 64.196C168.17 64.196 168.706 63.9 169.114 63.308C169.53 62.716 169.738 61.88 169.738 60.8C169.738 59.72 169.53 58.884 169.114 58.292C168.706 57.7 168.17 57.404 167.506 57.404C166.834 57.404 166.294 57.7 165.886 58.292C165.478 58.884 165.274 59.72 165.274 60.8C165.274 61.88 165.478 62.716 165.886 63.308C166.294 63.9 166.834 64.196 167.506 64.196ZM172.098 66.08L176.25 55.88H177.306L173.142 66.08H172.098ZM37.5346 79.5V77.256H35.2906V76.344H37.5346V74.1H38.4466V76.344H40.6906V77.256H38.4466V79.5H37.5346ZM45.1859 81.144C44.6259 81.144 44.1339 81.04 43.7099 80.832C43.2939 80.616 42.9659 80.324 42.7259 79.956C42.4859 79.588 42.3659 79.168 42.3659 78.696C42.3659 78.168 42.5059 77.72 42.7859 77.352C43.0659 76.984 43.3899 76.728 43.7579 76.584V76.524C43.4059 76.356 43.1219 76.116 42.9059 75.804C42.6979 75.484 42.5939 75.112 42.5939 74.688C42.5939 74.28 42.6979 73.908 42.9059 73.572C43.1219 73.228 43.4259 72.956 43.8179 72.756C44.2099 72.556 44.6659 72.456 45.1859 72.456C45.6979 72.456 46.1459 72.556 46.5299 72.756C46.9219 72.956 47.2259 73.228 47.4419 73.572C47.6659 73.908 47.7779 74.28 47.7779 74.688C47.7779 75.112 47.6699 75.484 47.4539 75.804C47.2459 76.116 46.9659 76.356 46.6139 76.524V76.584C46.9819 76.728 47.3059 76.984 47.5859 77.352C47.8659 77.72 48.0059 78.168 48.0059 78.696C48.0059 79.168 47.8859 79.588 47.6459 79.956C47.4059 80.324 47.0739 80.616 46.6499 80.832C46.2339 81.04 45.7459 81.144 45.1859 81.144ZM45.1859 76.152C45.6819 76.152 46.0699 76.024 46.3499 75.768C46.6379 75.504 46.7819 75.164 46.7819 74.748C46.7819 74.34 46.6379 74.008 46.3499 73.752C46.0699 73.488 45.6819 73.356 45.1859 73.356C44.6899 73.356 44.2979 73.488 44.0099 73.752C43.7299 74.008 43.5899 74.34 43.5899 74.748C43.5899 75.164 43.7299 75.504 44.0099 75.768C44.2979 76.024 44.6899 76.152 45.1859 76.152ZM45.1859 80.232C45.7219 80.232 46.1539 80.096 46.4819 79.824C46.8179 79.544 46.9859 79.14 46.9859 78.612C46.9859 78.092 46.8179 77.696 46.4819 77.424C46.1539 77.144 45.7219 77.004 45.1859 77.004C44.6499 77.004 44.2139 77.144 43.8779 77.424C43.5499 77.696 43.3859 78.092 43.3859 78.612C43.3859 79.14 43.5499 79.544 43.8779 79.824C44.2139 80.096 44.6499 80.232 45.1859 80.232ZM52.2373 81.144C51.7253 81.144 51.2693 81.044 50.8693 80.844C50.4773 80.636 50.1613 80.36 49.9213 80.016C49.6893 79.664 49.5533 79.272 49.5133 78.84H50.4853C50.5573 79.264 50.7453 79.604 51.0493 79.86C51.3613 80.108 51.7573 80.232 52.2373 80.232C52.8693 80.232 53.3853 79.948 53.7853 79.38C54.1853 78.804 54.4133 77.908 54.4693 76.692H54.3973C54.1813 77.068 53.9053 77.376 53.5693 77.616C53.2333 77.856 52.7613 77.976 52.1533 77.976C51.6493 77.976 51.1973 77.86 50.7973 77.628C50.3973 77.396 50.0773 77.076 49.8373 76.668C49.6053 76.26 49.4893 75.796 49.4893 75.276C49.4893 74.764 49.6013 74.296 49.8253 73.872C50.0573 73.44 50.3813 73.096 50.7973 72.84C51.2213 72.584 51.7133 72.456 52.2733 72.456C53.3293 72.456 54.1173 72.816 54.6373 73.536C55.1573 74.256 55.4173 75.236 55.4173 76.476C55.4173 77.396 55.2933 78.208 55.0453 78.912C54.7973 79.608 54.4373 80.156 53.9653 80.556C53.4933 80.948 52.9173 81.144 52.2373 81.144ZM52.3453 77.064C52.9053 77.064 53.3533 76.888 53.6893 76.536C54.0253 76.184 54.1933 75.744 54.1933 75.216C54.1933 74.688 54.0253 74.248 53.6893 73.896C53.3533 73.544 52.9053 73.368 52.3453 73.368C51.7853 73.368 51.3373 73.544 51.0013 73.896C50.6733 74.248 50.5093 74.688 50.5093 75.216C50.5093 75.752 50.6733 76.196 51.0013 76.548C51.3373 76.892 51.7853 77.064 52.3453 77.064ZM59.6606 81.144C59.0686 81.144 58.5526 81.032 58.1126 80.808C57.6806 80.584 57.3446 80.272 57.1046 79.872C56.8726 79.472 56.7526 79.004 56.7446 78.468H57.8006C57.8086 78.948 57.9686 79.364 58.2806 79.716C58.6006 80.06 59.0606 80.232 59.6606 80.232C60.2126 80.232 60.6366 80.1 60.9326 79.836C61.2366 79.564 61.3886 79.24 61.3886 78.864C61.3886 78.552 61.3166 78.292 61.1726 78.084C61.0286 77.868 60.7926 77.68 60.4646 77.52C60.1446 77.352 59.7126 77.18 59.1686 77.004C58.4006 76.772 57.8406 76.456 57.4886 76.056C57.1366 75.656 56.9606 75.16 56.9606 74.568C56.9606 74.168 57.0646 73.808 57.2726 73.488C57.4806 73.168 57.7806 72.916 58.1726 72.732C58.5646 72.548 59.0406 72.456 59.6006 72.456C60.1286 72.456 60.5886 72.556 60.9806 72.756C61.3806 72.948 61.6886 73.22 61.9046 73.572C62.1286 73.924 62.2406 74.328 62.2406 74.784H61.1846C61.1846 74.56 61.1246 74.34 61.0046 74.124C60.8846 73.908 60.7046 73.728 60.4646 73.584C60.2246 73.44 59.9206 73.368 59.5526 73.368C59.1126 73.368 58.7446 73.476 58.4486 73.692C58.1526 73.9 58.0046 74.188 58.0046 74.556C58.0046 74.836 58.0686 75.072 58.1966 75.264C58.3326 75.456 58.5526 75.632 58.8566 75.792C59.1606 75.944 59.5726 76.108 60.0926 76.284C60.5806 76.444 60.9966 76.632 61.3406 76.848C61.6926 77.056 61.9606 77.316 62.1446 77.628C62.3366 77.94 62.4326 78.328 62.4326 78.792C62.4326 79.248 62.3166 79.652 62.0846 80.004C61.8526 80.356 61.5286 80.636 61.1126 80.844C60.6966 81.044 60.2126 81.144 59.6606 81.144ZM66.7719 81.144C66.1399 81.144 65.5799 80.968 65.0919 80.616C64.6119 80.264 64.2359 79.764 63.9639 79.116C63.6999 78.468 63.5679 77.696 63.5679 76.8C63.5679 75.904 63.6999 75.132 63.9639 74.484C64.2359 73.836 64.6119 73.336 65.0919 72.984C65.5799 72.632 66.1399 72.456 66.7719 72.456C67.4119 72.456 67.9719 72.632 68.4519 72.984C68.9319 73.336 69.3039 73.836 69.5679 74.484C69.8399 75.132 69.9759 75.904 69.9759 76.8C69.9759 77.696 69.8399 78.468 69.5679 79.116C69.3039 79.764 68.9319 80.264 68.4519 80.616C67.9719 80.968 67.4119 81.144 66.7719 81.144ZM64.5999 76.8C64.5999 77.344 64.6559 77.836 64.7679 78.276C64.8879 78.708 65.0519 79.072 65.2599 79.368L67.5879 73.596C67.3399 73.46 67.0679 73.392 66.7719 73.392C66.3479 73.392 65.9719 73.532 65.6439 73.812C65.3159 74.084 65.0599 74.476 64.8759 74.988C64.6919 75.492 64.5999 76.096 64.5999 76.8ZM66.7719 80.22C67.1959 80.22 67.5719 80.084 67.8999 79.812C68.2279 79.532 68.4839 79.136 68.6679 78.624C68.8519 78.112 68.9439 77.504 68.9439 76.8C68.9439 76.256 68.8839 75.768 68.7639 75.336C68.6519 74.896 68.4919 74.528 68.2839 74.232L65.9439 80.016C66.1999 80.152 66.4759 80.22 66.7719 80.22ZM73.9672 81.144C73.4072 81.144 72.9152 81.04 72.4912 80.832C72.0752 80.616 71.7472 80.324 71.5072 79.956C71.2672 79.588 71.1472 79.168 71.1472 78.696C71.1472 78.168 71.2872 77.72 71.5672 77.352C71.8472 76.984 72.1712 76.728 72.5392 76.584V76.524C72.1872 76.356 71.9032 76.116 71.6872 75.804C71.4792 75.484 71.3752 75.112 71.3752 74.688C71.3752 74.28 71.4792 73.908 71.6872 73.572C71.9032 73.228 72.2072 72.956 72.5992 72.756C72.9912 72.556 73.4472 72.456 73.9672 72.456C74.4792 72.456 74.9272 72.556 75.3112 72.756C75.7032 72.956 76.0072 73.228 76.2232 73.572C76.4472 73.908 76.5592 74.28 76.5592 74.688C76.5592 75.112 76.4512 75.484 76.2352 75.804C76.0272 76.116 75.7472 76.356 75.3952 76.524V76.584C75.7632 76.728 76.0872 76.984 76.3672 77.352C76.6472 77.72 76.7872 78.168 76.7872 78.696C76.7872 79.168 76.6672 79.588 76.4272 79.956C76.1872 80.324 75.8552 80.616 75.4312 80.832C75.0152 81.04 74.5272 81.144 73.9672 81.144ZM73.9672 76.152C74.4632 76.152 74.8512 76.024 75.1312 75.768C75.4192 75.504 75.5632 75.164 75.5632 74.748C75.5632 74.34 75.4192 74.008 75.1312 73.752C74.8512 73.488 74.4632 73.356 73.9672 73.356C73.4712 73.356 73.0792 73.488 72.7912 73.752C72.5112 74.008 72.3712 74.34 72.3712 74.748C72.3712 75.164 72.5112 75.504 72.7912 75.768C73.0792 76.024 73.4712 76.152 73.9672 76.152ZM73.9672 80.232C74.5032 80.232 74.9352 80.096 75.2632 79.824C75.5992 79.544 75.7672 79.14 75.7672 78.612C75.7672 78.092 75.5992 77.696 75.2632 77.424C74.9352 77.144 74.5032 77.004 73.9672 77.004C73.4312 77.004 72.9952 77.144 72.6592 77.424C72.3312 77.696 72.1672 78.092 72.1672 78.612C72.1672 79.14 72.3312 79.544 72.6592 79.824C72.9952 80.096 73.4312 80.232 73.9672 80.232ZM78.4385 81L80.4665 78.024L78.3905 75.048H79.5065L81.1625 77.448L82.8185 75.048H83.9345L81.8585 78.024L83.8865 81H82.7705L81.1625 78.588L79.5425 81H78.4385ZM88.4178 81.144C87.6578 81.144 87.0418 80.968 86.5698 80.616C86.1058 80.256 85.8458 79.764 85.7898 79.14H86.8338C86.8818 79.468 87.0418 79.736 87.3138 79.944C87.5938 80.152 87.9698 80.256 88.4418 80.256C88.8898 80.256 89.2218 80.16 89.4378 79.968C89.6618 79.776 89.7738 79.556 89.7738 79.308C89.7738 78.972 89.6418 78.744 89.3778 78.624C89.1138 78.496 88.7178 78.4 88.1898 78.336C87.5578 78.264 87.0338 78.092 86.6178 77.82C86.2018 77.548 85.9938 77.14 85.9938 76.596C85.9938 76.108 86.1978 75.704 86.6058 75.384C87.0138 75.064 87.5698 74.904 88.2738 74.904C88.9698 74.904 89.5178 75.064 89.9178 75.384C90.3178 75.696 90.5458 76.144 90.6018 76.728H89.6058C89.5818 76.44 89.4418 76.212 89.1858 76.044C88.9378 75.868 88.6258 75.78 88.2498 75.78C87.8578 75.78 87.5538 75.856 87.3378 76.008C87.1218 76.152 87.0138 76.344 87.0138 76.584C87.0138 76.824 87.1338 77.024 87.3738 77.184C87.6218 77.336 88.0098 77.436 88.5378 77.484C88.9538 77.532 89.3338 77.612 89.6778 77.724C90.0218 77.836 90.2938 78.012 90.4938 78.252C90.7018 78.492 90.8058 78.828 90.8058 79.26C90.8138 79.62 90.7138 79.944 90.5058 80.232C90.3058 80.512 90.0258 80.736 89.6658 80.904C89.3058 81.064 88.8898 81.144 88.4178 81.144ZM95.0491 81.144C94.5771 81.144 94.1851 81.06 93.8731 80.892C93.5611 80.724 93.3291 80.504 93.1771 80.232C93.0251 79.952 92.9491 79.648 92.9491 79.32C92.9491 78.712 93.1691 78.252 93.6091 77.94C94.0571 77.62 94.6531 77.46 95.3971 77.46H97.0291V77.34C97.0291 76.3 96.5531 75.78 95.6011 75.78C95.2171 75.78 94.8931 75.864 94.6291 76.032C94.3731 76.2 94.2091 76.464 94.1371 76.824H93.1051C93.1451 76.424 93.2771 76.08 93.5011 75.792C93.7331 75.504 94.0291 75.284 94.3891 75.132C94.7491 74.98 95.1531 74.904 95.6011 74.904C96.4491 74.904 97.0651 75.128 97.4491 75.576C97.8411 76.016 98.0371 76.604 98.0371 77.34V81H97.1731L97.0891 80.076H97.0051C96.8291 80.364 96.5931 80.616 96.2971 80.832C96.0091 81.04 95.5931 81.144 95.0491 81.144ZM95.2291 80.256C95.6131 80.256 95.9371 80.164 96.2011 79.98C96.4731 79.796 96.6771 79.552 96.8131 79.248C96.9571 78.944 97.0291 78.612 97.0291 78.252H95.4811C94.9371 78.252 94.5531 78.344 94.3291 78.528C94.1131 78.712 94.0051 78.956 94.0051 79.26C94.0051 79.572 94.1091 79.816 94.3171 79.992C94.5251 80.168 94.8291 80.256 95.2291 80.256ZM102.808 81.144C102.048 81.144 101.432 80.968 100.96 80.616C100.496 80.256 100.236 79.764 100.18 79.14H101.224C101.272 79.468 101.432 79.736 101.704 79.944C101.984 80.152 102.36 80.256 102.832 80.256C103.28 80.256 103.612 80.16 103.828 79.968C104.052 79.776 104.164 79.556 104.164 79.308C104.164 78.972 104.032 78.744 103.768 78.624C103.504 78.496 103.108 78.4 102.58 78.336C101.948 78.264 101.424 78.092 101.008 77.82C100.592 77.548 100.384 77.14 100.384 76.596C100.384 76.108 100.588 75.704 100.996 75.384C101.404 75.064 101.96 74.904 102.664 74.904C103.36 74.904 103.908 75.064 104.308 75.384C104.708 75.696 104.936 76.144 104.992 76.728H103.996C103.972 76.44 103.832 76.212 103.576 76.044C103.328 75.868 103.016 75.78 102.64 75.78C102.248 75.78 101.944 75.856 101.728 76.008C101.512 76.152 101.404 76.344 101.404 76.584C101.404 76.824 101.524 77.024 101.764 77.184C102.012 77.336 102.4 77.436 102.928 77.484C103.344 77.532 103.724 77.612 104.068 77.724C104.412 77.836 104.684 78.012 104.884 78.252C105.092 78.492 105.196 78.828 105.196 79.26C105.204 79.62 105.104 79.944 104.896 80.232C104.696 80.512 104.416 80.736 104.056 80.904C103.696 81.064 103.28 81.144 102.808 81.144ZM109.944 81.144C109.312 81.144 108.752 80.968 108.264 80.616C107.784 80.264 107.408 79.764 107.136 79.116C106.872 78.468 106.74 77.696 106.74 76.8C106.74 75.904 106.872 75.132 107.136 74.484C107.408 73.836 107.784 73.336 108.264 72.984C108.752 72.632 109.312 72.456 109.944 72.456C110.584 72.456 111.144 72.632 111.624 72.984C112.104 73.336 112.476 73.836 112.74 74.484C113.012 75.132 113.148 75.904 113.148 76.8C113.148 77.696 113.012 78.468 112.74 79.116C112.476 79.764 112.104 80.264 111.624 80.616C111.144 80.968 110.584 81.144 109.944 81.144ZM107.772 76.8C107.772 77.344 107.828 77.836 107.94 78.276C108.06 78.708 108.224 79.072 108.432 79.368L110.76 73.596C110.512 73.46 110.24 73.392 109.944 73.392C109.52 73.392 109.144 73.532 108.816 73.812C108.488 74.084 108.232 74.476 108.048 74.988C107.864 75.492 107.772 76.096 107.772 76.8ZM109.944 80.22C110.368 80.22 110.744 80.084 111.072 79.812C111.4 79.532 111.656 79.136 111.84 78.624C112.024 78.112 112.116 77.504 112.116 76.8C112.116 76.256 112.056 75.768 111.936 75.336C111.824 74.896 111.664 74.528 111.456 74.232L109.116 80.016C109.372 80.152 109.648 80.22 109.944 80.22ZM117.223 81.144C116.631 81.144 116.115 81.032 115.675 80.808C115.243 80.584 114.907 80.272 114.667 79.872C114.435 79.472 114.315 79.004 114.307 78.468H115.363C115.371 78.948 115.531 79.364 115.843 79.716C116.163 80.06 116.623 80.232 117.223 80.232C117.775 80.232 118.199 80.1 118.495 79.836C118.799 79.564 118.951 79.24 118.951 78.864C118.951 78.552 118.879 78.292 118.735 78.084C118.591 77.868 118.355 77.68 118.027 77.52C117.707 77.352 117.275 77.18 116.731 77.004C115.963 76.772 115.403 76.456 115.051 76.056C114.699 75.656 114.523 75.16 114.523 74.568C114.523 74.168 114.627 73.808 114.835 73.488C115.043 73.168 115.343 72.916 115.735 72.732C116.127 72.548 116.603 72.456 117.163 72.456C117.691 72.456 118.151 72.556 118.543 72.756C118.943 72.948 119.251 73.22 119.467 73.572C119.691 73.924 119.803 74.328 119.803 74.784H118.747C118.747 74.56 118.687 74.34 118.567 74.124C118.447 73.908 118.267 73.728 118.027 73.584C117.787 73.44 117.483 73.368 117.115 73.368C116.675 73.368 116.307 73.476 116.011 73.692C115.715 73.9 115.567 74.188 115.567 74.556C115.567 74.836 115.631 75.072 115.759 75.264C115.895 75.456 116.115 75.632 116.419 75.792C116.723 75.944 117.135 76.108 117.655 76.284C118.143 76.444 118.559 76.632 118.903 76.848C119.255 77.056 119.523 77.316 119.707 77.628C119.899 77.94 119.995 78.328 119.995 78.792C119.995 79.248 119.879 79.652 119.647 80.004C119.415 80.356 119.091 80.636 118.675 80.844C118.259 81.044 117.775 81.144 117.223 81.144ZM124.334 81.144C123.702 81.144 123.142 80.968 122.654 80.616C122.174 80.264 121.798 79.764 121.526 79.116C121.262 78.468 121.13 77.696 121.13 76.8C121.13 75.904 121.262 75.132 121.526 74.484C121.798 73.836 122.174 73.336 122.654 72.984C123.142 72.632 123.702 72.456 124.334 72.456C124.974 72.456 125.534 72.632 126.014 72.984C126.494 73.336 126.866 73.836 127.13 74.484C127.402 75.132 127.538 75.904 127.538 76.8C127.538 77.696 127.402 78.468 127.13 79.116C126.866 79.764 126.494 80.264 126.014 80.616C125.534 80.968 124.974 81.144 124.334 81.144ZM122.162 76.8C122.162 77.344 122.218 77.836 122.33 78.276C122.45 78.708 122.614 79.072 122.822 79.368L125.15 73.596C124.902 73.46 124.63 73.392 124.334 73.392C123.91 73.392 123.534 73.532 123.206 73.812C122.878 74.084 122.622 74.476 122.438 74.988C122.254 75.492 122.162 76.096 122.162 76.8ZM124.334 80.22C124.758 80.22 125.134 80.084 125.462 79.812C125.79 79.532 126.046 79.136 126.23 78.624C126.414 78.112 126.506 77.504 126.506 76.8C126.506 76.256 126.446 75.768 126.326 75.336C126.214 74.896 126.054 74.528 125.846 74.232L123.506 80.016C123.762 80.152 124.038 80.22 124.334 80.22ZM131.59 81.144C130.83 81.144 130.214 80.968 129.742 80.616C129.278 80.256 129.018 79.764 128.962 79.14H130.006C130.054 79.468 130.214 79.736 130.486 79.944C130.766 80.152 131.142 80.256 131.614 80.256C132.062 80.256 132.394 80.16 132.61 79.968C132.834 79.776 132.946 79.556 132.946 79.308C132.946 78.972 132.814 78.744 132.55 78.624C132.286 78.496 131.89 78.4 131.362 78.336C130.73 78.264 130.206 78.092 129.79 77.82C129.374 77.548 129.166 77.14 129.166 76.596C129.166 76.108 129.37 75.704 129.778 75.384C130.186 75.064 130.742 74.904 131.446 74.904C132.142 74.904 132.69 75.064 133.09 75.384C133.49 75.696 133.718 76.144 133.774 76.728H132.778C132.754 76.44 132.614 76.212 132.358 76.044C132.11 75.868 131.798 75.78 131.422 75.78C131.03 75.78 130.726 75.856 130.51 76.008C130.294 76.152 130.186 76.344 130.186 76.584C130.186 76.824 130.306 77.024 130.546 77.184C130.794 77.336 131.182 77.436 131.71 77.484C132.126 77.532 132.506 77.612 132.85 77.724C133.194 77.836 133.466 78.012 133.666 78.252C133.874 78.492 133.978 78.828 133.978 79.26C133.986 79.62 133.886 79.944 133.678 80.232C133.478 80.512 133.198 80.736 132.838 80.904C132.478 81.064 132.062 81.144 131.59 81.144ZM138.713 81.144C138.153 81.144 137.653 81.028 137.213 80.796C136.781 80.564 136.437 80.212 136.181 79.74C135.933 79.26 135.809 78.66 135.809 77.94V72.6H136.817V77.976C136.817 78.696 136.993 79.252 137.345 79.644C137.697 80.036 138.161 80.232 138.737 80.232C139.313 80.232 139.773 80.036 140.117 79.644C140.461 79.252 140.633 78.696 140.633 77.976V72.6H141.641V77.94C141.641 78.66 141.513 79.26 141.257 79.74C141.001 80.212 140.653 80.564 140.213 80.796C139.773 81.028 139.273 81.144 138.713 81.144ZM145.776 81.144C145.264 81.144 144.808 81.044 144.408 80.844C144.016 80.636 143.7 80.36 143.46 80.016C143.228 79.664 143.092 79.272 143.052 78.84H144.024C144.096 79.264 144.284 79.604 144.588 79.86C144.9 80.108 145.296 80.232 145.776 80.232C146.408 80.232 146.924 79.948 147.324 79.38C147.724 78.804 147.952 77.908 148.008 76.692H147.936C147.72 77.068 147.444 77.376 147.108 77.616C146.772 77.856 146.3 77.976 145.692 77.976C145.188 77.976 144.736 77.86 144.336 77.628C143.936 77.396 143.616 77.076 143.376 76.668C143.144 76.26 143.028 75.796 143.028 75.276C143.028 74.764 143.14 74.296 143.364 73.872C143.596 73.44 143.92 73.096 144.336 72.84C144.76 72.584 145.252 72.456 145.812 72.456C146.868 72.456 147.656 72.816 148.176 73.536C148.696 74.256 148.956 75.236 148.956 76.476C148.956 77.396 148.832 78.208 148.584 78.912C148.336 79.608 147.976 80.156 147.504 80.556C147.032 80.948 146.456 81.144 145.776 81.144ZM145.884 77.064C146.444 77.064 146.892 76.888 147.228 76.536C147.564 76.184 147.732 75.744 147.732 75.216C147.732 74.688 147.564 74.248 147.228 73.896C146.892 73.544 146.444 73.368 145.884 73.368C145.324 73.368 144.876 73.544 144.54 73.896C144.212 74.248 144.048 74.688 144.048 75.216C144.048 75.752 144.212 76.196 144.54 76.548C144.876 76.892 145.324 77.064 145.884 77.064ZM153.2 81.144C152.608 81.144 152.092 81.032 151.652 80.808C151.22 80.584 150.884 80.272 150.644 79.872C150.412 79.472 150.292 79.004 150.284 78.468H151.34C151.348 78.948 151.508 79.364 151.82 79.716C152.14 80.06 152.6 80.232 153.2 80.232C153.752 80.232 154.176 80.1 154.472 79.836C154.776 79.564 154.928 79.24 154.928 78.864C154.928 78.552 154.856 78.292 154.712 78.084C154.568 77.868 154.332 77.68 154.004 77.52C153.684 77.352 153.252 77.18 152.708 77.004C151.94 76.772 151.38 76.456 151.028 76.056C150.676 75.656 150.5 75.16 150.5 74.568C150.5 74.168 150.604 73.808 150.812 73.488C151.02 73.168 151.32 72.916 151.712 72.732C152.104 72.548 152.58 72.456 153.14 72.456C153.668 72.456 154.128 72.556 154.52 72.756C154.92 72.948 155.228 73.22 155.444 73.572C155.668 73.924 155.78 74.328 155.78 74.784H154.724C154.724 74.56 154.664 74.34 154.544 74.124C154.424 73.908 154.244 73.728 154.004 73.584C153.764 73.44 153.46 73.368 153.092 73.368C152.652 73.368 152.284 73.476 151.988 73.692C151.692 73.9 151.544 74.188 151.544 74.556C151.544 74.836 151.608 75.072 151.736 75.264C151.872 75.456 152.092 75.632 152.396 75.792C152.7 75.944 153.112 76.108 153.632 76.284C154.12 76.444 154.536 76.632 154.88 76.848C155.232 77.056 155.5 77.316 155.684 77.628C155.876 77.94 155.972 78.328 155.972 78.792C155.972 79.248 155.856 79.652 155.624 80.004C155.392 80.356 155.068 80.636 154.652 80.844C154.236 81.044 153.752 81.144 153.2 81.144ZM160.311 81.024C160.063 81.024 159.851 80.94 159.675 80.772C159.499 80.604 159.411 80.396 159.411 80.148C159.411 79.908 159.499 79.704 159.675 79.536C159.851 79.368 160.063 79.284 160.311 79.284C160.559 79.284 160.771 79.368 160.947 79.536C161.123 79.704 161.211 79.908 161.211 80.148C161.211 80.396 161.123 80.604 160.947 80.772C160.771 80.94 160.559 81.024 160.311 81.024ZM167.506 81.024C167.258 81.024 167.046 80.94 166.87 80.772C166.694 80.604 166.606 80.396 166.606 80.148C166.606 79.908 166.694 79.704 166.87 79.536C167.046 79.368 167.258 79.284 167.506 79.284C167.754 79.284 167.966 79.368 168.142 79.536C168.318 79.704 168.406 79.908 168.406 80.148C168.406 80.396 168.318 80.604 168.142 80.772C167.966 80.94 167.754 81.024 167.506 81.024ZM174.702 81.024C174.454 81.024 174.242 80.94 174.066 80.772C173.89 80.604 173.802 80.396 173.802 80.148C173.802 79.908 173.89 79.704 174.066 79.536C174.242 79.368 174.454 79.284 174.702 79.284C174.95 79.284 175.162 79.368 175.338 79.536C175.514 79.704 175.602 79.908 175.602 80.148C175.602 80.396 175.514 80.604 175.338 80.772C175.162 80.94 174.95 81.024 174.702 81.024ZM21.62 93.232V92.368H25.58V93.232H21.62ZM28.8153 93.232V92.368H32.7753V93.232H28.8153ZM36.0106 93.232V92.368H39.9706V93.232H36.0106ZM43.2059 93.232V92.368H47.1659V93.232H43.2059ZM50.4013 93.232V92.368H54.3613V93.232H50.4013ZM57.0086 97V88.6H62.2526V89.512H58.0166V92.308H61.8926V93.22H58.0166V96.088H62.2526V97H57.0086ZM63.8559 97V88.6H64.8879L68.7039 95.236V88.6H69.6999V97H68.6559L64.8399 90.364V97H63.8559ZM71.1592 97V88.6H72.9232C74.2992 88.6 75.3152 88.976 75.9712 89.728C76.6352 90.48 76.9672 91.504 76.9672 92.8C76.9672 94.096 76.6352 95.12 75.9712 95.872C75.3152 96.624 74.2992 97 72.9232 97H71.1592ZM72.1672 96.076H72.8992C73.6352 96.076 74.2232 95.94 74.6632 95.668C75.1112 95.396 75.4352 95.016 75.6352 94.528C75.8352 94.04 75.9352 93.464 75.9352 92.8C75.9352 92.136 75.8352 91.56 75.6352 91.072C75.4352 90.584 75.1112 90.204 74.6632 89.932C74.2232 89.66 73.6352 89.524 72.8992 89.524H72.1672V96.076ZM85.6458 97V88.6H88.4418C89.0818 88.6 89.6058 88.716 90.0138 88.948C90.4218 89.18 90.7218 89.488 90.9138 89.872C91.1058 90.256 91.2018 90.68 91.2018 91.144C91.2018 91.608 91.1058 92.032 90.9138 92.416C90.7218 92.8 90.4218 93.108 90.0138 93.34C89.6058 93.572 89.0818 93.688 88.4418 93.688H86.6538V97H85.6458ZM86.6538 92.764H88.4178C89.0098 92.764 89.4498 92.616 89.7378 92.32C90.0258 92.016 90.1698 91.624 90.1698 91.144C90.1698 90.664 90.0258 90.272 89.7378 89.968C89.4498 89.664 89.0098 89.512 88.4178 89.512H86.6538V92.764ZM95.4691 97.144C94.8771 97.144 94.3491 96.972 93.8851 96.628C93.4211 96.276 93.0571 95.776 92.7931 95.128C92.5371 94.48 92.4091 93.704 92.4091 92.8C92.4091 91.904 92.5411 91.132 92.8051 90.484C93.0691 89.836 93.4411 89.336 93.9211 88.984C94.4091 88.632 94.9851 88.456 95.6491 88.456C96.4411 88.456 97.0851 88.688 97.5811 89.152C98.0851 89.616 98.3851 90.24 98.4811 91.024H97.3651C97.2851 90.544 97.0971 90.156 96.8011 89.86C96.5131 89.556 96.1291 89.404 95.6491 89.404C94.9611 89.404 94.4211 89.704 94.0291 90.304C93.6371 90.904 93.4411 91.736 93.4411 92.8C93.4411 93.88 93.6371 94.716 94.0291 95.308C94.4211 95.9 94.9291 96.196 95.5531 96.196C96.0011 96.196 96.3691 96.064 96.6571 95.8C96.9451 95.528 97.1611 95.184 97.3051 94.768C97.4571 94.344 97.5411 93.908 97.5571 93.46H95.6851V92.596H98.5891V97H97.6651L97.5811 95.728H97.5331C97.3651 96.16 97.1171 96.504 96.7891 96.76C96.4691 97.016 96.0291 97.144 95.4691 97.144ZM100.036 97V88.6H102.832C103.472 88.6 103.996 88.716 104.404 88.948C104.812 89.18 105.112 89.488 105.304 89.872C105.496 90.256 105.592 90.68 105.592 91.144C105.592 91.608 105.496 92.032 105.304 92.416C105.112 92.8 104.812 93.108 104.404 93.34C103.996 93.572 103.472 93.688 102.832 93.688H101.044V97H100.036ZM101.044 92.764H102.808C103.4 92.764 103.84 92.616 104.128 92.32C104.416 92.016 104.56 91.624 104.56 91.144C104.56 90.664 104.416 90.272 104.128 89.968C103.84 89.664 103.4 89.512 102.808 89.512H101.044V92.764ZM114.139 97V88.6H115.219L117.139 92.596L119.059 88.6H120.139V97H119.155V90.544L117.523 93.94H116.755L115.123 90.556V97H114.139ZM121.766 97V88.6H127.01V89.512H122.774V92.308H126.65V93.22H122.774V96.088H127.01V97H121.766ZM131.614 97.144C131.022 97.144 130.506 97.032 130.066 96.808C129.634 96.584 129.298 96.272 129.058 95.872C128.826 95.472 128.706 95.004 128.698 94.468H129.754C129.762 94.948 129.922 95.364 130.234 95.716C130.554 96.06 131.014 96.232 131.614 96.232C132.166 96.232 132.59 96.1 132.886 95.836C133.19 95.564 133.342 95.24 133.342 94.864C133.342 94.552 133.27 94.292 133.126 94.084C132.982 93.868 132.746 93.68 132.418 93.52C132.098 93.352 131.666 93.18 131.122 93.004C130.354 92.772 129.794 92.456 129.442 92.056C129.09 91.656 128.914 91.16 128.914 90.568C128.914 90.168 129.018 89.808 129.226 89.488C129.434 89.168 129.734 88.916 130.126 88.732C130.518 88.548 130.994 88.456 131.554 88.456C132.082 88.456 132.542 88.556 132.934 88.756C133.334 88.948 133.642 89.22 133.858 89.572C134.082 89.924 134.194 90.328 134.194 90.784H133.138C133.138 90.56 133.078 90.34 132.958 90.124C132.838 89.908 132.658 89.728 132.418 89.584C132.178 89.44 131.874 89.368 131.506 89.368C131.066 89.368 130.698 89.476 130.402 89.692C130.106 89.9 129.958 90.188 129.958 90.556C129.958 90.836 130.022 91.072 130.15 91.264C130.286 91.456 130.506 91.632 130.81 91.792C131.114 91.944 131.526 92.108 132.046 92.284C132.534 92.444 132.95 92.632 133.294 92.848C133.646 93.056 133.914 93.316 134.098 93.628C134.29 93.94 134.386 94.328 134.386 94.792C134.386 95.248 134.27 95.652 134.038 96.004C133.806 96.356 133.482 96.636 133.066 96.844C132.65 97.044 132.166 97.144 131.614 97.144ZM138.809 97.144C138.217 97.144 137.701 97.032 137.261 96.808C136.829 96.584 136.493 96.272 136.253 95.872C136.021 95.472 135.901 95.004 135.893 94.468H136.949C136.957 94.948 137.117 95.364 137.429 95.716C137.749 96.06 138.209 96.232 138.809 96.232C139.361 96.232 139.785 96.1 140.081 95.836C140.385 95.564 140.537 95.24 140.537 94.864C140.537 94.552 140.465 94.292 140.321 94.084C140.177 93.868 139.941 93.68 139.613 93.52C139.293 93.352 138.861 93.18 138.317 93.004C137.549 92.772 136.989 92.456 136.637 92.056C136.285 91.656 136.109 91.16 136.109 90.568C136.109 90.168 136.213 89.808 136.421 89.488C136.629 89.168 136.929 88.916 137.321 88.732C137.713 88.548 138.189 88.456 138.749 88.456C139.277 88.456 139.737 88.556 140.129 88.756C140.529 88.948 140.837 89.22 141.053 89.572C141.277 89.924 141.389 90.328 141.389 90.784H140.333C140.333 90.56 140.273 90.34 140.153 90.124C140.033 89.908 139.853 89.728 139.613 89.584C139.373 89.44 139.069 89.368 138.701 89.368C138.261 89.368 137.893 89.476 137.597 89.692C137.301 89.9 137.153 90.188 137.153 90.556C137.153 90.836 137.217 91.072 137.345 91.264C137.481 91.456 137.701 91.632 138.005 91.792C138.309 91.944 138.721 92.108 139.241 92.284C139.729 92.444 140.145 92.632 140.489 92.848C140.841 93.056 141.109 93.316 141.293 93.628C141.485 93.94 141.581 94.328 141.581 94.792C141.581 95.248 141.465 95.652 141.233 96.004C141.001 96.356 140.677 96.636 140.261 96.844C139.845 97.044 139.361 97.144 138.809 97.144ZM142.716 97L145.344 88.6H146.508L149.124 97H148.02L147.408 94.912H144.432L143.82 97H142.716ZM145.896 90.016L144.684 94.072H147.156L145.944 90.016H145.896ZM153.032 97.144C152.44 97.144 151.912 96.972 151.448 96.628C150.984 96.276 150.62 95.776 150.356 95.128C150.1 94.48 149.972 93.704 149.972 92.8C149.972 91.904 150.104 91.132 150.368 90.484C150.632 89.836 151.004 89.336 151.484 88.984C151.972 88.632 152.548 88.456 153.212 88.456C154.004 88.456 154.648 88.688 155.144 89.152C155.648 89.616 155.948 90.24 156.044 91.024H154.928C154.848 90.544 154.66 90.156 154.364 89.86C154.076 89.556 153.692 89.404 153.212 89.404C152.524 89.404 151.984 89.704 151.592 90.304C151.2 90.904 151.004 91.736 151.004 92.8C151.004 93.88 151.2 94.716 151.592 95.308C151.984 95.9 152.492 96.196 153.116 96.196C153.564 96.196 153.932 96.064 154.22 95.8C154.508 95.528 154.724 95.184 154.868 94.768C155.02 94.344 155.104 93.908 155.12 93.46H153.248V92.596H156.152V97H155.228L155.144 95.728H155.096C154.928 96.16 154.68 96.504 154.352 96.76C154.032 97.016 153.592 97.144 153.032 97.144ZM157.743 97V88.6H162.987V89.512H158.751V92.308H162.627V93.22H158.751V96.088H162.987V97H157.743ZM165.526 93.232V92.368H169.486V93.232H165.526ZM172.722 93.232V92.368H176.682V93.232H172.722ZM179.917 93.232V92.368H183.877V93.232H179.917ZM187.112 93.232V92.368H191.072V93.232H187.112ZM194.308 93.232V92.368H198.268V93.232H194.308Z" fill="white"/>
<path d="M72.9174 22V21.343H74.3484V16.357H72.9174V15.7H76.5354V16.357H75.1044V21.343H76.5354V22H72.9174ZM78.0889 22V15.7H80.1859C80.6659 15.7 81.0589 15.787 81.3649 15.961C81.6709 16.135 81.8959 16.366 82.0399 16.654C82.1839 16.942 82.2559 17.26 82.2559 17.608C82.2559 17.956 82.1839 18.274 82.0399 18.562C81.8959 18.85 81.6709 19.081 81.3649 19.255C81.0589 19.429 80.6659 19.516 80.1859 19.516H78.8449V22H78.0889ZM78.8449 18.823H80.1679C80.6119 18.823 80.9419 18.712 81.1579 18.49C81.3739 18.262 81.4819 17.968 81.4819 17.608C81.4819 17.248 81.3739 16.954 81.1579 16.726C80.9419 16.498 80.6119 16.384 80.1679 16.384H78.8449V18.823ZM88.8818 22V21.406C89.5298 20.89 90.0938 20.416 90.5738 19.984C91.0598 19.552 91.4348 19.135 91.6988 18.733C91.9628 18.331 92.0948 17.92 92.0948 17.5C92.0948 17.122 91.9868 16.825 91.7708 16.609C91.5608 16.387 91.2758 16.276 90.9158 16.276C90.6398 16.276 90.4058 16.336 90.2138 16.456C90.0218 16.576 89.8778 16.735 89.7818 16.933C89.6858 17.131 89.6378 17.344 89.6378 17.572H88.8908C88.8968 17.158 88.9868 16.804 89.1608 16.51C89.3408 16.21 89.5808 15.982 89.8808 15.826C90.1868 15.67 90.5318 15.592 90.9158 15.592C91.5338 15.592 92.0138 15.763 92.3558 16.105C92.6978 16.447 92.8688 16.906 92.8688 17.482C92.8688 17.86 92.7878 18.223 92.6258 18.571C92.4638 18.913 92.2478 19.243 91.9778 19.561C91.7078 19.879 91.4048 20.185 91.0688 20.479C90.7328 20.773 90.3938 21.055 90.0518 21.325H93.0398V22H88.8818ZM96.3933 22.108C95.9793 22.108 95.6073 22.033 95.2773 21.883C94.9533 21.727 94.6923 21.502 94.4943 21.208C94.2963 20.914 94.1883 20.554 94.1703 20.128H94.9443C94.9563 20.488 95.0883 20.794 95.3403 21.046C95.5923 21.292 95.9433 21.415 96.3933 21.415C96.8313 21.415 97.1703 21.304 97.4103 21.082C97.6503 20.854 97.7703 20.545 97.7703 20.155C97.7703 19.885 97.7013 19.663 97.5633 19.489C97.4253 19.309 97.2393 19.177 97.0053 19.093C96.7773 19.003 96.5223 18.958 96.2403 18.958H95.6913V18.274H96.1683C96.5763 18.274 96.9003 18.187 97.1403 18.013C97.3863 17.839 97.5093 17.584 97.5093 17.248C97.5093 16.966 97.4103 16.735 97.2123 16.555C97.0203 16.375 96.7443 16.285 96.3843 16.285C96.0363 16.285 95.7543 16.384 95.5383 16.582C95.3223 16.774 95.1993 17.026 95.1693 17.338H94.4133C94.4253 16.996 94.5153 16.696 94.6833 16.438C94.8513 16.174 95.0793 15.967 95.3673 15.817C95.6613 15.667 96.0003 15.592 96.3843 15.592C96.7983 15.592 97.1433 15.664 97.4193 15.808C97.7013 15.952 97.9143 16.147 98.0583 16.393C98.2023 16.633 98.2743 16.9 98.2743 17.194C98.2743 17.506 98.1783 17.782 97.9863 18.022C97.7943 18.256 97.5663 18.421 97.3023 18.517V18.571C97.6563 18.679 97.9503 18.862 98.1843 19.12C98.4183 19.378 98.5353 19.723 98.5353 20.155C98.5353 20.521 98.4483 20.851 98.2743 21.145C98.1063 21.439 97.8603 21.673 97.5363 21.847C97.2183 22.021 96.8373 22.108 96.3933 22.108ZM101.709 22.018C101.523 22.018 101.364 21.955 101.232 21.829C101.1 21.703 101.034 21.547 101.034 21.361C101.034 21.181 101.1 21.028 101.232 20.902C101.364 20.776 101.523 20.713 101.709 20.713C101.895 20.713 102.054 20.776 102.186 20.902C102.318 21.028 102.384 21.181 102.384 21.361C102.384 21.547 102.318 21.703 102.186 21.829C102.054 21.955 101.895 22.018 101.709 22.018ZM105.035 22V21.316H106.664V16.591L105.125 16.888V16.312L106.916 15.7H107.42V21.316H109.139V22H105.035ZM112.502 22.108C112.082 22.108 111.713 22.03 111.395 21.874C111.083 21.712 110.837 21.493 110.657 21.217C110.477 20.941 110.387 20.626 110.387 20.272C110.387 19.876 110.492 19.54 110.702 19.264C110.912 18.988 111.155 18.796 111.431 18.688V18.643C111.167 18.517 110.954 18.337 110.792 18.103C110.636 17.863 110.558 17.584 110.558 17.266C110.558 16.96 110.636 16.681 110.792 16.429C110.954 16.171 111.182 15.967 111.476 15.817C111.77 15.667 112.112 15.592 112.502 15.592C112.886 15.592 113.222 15.667 113.51 15.817C113.804 15.967 114.032 16.171 114.194 16.429C114.362 16.681 114.446 16.96 114.446 17.266C114.446 17.584 114.365 17.863 114.203 18.103C114.047 18.337 113.837 18.517 113.573 18.643V18.688C113.849 18.796 114.092 18.988 114.302 19.264C114.512 19.54 114.617 19.876 114.617 20.272C114.617 20.626 114.527 20.941 114.347 21.217C114.167 21.493 113.918 21.712 113.6 21.874C113.288 22.03 112.922 22.108 112.502 22.108ZM112.502 18.364C112.874 18.364 113.165 18.268 113.375 18.076C113.591 17.878 113.699 17.623 113.699 17.311C113.699 17.005 113.591 16.756 113.375 16.564C113.165 16.366 112.874 16.267 112.502 16.267C112.13 16.267 111.836 16.366 111.62 16.564C111.41 16.756 111.305 17.005 111.305 17.311C111.305 17.623 111.41 17.878 111.62 18.076C111.836 18.268 112.13 18.364 112.502 18.364ZM112.502 21.424C112.904 21.424 113.228 21.322 113.474 21.118C113.726 20.908 113.852 20.605 113.852 20.209C113.852 19.819 113.726 19.522 113.474 19.318C113.228 19.108 112.904 19.003 112.502 19.003C112.1 19.003 111.773 19.108 111.521 19.318C111.275 19.522 111.152 19.819 111.152 20.209C111.152 20.605 111.275 20.908 111.521 21.118C111.773 21.322 112.1 21.424 112.502 21.424ZM115.864 22V21.406C116.512 20.89 117.076 20.416 117.556 19.984C118.042 19.552 118.417 19.135 118.681 18.733C118.945 18.331 119.077 17.92 119.077 17.5C119.077 17.122 118.969 16.825 118.753 16.609C118.543 16.387 118.258 16.276 117.898 16.276C117.622 16.276 117.388 16.336 117.196 16.456C117.004 16.576 116.86 16.735 116.764 16.933C116.668 17.131 116.62 17.344 116.62 17.572H115.873C115.879 17.158 115.969 16.804 116.143 16.51C116.323 16.21 116.563 15.982 116.863 15.826C117.169 15.67 117.514 15.592 117.898 15.592C118.516 15.592 118.996 15.763 119.338 16.105C119.68 16.447 119.851 16.906 119.851 17.482C119.851 17.86 119.77 18.223 119.608 18.571C119.446 18.913 119.23 19.243 118.96 19.561C118.69 19.879 118.387 20.185 118.051 20.479C117.715 20.773 117.376 21.055 117.034 21.325H120.022V22H115.864ZM123.295 22.018C123.109 22.018 122.95 21.955 122.818 21.829C122.686 21.703 122.62 21.547 122.62 21.361C122.62 21.181 122.686 21.028 122.818 20.902C122.95 20.776 123.109 20.713 123.295 20.713C123.481 20.713 123.64 20.776 123.772 20.902C123.904 21.028 123.97 21.181 123.97 21.361C123.97 21.547 123.904 21.703 123.772 21.829C123.64 21.955 123.481 22.018 123.295 22.018ZM128.691 22.108C128.271 22.108 127.902 22.03 127.584 21.874C127.272 21.712 127.026 21.493 126.846 21.217C126.666 20.941 126.576 20.626 126.576 20.272C126.576 19.876 126.681 19.54 126.891 19.264C127.101 18.988 127.344 18.796 127.62 18.688V18.643C127.356 18.517 127.143 18.337 126.981 18.103C126.825 17.863 126.747 17.584 126.747 17.266C126.747 16.96 126.825 16.681 126.981 16.429C127.143 16.171 127.371 15.967 127.665 15.817C127.959 15.667 128.301 15.592 128.691 15.592C129.075 15.592 129.411 15.667 129.699 15.817C129.993 15.967 130.221 16.171 130.383 16.429C130.551 16.681 130.635 16.96 130.635 17.266C130.635 17.584 130.554 17.863 130.392 18.103C130.236 18.337 130.026 18.517 129.762 18.643V18.688C130.038 18.796 130.281 18.988 130.491 19.264C130.701 19.54 130.806 19.876 130.806 20.272C130.806 20.626 130.716 20.941 130.536 21.217C130.356 21.493 130.107 21.712 129.789 21.874C129.477 22.03 129.111 22.108 128.691 22.108ZM128.691 18.364C129.063 18.364 129.354 18.268 129.564 18.076C129.78 17.878 129.888 17.623 129.888 17.311C129.888 17.005 129.78 16.756 129.564 16.564C129.354 16.366 129.063 16.267 128.691 16.267C128.319 16.267 128.025 16.366 127.809 16.564C127.599 16.756 127.494 17.005 127.494 17.311C127.494 17.623 127.599 17.878 127.809 18.076C128.025 18.268 128.319 18.364 128.691 18.364ZM128.691 21.424C129.093 21.424 129.417 21.322 129.663 21.118C129.915 20.908 130.041 20.605 130.041 20.209C130.041 19.819 129.915 19.522 129.663 19.318C129.417 19.108 129.093 19.003 128.691 19.003C128.289 19.003 127.962 19.108 127.71 19.318C127.464 19.522 127.341 19.819 127.341 20.209C127.341 20.605 127.464 20.908 127.71 21.118C127.962 21.322 128.289 21.424 128.691 21.424ZM134.169 22.108C133.755 22.108 133.383 22.033 133.053 21.883C132.729 21.727 132.468 21.502 132.27 21.208C132.072 20.914 131.964 20.554 131.946 20.128H132.72C132.732 20.488 132.864 20.794 133.116 21.046C133.368 21.292 133.719 21.415 134.169 21.415C134.607 21.415 134.946 21.304 135.186 21.082C135.426 20.854 135.546 20.545 135.546 20.155C135.546 19.885 135.477 19.663 135.339 19.489C135.201 19.309 135.015 19.177 134.781 19.093C134.553 19.003 134.298 18.958 134.016 18.958H133.467V18.274H133.944C134.352 18.274 134.676 18.187 134.916 18.013C135.162 17.839 135.285 17.584 135.285 17.248C135.285 16.966 135.186 16.735 134.988 16.555C134.796 16.375 134.52 16.285 134.16 16.285C133.812 16.285 133.53 16.384 133.314 16.582C133.098 16.774 132.975 17.026 132.945 17.338H132.189C132.201 16.996 132.291 16.696 132.459 16.438C132.627 16.174 132.855 15.967 133.143 15.817C133.437 15.667 133.776 15.592 134.16 15.592C134.574 15.592 134.919 15.664 135.195 15.808C135.477 15.952 135.69 16.147 135.834 16.393C135.978 16.633 136.05 16.9 136.05 17.194C136.05 17.506 135.954 17.782 135.762 18.022C135.57 18.256 135.342 18.421 135.078 18.517V18.571C135.432 18.679 135.726 18.862 135.96 19.12C136.194 19.378 136.311 19.723 136.311 20.155C136.311 20.521 136.224 20.851 136.05 21.145C135.882 21.439 135.636 21.673 135.312 21.847C134.994 22.021 134.613 22.108 134.169 22.108ZM139.61 22.108C139.058 22.108 138.608 21.976 138.26 21.712C137.918 21.442 137.663 21.082 137.495 20.632C137.333 20.176 137.252 19.663 137.252 19.093C137.252 18.403 137.348 17.797 137.54 17.275C137.732 16.747 138.008 16.336 138.368 16.042C138.734 15.742 139.172 15.592 139.682 15.592C140.084 15.592 140.426 15.67 140.708 15.826C140.996 15.976 141.221 16.183 141.383 16.447C141.551 16.705 141.65 16.996 141.68 17.32H140.969C140.909 17.002 140.765 16.75 140.537 16.564C140.309 16.372 140.024 16.276 139.682 16.276C139.382 16.276 139.106 16.372 138.854 16.564C138.608 16.75 138.404 17.041 138.242 17.437C138.086 17.827 137.996 18.325 137.972 18.931H138.017C138.155 18.673 138.368 18.448 138.656 18.256C138.944 18.064 139.292 17.968 139.7 17.968C140.078 17.968 140.417 18.055 140.717 18.229C141.017 18.403 141.254 18.643 141.428 18.949C141.608 19.255 141.698 19.603 141.698 19.993C141.698 20.377 141.611 20.731 141.437 21.055C141.269 21.373 141.026 21.628 140.708 21.82C140.396 22.012 140.03 22.108 139.61 22.108ZM139.556 21.424C139.97 21.424 140.303 21.292 140.555 21.028C140.807 20.764 140.933 20.434 140.933 20.038C140.933 19.636 140.807 19.306 140.555 19.048C140.303 18.784 139.97 18.652 139.556 18.652C139.28 18.652 139.037 18.712 138.827 18.832C138.623 18.952 138.461 19.117 138.341 19.327C138.227 19.537 138.17 19.774 138.17 20.038C138.17 20.302 138.227 20.539 138.341 20.749C138.461 20.959 138.623 21.124 138.827 21.244C139.037 21.364 139.28 21.424 139.556 21.424ZM144.881 22.018C144.695 22.018 144.536 21.955 144.404 21.829C144.272 21.703 144.206 21.547 144.206 21.361C144.206 21.181 144.272 21.028 144.404 20.902C144.536 20.776 144.695 20.713 144.881 20.713C145.067 20.713 145.226 20.776 145.358 20.902C145.49 21.028 145.556 21.181 145.556 21.361C145.556 21.547 145.49 21.703 145.358 21.829C145.226 21.955 145.067 22.018 144.881 22.018ZM150.358 22.108C149.944 22.108 149.572 22.033 149.242 21.883C148.918 21.727 148.657 21.502 148.459 21.208C148.261 20.914 148.153 20.554 148.135 20.128H148.909C148.921 20.488 149.053 20.794 149.305 21.046C149.557 21.292 149.908 21.415 150.358 21.415C150.796 21.415 151.135 21.304 151.375 21.082C151.615 20.854 151.735 20.545 151.735 20.155C151.735 19.885 151.666 19.663 151.528 19.489C151.39 19.309 151.204 19.177 150.97 19.093C150.742 19.003 150.487 18.958 150.205 18.958H149.656V18.274H150.133C150.541 18.274 150.865 18.187 151.105 18.013C151.351 17.839 151.474 17.584 151.474 17.248C151.474 16.966 151.375 16.735 151.177 16.555C150.985 16.375 150.709 16.285 150.349 16.285C150.001 16.285 149.719 16.384 149.503 16.582C149.287 16.774 149.164 17.026 149.134 17.338H148.378C148.39 16.996 148.48 16.696 148.648 16.438C148.816 16.174 149.044 15.967 149.332 15.817C149.626 15.667 149.965 15.592 150.349 15.592C150.763 15.592 151.108 15.664 151.384 15.808C151.666 15.952 151.879 16.147 152.023 16.393C152.167 16.633 152.239 16.9 152.239 17.194C152.239 17.506 152.143 17.782 151.951 18.022C151.759 18.256 151.531 18.421 151.267 18.517V18.571C151.621 18.679 151.915 18.862 152.149 19.12C152.383 19.378 152.5 19.723 152.5 20.155C152.5 20.521 152.413 20.851 152.239 21.145C152.071 21.439 151.825 21.673 151.501 21.847C151.183 22.021 150.802 22.108 150.358 22.108Z" fill="#BDA2EB"/>
</g>
<defs>
<filter id="filter0_b_532_71905" x="-8" y="-12" width="241" height="152" filterUnits="userSpaceOnUse" color-interpolation-filters="sRGB">
<feFlood flood-opacity="0" result="BackgroundImageFix"/>
<feGaussianBlur in="BackgroundImageFix" stdDeviation="6"/>
<feComposite in2="SourceAlpha" operator="in" result="effect1_backgroundBlur_532_71905"/>
<feBlend mode="normal" in="SourceGraphic" in2="effect1_backgroundBlur_532_71905" result="shape"/>
</filter>
<filter id="filter1_d_532_71905" x="0" y="0" width="225" height="136" filterUnits="userSpaceOnUse" color-interpolation-filters="sRGB">
<feFlood flood-opacity="0" result="BackgroundImageFix"/>
<feColorMatrix in="SourceAlpha" type="matrix" values="0 0 0 0 0 0 0 0 0 0 0 0 0 0 0 0 0 0 127 0" result="hardAlpha"/>
<feOffset dy="4"/>
<feGaussianBlur stdDeviation="2"/>
<feComposite in2="hardAlpha" operator="out"/>
<feColorMatrix type="matrix" values="0 0 0 0 0 0 0 0 0 0 0 0 0 0 0 0 0 0 0.25 0"/>
<feBlend mode="normal" in2="BackgroundImageFix" result="effect1_dropShadow_532_71905"/>
<feBlend mode="normal" in="SourceGraphic" in2="effect1_dropShadow_532_71905" result="shape"/>
</filter>
</defs>
</svg>
