<svg width="225" height="160" viewBox="0 0 225 160" fill="none" xmlns="http://www.w3.org/2000/svg">
<g filter="url(#filter0_b_532_73872)">
<g filter="url(#filter1_d_532_73872)">
<path d="M4 112C4 120.837 11.1634 128 20 128H205C213.837 128 221 120.837 221 112V16C221 7.16344 213.837 0 205 0H20C11.1634 0 4 7.16344 4 16V112Z" fill="black" fill-opacity="0.6" shape-rendering="crispEdges"/>
</g>
<path opacity="0.2" d="M213.798 96.258C214.628 98.1567 215.044 100.53 215.044 103.378C215.044 106.167 214.539 108.659 213.531 110.854C211.691 114.829 208.576 117.855 204.186 119.932C199.795 122.009 193.891 123.047 186.475 123.047C179.473 123.047 173.629 121.979 168.942 119.843C164.314 117.707 161.05 114.473 159.152 110.142C158.38 108.421 157.817 106.552 157.461 104.535C157.105 102.458 156.927 100.085 156.927 97.415H176.952C176.952 100.144 177.337 102.369 178.109 104.09C179.295 106.879 181.817 108.273 185.674 108.273C189.412 108.273 191.904 106.997 193.15 104.446C193.565 103.556 193.773 102.518 193.773 101.331C193.773 100.144 193.535 98.9577 193.061 97.771C192.408 96.4063 191.281 95.4273 189.679 94.834C188.136 94.2407 186.267 93.944 184.072 93.944H181.046V82.285H184.339C188.67 82.285 191.399 81.0983 192.527 78.725C192.823 77.9537 192.972 77.123 192.972 76.233C192.972 74.9277 192.794 73.8893 192.438 73.118C191.904 72.05 191.073 71.2193 189.946 70.626C188.878 70.0327 187.424 69.736 185.585 69.736C183.864 69.736 182.351 70.0327 181.046 70.626C179.8 71.2193 178.88 72.1687 178.287 73.474C177.931 74.3047 177.693 75.2837 177.575 76.411H157.906C157.906 74.987 158.024 73.6817 158.262 72.495C158.558 71.3083 158.974 70.1217 159.508 68.935C161.406 64.7223 164.699 61.548 169.387 59.412C174.074 57.2167 179.77 56.119 186.475 56.119C192.823 56.119 198.252 57.1277 202.762 59.145C207.271 61.103 210.386 64.0103 212.107 67.867C212.581 68.935 212.908 70.003 213.086 71.071C213.323 72.139 213.442 73.3257 213.442 74.631C213.442 76.767 213.056 78.6953 212.285 80.416C210.623 84.0947 207.39 86.7053 202.584 88.248C205.491 88.8413 207.835 89.8203 209.615 91.185C211.454 92.5497 212.848 94.2407 213.798 96.258Z" fill="white"/>
<path d="M21.62 45.232V44.368H25.58V45.232H21.62ZM28.8153 45.232V44.368H32.7753V45.232H28.8153ZM36.0106 45.232V44.368H39.9706V45.232H36.0106ZM43.2059 45.232V44.368H47.1659V45.232H43.2059ZM50.4013 45.232V44.368H54.3613V45.232H50.4013ZM56.7686 49V40.6H59.5646C60.4366 40.6 61.0926 40.8 61.5326 41.2C61.9726 41.6 62.1926 42.112 62.1926 42.736C62.1926 43.224 62.0606 43.628 61.7966 43.948C61.5326 44.26 61.2366 44.48 60.9086 44.608V44.692C61.3006 44.82 61.6446 45.052 61.9406 45.388C62.2366 45.724 62.3846 46.156 62.3846 46.684C62.3846 47.116 62.2766 47.508 62.0606 47.86C61.8526 48.204 61.5446 48.48 61.1366 48.688C60.7366 48.896 60.2446 49 59.6606 49H56.7686ZM57.7766 44.224H59.4926C60.0286 44.224 60.4366 44.108 60.7166 43.876C61.0046 43.636 61.1486 43.292 61.1486 42.844C61.1486 42.42 61.0086 42.092 60.7286 41.86C60.4486 41.628 60.0246 41.512 59.4566 41.512H57.7766V44.224ZM57.7766 48.076H59.5526C60.1286 48.076 60.5726 47.948 60.8846 47.692C61.1966 47.428 61.3526 47.06 61.3526 46.588C61.3526 46.116 61.1886 45.752 60.8606 45.496C60.5326 45.232 60.0886 45.1 59.5286 45.1H57.7766V48.076ZM64.2039 49V40.6H69.4479V41.512H65.2119V44.308H69.0879V45.22H65.2119V48.088H69.4479V49H64.2039ZM73.8832 49.144C73.2912 49.144 72.7632 48.972 72.2992 48.628C71.8352 48.276 71.4712 47.776 71.2072 47.128C70.9512 46.48 70.8232 45.704 70.8232 44.8C70.8232 43.904 70.9552 43.132 71.2192 42.484C71.4832 41.836 71.8552 41.336 72.3352 40.984C72.8232 40.632 73.3992 40.456 74.0632 40.456C74.8552 40.456 75.4992 40.688 75.9952 41.152C76.4992 41.616 76.7992 42.24 76.8952 43.024H75.7792C75.6992 42.544 75.5112 42.156 75.2152 41.86C74.9272 41.556 74.5432 41.404 74.0632 41.404C73.3752 41.404 72.8352 41.704 72.4432 42.304C72.0512 42.904 71.8552 43.736 71.8552 44.8C71.8552 45.88 72.0512 46.716 72.4432 47.308C72.8352 47.9 73.3432 48.196 73.9672 48.196C74.4152 48.196 74.7832 48.064 75.0712 47.8C75.3592 47.528 75.5752 47.184 75.7192 46.768C75.8712 46.344 75.9552 45.908 75.9712 45.46H74.0992V44.596H77.0032V49H76.0792L75.9952 47.728H75.9472C75.7792 48.16 75.5312 48.504 75.2032 48.76C74.8832 49.016 74.4432 49.144 73.8832 49.144ZM78.7505 49V48.124H80.6585V41.476H78.7505V40.6H83.5745V41.476H81.6665V48.124H83.5745V49H78.7505ZM85.4418 49V40.6H86.4738L90.2898 47.236V40.6H91.2858V49H90.2418L86.4258 42.364V49H85.4418ZM100.036 49V40.6H102.832C103.472 40.6 103.996 40.716 104.404 40.948C104.812 41.18 105.112 41.488 105.304 41.872C105.496 42.256 105.592 42.68 105.592 43.144C105.592 43.608 105.496 44.032 105.304 44.416C105.112 44.8 104.812 45.108 104.404 45.34C103.996 45.572 103.472 45.688 102.832 45.688H101.044V49H100.036ZM101.044 44.764H102.808C103.4 44.764 103.84 44.616 104.128 44.32C104.416 44.016 104.56 43.624 104.56 43.144C104.56 42.664 104.416 42.272 104.128 41.968C103.84 41.664 103.4 41.512 102.808 41.512H101.044V44.764ZM109.86 49.144C109.268 49.144 108.74 48.972 108.276 48.628C107.812 48.276 107.448 47.776 107.184 47.128C106.928 46.48 106.8 45.704 106.8 44.8C106.8 43.904 106.932 43.132 107.196 42.484C107.46 41.836 107.832 41.336 108.312 40.984C108.8 40.632 109.376 40.456 110.04 40.456C110.832 40.456 111.476 40.688 111.972 41.152C112.476 41.616 112.776 42.24 112.872 43.024H111.756C111.676 42.544 111.488 42.156 111.192 41.86C110.904 41.556 110.52 41.404 110.04 41.404C109.352 41.404 108.812 41.704 108.42 42.304C108.028 42.904 107.832 43.736 107.832 44.8C107.832 45.88 108.028 46.716 108.42 47.308C108.812 47.9 109.32 48.196 109.944 48.196C110.392 48.196 110.76 48.064 111.048 47.8C111.336 47.528 111.552 47.184 111.696 46.768C111.848 46.344 111.932 45.908 111.948 45.46H110.076V44.596H112.98V49H112.056L111.972 47.728H111.924C111.756 48.16 111.508 48.504 111.18 48.76C110.86 49.016 110.42 49.144 109.86 49.144ZM114.427 49V40.6H117.223C117.863 40.6 118.387 40.716 118.795 40.948C119.203 41.18 119.503 41.488 119.695 41.872C119.887 42.256 119.983 42.68 119.983 43.144C119.983 43.608 119.887 44.032 119.695 44.416C119.503 44.8 119.203 45.108 118.795 45.34C118.387 45.572 117.863 45.688 117.223 45.688H115.435V49H114.427ZM115.435 44.764H117.199C117.791 44.764 118.231 44.616 118.519 44.32C118.807 44.016 118.951 43.624 118.951 43.144C118.951 42.664 118.807 42.272 118.519 41.968C118.231 41.664 117.791 41.512 117.199 41.512H115.435V44.764ZM128.53 49V40.6H129.61L131.53 44.596L133.45 40.6H134.53V49H133.546V42.544L131.914 45.94H131.146L129.514 42.556V49H128.53ZM136.157 49V40.6H141.401V41.512H137.165V44.308H141.041V45.22H137.165V48.088H141.401V49H136.157ZM146.004 49.144C145.412 49.144 144.896 49.032 144.456 48.808C144.024 48.584 143.688 48.272 143.448 47.872C143.216 47.472 143.096 47.004 143.088 46.468H144.144C144.152 46.948 144.312 47.364 144.624 47.716C144.944 48.06 145.404 48.232 146.004 48.232C146.556 48.232 146.98 48.1 147.276 47.836C147.58 47.564 147.732 47.24 147.732 46.864C147.732 46.552 147.66 46.292 147.516 46.084C147.372 45.868 147.136 45.68 146.808 45.52C146.488 45.352 146.056 45.18 145.512 45.004C144.744 44.772 144.184 44.456 143.832 44.056C143.48 43.656 143.304 43.16 143.304 42.568C143.304 42.168 143.408 41.808 143.616 41.488C143.824 41.168 144.124 40.916 144.516 40.732C144.908 40.548 145.384 40.456 145.944 40.456C146.472 40.456 146.932 40.556 147.324 40.756C147.724 40.948 148.032 41.22 148.248 41.572C148.472 41.924 148.584 42.328 148.584 42.784H147.528C147.528 42.56 147.468 42.34 147.348 42.124C147.228 41.908 147.048 41.728 146.808 41.584C146.568 41.44 146.264 41.368 145.896 41.368C145.456 41.368 145.088 41.476 144.792 41.692C144.496 41.9 144.348 42.188 144.348 42.556C144.348 42.836 144.412 43.072 144.54 43.264C144.676 43.456 144.896 43.632 145.2 43.792C145.504 43.944 145.916 44.108 146.436 44.284C146.924 44.444 147.34 44.632 147.684 44.848C148.036 45.056 148.304 45.316 148.488 45.628C148.68 45.94 148.776 46.328 148.776 46.792C148.776 47.248 148.66 47.652 148.428 48.004C148.196 48.356 147.872 48.636 147.456 48.844C147.04 49.044 146.556 49.144 146.004 49.144ZM153.2 49.144C152.608 49.144 152.092 49.032 151.652 48.808C151.22 48.584 150.884 48.272 150.644 47.872C150.412 47.472 150.292 47.004 150.284 46.468H151.34C151.348 46.948 151.508 47.364 151.82 47.716C152.14 48.06 152.6 48.232 153.2 48.232C153.752 48.232 154.176 48.1 154.472 47.836C154.776 47.564 154.928 47.24 154.928 46.864C154.928 46.552 154.856 46.292 154.712 46.084C154.568 45.868 154.332 45.68 154.004 45.52C153.684 45.352 153.252 45.18 152.708 45.004C151.94 44.772 151.38 44.456 151.028 44.056C150.676 43.656 150.5 43.16 150.5 42.568C150.5 42.168 150.604 41.808 150.812 41.488C151.02 41.168 151.32 40.916 151.712 40.732C152.104 40.548 152.58 40.456 153.14 40.456C153.668 40.456 154.128 40.556 154.52 40.756C154.92 40.948 155.228 41.22 155.444 41.572C155.668 41.924 155.78 42.328 155.78 42.784H154.724C154.724 42.56 154.664 42.34 154.544 42.124C154.424 41.908 154.244 41.728 154.004 41.584C153.764 41.44 153.46 41.368 153.092 41.368C152.652 41.368 152.284 41.476 151.988 41.692C151.692 41.9 151.544 42.188 151.544 42.556C151.544 42.836 151.608 43.072 151.736 43.264C151.872 43.456 152.092 43.632 152.396 43.792C152.7 43.944 153.112 44.108 153.632 44.284C154.12 44.444 154.536 44.632 154.88 44.848C155.232 45.056 155.5 45.316 155.684 45.628C155.876 45.94 155.972 46.328 155.972 46.792C155.972 47.248 155.856 47.652 155.624 48.004C155.392 48.356 155.068 48.636 154.652 48.844C154.236 49.044 153.752 49.144 153.2 49.144ZM157.107 49L159.735 40.6H160.899L163.515 49H162.411L161.799 46.912H158.823L158.211 49H157.107ZM160.287 42.016L159.075 46.072H161.547L160.335 42.016H160.287ZM167.422 49.144C166.83 49.144 166.302 48.972 165.838 48.628C165.374 48.276 165.01 47.776 164.746 47.128C164.49 46.48 164.362 45.704 164.362 44.8C164.362 43.904 164.494 43.132 164.758 42.484C165.022 41.836 165.394 41.336 165.874 40.984C166.362 40.632 166.938 40.456 167.602 40.456C168.394 40.456 169.038 40.688 169.534 41.152C170.038 41.616 170.338 42.24 170.434 43.024H169.318C169.238 42.544 169.05 42.156 168.754 41.86C168.466 41.556 168.082 41.404 167.602 41.404C166.914 41.404 166.374 41.704 165.982 42.304C165.59 42.904 165.394 43.736 165.394 44.8C165.394 45.88 165.59 46.716 165.982 47.308C166.374 47.9 166.882 48.196 167.506 48.196C167.954 48.196 168.322 48.064 168.61 47.8C168.898 47.528 169.114 47.184 169.258 46.768C169.41 46.344 169.494 45.908 169.51 45.46H167.638V44.596H170.542V49H169.618L169.534 47.728H169.486C169.318 48.16 169.07 48.504 168.742 48.76C168.422 49.016 167.982 49.144 167.422 49.144ZM172.134 49V40.6H177.378V41.512H173.142V44.308H177.018V45.22H173.142V48.088H177.378V49H172.134ZM179.917 45.232V44.368H183.877V45.232H179.917ZM187.112 45.232V44.368H191.072V45.232H187.112ZM194.308 45.232V44.368H198.268V45.232H194.308ZM201.503 45.232V44.368H205.463V45.232H201.503ZM208.698 45.232V44.368H212.658V45.232H208.698ZM42.9179 65V56.36H43.9259V61.568L46.4099 59.048H47.6939L45.0419 61.7V61.772L48.0179 65H46.7699L43.9259 61.904V65H42.9179ZM52.3813 65.144C51.8213 65.144 51.3253 65.016 50.8933 64.76C50.4613 64.504 50.1213 64.144 49.8733 63.68C49.6253 63.208 49.5013 62.656 49.5013 62.024C49.5013 61.392 49.6253 60.844 49.8733 60.38C50.1213 59.908 50.4613 59.544 50.8933 59.288C51.3253 59.032 51.8213 58.904 52.3813 58.904C52.9413 58.904 53.4373 59.032 53.8693 59.288C54.3013 59.544 54.6413 59.908 54.8893 60.38C55.1373 60.844 55.2613 61.392 55.2613 62.024C55.2613 62.656 55.1373 63.208 54.8893 63.68C54.6413 64.144 54.3013 64.504 53.8693 64.76C53.4373 65.016 52.9413 65.144 52.3813 65.144ZM52.3813 64.184C52.7253 64.184 53.0373 64.108 53.3173 63.956C53.5973 63.804 53.8173 63.568 53.9773 63.248C54.1453 62.928 54.2293 62.52 54.2293 62.024C54.2293 61.528 54.1453 61.12 53.9773 60.8C53.8173 60.48 53.5973 60.244 53.3173 60.092C53.0373 59.94 52.7253 59.864 52.3813 59.864C52.0453 59.864 51.7373 59.94 51.4573 60.092C51.1773 60.244 50.9533 60.48 50.7853 60.8C50.6173 61.12 50.5333 61.528 50.5333 62.024C50.5333 62.768 50.7133 63.316 51.0733 63.668C51.4333 64.012 51.8693 64.184 52.3813 64.184ZM59.5766 65.144C58.8966 65.144 58.3126 64.964 57.8246 64.604C57.3366 64.244 56.9606 63.74 56.6966 63.092C56.4406 62.436 56.3126 61.672 56.3126 60.8C56.3126 59.928 56.4406 59.168 56.6966 58.52C56.9606 57.864 57.3366 57.356 57.8246 56.996C58.3126 56.636 58.8966 56.456 59.5766 56.456C60.2566 56.456 60.8406 56.636 61.3286 56.996C61.8166 57.356 62.1886 57.864 62.4446 58.52C62.7086 59.168 62.8406 59.928 62.8406 60.8C62.8406 61.672 62.7086 62.436 62.4446 63.092C62.1886 63.74 61.8166 64.244 61.3286 64.604C60.8406 64.964 60.2566 65.144 59.5766 65.144ZM59.5766 64.196C60.2406 64.196 60.7766 63.9 61.1846 63.308C61.6006 62.716 61.8086 61.88 61.8086 60.8C61.8086 59.72 61.6006 58.884 61.1846 58.292C60.7766 57.7 60.2406 57.404 59.5766 57.404C58.9046 57.404 58.3646 57.7 57.9566 58.292C57.5486 58.884 57.3446 59.72 57.3446 60.8C57.3446 61.88 57.5486 62.716 57.9566 63.308C58.3646 63.9 58.9046 64.196 59.5766 64.196ZM66.3519 65.144C65.6319 65.144 65.0879 64.928 64.7199 64.496C64.3519 64.064 64.1679 63.44 64.1679 62.624V59.048H65.1759V62.504C65.1759 63.032 65.2919 63.448 65.5239 63.752C65.7639 64.048 66.1239 64.196 66.6039 64.196C67.0839 64.196 67.4879 64.036 67.8159 63.716C68.1439 63.388 68.3079 62.92 68.3079 62.312V59.048H69.3159V65H68.4759L68.3679 64.1H68.3079C68.1479 64.388 67.8959 64.636 67.5519 64.844C67.2079 65.044 66.8079 65.144 66.3519 65.144ZM70.7632 65L73.3912 56.6H74.5552L77.1712 65H76.0672L75.4552 62.912H72.4792L71.8672 65H70.7632ZM73.9432 58.016L72.7312 62.072H75.2032L73.9912 58.016H73.9432ZM81.4025 57.992C81.1705 57.992 80.9705 57.912 80.8025 57.752C80.6425 57.592 80.5625 57.4 80.5625 57.176C80.5625 56.944 80.6425 56.752 80.8025 56.6C80.9705 56.44 81.1705 56.36 81.4025 56.36C81.6425 56.36 81.8425 56.44 82.0025 56.6C82.1625 56.752 82.2425 56.944 82.2425 57.176C82.2425 57.4 82.1625 57.592 82.0025 57.752C81.8425 57.912 81.6425 57.992 81.4025 57.992ZM78.2945 67.64V66.776H80.6705C80.8705 66.776 80.9705 66.672 80.9705 66.464V60.212C80.9705 60.012 80.8705 59.912 80.6705 59.912H79.2305V59.048H80.9105C81.6225 59.048 81.9785 59.404 81.9785 60.116V66.572C81.9785 67.284 81.6225 67.64 80.9105 67.64H78.2945ZM86.5458 67.64L88.0098 64.424H87.6618L85.3098 59.048H86.4018L88.3578 63.656L90.4218 59.048H91.4778L87.6018 67.64H86.5458ZM92.7931 65V64.088H94.9651V57.788L92.9131 58.184V57.416L95.3011 56.6H95.9731V64.088H98.2651V65H92.7931ZM102.748 65.144C102.172 65.144 101.676 65.036 101.26 64.82C100.844 64.604 100.516 64.312 100.276 63.944C100.036 63.576 99.8924 63.156 99.8444 62.684H100.876C100.948 63.14 101.152 63.512 101.488 63.8C101.824 64.08 102.248 64.22 102.76 64.22C103.36 64.22 103.832 64.028 104.176 63.644C104.52 63.252 104.692 62.76 104.692 62.168C104.692 61.544 104.516 61.056 104.164 60.704C103.812 60.344 103.356 60.164 102.796 60.164C102.348 60.164 101.964 60.268 101.644 60.476C101.332 60.676 101.08 60.932 100.888 61.244H99.9284L100.648 56.6H105.136V57.524H101.44L100.996 60.02H101.056C101.24 59.82 101.488 59.644 101.8 59.492C102.12 59.34 102.488 59.264 102.904 59.264C103.456 59.264 103.936 59.384 104.344 59.624C104.76 59.856 105.084 60.192 105.316 60.632C105.548 61.064 105.664 61.572 105.664 62.156C105.664 62.7 105.548 63.2 105.316 63.656C105.092 64.104 104.76 64.464 104.32 64.736C103.888 65.008 103.364 65.144 102.748 65.144ZM107.676 65V56.36H108.684V61.568L111.168 59.048H112.452L109.8 61.7V61.772L112.776 65H111.528L108.684 61.904V65H107.676ZM117.139 65.144C116.579 65.144 116.083 65.016 115.651 64.76C115.219 64.504 114.879 64.144 114.631 63.68C114.383 63.208 114.259 62.656 114.259 62.024C114.259 61.392 114.383 60.844 114.631 60.38C114.879 59.908 115.219 59.544 115.651 59.288C116.083 59.032 116.579 58.904 117.139 58.904C117.699 58.904 118.195 59.032 118.627 59.288C119.059 59.544 119.399 59.908 119.647 60.38C119.895 60.844 120.019 61.392 120.019 62.024C120.019 62.656 119.895 63.208 119.647 63.68C119.399 64.144 119.059 64.504 118.627 64.76C118.195 65.016 117.699 65.144 117.139 65.144ZM117.139 64.184C117.483 64.184 117.795 64.108 118.075 63.956C118.355 63.804 118.575 63.568 118.735 63.248C118.903 62.928 118.987 62.52 118.987 62.024C118.987 61.528 118.903 61.12 118.735 60.8C118.575 60.48 118.355 60.244 118.075 60.092C117.795 59.94 117.483 59.864 117.139 59.864C116.803 59.864 116.495 59.94 116.215 60.092C115.935 60.244 115.711 60.48 115.543 60.8C115.375 61.12 115.291 61.528 115.291 62.024C115.291 62.768 115.471 63.316 115.831 63.668C116.191 64.012 116.627 64.184 117.139 64.184ZM124.334 65.144C123.774 65.144 123.278 65.016 122.846 64.76C122.414 64.504 122.074 64.144 121.826 63.68C121.578 63.208 121.454 62.656 121.454 62.024C121.454 61.392 121.578 60.844 121.826 60.38C122.074 59.908 122.414 59.544 122.846 59.288C123.278 59.032 123.774 58.904 124.334 58.904C124.894 58.904 125.39 59.032 125.822 59.288C126.254 59.544 126.594 59.908 126.842 60.38C127.09 60.844 127.214 61.392 127.214 62.024C127.214 62.656 127.09 63.208 126.842 63.68C126.594 64.144 126.254 64.504 125.822 64.76C125.39 65.016 124.894 65.144 124.334 65.144ZM124.334 64.184C124.678 64.184 124.99 64.108 125.27 63.956C125.55 63.804 125.77 63.568 125.93 63.248C126.098 62.928 126.182 62.52 126.182 62.024C126.182 61.528 126.098 61.12 125.93 60.8C125.77 60.48 125.55 60.244 125.27 60.092C124.99 59.94 124.678 59.864 124.334 59.864C123.998 59.864 123.69 59.94 123.41 60.092C123.13 60.244 122.906 60.48 122.738 60.8C122.57 61.12 122.486 61.528 122.486 62.024C122.486 62.768 122.666 63.316 123.026 63.668C123.386 64.012 123.822 64.184 124.334 64.184ZM128.962 65V56.6H134.206V57.512H129.97V60.308H133.846V61.22H129.97V64.088H134.206V65H128.962ZM136.013 65V56.6H138.809C139.449 56.6 139.973 56.716 140.381 56.948C140.789 57.18 141.089 57.488 141.281 57.872C141.473 58.256 141.569 58.68 141.569 59.144C141.569 59.608 141.473 60.032 141.281 60.416C141.089 60.8 140.789 61.108 140.381 61.34C139.973 61.572 139.449 61.688 138.809 61.688H137.021V65H136.013ZM137.021 60.764H138.785C139.377 60.764 139.817 60.616 140.105 60.32C140.393 60.016 140.537 59.624 140.537 59.144C140.537 58.664 140.393 58.272 140.105 57.968C139.817 57.664 139.377 57.512 138.785 57.512H137.021V60.764ZM143.652 65V56.36H144.66V61.568L147.144 59.048H148.428L145.776 61.7V61.772L148.752 65H147.504L144.66 61.904V65H143.652ZM153.176 65.144C152.496 65.144 151.908 64.964 151.412 64.604C150.924 64.244 150.548 63.74 150.284 63.092C150.028 62.444 149.9 61.68 149.9 60.8C149.9 59.928 150.028 59.168 150.284 58.52C150.548 57.864 150.924 57.356 151.412 56.996C151.908 56.636 152.496 56.456 153.176 56.456C154.04 56.456 154.736 56.696 155.264 57.176C155.792 57.648 156.1 58.28 156.188 59.072H155.072C154.992 58.6 154.792 58.204 154.472 57.884C154.152 57.564 153.72 57.404 153.176 57.404C152.48 57.404 151.932 57.708 151.532 58.316C151.132 58.916 150.932 59.744 150.932 60.8C150.932 61.864 151.132 62.696 151.532 63.296C151.932 63.896 152.48 64.196 153.176 64.196C153.744 64.196 154.18 64.044 154.484 63.74C154.796 63.436 154.992 63.044 155.072 62.564H156.188C156.06 63.364 155.74 63.996 155.228 64.46C154.724 64.916 154.04 65.144 153.176 65.144ZM160.311 65.144C159.751 65.144 159.259 65.04 158.835 64.832C158.419 64.616 158.091 64.324 157.851 63.956C157.611 63.588 157.491 63.168 157.491 62.696C157.491 62.168 157.631 61.72 157.911 61.352C158.191 60.984 158.515 60.728 158.883 60.584V60.524C158.531 60.356 158.247 60.116 158.031 59.804C157.823 59.484 157.719 59.112 157.719 58.688C157.719 58.28 157.823 57.908 158.031 57.572C158.247 57.228 158.551 56.956 158.943 56.756C159.335 56.556 159.791 56.456 160.311 56.456C160.823 56.456 161.271 56.556 161.655 56.756C162.047 56.956 162.351 57.228 162.567 57.572C162.791 57.908 162.903 58.28 162.903 58.688C162.903 59.112 162.795 59.484 162.579 59.804C162.371 60.116 162.091 60.356 161.739 60.524V60.584C162.107 60.728 162.431 60.984 162.711 61.352C162.991 61.72 163.131 62.168 163.131 62.696C163.131 63.168 163.011 63.588 162.771 63.956C162.531 64.324 162.199 64.616 161.775 64.832C161.359 65.04 160.871 65.144 160.311 65.144ZM160.311 60.152C160.807 60.152 161.195 60.024 161.475 59.768C161.763 59.504 161.907 59.164 161.907 58.748C161.907 58.34 161.763 58.008 161.475 57.752C161.195 57.488 160.807 57.356 160.311 57.356C159.815 57.356 159.423 57.488 159.135 57.752C158.855 58.008 158.715 58.34 158.715 58.748C158.715 59.164 158.855 59.504 159.135 59.768C159.423 60.024 159.815 60.152 160.311 60.152ZM160.311 64.232C160.847 64.232 161.279 64.096 161.607 63.824C161.943 63.544 162.111 63.14 162.111 62.612C162.111 62.092 161.943 61.696 161.607 61.424C161.279 61.144 160.847 61.004 160.311 61.004C159.775 61.004 159.339 61.144 159.003 61.424C158.675 61.696 158.511 62.092 158.511 62.612C158.511 63.14 158.675 63.544 159.003 63.824C159.339 64.096 159.775 64.232 160.311 64.232ZM164.302 65L166.93 56.6H168.094L170.71 65H169.606L168.994 62.912H166.018L165.406 65H164.302ZM167.482 58.016L166.27 62.072H168.742L167.53 58.016H167.482ZM172.098 66.08L176.25 55.88H177.306L173.142 66.08H172.098ZM45.1859 81.144C44.5059 81.144 43.9219 80.964 43.4339 80.604C42.9459 80.244 42.5699 79.74 42.3059 79.092C42.0499 78.436 41.9219 77.672 41.9219 76.8C41.9219 75.928 42.0499 75.168 42.3059 74.52C42.5699 73.864 42.9459 73.356 43.4339 72.996C43.9219 72.636 44.5059 72.456 45.1859 72.456C45.8659 72.456 46.4499 72.636 46.9379 72.996C47.4259 73.356 47.7979 73.864 48.0539 74.52C48.3179 75.168 48.4499 75.928 48.4499 76.8C48.4499 77.672 48.3179 78.436 48.0539 79.092C47.7979 79.74 47.4259 80.244 46.9379 80.604C46.4499 80.964 45.8659 81.144 45.1859 81.144ZM45.1859 80.196C45.8499 80.196 46.3859 79.9 46.7939 79.308C47.2099 78.716 47.4179 77.88 47.4179 76.8C47.4179 75.72 47.2099 74.884 46.7939 74.292C46.3859 73.7 45.8499 73.404 45.1859 73.404C44.5139 73.404 43.9739 73.7 43.5659 74.292C43.1579 74.884 42.9539 75.72 42.9539 76.8C42.9539 77.88 43.1579 78.716 43.5659 79.308C43.9739 79.9 44.5139 80.196 45.1859 80.196ZM49.3813 81V72.6H50.4613L52.3813 76.596L54.3013 72.6H55.3813V81H54.3973V74.544L52.7653 77.94H51.9973L50.3652 74.556V81H49.3813ZM60.2006 81C59.6566 81 59.2286 80.868 58.9166 80.604C58.6046 80.34 58.4486 79.864 58.4486 79.176V75.912H56.9366V75.048H57.8366C58.2446 75.048 58.4806 74.848 58.5446 74.448L58.7126 73.524H59.4566V75.048H61.8326V75.912H59.4566V79.176C59.4566 79.512 59.5326 79.748 59.6846 79.884C59.8446 80.02 60.1166 80.088 60.5006 80.088H61.8326V81H60.2006ZM64.2639 81V72.6H69.5079V73.536H65.2719V76.464H68.8959V77.364H65.2719V81H64.2639ZM73.9672 81.144C73.3352 81.144 72.7752 80.968 72.2872 80.616C71.8072 80.264 71.4312 79.764 71.1592 79.116C70.8952 78.468 70.7632 77.696 70.7632 76.8C70.7632 75.904 70.8952 75.132 71.1592 74.484C71.4312 73.836 71.8072 73.336 72.2872 72.984C72.7752 72.632 73.3352 72.456 73.9672 72.456C74.6072 72.456 75.1672 72.632 75.6472 72.984C76.1272 73.336 76.4992 73.836 76.7632 74.484C77.0352 75.132 77.1712 75.904 77.1712 76.8C77.1712 77.696 77.0352 78.468 76.7632 79.116C76.4992 79.764 76.1272 80.264 75.6472 80.616C75.1672 80.968 74.6072 81.144 73.9672 81.144ZM71.7952 76.8C71.7952 77.344 71.8512 77.836 71.9632 78.276C72.0832 78.708 72.2472 79.072 72.4552 79.368L74.7832 73.596C74.5352 73.46 74.2632 73.392 73.9672 73.392C73.5432 73.392 73.1672 73.532 72.8392 73.812C72.5112 74.084 72.2552 74.476 72.0712 74.988C71.8872 75.492 71.7952 76.096 71.7952 76.8ZM73.9672 80.22C74.3912 80.22 74.7672 80.084 75.0952 79.812C75.4232 79.532 75.6792 79.136 75.8632 78.624C76.0472 78.112 76.1392 77.504 76.1392 76.8C76.1392 76.256 76.0792 75.768 75.9592 75.336C75.8472 74.896 75.6872 74.528 75.4792 74.232L73.1392 80.016C73.3952 80.152 73.6712 80.22 73.9672 80.22ZM81.0185 81.144C80.5065 81.144 80.0505 81.044 79.6505 80.844C79.2585 80.636 78.9425 80.36 78.7025 80.016C78.4705 79.664 78.3345 79.272 78.2945 78.84H79.2665C79.3385 79.264 79.5265 79.604 79.8305 79.86C80.1425 80.108 80.5385 80.232 81.0185 80.232C81.6505 80.232 82.1665 79.948 82.5665 79.38C82.9665 78.804 83.1945 77.908 83.2505 76.692H83.1785C82.9625 77.068 82.6865 77.376 82.3505 77.616C82.0145 77.856 81.5425 77.976 80.9345 77.976C80.4305 77.976 79.9785 77.86 79.5785 77.628C79.1785 77.396 78.8585 77.076 78.6185 76.668C78.3865 76.26 78.2705 75.796 78.2705 75.276C78.2705 74.764 78.3825 74.296 78.6065 73.872C78.8385 73.44 79.1625 73.096 79.5785 72.84C80.0025 72.584 80.4945 72.456 81.0545 72.456C82.1105 72.456 82.8985 72.816 83.4185 73.536C83.9385 74.256 84.1985 75.236 84.1985 76.476C84.1985 77.396 84.0745 78.208 83.8265 78.912C83.5785 79.608 83.2185 80.156 82.7465 80.556C82.2745 80.948 81.6985 81.144 81.0185 81.144ZM81.1265 77.064C81.6865 77.064 82.1345 76.888 82.4705 76.536C82.8065 76.184 82.9745 75.744 82.9745 75.216C82.9745 74.688 82.8065 74.248 82.4705 73.896C82.1345 73.544 81.6865 73.368 81.1265 73.368C80.5665 73.368 80.1185 73.544 79.7825 73.896C79.4545 74.248 79.2905 74.688 79.2905 75.216C79.2905 75.752 79.4545 76.196 79.7825 76.548C80.1185 76.892 80.5665 77.064 81.1265 77.064ZM88.3458 81.144C87.7858 81.144 87.2858 81.028 86.8458 80.796C86.4138 80.564 86.0698 80.212 85.8138 79.74C85.5658 79.26 85.4418 78.66 85.4418 77.94V72.6H86.4498V77.976C86.4498 78.696 86.6258 79.252 86.9778 79.644C87.3298 80.036 87.7938 80.232 88.3698 80.232C88.9458 80.232 89.4058 80.036 89.7498 79.644C90.0938 79.252 90.2658 78.696 90.2658 77.976V72.6H91.2738V77.94C91.2738 78.66 91.1458 79.26 90.8898 79.74C90.6338 80.212 90.2858 80.564 89.8458 80.796C89.4058 81.028 88.9058 81.144 88.3458 81.144ZM95.0491 81.144C94.5771 81.144 94.1851 81.06 93.8731 80.892C93.5611 80.724 93.3291 80.504 93.1771 80.232C93.0251 79.952 92.9491 79.648 92.9491 79.32C92.9491 78.712 93.1691 78.252 93.6091 77.94C94.0571 77.62 94.6531 77.46 95.3971 77.46H97.0291V77.34C97.0291 76.3 96.5531 75.78 95.6011 75.78C95.2171 75.78 94.8931 75.864 94.6291 76.032C94.3731 76.2 94.2091 76.464 94.1371 76.824H93.1051C93.1451 76.424 93.2771 76.08 93.5011 75.792C93.7331 75.504 94.0291 75.284 94.3891 75.132C94.7491 74.98 95.1531 74.904 95.6011 74.904C96.4491 74.904 97.0651 75.128 97.4491 75.576C97.8411 76.016 98.0371 76.604 98.0371 77.34V81H97.1731L97.0891 80.076H97.0051C96.8291 80.364 96.5931 80.616 96.2971 80.832C96.0091 81.04 95.5931 81.144 95.0491 81.144ZM95.2291 80.256C95.6131 80.256 95.9371 80.164 96.2011 79.98C96.4731 79.796 96.6771 79.552 96.8131 79.248C96.9571 78.944 97.0291 78.612 97.0291 78.252H95.4811C94.9371 78.252 94.5531 78.344 94.3291 78.528C94.1131 78.712 94.0051 78.956 94.0051 79.26C94.0051 79.572 94.1091 79.816 94.3171 79.992C94.5251 80.168 94.8291 80.256 95.2291 80.256ZM102.952 81.144C102.496 81.144 102.108 81.052 101.788 80.868C101.476 80.676 101.244 80.416 101.092 80.088H101.02L100.912 81H100.084V72.36H101.092V75.9C101.244 75.636 101.48 75.404 101.8 75.204C102.128 75.004 102.512 74.904 102.952 74.904C103.464 74.904 103.916 75.024 104.308 75.264C104.7 75.504 105.008 75.856 105.232 76.32C105.456 76.784 105.568 77.348 105.568 78.012C105.568 78.684 105.456 79.256 105.232 79.728C105.008 80.192 104.696 80.544 104.296 80.784C103.904 81.024 103.456 81.144 102.952 81.144ZM102.82 80.184C103.324 80.184 103.736 80.008 104.056 79.656C104.384 79.296 104.548 78.752 104.548 78.024C104.548 77.296 104.384 76.756 104.056 76.404C103.736 76.044 103.324 75.864 102.82 75.864C102.316 75.864 101.9 76.044 101.572 76.404C101.244 76.756 101.08 77.296 101.08 78.024C101.08 78.752 101.244 79.296 101.572 79.656C101.9 80.008 102.316 80.184 102.82 80.184ZM107.568 81V80.076L111.072 75.984H107.628V75.048H112.26V75.972L108.744 80.064H112.32V81H107.568ZM117.343 81.144C116.887 81.144 116.499 81.052 116.179 80.868C115.867 80.676 115.635 80.416 115.483 80.088H115.411L115.303 81H114.475V72.36H115.483V75.9C115.635 75.636 115.871 75.404 116.191 75.204C116.519 75.004 116.903 74.904 117.343 74.904C117.855 74.904 118.307 75.024 118.699 75.264C119.091 75.504 119.399 75.856 119.623 76.32C119.847 76.784 119.959 77.348 119.959 78.012C119.959 78.684 119.847 79.256 119.623 79.728C119.399 80.192 119.087 80.544 118.687 80.784C118.295 81.024 117.847 81.144 117.343 81.144ZM117.211 80.184C117.715 80.184 118.127 80.008 118.447 79.656C118.775 79.296 118.939 78.752 118.939 78.024C118.939 77.296 118.775 76.756 118.447 76.404C118.127 76.044 117.715 75.864 117.211 75.864C116.707 75.864 116.291 76.044 115.963 76.404C115.635 76.756 115.471 77.296 115.471 78.024C115.471 78.752 115.635 79.296 115.963 79.656C116.291 80.008 116.707 80.184 117.211 80.184ZM124.538 81.144C124.082 81.144 123.694 81.052 123.374 80.868C123.062 80.676 122.83 80.416 122.678 80.088H122.606L122.498 81H121.67V72.36H122.678V75.9C122.83 75.636 123.066 75.404 123.386 75.204C123.714 75.004 124.098 74.904 124.538 74.904C125.05 74.904 125.502 75.024 125.894 75.264C126.286 75.504 126.594 75.856 126.818 76.32C127.042 76.784 127.154 77.348 127.154 78.012C127.154 78.684 127.042 79.256 126.818 79.728C126.594 80.192 126.282 80.544 125.882 80.784C125.49 81.024 125.042 81.144 124.538 81.144ZM124.406 80.184C124.91 80.184 125.322 80.008 125.642 79.656C125.97 79.296 126.134 78.752 126.134 78.024C126.134 77.296 125.97 76.756 125.642 76.404C125.322 76.044 124.91 75.864 124.406 75.864C123.902 75.864 123.486 76.044 123.158 76.404C122.83 76.756 122.666 77.296 122.666 78.024C122.666 78.752 122.83 79.296 123.158 79.656C123.486 80.008 123.902 80.184 124.406 80.184ZM131.638 81.144C131.086 81.144 130.59 81.044 130.15 80.844C129.718 80.636 129.37 80.336 129.106 79.944C128.842 79.552 128.698 79.072 128.674 78.504H129.706C129.722 78.984 129.898 79.392 130.234 79.728C130.57 80.056 131.038 80.22 131.638 80.22C132.222 80.22 132.674 80.072 132.994 79.776C133.314 79.472 133.474 79.06 133.474 78.54C133.474 78.18 133.382 77.884 133.198 77.652C133.014 77.412 132.766 77.236 132.454 77.124C132.15 77.004 131.81 76.944 131.434 76.944H130.702V76.032H131.338C131.882 76.032 132.314 75.916 132.634 75.684C132.962 75.452 133.126 75.112 133.126 74.664C133.126 74.288 132.994 73.98 132.73 73.74C132.474 73.5 132.106 73.38 131.626 73.38C131.162 73.38 130.786 73.512 130.498 73.776C130.21 74.032 130.046 74.368 130.006 74.784H128.998C129.014 74.328 129.134 73.928 129.358 73.584C129.582 73.232 129.886 72.956 130.27 72.756C130.662 72.556 131.114 72.456 131.626 72.456C132.178 72.456 132.638 72.552 133.006 72.744C133.382 72.936 133.666 73.196 133.858 73.524C134.05 73.844 134.146 74.2 134.146 74.592C134.146 75.008 134.018 75.376 133.762 75.696C133.506 76.008 133.202 76.228 132.85 76.356V76.428C133.322 76.572 133.714 76.816 134.026 77.16C134.338 77.504 134.494 77.964 134.494 78.54C134.494 79.028 134.378 79.468 134.146 79.86C133.922 80.252 133.594 80.564 133.162 80.796C132.738 81.028 132.23 81.144 131.638 81.144ZM138.221 81V77.7L135.497 72.6H136.637L138.725 76.68L140.813 72.6H141.953L139.229 77.7V81H138.221ZM143.112 81V72.6H144.876C146.252 72.6 147.268 72.976 147.924 73.728C148.588 74.48 148.92 75.504 148.92 76.8C148.92 78.096 148.588 79.12 147.924 79.872C147.268 80.624 146.252 81 144.876 81H143.112ZM144.12 80.076H144.852C145.588 80.076 146.176 79.94 146.616 79.668C147.064 79.396 147.388 79.016 147.588 78.528C147.788 78.04 147.888 77.464 147.888 76.8C147.888 76.136 147.788 75.56 147.588 75.072C147.388 74.584 147.064 74.204 146.616 73.932C146.176 73.66 145.588 73.524 144.852 73.524H144.12V80.076ZM151.58 81L154.856 73.512H150.272V72.6H155.9V73.404L152.648 81H151.58ZM160.311 81.024C160.063 81.024 159.851 80.94 159.675 80.772C159.499 80.604 159.411 80.396 159.411 80.148C159.411 79.908 159.499 79.704 159.675 79.536C159.851 79.368 160.063 79.284 160.311 79.284C160.559 79.284 160.771 79.368 160.947 79.536C161.123 79.704 161.211 79.908 161.211 80.148C161.211 80.396 161.123 80.604 160.947 80.772C160.771 80.94 160.559 81.024 160.311 81.024ZM167.506 81.024C167.258 81.024 167.046 80.94 166.87 80.772C166.694 80.604 166.606 80.396 166.606 80.148C166.606 79.908 166.694 79.704 166.87 79.536C167.046 79.368 167.258 79.284 167.506 79.284C167.754 79.284 167.966 79.368 168.142 79.536C168.318 79.704 168.406 79.908 168.406 80.148C168.406 80.396 168.318 80.604 168.142 80.772C167.966 80.94 167.754 81.024 167.506 81.024ZM174.702 81.024C174.454 81.024 174.242 80.94 174.066 80.772C173.89 80.604 173.802 80.396 173.802 80.148C173.802 79.908 173.89 79.704 174.066 79.536C174.242 79.368 174.454 79.284 174.702 79.284C174.95 79.284 175.162 79.368 175.338 79.536C175.514 79.704 175.602 79.908 175.602 80.148C175.602 80.396 175.514 80.604 175.338 80.772C175.162 80.94 174.95 81.024 174.702 81.024ZM21.62 93.232V92.368H25.58V93.232H21.62ZM28.8153 93.232V92.368H32.7753V93.232H28.8153ZM36.0106 93.232V92.368H39.9706V93.232H36.0106ZM43.2059 93.232V92.368H47.1659V93.232H43.2059ZM50.4013 93.232V92.368H54.3613V93.232H50.4013ZM57.0086 97V88.6H62.2526V89.512H58.0166V92.308H61.8926V93.22H58.0166V96.088H62.2526V97H57.0086ZM63.8559 97V88.6H64.8879L68.7039 95.236V88.6H69.6999V97H68.6559L64.8399 90.364V97H63.8559ZM71.1592 97V88.6H72.9232C74.2992 88.6 75.3152 88.976 75.9712 89.728C76.6352 90.48 76.9672 91.504 76.9672 92.8C76.9672 94.096 76.6352 95.12 75.9712 95.872C75.3152 96.624 74.2992 97 72.9232 97H71.1592ZM72.1672 96.076H72.8992C73.6352 96.076 74.2232 95.94 74.6632 95.668C75.1112 95.396 75.4352 95.016 75.6352 94.528C75.8352 94.04 75.9352 93.464 75.9352 92.8C75.9352 92.136 75.8352 91.56 75.6352 91.072C75.4352 90.584 75.1112 90.204 74.6632 89.932C74.2232 89.66 73.6352 89.524 72.8992 89.524H72.1672V96.076ZM85.6458 97V88.6H88.4418C89.0818 88.6 89.6058 88.716 90.0138 88.948C90.4218 89.18 90.7218 89.488 90.9138 89.872C91.1058 90.256 91.2018 90.68 91.2018 91.144C91.2018 91.608 91.1058 92.032 90.9138 92.416C90.7218 92.8 90.4218 93.108 90.0138 93.34C89.6058 93.572 89.0818 93.688 88.4418 93.688H86.6538V97H85.6458ZM86.6538 92.764H88.4178C89.0098 92.764 89.4498 92.616 89.7378 92.32C90.0258 92.016 90.1698 91.624 90.1698 91.144C90.1698 90.664 90.0258 90.272 89.7378 89.968C89.4498 89.664 89.0098 89.512 88.4178 89.512H86.6538V92.764ZM95.4691 97.144C94.8771 97.144 94.3491 96.972 93.8851 96.628C93.4211 96.276 93.0571 95.776 92.7931 95.128C92.5371 94.48 92.4091 93.704 92.4091 92.8C92.4091 91.904 92.5411 91.132 92.8051 90.484C93.0691 89.836 93.4411 89.336 93.9211 88.984C94.4091 88.632 94.9851 88.456 95.6491 88.456C96.4411 88.456 97.0851 88.688 97.5811 89.152C98.0851 89.616 98.3851 90.24 98.4811 91.024H97.3651C97.2851 90.544 97.0971 90.156 96.8011 89.86C96.5131 89.556 96.1291 89.404 95.6491 89.404C94.9611 89.404 94.4211 89.704 94.0291 90.304C93.6371 90.904 93.4411 91.736 93.4411 92.8C93.4411 93.88 93.6371 94.716 94.0291 95.308C94.4211 95.9 94.9291 96.196 95.5531 96.196C96.0011 96.196 96.3691 96.064 96.6571 95.8C96.9451 95.528 97.1611 95.184 97.3051 94.768C97.4571 94.344 97.5411 93.908 97.5571 93.46H95.6851V92.596H98.5891V97H97.6651L97.5811 95.728H97.5331C97.3651 96.16 97.1171 96.504 96.7891 96.76C96.4691 97.016 96.0291 97.144 95.4691 97.144ZM100.036 97V88.6H102.832C103.472 88.6 103.996 88.716 104.404 88.948C104.812 89.18 105.112 89.488 105.304 89.872C105.496 90.256 105.592 90.68 105.592 91.144C105.592 91.608 105.496 92.032 105.304 92.416C105.112 92.8 104.812 93.108 104.404 93.34C103.996 93.572 103.472 93.688 102.832 93.688H101.044V97H100.036ZM101.044 92.764H102.808C103.4 92.764 103.84 92.616 104.128 92.32C104.416 92.016 104.56 91.624 104.56 91.144C104.56 90.664 104.416 90.272 104.128 89.968C103.84 89.664 103.4 89.512 102.808 89.512H101.044V92.764ZM114.139 97V88.6H115.219L117.139 92.596L119.059 88.6H120.139V97H119.155V90.544L117.523 93.94H116.755L115.123 90.556V97H114.139ZM121.766 97V88.6H127.01V89.512H122.774V92.308H126.65V93.22H122.774V96.088H127.01V97H121.766ZM131.614 97.144C131.022 97.144 130.506 97.032 130.066 96.808C129.634 96.584 129.298 96.272 129.058 95.872C128.826 95.472 128.706 95.004 128.698 94.468H129.754C129.762 94.948 129.922 95.364 130.234 95.716C130.554 96.06 131.014 96.232 131.614 96.232C132.166 96.232 132.59 96.1 132.886 95.836C133.19 95.564 133.342 95.24 133.342 94.864C133.342 94.552 133.27 94.292 133.126 94.084C132.982 93.868 132.746 93.68 132.418 93.52C132.098 93.352 131.666 93.18 131.122 93.004C130.354 92.772 129.794 92.456 129.442 92.056C129.09 91.656 128.914 91.16 128.914 90.568C128.914 90.168 129.018 89.808 129.226 89.488C129.434 89.168 129.734 88.916 130.126 88.732C130.518 88.548 130.994 88.456 131.554 88.456C132.082 88.456 132.542 88.556 132.934 88.756C133.334 88.948 133.642 89.22 133.858 89.572C134.082 89.924 134.194 90.328 134.194 90.784H133.138C133.138 90.56 133.078 90.34 132.958 90.124C132.838 89.908 132.658 89.728 132.418 89.584C132.178 89.44 131.874 89.368 131.506 89.368C131.066 89.368 130.698 89.476 130.402 89.692C130.106 89.9 129.958 90.188 129.958 90.556C129.958 90.836 130.022 91.072 130.15 91.264C130.286 91.456 130.506 91.632 130.81 91.792C131.114 91.944 131.526 92.108 132.046 92.284C132.534 92.444 132.95 92.632 133.294 92.848C133.646 93.056 133.914 93.316 134.098 93.628C134.29 93.94 134.386 94.328 134.386 94.792C134.386 95.248 134.27 95.652 134.038 96.004C133.806 96.356 133.482 96.636 133.066 96.844C132.65 97.044 132.166 97.144 131.614 97.144ZM138.809 97.144C138.217 97.144 137.701 97.032 137.261 96.808C136.829 96.584 136.493 96.272 136.253 95.872C136.021 95.472 135.901 95.004 135.893 94.468H136.949C136.957 94.948 137.117 95.364 137.429 95.716C137.749 96.06 138.209 96.232 138.809 96.232C139.361 96.232 139.785 96.1 140.081 95.836C140.385 95.564 140.537 95.24 140.537 94.864C140.537 94.552 140.465 94.292 140.321 94.084C140.177 93.868 139.941 93.68 139.613 93.52C139.293 93.352 138.861 93.18 138.317 93.004C137.549 92.772 136.989 92.456 136.637 92.056C136.285 91.656 136.109 91.16 136.109 90.568C136.109 90.168 136.213 89.808 136.421 89.488C136.629 89.168 136.929 88.916 137.321 88.732C137.713 88.548 138.189 88.456 138.749 88.456C139.277 88.456 139.737 88.556 140.129 88.756C140.529 88.948 140.837 89.22 141.053 89.572C141.277 89.924 141.389 90.328 141.389 90.784H140.333C140.333 90.56 140.273 90.34 140.153 90.124C140.033 89.908 139.853 89.728 139.613 89.584C139.373 89.44 139.069 89.368 138.701 89.368C138.261 89.368 137.893 89.476 137.597 89.692C137.301 89.9 137.153 90.188 137.153 90.556C137.153 90.836 137.217 91.072 137.345 91.264C137.481 91.456 137.701 91.632 138.005 91.792C138.309 91.944 138.721 92.108 139.241 92.284C139.729 92.444 140.145 92.632 140.489 92.848C140.841 93.056 141.109 93.316 141.293 93.628C141.485 93.94 141.581 94.328 141.581 94.792C141.581 95.248 141.465 95.652 141.233 96.004C141.001 96.356 140.677 96.636 140.261 96.844C139.845 97.044 139.361 97.144 138.809 97.144ZM142.716 97L145.344 88.6H146.508L149.124 97H148.02L147.408 94.912H144.432L143.82 97H142.716ZM145.896 90.016L144.684 94.072H147.156L145.944 90.016H145.896ZM153.032 97.144C152.44 97.144 151.912 96.972 151.448 96.628C150.984 96.276 150.62 95.776 150.356 95.128C150.1 94.48 149.972 93.704 149.972 92.8C149.972 91.904 150.104 91.132 150.368 90.484C150.632 89.836 151.004 89.336 151.484 88.984C151.972 88.632 152.548 88.456 153.212 88.456C154.004 88.456 154.648 88.688 155.144 89.152C155.648 89.616 155.948 90.24 156.044 91.024H154.928C154.848 90.544 154.66 90.156 154.364 89.86C154.076 89.556 153.692 89.404 153.212 89.404C152.524 89.404 151.984 89.704 151.592 90.304C151.2 90.904 151.004 91.736 151.004 92.8C151.004 93.88 151.2 94.716 151.592 95.308C151.984 95.9 152.492 96.196 153.116 96.196C153.564 96.196 153.932 96.064 154.22 95.8C154.508 95.528 154.724 95.184 154.868 94.768C155.02 94.344 155.104 93.908 155.12 93.46H153.248V92.596H156.152V97H155.228L155.144 95.728H155.096C154.928 96.16 154.68 96.504 154.352 96.76C154.032 97.016 153.592 97.144 153.032 97.144ZM157.743 97V88.6H162.987V89.512H158.751V92.308H162.627V93.22H158.751V96.088H162.987V97H157.743ZM165.526 93.232V92.368H169.486V93.232H165.526ZM172.722 93.232V92.368H176.682V93.232H172.722ZM179.917 93.232V92.368H183.877V93.232H179.917ZM187.112 93.232V92.368H191.072V93.232H187.112ZM194.308 93.232V92.368H198.268V93.232H194.308Z" fill="white"/>
<path d="M72.9174 22V21.343H74.3484V16.357H72.9174V15.7H76.5354V16.357H75.1044V21.343H76.5354V22H72.9174ZM78.0889 22V15.7H80.1859C80.6659 15.7 81.0589 15.787 81.3649 15.961C81.6709 16.135 81.8959 16.366 82.0399 16.654C82.1839 16.942 82.2559 17.26 82.2559 17.608C82.2559 17.956 82.1839 18.274 82.0399 18.562C81.8959 18.85 81.6709 19.081 81.3649 19.255C81.0589 19.429 80.6659 19.516 80.1859 19.516H78.8449V22H78.0889ZM78.8449 18.823H80.1679C80.6119 18.823 80.9419 18.712 81.1579 18.49C81.3739 18.262 81.4819 17.968 81.4819 17.608C81.4819 17.248 81.3739 16.954 81.1579 16.726C80.9419 16.498 80.6119 16.384 80.1679 16.384H78.8449V18.823ZM88.8818 22V21.406C89.5298 20.89 90.0938 20.416 90.5738 19.984C91.0598 19.552 91.4348 19.135 91.6988 18.733C91.9628 18.331 92.0948 17.92 92.0948 17.5C92.0948 17.122 91.9868 16.825 91.7708 16.609C91.5608 16.387 91.2758 16.276 90.9158 16.276C90.6398 16.276 90.4058 16.336 90.2138 16.456C90.0218 16.576 89.8778 16.735 89.7818 16.933C89.6858 17.131 89.6378 17.344 89.6378 17.572H88.8908C88.8968 17.158 88.9868 16.804 89.1608 16.51C89.3408 16.21 89.5808 15.982 89.8808 15.826C90.1868 15.67 90.5318 15.592 90.9158 15.592C91.5338 15.592 92.0138 15.763 92.3558 16.105C92.6978 16.447 92.8688 16.906 92.8688 17.482C92.8688 17.86 92.7878 18.223 92.6258 18.571C92.4638 18.913 92.2478 19.243 91.9778 19.561C91.7078 19.879 91.4048 20.185 91.0688 20.479C90.7328 20.773 90.3938 21.055 90.0518 21.325H93.0398V22H88.8818ZM97.0863 22V20.542H94.0713V19.957L96.9423 15.7H97.8423V19.858H98.7423V20.542H97.8423V22H97.0863ZM94.9173 19.858H97.1223V16.582L94.9173 19.858ZM101.709 22.108C101.277 22.108 100.905 22.027 100.593 21.865C100.281 21.703 100.035 21.484 99.8548 21.208C99.6748 20.932 99.5668 20.617 99.5308 20.263H100.305C100.359 20.605 100.512 20.884 100.764 21.1C101.016 21.31 101.334 21.415 101.718 21.415C102.168 21.415 102.522 21.271 102.78 20.983C103.038 20.689 103.167 20.32 103.167 19.876C103.167 19.408 103.035 19.042 102.771 18.778C102.507 18.508 102.165 18.373 101.745 18.373C101.409 18.373 101.121 18.451 100.881 18.607C100.647 18.757 100.458 18.949 100.314 19.183H99.5938L100.134 15.7H103.5V16.393H100.728L100.395 18.265H100.44C100.578 18.115 100.764 17.983 100.998 17.869C101.238 17.755 101.514 17.698 101.826 17.698C102.24 17.698 102.6 17.788 102.906 17.968C103.218 18.142 103.461 18.394 103.635 18.724C103.809 19.048 103.896 19.429 103.896 19.867C103.896 20.275 103.809 20.65 103.635 20.992C103.467 21.328 103.218 21.598 102.888 21.802C102.564 22.006 102.171 22.108 101.709 22.108ZM107.105 22.018C106.919 22.018 106.76 21.955 106.628 21.829C106.496 21.703 106.43 21.547 106.43 21.361C106.43 21.181 106.496 21.028 106.628 20.902C106.76 20.776 106.919 20.713 107.105 20.713C107.291 20.713 107.45 20.776 107.582 20.902C107.714 21.028 107.78 21.181 107.78 21.361C107.78 21.547 107.714 21.703 107.582 21.829C107.45 21.955 107.291 22.018 107.105 22.018ZM110.432 22V21.316H112.061V16.591L110.522 16.888V16.312L112.313 15.7H112.817V21.316H114.536V22H110.432ZM117.898 22.108C117.424 22.108 117.004 21.976 116.638 21.712C116.278 21.448 115.996 21.073 115.792 20.587C115.594 20.101 115.495 19.522 115.495 18.85C115.495 18.178 115.594 17.599 115.792 17.113C115.996 16.627 116.278 16.252 116.638 15.988C117.004 15.724 117.424 15.592 117.898 15.592C118.378 15.592 118.798 15.724 119.158 15.988C119.518 16.252 119.797 16.627 119.995 17.113C120.199 17.599 120.301 18.178 120.301 18.85C120.301 19.522 120.199 20.101 119.995 20.587C119.797 21.073 119.518 21.448 119.158 21.712C118.798 21.976 118.378 22.108 117.898 22.108ZM116.269 18.85C116.269 19.258 116.311 19.627 116.395 19.957C116.485 20.281 116.608 20.554 116.764 20.776L118.51 16.447C118.324 16.345 118.12 16.294 117.898 16.294C117.58 16.294 117.298 16.399 117.052 16.609C116.806 16.813 116.614 17.107 116.476 17.491C116.338 17.869 116.269 18.322 116.269 18.85ZM117.898 21.415C118.216 21.415 118.498 21.313 118.744 21.109C118.99 20.899 119.182 20.602 119.32 20.218C119.458 19.834 119.527 19.378 119.527 18.85C119.527 18.442 119.482 18.076 119.392 17.752C119.308 17.422 119.188 17.146 119.032 16.924L117.277 21.262C117.469 21.364 117.676 21.415 117.898 21.415ZM121.261 22V21.406C121.909 20.89 122.473 20.416 122.953 19.984C123.439 19.552 123.814 19.135 124.078 18.733C124.342 18.331 124.474 17.92 124.474 17.5C124.474 17.122 124.366 16.825 124.15 16.609C123.94 16.387 123.655 16.276 123.295 16.276C123.019 16.276 122.785 16.336 122.593 16.456C122.401 16.576 122.257 16.735 122.161 16.933C122.065 17.131 122.017 17.344 122.017 17.572H121.27C121.276 17.158 121.366 16.804 121.54 16.51C121.72 16.21 121.96 15.982 122.26 15.826C122.566 15.67 122.911 15.592 123.295 15.592C123.913 15.592 124.393 15.763 124.735 16.105C125.077 16.447 125.248 16.906 125.248 17.482C125.248 17.86 125.167 18.223 125.005 18.571C124.843 18.913 124.627 19.243 124.357 19.561C124.087 19.879 123.784 20.185 123.448 20.479C123.112 20.773 122.773 21.055 122.431 21.325H125.419V22H121.261ZM128.691 22.018C128.505 22.018 128.346 21.955 128.214 21.829C128.082 21.703 128.016 21.547 128.016 21.361C128.016 21.181 128.082 21.028 128.214 20.902C128.346 20.776 128.505 20.713 128.691 20.713C128.877 20.713 129.036 20.776 129.168 20.902C129.3 21.028 129.366 21.181 129.366 21.361C129.366 21.547 129.3 21.703 129.168 21.829C129.036 21.955 128.877 22.018 128.691 22.018ZM132.054 22V21.406C132.702 20.89 133.266 20.416 133.746 19.984C134.232 19.552 134.607 19.135 134.871 18.733C135.135 18.331 135.267 17.92 135.267 17.5C135.267 17.122 135.159 16.825 134.943 16.609C134.733 16.387 134.448 16.276 134.088 16.276C133.812 16.276 133.578 16.336 133.386 16.456C133.194 16.576 133.05 16.735 132.954 16.933C132.858 17.131 132.81 17.344 132.81 17.572H132.063C132.069 17.158 132.159 16.804 132.333 16.51C132.513 16.21 132.753 15.982 133.053 15.826C133.359 15.67 133.704 15.592 134.088 15.592C134.706 15.592 135.186 15.763 135.528 16.105C135.87 16.447 136.041 16.906 136.041 17.482C136.041 17.86 135.96 18.223 135.798 18.571C135.636 18.913 135.42 19.243 135.15 19.561C134.88 19.879 134.577 20.185 134.241 20.479C133.905 20.773 133.566 21.055 133.224 21.325H136.212V22H132.054ZM138.332 22L140.789 16.384H137.351V15.7H141.572V16.303L139.133 22H138.332ZM144.881 22.018C144.695 22.018 144.536 21.955 144.404 21.829C144.272 21.703 144.206 21.547 144.206 21.361C144.206 21.181 144.272 21.028 144.404 20.902C144.536 20.776 144.695 20.713 144.881 20.713C145.067 20.713 145.226 20.776 145.358 20.902C145.49 21.028 145.556 21.181 145.556 21.361C145.556 21.547 145.49 21.703 145.358 21.829C145.226 21.955 145.067 22.018 144.881 22.018ZM148.243 22V21.406C148.891 20.89 149.455 20.416 149.935 19.984C150.421 19.552 150.796 19.135 151.06 18.733C151.324 18.331 151.456 17.92 151.456 17.5C151.456 17.122 151.348 16.825 151.132 16.609C150.922 16.387 150.637 16.276 150.277 16.276C150.001 16.276 149.767 16.336 149.575 16.456C149.383 16.576 149.239 16.735 149.143 16.933C149.047 17.131 148.999 17.344 148.999 17.572H148.252C148.258 17.158 148.348 16.804 148.522 16.51C148.702 16.21 148.942 15.982 149.242 15.826C149.548 15.67 149.893 15.592 150.277 15.592C150.895 15.592 151.375 15.763 151.717 16.105C152.059 16.447 152.23 16.906 152.23 17.482C152.23 17.86 152.149 18.223 151.987 18.571C151.825 18.913 151.609 19.243 151.339 19.561C151.069 19.879 150.766 20.185 150.43 20.479C150.094 20.773 149.755 21.055 149.413 21.325H152.401V22H148.243Z" fill="#BDA2EB"/>
</g>
<defs>
<filter id="filter0_b_532_73872" x="-8" y="-12" width="241" height="152" filterUnits="userSpaceOnUse" color-interpolation-filters="sRGB">
<feFlood flood-opacity="0" result="BackgroundImageFix"/>
<feGaussianBlur in="BackgroundImageFix" stdDeviation="6"/>
<feComposite in2="SourceAlpha" operator="in" result="effect1_backgroundBlur_532_73872"/>
<feBlend mode="normal" in="SourceGraphic" in2="effect1_backgroundBlur_532_73872" result="shape"/>
</filter>
<filter id="filter1_d_532_73872" x="0" y="0" width="225" height="136" filterUnits="userSpaceOnUse" color-interpolation-filters="sRGB">
<feFlood flood-opacity="0" result="BackgroundImageFix"/>
<feColorMatrix in="SourceAlpha" type="matrix" values="0 0 0 0 0 0 0 0 0 0 0 0 0 0 0 0 0 0 127 0" result="hardAlpha"/>
<feOffset dy="4"/>
<feGaussianBlur stdDeviation="2"/>
<feComposite in2="hardAlpha" operator="out"/>
<feColorMatrix type="matrix" values="0 0 0 0 0 0 0 0 0 0 0 0 0 0 0 0 0 0 0.25 0"/>
<feBlend mode="normal" in2="BackgroundImageFix" result="effect1_dropShadow_532_73872"/>
<feBlend mode="normal" in="SourceGraphic" in2="effect1_dropShadow_532_73872" result="shape"/>
</filter>
</defs>
</svg>
