<svg width="225" height="160" viewBox="0 0 225 160" fill="none" xmlns="http://www.w3.org/2000/svg">
<g filter="url(#filter0_b_532_71302)">
<g filter="url(#filter1_d_532_71302)">
<path d="M4 112C4 120.837 11.1634 128 20 128H205C213.837 128 221 120.837 221 112V16C221 7.16344 213.837 0 205 0H20C11.1634 0 4 7.16344 4 16V112Z" fill="black" fill-opacity="0.6" shape-rendering="crispEdges"/>
</g>
<path opacity="0.2" d="M180.063 75.165H166.357L170.184 58.166H199.999V121H180.063V75.165Z" fill="white"/>
<path d="M21.62 45.232V44.368H25.58V45.232H21.62ZM28.8153 45.232V44.368H32.7753V45.232H28.8153ZM36.0106 45.232V44.368H39.9706V45.232H36.0106ZM43.2059 45.232V44.368H47.1659V45.232H43.2059ZM50.4013 45.232V44.368H54.3613V45.232H50.4013ZM56.7686 49V40.6H59.5646C60.4366 40.6 61.0926 40.8 61.5326 41.2C61.9726 41.6 62.1926 42.112 62.1926 42.736C62.1926 43.224 62.0606 43.628 61.7966 43.948C61.5326 44.26 61.2366 44.48 60.9086 44.608V44.692C61.3006 44.82 61.6446 45.052 61.9406 45.388C62.2366 45.724 62.3846 46.156 62.3846 46.684C62.3846 47.116 62.2766 47.508 62.0606 47.86C61.8526 48.204 61.5446 48.48 61.1366 48.688C60.7366 48.896 60.2446 49 59.6606 49H56.7686ZM57.7766 44.224H59.4926C60.0286 44.224 60.4366 44.108 60.7166 43.876C61.0046 43.636 61.1486 43.292 61.1486 42.844C61.1486 42.42 61.0086 42.092 60.7286 41.86C60.4486 41.628 60.0246 41.512 59.4566 41.512H57.7766V44.224ZM57.7766 48.076H59.5526C60.1286 48.076 60.5726 47.948 60.8846 47.692C61.1966 47.428 61.3526 47.06 61.3526 46.588C61.3526 46.116 61.1886 45.752 60.8606 45.496C60.5326 45.232 60.0886 45.1 59.5286 45.1H57.7766V48.076ZM64.2039 49V40.6H69.4479V41.512H65.2119V44.308H69.0879V45.22H65.2119V48.088H69.4479V49H64.2039ZM73.8832 49.144C73.2912 49.144 72.7632 48.972 72.2992 48.628C71.8352 48.276 71.4712 47.776 71.2072 47.128C70.9512 46.48 70.8232 45.704 70.8232 44.8C70.8232 43.904 70.9552 43.132 71.2192 42.484C71.4832 41.836 71.8552 41.336 72.3352 40.984C72.8232 40.632 73.3992 40.456 74.0632 40.456C74.8552 40.456 75.4992 40.688 75.9952 41.152C76.4992 41.616 76.7992 42.24 76.8952 43.024H75.7792C75.6992 42.544 75.5112 42.156 75.2152 41.86C74.9272 41.556 74.5432 41.404 74.0632 41.404C73.3752 41.404 72.8352 41.704 72.4432 42.304C72.0512 42.904 71.8552 43.736 71.8552 44.8C71.8552 45.88 72.0512 46.716 72.4432 47.308C72.8352 47.9 73.3432 48.196 73.9672 48.196C74.4152 48.196 74.7832 48.064 75.0712 47.8C75.3592 47.528 75.5752 47.184 75.7192 46.768C75.8712 46.344 75.9552 45.908 75.9712 45.46H74.0992V44.596H77.0032V49H76.0792L75.9952 47.728H75.9472C75.7792 48.16 75.5312 48.504 75.2032 48.76C74.8832 49.016 74.4432 49.144 73.8832 49.144ZM78.7505 49V48.124H80.6585V41.476H78.7505V40.6H83.5745V41.476H81.6665V48.124H83.5745V49H78.7505ZM85.4418 49V40.6H86.4738L90.2898 47.236V40.6H91.2858V49H90.2418L86.4258 42.364V49H85.4418ZM100.036 49V40.6H102.832C103.472 40.6 103.996 40.716 104.404 40.948C104.812 41.18 105.112 41.488 105.304 41.872C105.496 42.256 105.592 42.68 105.592 43.144C105.592 43.608 105.496 44.032 105.304 44.416C105.112 44.8 104.812 45.108 104.404 45.34C103.996 45.572 103.472 45.688 102.832 45.688H101.044V49H100.036ZM101.044 44.764H102.808C103.4 44.764 103.84 44.616 104.128 44.32C104.416 44.016 104.56 43.624 104.56 43.144C104.56 42.664 104.416 42.272 104.128 41.968C103.84 41.664 103.4 41.512 102.808 41.512H101.044V44.764ZM109.86 49.144C109.268 49.144 108.74 48.972 108.276 48.628C107.812 48.276 107.448 47.776 107.184 47.128C106.928 46.48 106.8 45.704 106.8 44.8C106.8 43.904 106.932 43.132 107.196 42.484C107.46 41.836 107.832 41.336 108.312 40.984C108.8 40.632 109.376 40.456 110.04 40.456C110.832 40.456 111.476 40.688 111.972 41.152C112.476 41.616 112.776 42.24 112.872 43.024H111.756C111.676 42.544 111.488 42.156 111.192 41.86C110.904 41.556 110.52 41.404 110.04 41.404C109.352 41.404 108.812 41.704 108.42 42.304C108.028 42.904 107.832 43.736 107.832 44.8C107.832 45.88 108.028 46.716 108.42 47.308C108.812 47.9 109.32 48.196 109.944 48.196C110.392 48.196 110.76 48.064 111.048 47.8C111.336 47.528 111.552 47.184 111.696 46.768C111.848 46.344 111.932 45.908 111.948 45.46H110.076V44.596H112.98V49H112.056L111.972 47.728H111.924C111.756 48.16 111.508 48.504 111.18 48.76C110.86 49.016 110.42 49.144 109.86 49.144ZM114.427 49V40.6H117.223C117.863 40.6 118.387 40.716 118.795 40.948C119.203 41.18 119.503 41.488 119.695 41.872C119.887 42.256 119.983 42.68 119.983 43.144C119.983 43.608 119.887 44.032 119.695 44.416C119.503 44.8 119.203 45.108 118.795 45.34C118.387 45.572 117.863 45.688 117.223 45.688H115.435V49H114.427ZM115.435 44.764H117.199C117.791 44.764 118.231 44.616 118.519 44.32C118.807 44.016 118.951 43.624 118.951 43.144C118.951 42.664 118.807 42.272 118.519 41.968C118.231 41.664 117.791 41.512 117.199 41.512H115.435V44.764ZM128.53 49V40.6H129.61L131.53 44.596L133.45 40.6H134.53V49H133.546V42.544L131.914 45.94H131.146L129.514 42.556V49H128.53ZM136.157 49V40.6H141.401V41.512H137.165V44.308H141.041V45.22H137.165V48.088H141.401V49H136.157ZM146.004 49.144C145.412 49.144 144.896 49.032 144.456 48.808C144.024 48.584 143.688 48.272 143.448 47.872C143.216 47.472 143.096 47.004 143.088 46.468H144.144C144.152 46.948 144.312 47.364 144.624 47.716C144.944 48.06 145.404 48.232 146.004 48.232C146.556 48.232 146.98 48.1 147.276 47.836C147.58 47.564 147.732 47.24 147.732 46.864C147.732 46.552 147.66 46.292 147.516 46.084C147.372 45.868 147.136 45.68 146.808 45.52C146.488 45.352 146.056 45.18 145.512 45.004C144.744 44.772 144.184 44.456 143.832 44.056C143.48 43.656 143.304 43.16 143.304 42.568C143.304 42.168 143.408 41.808 143.616 41.488C143.824 41.168 144.124 40.916 144.516 40.732C144.908 40.548 145.384 40.456 145.944 40.456C146.472 40.456 146.932 40.556 147.324 40.756C147.724 40.948 148.032 41.22 148.248 41.572C148.472 41.924 148.584 42.328 148.584 42.784H147.528C147.528 42.56 147.468 42.34 147.348 42.124C147.228 41.908 147.048 41.728 146.808 41.584C146.568 41.44 146.264 41.368 145.896 41.368C145.456 41.368 145.088 41.476 144.792 41.692C144.496 41.9 144.348 42.188 144.348 42.556C144.348 42.836 144.412 43.072 144.54 43.264C144.676 43.456 144.896 43.632 145.2 43.792C145.504 43.944 145.916 44.108 146.436 44.284C146.924 44.444 147.34 44.632 147.684 44.848C148.036 45.056 148.304 45.316 148.488 45.628C148.68 45.94 148.776 46.328 148.776 46.792C148.776 47.248 148.66 47.652 148.428 48.004C148.196 48.356 147.872 48.636 147.456 48.844C147.04 49.044 146.556 49.144 146.004 49.144ZM153.2 49.144C152.608 49.144 152.092 49.032 151.652 48.808C151.22 48.584 150.884 48.272 150.644 47.872C150.412 47.472 150.292 47.004 150.284 46.468H151.34C151.348 46.948 151.508 47.364 151.82 47.716C152.14 48.06 152.6 48.232 153.2 48.232C153.752 48.232 154.176 48.1 154.472 47.836C154.776 47.564 154.928 47.24 154.928 46.864C154.928 46.552 154.856 46.292 154.712 46.084C154.568 45.868 154.332 45.68 154.004 45.52C153.684 45.352 153.252 45.18 152.708 45.004C151.94 44.772 151.38 44.456 151.028 44.056C150.676 43.656 150.5 43.16 150.5 42.568C150.5 42.168 150.604 41.808 150.812 41.488C151.02 41.168 151.32 40.916 151.712 40.732C152.104 40.548 152.58 40.456 153.14 40.456C153.668 40.456 154.128 40.556 154.52 40.756C154.92 40.948 155.228 41.22 155.444 41.572C155.668 41.924 155.78 42.328 155.78 42.784H154.724C154.724 42.56 154.664 42.34 154.544 42.124C154.424 41.908 154.244 41.728 154.004 41.584C153.764 41.44 153.46 41.368 153.092 41.368C152.652 41.368 152.284 41.476 151.988 41.692C151.692 41.9 151.544 42.188 151.544 42.556C151.544 42.836 151.608 43.072 151.736 43.264C151.872 43.456 152.092 43.632 152.396 43.792C152.7 43.944 153.112 44.108 153.632 44.284C154.12 44.444 154.536 44.632 154.88 44.848C155.232 45.056 155.5 45.316 155.684 45.628C155.876 45.94 155.972 46.328 155.972 46.792C155.972 47.248 155.856 47.652 155.624 48.004C155.392 48.356 155.068 48.636 154.652 48.844C154.236 49.044 153.752 49.144 153.2 49.144ZM157.107 49L159.735 40.6H160.899L163.515 49H162.411L161.799 46.912H158.823L158.211 49H157.107ZM160.287 42.016L159.075 46.072H161.547L160.335 42.016H160.287ZM167.422 49.144C166.83 49.144 166.302 48.972 165.838 48.628C165.374 48.276 165.01 47.776 164.746 47.128C164.49 46.48 164.362 45.704 164.362 44.8C164.362 43.904 164.494 43.132 164.758 42.484C165.022 41.836 165.394 41.336 165.874 40.984C166.362 40.632 166.938 40.456 167.602 40.456C168.394 40.456 169.038 40.688 169.534 41.152C170.038 41.616 170.338 42.24 170.434 43.024H169.318C169.238 42.544 169.05 42.156 168.754 41.86C168.466 41.556 168.082 41.404 167.602 41.404C166.914 41.404 166.374 41.704 165.982 42.304C165.59 42.904 165.394 43.736 165.394 44.8C165.394 45.88 165.59 46.716 165.982 47.308C166.374 47.9 166.882 48.196 167.506 48.196C167.954 48.196 168.322 48.064 168.61 47.8C168.898 47.528 169.114 47.184 169.258 46.768C169.41 46.344 169.494 45.908 169.51 45.46H167.638V44.596H170.542V49H169.618L169.534 47.728H169.486C169.318 48.16 169.07 48.504 168.742 48.76C168.422 49.016 167.982 49.144 167.422 49.144ZM172.134 49V40.6H177.378V41.512H173.142V44.308H177.018V45.22H173.142V48.088H177.378V49H172.134ZM179.917 45.232V44.368H183.877V45.232H179.917ZM187.112 45.232V44.368H191.072V45.232H187.112ZM194.308 45.232V44.368H198.268V45.232H194.308ZM201.503 45.232V44.368H205.463V45.232H201.503ZM208.698 45.232V44.368H212.658V45.232H208.698ZM42.5819 65V56.36H43.5899V59.948C43.7499 59.644 44.0139 59.396 44.3819 59.204C44.7499 59.004 45.1539 58.904 45.5939 58.904C46.3219 58.904 46.8739 59.124 47.2499 59.564C47.6339 60.004 47.8259 60.62 47.8259 61.412V65H46.8179V61.544C46.8179 61.008 46.6859 60.592 46.4219 60.296C46.1659 60 45.8059 59.852 45.3419 59.852C45.0219 59.852 44.7299 59.924 44.4659 60.068C44.2019 60.212 43.9899 60.424 43.8299 60.704C43.6699 60.984 43.5899 61.328 43.5899 61.736V65H42.5819ZM52.3813 65.144C51.7013 65.144 51.1173 64.964 50.6293 64.604C50.1413 64.244 49.7653 63.74 49.5013 63.092C49.2453 62.436 49.1173 61.672 49.1173 60.8C49.1173 59.928 49.2453 59.168 49.5013 58.52C49.7653 57.864 50.1413 57.356 50.6293 56.996C51.1173 56.636 51.7013 56.456 52.3813 56.456C53.0613 56.456 53.6453 56.636 54.1333 56.996C54.6213 57.356 54.9933 57.864 55.2493 58.52C55.5133 59.168 55.6453 59.928 55.6453 60.8C55.6453 61.8 55.4733 62.656 55.1293 63.368C54.7853 64.072 54.3053 64.572 53.6893 64.868L55.4893 66.788H54.1693L52.6333 65.132C52.5453 65.14 52.4613 65.144 52.3813 65.144ZM52.3813 64.196C53.0453 64.196 53.5813 63.9 53.9893 63.308C54.4053 62.716 54.6133 61.88 54.6133 60.8C54.6133 59.72 54.4053 58.884 53.9893 58.292C53.5813 57.7 53.0453 57.404 52.3813 57.404C51.7093 57.404 51.1693 57.7 50.7613 58.292C50.3533 58.884 50.1493 59.72 50.1493 60.8C50.1493 61.88 50.3533 62.716 50.7613 63.308C51.1693 63.9 51.7093 64.196 52.3813 64.196ZM57.1646 65V64.124H59.0726V57.476H57.1646V56.6H61.9886V57.476H60.0806V64.124H61.9886V65H57.1646ZM63.7719 65V56.6H64.8519L66.7719 60.596L68.6919 56.6H69.7719V65H68.7879V58.544L67.1559 61.94H66.3879L64.7559 58.556V65H63.7719ZM70.7632 65L73.3912 56.6H74.5552L77.1712 65H76.0672L75.4552 62.912H72.4792L71.8672 65H70.7632ZM73.9432 58.016L72.7312 62.072H75.2032L73.9912 58.016H73.9432ZM82.1945 65V63.056H78.1745V62.276L82.0025 56.6H83.2025V62.144H84.4025V63.056H83.2025V65H82.1945ZM79.3025 62.144H82.2425V57.776L79.3025 62.144ZM85.5978 65V64.088H87.7698V57.788L85.7178 58.184V57.416L88.1058 56.6H88.7778V64.088H91.0698V65H85.5978ZM95.0491 65.144C94.5771 65.144 94.1851 65.06 93.8731 64.892C93.5611 64.724 93.3291 64.504 93.1771 64.232C93.0251 63.952 92.9491 63.648 92.9491 63.32C92.9491 62.712 93.1691 62.252 93.6091 61.94C94.0571 61.62 94.6531 61.46 95.3971 61.46H97.0291V61.34C97.0291 60.3 96.5531 59.78 95.6011 59.78C95.2171 59.78 94.8931 59.864 94.6291 60.032C94.3731 60.2 94.2091 60.464 94.1371 60.824H93.1051C93.1451 60.424 93.2771 60.08 93.5011 59.792C93.7331 59.504 94.0291 59.284 94.3891 59.132C94.7491 58.98 95.1531 58.904 95.6011 58.904C96.4491 58.904 97.0651 59.128 97.4491 59.576C97.8411 60.016 98.0371 60.604 98.0371 61.34V65H97.1731L97.0891 64.076H97.0051C96.8291 64.364 96.5931 64.616 96.2971 64.832C96.0091 65.04 95.5931 65.144 95.0491 65.144ZM95.2291 64.256C95.6131 64.256 95.9371 64.164 96.2011 63.98C96.4731 63.796 96.6771 63.552 96.8131 63.248C96.9571 62.944 97.0291 62.612 97.0291 62.252H95.4811C94.9371 62.252 94.5531 62.344 94.3291 62.528C94.1131 62.712 94.0051 62.956 94.0051 63.26C94.0051 63.572 94.1091 63.816 94.3171 63.992C94.5251 64.168 94.8291 64.256 95.2291 64.256ZM102.328 65.144C101.608 65.144 101.064 64.928 100.696 64.496C100.328 64.064 100.144 63.44 100.144 62.624V59.048H101.152V62.504C101.152 63.032 101.268 63.448 101.5 63.752C101.74 64.048 102.1 64.196 102.58 64.196C103.06 64.196 103.464 64.036 103.792 63.716C104.12 63.388 104.284 62.92 104.284 62.312V59.048H105.292V65H104.452L104.344 64.1H104.284C104.124 64.388 103.872 64.636 103.528 64.844C103.184 65.044 102.784 65.144 102.328 65.144ZM106.944 65V56.6H108.024L109.944 60.596L111.864 56.6H112.944V65H111.96V58.544L110.328 61.94H109.56L107.928 58.556V65H106.944ZM117.199 65.144C116.639 65.144 116.143 65.016 115.711 64.76C115.287 64.496 114.951 64.132 114.703 63.668C114.455 63.196 114.331 62.648 114.331 62.024C114.331 61.4 114.451 60.856 114.691 60.392C114.939 59.92 115.279 59.556 115.711 59.3C116.143 59.036 116.647 58.904 117.223 58.904C117.799 58.904 118.291 59.036 118.699 59.3C119.107 59.556 119.419 59.896 119.635 60.32C119.851 60.744 119.959 61.2 119.959 61.688C119.959 61.776 119.955 61.864 119.947 61.952C119.947 62.04 119.947 62.14 119.947 62.252H115.327C115.351 62.692 115.451 63.06 115.627 63.356C115.811 63.644 116.039 63.86 116.311 64.004C116.591 64.148 116.887 64.22 117.199 64.22C117.639 64.22 117.983 64.128 118.231 63.944C118.479 63.76 118.667 63.504 118.795 63.176H119.791C119.655 63.728 119.371 64.196 118.939 64.58C118.507 64.956 117.927 65.144 117.199 65.144ZM117.199 59.804C116.735 59.804 116.327 59.944 115.975 60.224C115.631 60.504 115.419 60.896 115.339 61.4H118.963C118.931 60.904 118.751 60.516 118.423 60.236C118.103 59.948 117.695 59.804 117.199 59.804ZM124.418 65.144C123.826 65.144 123.31 65.032 122.87 64.808C122.438 64.584 122.102 64.272 121.862 63.872C121.63 63.472 121.51 63.004 121.502 62.468H122.558C122.566 62.948 122.726 63.364 123.038 63.716C123.358 64.06 123.818 64.232 124.418 64.232C124.97 64.232 125.394 64.1 125.69 63.836C125.994 63.564 126.146 63.24 126.146 62.864C126.146 62.552 126.074 62.292 125.93 62.084C125.786 61.868 125.55 61.68 125.222 61.52C124.902 61.352 124.47 61.18 123.926 61.004C123.158 60.772 122.598 60.456 122.246 60.056C121.894 59.656 121.718 59.16 121.718 58.568C121.718 58.168 121.822 57.808 122.03 57.488C122.238 57.168 122.538 56.916 122.93 56.732C123.322 56.548 123.798 56.456 124.358 56.456C124.886 56.456 125.346 56.556 125.738 56.756C126.138 56.948 126.446 57.22 126.662 57.572C126.886 57.924 126.998 58.328 126.998 58.784H125.942C125.942 58.56 125.882 58.34 125.762 58.124C125.642 57.908 125.462 57.728 125.222 57.584C124.982 57.44 124.678 57.368 124.31 57.368C123.87 57.368 123.502 57.476 123.206 57.692C122.91 57.9 122.762 58.188 122.762 58.556C122.762 58.836 122.826 59.072 122.954 59.264C123.09 59.456 123.31 59.632 123.614 59.792C123.918 59.944 124.33 60.108 124.85 60.284C125.338 60.444 125.754 60.632 126.098 60.848C126.45 61.056 126.718 61.316 126.902 61.628C127.094 61.94 127.19 62.328 127.19 62.792C127.19 63.248 127.074 63.652 126.842 64.004C126.61 64.356 126.286 64.636 125.87 64.844C125.454 65.044 124.97 65.144 124.418 65.144ZM129.022 65V56.6H134.266V57.536H130.03V60.464H133.654V61.364H130.03V65H129.022ZM138.221 65V57.512H135.965V56.6H141.485V57.512H139.229V65H138.221ZM143.316 65V56.36H144.324V59.948C144.484 59.644 144.748 59.396 145.116 59.204C145.484 59.004 145.888 58.904 146.328 58.904C147.056 58.904 147.608 59.124 147.984 59.564C148.368 60.004 148.56 60.62 148.56 61.412V65H147.552V61.544C147.552 61.008 147.42 60.592 147.156 60.296C146.9 60 146.54 59.852 146.076 59.852C145.756 59.852 145.464 59.924 145.2 60.068C144.936 60.212 144.724 60.424 144.564 60.704C144.404 60.984 144.324 61.328 144.324 61.736V65H143.316ZM150.572 65V59.048H151.412L151.52 59.948H151.58C151.74 59.66 151.992 59.416 152.336 59.216C152.68 59.008 153.076 58.904 153.524 58.904C154.252 58.904 154.796 59.12 155.156 59.552C155.524 59.984 155.708 60.608 155.708 61.424V65H154.7V61.544C154.7 61.016 154.584 60.604 154.352 60.308C154.12 60.004 153.76 59.852 153.272 59.852C152.8 59.852 152.4 60.016 152.072 60.344C151.744 60.664 151.58 61.128 151.58 61.736V65H150.572ZM157.107 65L159.735 56.6H160.899L163.515 65H162.411L161.799 62.912H158.823L158.211 65H157.107ZM160.287 58.016L159.075 62.072H161.547L160.335 58.016H160.287ZM167.506 65.144C166.826 65.144 166.242 64.964 165.754 64.604C165.266 64.244 164.89 63.74 164.626 63.092C164.37 62.436 164.242 61.672 164.242 60.8C164.242 59.928 164.37 59.168 164.626 58.52C164.89 57.864 165.266 57.356 165.754 56.996C166.242 56.636 166.826 56.456 167.506 56.456C168.186 56.456 168.77 56.636 169.258 56.996C169.746 57.356 170.118 57.864 170.374 58.52C170.638 59.168 170.77 59.928 170.77 60.8C170.77 61.8 170.598 62.656 170.254 63.368C169.91 64.072 169.43 64.572 168.814 64.868L170.614 66.788H169.294L167.758 65.132C167.67 65.14 167.586 65.144 167.506 65.144ZM167.506 64.196C168.17 64.196 168.706 63.9 169.114 63.308C169.53 62.716 169.738 61.88 169.738 60.8C169.738 59.72 169.53 58.884 169.114 58.292C168.706 57.7 168.17 57.404 167.506 57.404C166.834 57.404 166.294 57.7 165.886 58.292C165.478 58.884 165.274 59.72 165.274 60.8C165.274 61.88 165.478 62.716 165.886 63.308C166.294 63.9 166.834 64.196 167.506 64.196ZM172.098 66.08L176.25 55.88H177.306L173.142 66.08H172.098ZM37.5346 79.5V77.256H35.2906V76.344H37.5346V74.1H38.4466V76.344H40.6906V77.256H38.4466V79.5H37.5346ZM42.1859 81V72.6H43.2659L45.1859 76.596L47.1059 72.6H48.1859V81H47.2019V74.544L45.5699 77.94H44.8019L43.1699 74.556V81H42.1859ZM49.6693 81V72.6H52.4653C53.1053 72.6 53.6293 72.716 54.0373 72.948C54.4453 73.18 54.7453 73.488 54.9373 73.872C55.1293 74.256 55.2253 74.68 55.2253 75.144C55.2253 75.608 55.1293 76.032 54.9373 76.416C54.7453 76.8 54.4453 77.108 54.0373 77.34C53.6293 77.572 53.1053 77.688 52.4653 77.688H50.6773V81H49.6693ZM50.6773 76.764H52.4413C53.0333 76.764 53.4733 76.616 53.7613 76.32C54.0493 76.016 54.1933 75.624 54.1933 75.144C54.1933 74.664 54.0493 74.272 53.7613 73.968C53.4733 73.664 53.0333 73.512 52.4413 73.512H50.6773V76.764ZM59.3726 81.144C58.8686 81.144 58.4166 81.024 58.0166 80.784C57.6246 80.544 57.3166 80.192 57.0926 79.728C56.8686 79.256 56.7566 78.684 56.7566 78.012C56.7566 77.348 56.8686 76.784 57.0926 76.32C57.3166 75.856 57.6246 75.504 58.0166 75.264C58.4166 75.024 58.8686 74.904 59.3726 74.904C59.8446 74.904 60.2326 74.996 60.5366 75.18C60.8486 75.364 61.0806 75.604 61.2326 75.9V72.36H62.2406V81H61.4126L61.3046 80.076H61.2326C61.0726 80.404 60.8366 80.664 60.5246 80.856C60.2126 81.048 59.8286 81.144 59.3726 81.144ZM59.5046 80.184C60.0086 80.184 60.4246 80.008 60.7526 79.656C61.0806 79.296 61.2446 78.752 61.2446 78.024C61.2446 77.296 61.0806 76.756 60.7526 76.404C60.4246 76.044 60.0086 75.864 59.5046 75.864C59.0006 75.864 58.5846 76.044 58.2566 76.404C57.9366 76.756 57.7766 77.296 57.7766 78.024C57.7766 78.752 57.9366 79.296 58.2566 79.656C58.5846 80.008 59.0006 80.184 59.5046 80.184ZM66.8679 81.144C66.3319 81.144 65.8519 81.02 65.4279 80.772C65.0119 80.524 64.6799 80.168 64.4319 79.704C64.1839 79.232 64.0599 78.672 64.0599 78.024C64.0599 77.376 64.1839 76.82 64.4319 76.356C64.6799 75.884 65.0159 75.524 65.4399 75.276C65.8719 75.028 66.3479 74.904 66.8679 74.904C67.6039 74.904 68.1919 75.088 68.6319 75.456C69.0719 75.824 69.3519 76.316 69.4719 76.932H68.4399C68.3439 76.604 68.1599 76.344 67.8879 76.152C67.6159 75.952 67.2719 75.852 66.8559 75.852C66.5519 75.852 66.2639 75.932 65.9919 76.092C65.7199 76.252 65.4999 76.492 65.3319 76.812C65.1639 77.132 65.0799 77.536 65.0799 78.024C65.0799 78.512 65.1639 78.92 65.3319 79.248C65.4999 79.568 65.7199 79.808 65.9919 79.968C66.2639 80.128 66.5519 80.208 66.8559 80.208C67.2959 80.208 67.6439 80.108 67.8999 79.908C68.1639 79.708 68.3439 79.444 68.4399 79.116H69.4719C69.3199 79.748 69.0199 80.244 68.5719 80.604C68.1319 80.964 67.5639 81.144 66.8679 81.144ZM70.7632 81L73.3912 72.6H74.5552L77.1712 81H76.0672L75.4552 78.912H72.4792L71.8672 81H70.7632ZM73.9432 74.016L72.7312 78.072H75.2032L73.9912 74.016H73.9432ZM81.1625 81.144C80.5865 81.144 80.0905 81.036 79.6745 80.82C79.2585 80.604 78.9305 80.312 78.6905 79.944C78.4505 79.576 78.3065 79.156 78.2585 78.684H79.2905C79.3625 79.14 79.5665 79.512 79.9025 79.8C80.2385 80.08 80.6625 80.22 81.1745 80.22C81.7745 80.22 82.2465 80.028 82.5905 79.644C82.9345 79.252 83.1065 78.76 83.1065 78.168C83.1065 77.544 82.9305 77.056 82.5785 76.704C82.2265 76.344 81.7705 76.164 81.2105 76.164C80.7625 76.164 80.3785 76.268 80.0585 76.476C79.7465 76.676 79.4945 76.932 79.3025 77.244H78.3425L79.0625 72.6H83.5505V73.524H79.8545L79.4105 76.02H79.4705C79.6545 75.82 79.9025 75.644 80.2145 75.492C80.5345 75.34 80.9025 75.264 81.3185 75.264C81.8705 75.264 82.3505 75.384 82.7585 75.624C83.1745 75.856 83.4985 76.192 83.7305 76.632C83.9625 77.064 84.0785 77.572 84.0785 78.156C84.0785 78.7 83.9625 79.2 83.7305 79.656C83.5065 80.104 83.1745 80.464 82.7345 80.736C82.3025 81.008 81.7785 81.144 81.1625 81.144ZM87.7578 81L85.0818 72.6H86.1618L88.3578 79.692L90.5538 72.6H91.6458L88.9578 81H87.7578ZM95.3491 81.144C94.8451 81.144 94.3931 81.024 93.9931 80.784C93.6011 80.544 93.2931 80.192 93.0691 79.728C92.8451 79.256 92.7331 78.684 92.7331 78.012C92.7331 77.348 92.8451 76.784 93.0691 76.32C93.2931 75.856 93.6011 75.504 93.9931 75.264C94.3931 75.024 94.8451 74.904 95.3491 74.904C95.8211 74.904 96.2091 74.996 96.5131 75.18C96.8251 75.364 97.0571 75.604 97.2091 75.9V72.36H98.2171V81H97.3891L97.2811 80.076H97.2091C97.0491 80.404 96.8131 80.664 96.5011 80.856C96.1891 81.048 95.8051 81.144 95.3491 81.144ZM95.4811 80.184C95.9851 80.184 96.4011 80.008 96.7291 79.656C97.0571 79.296 97.2211 78.752 97.2211 78.024C97.2211 77.296 97.0571 76.756 96.7291 76.404C96.4011 76.044 95.9851 75.864 95.4811 75.864C94.9771 75.864 94.5611 76.044 94.2331 76.404C93.9131 76.756 93.7531 77.296 93.7531 78.024C93.7531 78.752 93.9131 79.296 94.2331 79.656C94.5611 80.008 94.9771 80.184 95.4811 80.184ZM100.456 81L99.1724 72.6H100.192L101.044 79.08L102.232 72.6H103.264L104.452 79.08L105.304 72.6H106.324L105.04 81H103.888L102.748 74.544L101.608 81H100.456ZM110.184 73.992C109.952 73.992 109.752 73.912 109.584 73.752C109.424 73.592 109.344 73.4 109.344 73.176C109.344 72.944 109.424 72.752 109.584 72.6C109.752 72.44 109.952 72.36 110.184 72.36C110.424 72.36 110.624 72.44 110.784 72.6C110.944 72.752 111.024 72.944 111.024 73.176C111.024 73.4 110.944 73.592 110.784 73.752C110.624 73.912 110.424 73.992 110.184 73.992ZM107.076 83.64V82.776H109.452C109.652 82.776 109.752 82.672 109.752 82.464V76.212C109.752 76.012 109.652 75.912 109.452 75.912H108.012V75.048H109.692C110.404 75.048 110.76 75.404 110.76 76.116V82.572C110.76 83.284 110.404 83.64 109.692 83.64H107.076ZM114.139 81V72.6H115.219L117.139 76.596L119.059 72.6H120.139V81H119.155V74.544L117.523 77.94H116.755L115.123 74.556V81H114.139ZM124.334 81.144C123.774 81.144 123.278 81.016 122.846 80.76C122.414 80.504 122.074 80.144 121.826 79.68C121.578 79.208 121.454 78.656 121.454 78.024C121.454 77.392 121.578 76.844 121.826 76.38C122.074 75.908 122.414 75.544 122.846 75.288C123.278 75.032 123.774 74.904 124.334 74.904C124.894 74.904 125.39 75.032 125.822 75.288C126.254 75.544 126.594 75.908 126.842 76.38C127.09 76.844 127.214 77.392 127.214 78.024C127.214 78.656 127.09 79.208 126.842 79.68C126.594 80.144 126.254 80.504 125.822 80.76C125.39 81.016 124.894 81.144 124.334 81.144ZM124.334 80.184C124.678 80.184 124.99 80.108 125.27 79.956C125.55 79.804 125.77 79.568 125.93 79.248C126.098 78.928 126.182 78.52 126.182 78.024C126.182 77.528 126.098 77.12 125.93 76.8C125.77 76.48 125.55 76.244 125.27 76.092C124.99 75.94 124.678 75.864 124.334 75.864C123.998 75.864 123.69 75.94 123.41 76.092C123.13 76.244 122.906 76.48 122.738 76.8C122.57 77.12 122.486 77.528 122.486 78.024C122.486 78.768 122.666 79.316 123.026 79.668C123.386 80.012 123.822 80.184 124.334 80.184ZM131.626 81.144C130.802 81.144 130.17 80.912 129.73 80.448C129.29 79.976 129.07 79.328 129.07 78.504H130.09C130.098 78.976 130.222 79.38 130.462 79.716C130.702 80.044 131.086 80.208 131.614 80.208C132.142 80.208 132.518 80.048 132.742 79.728C132.974 79.408 133.09 79.008 133.09 78.528V72.6H134.098V78.528C134.098 79.368 133.882 80.016 133.45 80.472C133.018 80.92 132.41 81.144 131.626 81.144ZM136.229 83.64V82.716H136.961C137.265 82.716 137.481 82.656 137.609 82.536C137.737 82.416 137.801 82.204 137.801 81.9V75.912H136.325V75.048H137.801V74.1C137.801 73.484 137.949 73.04 138.245 72.768C138.541 72.496 138.989 72.36 139.589 72.36H141.017V73.272H139.649C139.353 73.272 139.137 73.336 139.001 73.464C138.873 73.584 138.809 73.796 138.809 74.1V75.048H141.017V75.912H138.809V81.9C138.809 82.516 138.661 82.96 138.365 83.232C138.069 83.504 137.625 83.64 137.033 83.64H136.229ZM145.776 81.144C145.264 81.144 144.808 81.044 144.408 80.844C144.016 80.636 143.7 80.36 143.46 80.016C143.228 79.664 143.092 79.272 143.052 78.84H144.024C144.096 79.264 144.284 79.604 144.588 79.86C144.9 80.108 145.296 80.232 145.776 80.232C146.408 80.232 146.924 79.948 147.324 79.38C147.724 78.804 147.952 77.908 148.008 76.692H147.936C147.72 77.068 147.444 77.376 147.108 77.616C146.772 77.856 146.3 77.976 145.692 77.976C145.188 77.976 144.736 77.86 144.336 77.628C143.936 77.396 143.616 77.076 143.376 76.668C143.144 76.26 143.028 75.796 143.028 75.276C143.028 74.764 143.14 74.296 143.364 73.872C143.596 73.44 143.92 73.096 144.336 72.84C144.76 72.584 145.252 72.456 145.812 72.456C146.868 72.456 147.656 72.816 148.176 73.536C148.696 74.256 148.956 75.236 148.956 76.476C148.956 77.396 148.832 78.208 148.584 78.912C148.336 79.608 147.976 80.156 147.504 80.556C147.032 80.948 146.456 81.144 145.776 81.144ZM145.884 77.064C146.444 77.064 146.892 76.888 147.228 76.536C147.564 76.184 147.732 75.744 147.732 75.216C147.732 74.688 147.564 74.248 147.228 73.896C146.892 73.544 146.444 73.368 145.884 73.368C145.324 73.368 144.876 73.544 144.54 73.896C144.212 74.248 144.048 74.688 144.048 75.216C144.048 75.752 144.212 76.196 144.54 76.548C144.876 76.892 145.324 77.064 145.884 77.064ZM153.116 81.024C152.868 81.024 152.656 80.94 152.48 80.772C152.304 80.604 152.216 80.396 152.216 80.148C152.216 79.908 152.304 79.704 152.48 79.536C152.656 79.368 152.868 79.284 153.116 79.284C153.364 79.284 153.576 79.368 153.752 79.536C153.928 79.704 154.016 79.908 154.016 80.148C154.016 80.396 153.928 80.604 153.752 80.772C153.576 80.94 153.364 81.024 153.116 81.024ZM160.311 81.024C160.063 81.024 159.851 80.94 159.675 80.772C159.499 80.604 159.411 80.396 159.411 80.148C159.411 79.908 159.499 79.704 159.675 79.536C159.851 79.368 160.063 79.284 160.311 79.284C160.559 79.284 160.771 79.368 160.947 79.536C161.123 79.704 161.211 79.908 161.211 80.148C161.211 80.396 161.123 80.604 160.947 80.772C160.771 80.94 160.559 81.024 160.311 81.024ZM167.506 81.024C167.258 81.024 167.046 80.94 166.87 80.772C166.694 80.604 166.606 80.396 166.606 80.148C166.606 79.908 166.694 79.704 166.87 79.536C167.046 79.368 167.258 79.284 167.506 79.284C167.754 79.284 167.966 79.368 168.142 79.536C168.318 79.704 168.406 79.908 168.406 80.148C168.406 80.396 168.318 80.604 168.142 80.772C167.966 80.94 167.754 81.024 167.506 81.024ZM21.62 93.232V92.368H25.58V93.232H21.62ZM28.8153 93.232V92.368H32.7753V93.232H28.8153ZM36.0106 93.232V92.368H39.9706V93.232H36.0106ZM43.2059 93.232V92.368H47.1659V93.232H43.2059ZM50.4013 93.232V92.368H54.3613V93.232H50.4013ZM57.0086 97V88.6H62.2526V89.512H58.0166V92.308H61.8926V93.22H58.0166V96.088H62.2526V97H57.0086ZM63.8559 97V88.6H64.8879L68.7039 95.236V88.6H69.6999V97H68.6559L64.8399 90.364V97H63.8559ZM71.1592 97V88.6H72.9232C74.2992 88.6 75.3152 88.976 75.9712 89.728C76.6352 90.48 76.9672 91.504 76.9672 92.8C76.9672 94.096 76.6352 95.12 75.9712 95.872C75.3152 96.624 74.2992 97 72.9232 97H71.1592ZM72.1672 96.076H72.8992C73.6352 96.076 74.2232 95.94 74.6632 95.668C75.1112 95.396 75.4352 95.016 75.6352 94.528C75.8352 94.04 75.9352 93.464 75.9352 92.8C75.9352 92.136 75.8352 91.56 75.6352 91.072C75.4352 90.584 75.1112 90.204 74.6632 89.932C74.2232 89.66 73.6352 89.524 72.8992 89.524H72.1672V96.076ZM85.6458 97V88.6H88.4418C89.0818 88.6 89.6058 88.716 90.0138 88.948C90.4218 89.18 90.7218 89.488 90.9138 89.872C91.1058 90.256 91.2018 90.68 91.2018 91.144C91.2018 91.608 91.1058 92.032 90.9138 92.416C90.7218 92.8 90.4218 93.108 90.0138 93.34C89.6058 93.572 89.0818 93.688 88.4418 93.688H86.6538V97H85.6458ZM86.6538 92.764H88.4178C89.0098 92.764 89.4498 92.616 89.7378 92.32C90.0258 92.016 90.1698 91.624 90.1698 91.144C90.1698 90.664 90.0258 90.272 89.7378 89.968C89.4498 89.664 89.0098 89.512 88.4178 89.512H86.6538V92.764ZM95.4691 97.144C94.8771 97.144 94.3491 96.972 93.8851 96.628C93.4211 96.276 93.0571 95.776 92.7931 95.128C92.5371 94.48 92.4091 93.704 92.4091 92.8C92.4091 91.904 92.5411 91.132 92.8051 90.484C93.0691 89.836 93.4411 89.336 93.9211 88.984C94.4091 88.632 94.9851 88.456 95.6491 88.456C96.4411 88.456 97.0851 88.688 97.5811 89.152C98.0851 89.616 98.3851 90.24 98.4811 91.024H97.3651C97.2851 90.544 97.0971 90.156 96.8011 89.86C96.5131 89.556 96.1291 89.404 95.6491 89.404C94.9611 89.404 94.4211 89.704 94.0291 90.304C93.6371 90.904 93.4411 91.736 93.4411 92.8C93.4411 93.88 93.6371 94.716 94.0291 95.308C94.4211 95.9 94.9291 96.196 95.5531 96.196C96.0011 96.196 96.3691 96.064 96.6571 95.8C96.9451 95.528 97.1611 95.184 97.3051 94.768C97.4571 94.344 97.5411 93.908 97.5571 93.46H95.6851V92.596H98.5891V97H97.6651L97.5811 95.728H97.5331C97.3651 96.16 97.1171 96.504 96.7891 96.76C96.4691 97.016 96.0291 97.144 95.4691 97.144ZM100.036 97V88.6H102.832C103.472 88.6 103.996 88.716 104.404 88.948C104.812 89.18 105.112 89.488 105.304 89.872C105.496 90.256 105.592 90.68 105.592 91.144C105.592 91.608 105.496 92.032 105.304 92.416C105.112 92.8 104.812 93.108 104.404 93.34C103.996 93.572 103.472 93.688 102.832 93.688H101.044V97H100.036ZM101.044 92.764H102.808C103.4 92.764 103.84 92.616 104.128 92.32C104.416 92.016 104.56 91.624 104.56 91.144C104.56 90.664 104.416 90.272 104.128 89.968C103.84 89.664 103.4 89.512 102.808 89.512H101.044V92.764ZM114.139 97V88.6H115.219L117.139 92.596L119.059 88.6H120.139V97H119.155V90.544L117.523 93.94H116.755L115.123 90.556V97H114.139ZM121.766 97V88.6H127.01V89.512H122.774V92.308H126.65V93.22H122.774V96.088H127.01V97H121.766ZM131.614 97.144C131.022 97.144 130.506 97.032 130.066 96.808C129.634 96.584 129.298 96.272 129.058 95.872C128.826 95.472 128.706 95.004 128.698 94.468H129.754C129.762 94.948 129.922 95.364 130.234 95.716C130.554 96.06 131.014 96.232 131.614 96.232C132.166 96.232 132.59 96.1 132.886 95.836C133.19 95.564 133.342 95.24 133.342 94.864C133.342 94.552 133.27 94.292 133.126 94.084C132.982 93.868 132.746 93.68 132.418 93.52C132.098 93.352 131.666 93.18 131.122 93.004C130.354 92.772 129.794 92.456 129.442 92.056C129.09 91.656 128.914 91.16 128.914 90.568C128.914 90.168 129.018 89.808 129.226 89.488C129.434 89.168 129.734 88.916 130.126 88.732C130.518 88.548 130.994 88.456 131.554 88.456C132.082 88.456 132.542 88.556 132.934 88.756C133.334 88.948 133.642 89.22 133.858 89.572C134.082 89.924 134.194 90.328 134.194 90.784H133.138C133.138 90.56 133.078 90.34 132.958 90.124C132.838 89.908 132.658 89.728 132.418 89.584C132.178 89.44 131.874 89.368 131.506 89.368C131.066 89.368 130.698 89.476 130.402 89.692C130.106 89.9 129.958 90.188 129.958 90.556C129.958 90.836 130.022 91.072 130.15 91.264C130.286 91.456 130.506 91.632 130.81 91.792C131.114 91.944 131.526 92.108 132.046 92.284C132.534 92.444 132.95 92.632 133.294 92.848C133.646 93.056 133.914 93.316 134.098 93.628C134.29 93.94 134.386 94.328 134.386 94.792C134.386 95.248 134.27 95.652 134.038 96.004C133.806 96.356 133.482 96.636 133.066 96.844C132.65 97.044 132.166 97.144 131.614 97.144ZM138.809 97.144C138.217 97.144 137.701 97.032 137.261 96.808C136.829 96.584 136.493 96.272 136.253 95.872C136.021 95.472 135.901 95.004 135.893 94.468H136.949C136.957 94.948 137.117 95.364 137.429 95.716C137.749 96.06 138.209 96.232 138.809 96.232C139.361 96.232 139.785 96.1 140.081 95.836C140.385 95.564 140.537 95.24 140.537 94.864C140.537 94.552 140.465 94.292 140.321 94.084C140.177 93.868 139.941 93.68 139.613 93.52C139.293 93.352 138.861 93.18 138.317 93.004C137.549 92.772 136.989 92.456 136.637 92.056C136.285 91.656 136.109 91.16 136.109 90.568C136.109 90.168 136.213 89.808 136.421 89.488C136.629 89.168 136.929 88.916 137.321 88.732C137.713 88.548 138.189 88.456 138.749 88.456C139.277 88.456 139.737 88.556 140.129 88.756C140.529 88.948 140.837 89.22 141.053 89.572C141.277 89.924 141.389 90.328 141.389 90.784H140.333C140.333 90.56 140.273 90.34 140.153 90.124C140.033 89.908 139.853 89.728 139.613 89.584C139.373 89.44 139.069 89.368 138.701 89.368C138.261 89.368 137.893 89.476 137.597 89.692C137.301 89.9 137.153 90.188 137.153 90.556C137.153 90.836 137.217 91.072 137.345 91.264C137.481 91.456 137.701 91.632 138.005 91.792C138.309 91.944 138.721 92.108 139.241 92.284C139.729 92.444 140.145 92.632 140.489 92.848C140.841 93.056 141.109 93.316 141.293 93.628C141.485 93.94 141.581 94.328 141.581 94.792C141.581 95.248 141.465 95.652 141.233 96.004C141.001 96.356 140.677 96.636 140.261 96.844C139.845 97.044 139.361 97.144 138.809 97.144ZM142.716 97L145.344 88.6H146.508L149.124 97H148.02L147.408 94.912H144.432L143.82 97H142.716ZM145.896 90.016L144.684 94.072H147.156L145.944 90.016H145.896ZM153.032 97.144C152.44 97.144 151.912 96.972 151.448 96.628C150.984 96.276 150.62 95.776 150.356 95.128C150.1 94.48 149.972 93.704 149.972 92.8C149.972 91.904 150.104 91.132 150.368 90.484C150.632 89.836 151.004 89.336 151.484 88.984C151.972 88.632 152.548 88.456 153.212 88.456C154.004 88.456 154.648 88.688 155.144 89.152C155.648 89.616 155.948 90.24 156.044 91.024H154.928C154.848 90.544 154.66 90.156 154.364 89.86C154.076 89.556 153.692 89.404 153.212 89.404C152.524 89.404 151.984 89.704 151.592 90.304C151.2 90.904 151.004 91.736 151.004 92.8C151.004 93.88 151.2 94.716 151.592 95.308C151.984 95.9 152.492 96.196 153.116 96.196C153.564 96.196 153.932 96.064 154.22 95.8C154.508 95.528 154.724 95.184 154.868 94.768C155.02 94.344 155.104 93.908 155.12 93.46H153.248V92.596H156.152V97H155.228L155.144 95.728H155.096C154.928 96.16 154.68 96.504 154.352 96.76C154.032 97.016 153.592 97.144 153.032 97.144ZM157.743 97V88.6H162.987V89.512H158.751V92.308H162.627V93.22H158.751V96.088H162.987V97H157.743ZM165.526 93.232V92.368H169.486V93.232H165.526ZM172.722 93.232V92.368H176.682V93.232H172.722ZM179.917 93.232V92.368H183.877V93.232H179.917ZM187.112 93.232V92.368H191.072V93.232H187.112ZM194.308 93.232V92.368H198.268V93.232H194.308Z" fill="white"/>
<path d="M70.2191 22V21.343H71.6501V16.357H70.2191V15.7H73.8371V16.357H72.4061V21.343H73.8371V22H70.2191ZM75.3906 22V15.7H77.4876C77.9676 15.7 78.3606 15.787 78.6666 15.961C78.9726 16.135 79.1976 16.366 79.3416 16.654C79.4856 16.942 79.5576 17.26 79.5576 17.608C79.5576 17.956 79.4856 18.274 79.3416 18.562C79.1976 18.85 78.9726 19.081 78.6666 19.255C78.3606 19.429 77.9676 19.516 77.4876 19.516H76.1466V22H75.3906ZM76.1466 18.823H77.4696C77.9136 18.823 78.2436 18.712 78.4596 18.49C78.6756 18.262 78.7836 17.968 78.7836 17.608C78.7836 17.248 78.6756 16.954 78.4596 16.726C78.2436 16.498 77.9136 16.384 77.4696 16.384H76.1466V18.823ZM86.1476 22V21.316H87.7766V16.591L86.2376 16.888V16.312L88.0286 15.7H88.5326V21.316H90.2516V22H86.1476ZM91.5801 22V21.406C92.2281 20.89 92.7921 20.416 93.2721 19.984C93.7581 19.552 94.1331 19.135 94.3971 18.733C94.6611 18.331 94.7931 17.92 94.7931 17.5C94.7931 17.122 94.6851 16.825 94.4691 16.609C94.2591 16.387 93.9741 16.276 93.6141 16.276C93.3381 16.276 93.1041 16.336 92.9121 16.456C92.7201 16.576 92.5761 16.735 92.4801 16.933C92.3841 17.131 92.3361 17.344 92.3361 17.572H91.5891C91.5951 17.158 91.6851 16.804 91.8591 16.51C92.0391 16.21 92.2791 15.982 92.5791 15.826C92.8851 15.67 93.2301 15.592 93.6141 15.592C94.2321 15.592 94.7121 15.763 95.0541 16.105C95.3961 16.447 95.5671 16.906 95.5671 17.482C95.5671 17.86 95.4861 18.223 95.3241 18.571C95.1621 18.913 94.9461 19.243 94.6761 19.561C94.4061 19.879 94.1031 20.185 93.7671 20.479C93.4311 20.773 93.0921 21.055 92.7501 21.325H95.7381V22H91.5801ZM98.9025 22.108C98.5185 22.108 98.1765 22.033 97.8765 21.883C97.5825 21.727 97.3455 21.52 97.1655 21.262C96.9915 20.998 96.8895 20.704 96.8595 20.38H97.5885C97.6425 20.698 97.7835 20.953 98.0115 21.145C98.2455 21.331 98.5425 21.424 98.9025 21.424C99.3765 21.424 99.7635 21.211 100.064 20.785C100.364 20.353 100.535 19.681 100.577 18.769H100.523C100.361 19.051 100.154 19.282 99.9015 19.462C99.6495 19.642 99.2955 19.732 98.8395 19.732C98.4615 19.732 98.1225 19.645 97.8225 19.471C97.5225 19.297 97.2825 19.057 97.1025 18.751C96.9285 18.445 96.8415 18.097 96.8415 17.707C96.8415 17.323 96.9255 16.972 97.0935 16.654C97.2675 16.33 97.5105 16.072 97.8225 15.88C98.1405 15.688 98.5095 15.592 98.9295 15.592C99.7215 15.592 100.313 15.862 100.703 16.402C101.093 16.942 101.288 17.677 101.288 18.607C101.288 19.297 101.195 19.906 101.009 20.434C100.823 20.956 100.553 21.367 100.199 21.667C99.8445 21.961 99.4125 22.108 98.9025 22.108ZM98.9835 19.048C99.4035 19.048 99.7395 18.916 99.9915 18.652C100.244 18.388 100.37 18.058 100.37 17.662C100.37 17.266 100.244 16.936 99.9915 16.672C99.7395 16.408 99.4035 16.276 98.9835 16.276C98.5635 16.276 98.2275 16.408 97.9755 16.672C97.7295 16.936 97.6065 17.266 97.6065 17.662C97.6065 18.064 97.7295 18.397 97.9755 18.661C98.2275 18.919 98.5635 19.048 98.9835 19.048ZM104.407 22.018C104.221 22.018 104.062 21.955 103.93 21.829C103.798 21.703 103.732 21.547 103.732 21.361C103.732 21.181 103.798 21.028 103.93 20.902C104.062 20.776 104.221 20.713 104.407 20.713C104.593 20.713 104.752 20.776 104.884 20.902C105.016 21.028 105.082 21.181 105.082 21.361C105.082 21.547 105.016 21.703 104.884 21.829C104.752 21.955 104.593 22.018 104.407 22.018ZM107.77 22V21.406C108.418 20.89 108.982 20.416 109.462 19.984C109.948 19.552 110.323 19.135 110.587 18.733C110.851 18.331 110.983 17.92 110.983 17.5C110.983 17.122 110.875 16.825 110.659 16.609C110.449 16.387 110.164 16.276 109.804 16.276C109.528 16.276 109.294 16.336 109.102 16.456C108.91 16.576 108.766 16.735 108.67 16.933C108.574 17.131 108.526 17.344 108.526 17.572H107.779C107.785 17.158 107.875 16.804 108.049 16.51C108.229 16.21 108.469 15.982 108.769 15.826C109.075 15.67 109.42 15.592 109.804 15.592C110.422 15.592 110.902 15.763 111.244 16.105C111.586 16.447 111.757 16.906 111.757 17.482C111.757 17.86 111.676 18.223 111.514 18.571C111.352 18.913 111.136 19.243 110.866 19.561C110.596 19.879 110.293 20.185 109.957 20.479C109.621 20.773 109.282 21.055 108.94 21.325H111.928V22H107.77ZM115.2 22.108C114.78 22.108 114.411 22.03 114.093 21.874C113.781 21.712 113.535 21.493 113.355 21.217C113.175 20.941 113.085 20.626 113.085 20.272C113.085 19.876 113.19 19.54 113.4 19.264C113.61 18.988 113.853 18.796 114.129 18.688V18.643C113.865 18.517 113.652 18.337 113.49 18.103C113.334 17.863 113.256 17.584 113.256 17.266C113.256 16.96 113.334 16.681 113.49 16.429C113.652 16.171 113.88 15.967 114.174 15.817C114.468 15.667 114.81 15.592 115.2 15.592C115.584 15.592 115.92 15.667 116.208 15.817C116.502 15.967 116.73 16.171 116.892 16.429C117.06 16.681 117.144 16.96 117.144 17.266C117.144 17.584 117.063 17.863 116.901 18.103C116.745 18.337 116.535 18.517 116.271 18.643V18.688C116.547 18.796 116.79 18.988 117 19.264C117.21 19.54 117.315 19.876 117.315 20.272C117.315 20.626 117.225 20.941 117.045 21.217C116.865 21.493 116.616 21.712 116.298 21.874C115.986 22.03 115.62 22.108 115.2 22.108ZM115.2 18.364C115.572 18.364 115.863 18.268 116.073 18.076C116.289 17.878 116.397 17.623 116.397 17.311C116.397 17.005 116.289 16.756 116.073 16.564C115.863 16.366 115.572 16.267 115.2 16.267C114.828 16.267 114.534 16.366 114.318 16.564C114.108 16.756 114.003 17.005 114.003 17.311C114.003 17.623 114.108 17.878 114.318 18.076C114.534 18.268 114.828 18.364 115.2 18.364ZM115.2 21.424C115.602 21.424 115.926 21.322 116.172 21.118C116.424 20.908 116.55 20.605 116.55 20.209C116.55 19.819 116.424 19.522 116.172 19.318C115.926 19.108 115.602 19.003 115.2 19.003C114.798 19.003 114.471 19.108 114.219 19.318C113.973 19.522 113.85 19.819 113.85 20.209C113.85 20.605 113.973 20.908 114.219 21.118C114.471 21.322 114.798 21.424 115.2 21.424ZM118.562 22V21.406C119.21 20.89 119.774 20.416 120.254 19.984C120.74 19.552 121.115 19.135 121.379 18.733C121.643 18.331 121.775 17.92 121.775 17.5C121.775 17.122 121.667 16.825 121.451 16.609C121.241 16.387 120.956 16.276 120.596 16.276C120.32 16.276 120.086 16.336 119.894 16.456C119.702 16.576 119.558 16.735 119.462 16.933C119.366 17.131 119.318 17.344 119.318 17.572H118.571C118.577 17.158 118.667 16.804 118.841 16.51C119.021 16.21 119.261 15.982 119.561 15.826C119.867 15.67 120.212 15.592 120.596 15.592C121.214 15.592 121.694 15.763 122.036 16.105C122.378 16.447 122.549 16.906 122.549 17.482C122.549 17.86 122.468 18.223 122.306 18.571C122.144 18.913 121.928 19.243 121.658 19.561C121.388 19.879 121.085 20.185 120.749 20.479C120.413 20.773 120.074 21.055 119.732 21.325H122.72V22H118.562ZM125.993 22.018C125.807 22.018 125.648 21.955 125.516 21.829C125.384 21.703 125.318 21.547 125.318 21.361C125.318 21.181 125.384 21.028 125.516 20.902C125.648 20.776 125.807 20.713 125.993 20.713C126.179 20.713 126.338 20.776 126.47 20.902C126.602 21.028 126.668 21.181 126.668 21.361C126.668 21.547 126.602 21.703 126.47 21.829C126.338 21.955 126.179 22.018 125.993 22.018ZM129.355 22V21.406C130.003 20.89 130.567 20.416 131.047 19.984C131.533 19.552 131.908 19.135 132.172 18.733C132.436 18.331 132.568 17.92 132.568 17.5C132.568 17.122 132.46 16.825 132.244 16.609C132.034 16.387 131.749 16.276 131.389 16.276C131.113 16.276 130.879 16.336 130.687 16.456C130.495 16.576 130.351 16.735 130.255 16.933C130.159 17.131 130.111 17.344 130.111 17.572H129.364C129.37 17.158 129.46 16.804 129.634 16.51C129.814 16.21 130.054 15.982 130.354 15.826C130.66 15.67 131.005 15.592 131.389 15.592C132.007 15.592 132.487 15.763 132.829 16.105C133.171 16.447 133.342 16.906 133.342 17.482C133.342 17.86 133.261 18.223 133.099 18.571C132.937 18.913 132.721 19.243 132.451 19.561C132.181 19.879 131.878 20.185 131.542 20.479C131.206 20.773 130.867 21.055 130.525 21.325H133.513V22H129.355ZM136.678 22.108C136.294 22.108 135.952 22.033 135.652 21.883C135.358 21.727 135.121 21.52 134.941 21.262C134.767 20.998 134.665 20.704 134.635 20.38H135.364C135.418 20.698 135.559 20.953 135.787 21.145C136.021 21.331 136.318 21.424 136.678 21.424C137.152 21.424 137.539 21.211 137.839 20.785C138.139 20.353 138.31 19.681 138.352 18.769H138.298C138.136 19.051 137.929 19.282 137.677 19.462C137.425 19.642 137.071 19.732 136.615 19.732C136.237 19.732 135.898 19.645 135.598 19.471C135.298 19.297 135.058 19.057 134.878 18.751C134.704 18.445 134.617 18.097 134.617 17.707C134.617 17.323 134.701 16.972 134.869 16.654C135.043 16.33 135.286 16.072 135.598 15.88C135.916 15.688 136.285 15.592 136.705 15.592C137.497 15.592 138.088 15.862 138.478 16.402C138.868 16.942 139.063 17.677 139.063 18.607C139.063 19.297 138.97 19.906 138.784 20.434C138.598 20.956 138.328 21.367 137.974 21.667C137.62 21.961 137.188 22.108 136.678 22.108ZM136.759 19.048C137.179 19.048 137.515 18.916 137.767 18.652C138.019 18.388 138.145 18.058 138.145 17.662C138.145 17.266 138.019 16.936 137.767 16.672C137.515 16.408 137.179 16.276 136.759 16.276C136.339 16.276 136.003 16.408 135.751 16.672C135.505 16.936 135.382 17.266 135.382 17.662C135.382 18.064 135.505 18.397 135.751 18.661C136.003 18.919 136.339 19.048 136.759 19.048ZM142.182 22.108C141.762 22.108 141.393 22.03 141.075 21.874C140.763 21.712 140.517 21.493 140.337 21.217C140.157 20.941 140.067 20.626 140.067 20.272C140.067 19.876 140.172 19.54 140.382 19.264C140.592 18.988 140.835 18.796 141.111 18.688V18.643C140.847 18.517 140.634 18.337 140.472 18.103C140.316 17.863 140.238 17.584 140.238 17.266C140.238 16.96 140.316 16.681 140.472 16.429C140.634 16.171 140.862 15.967 141.156 15.817C141.45 15.667 141.792 15.592 142.182 15.592C142.566 15.592 142.902 15.667 143.19 15.817C143.484 15.967 143.712 16.171 143.874 16.429C144.042 16.681 144.126 16.96 144.126 17.266C144.126 17.584 144.045 17.863 143.883 18.103C143.727 18.337 143.517 18.517 143.253 18.643V18.688C143.529 18.796 143.772 18.988 143.982 19.264C144.192 19.54 144.297 19.876 144.297 20.272C144.297 20.626 144.207 20.941 144.027 21.217C143.847 21.493 143.598 21.712 143.28 21.874C142.968 22.03 142.602 22.108 142.182 22.108ZM142.182 18.364C142.554 18.364 142.845 18.268 143.055 18.076C143.271 17.878 143.379 17.623 143.379 17.311C143.379 17.005 143.271 16.756 143.055 16.564C142.845 16.366 142.554 16.267 142.182 16.267C141.81 16.267 141.516 16.366 141.3 16.564C141.09 16.756 140.985 17.005 140.985 17.311C140.985 17.623 141.09 17.878 141.3 18.076C141.516 18.268 141.81 18.364 142.182 18.364ZM142.182 21.424C142.584 21.424 142.908 21.322 143.154 21.118C143.406 20.908 143.532 20.605 143.532 20.209C143.532 19.819 143.406 19.522 143.154 19.318C142.908 19.108 142.584 19.003 142.182 19.003C141.78 19.003 141.453 19.108 141.201 19.318C140.955 19.522 140.832 19.819 140.832 20.209C140.832 20.605 140.955 20.908 141.201 21.118C141.453 21.322 141.78 21.424 142.182 21.424ZM147.579 22.018C147.393 22.018 147.234 21.955 147.102 21.829C146.97 21.703 146.904 21.547 146.904 21.361C146.904 21.181 146.97 21.028 147.102 20.902C147.234 20.776 147.393 20.713 147.579 20.713C147.765 20.713 147.924 20.776 148.056 20.902C148.188 21.028 148.254 21.181 148.254 21.361C148.254 21.547 148.188 21.703 148.056 21.829C147.924 21.955 147.765 22.018 147.579 22.018ZM150.905 22V21.316H152.534V16.591L150.995 16.888V16.312L152.786 15.7H153.29V21.316H155.009V22H150.905Z" fill="#BDA2EB"/>
</g>
<defs>
<filter id="filter0_b_532_71302" x="-8" y="-12" width="241" height="152" filterUnits="userSpaceOnUse" color-interpolation-filters="sRGB">
<feFlood flood-opacity="0" result="BackgroundImageFix"/>
<feGaussianBlur in="BackgroundImageFix" stdDeviation="6"/>
<feComposite in2="SourceAlpha" operator="in" result="effect1_backgroundBlur_532_71302"/>
<feBlend mode="normal" in="SourceGraphic" in2="effect1_backgroundBlur_532_71302" result="shape"/>
</filter>
<filter id="filter1_d_532_71302" x="0" y="0" width="225" height="136" filterUnits="userSpaceOnUse" color-interpolation-filters="sRGB">
<feFlood flood-opacity="0" result="BackgroundImageFix"/>
<feColorMatrix in="SourceAlpha" type="matrix" values="0 0 0 0 0 0 0 0 0 0 0 0 0 0 0 0 0 0 127 0" result="hardAlpha"/>
<feOffset dy="4"/>
<feGaussianBlur stdDeviation="2"/>
<feComposite in2="hardAlpha" operator="out"/>
<feColorMatrix type="matrix" values="0 0 0 0 0 0 0 0 0 0 0 0 0 0 0 0 0 0 0.25 0"/>
<feBlend mode="normal" in2="BackgroundImageFix" result="effect1_dropShadow_532_71302"/>
<feBlend mode="normal" in="SourceGraphic" in2="effect1_dropShadow_532_71302" result="shape"/>
</filter>
</defs>
</svg>
