<svg width="225" height="160" viewBox="0 0 225 160" fill="none" xmlns="http://www.w3.org/2000/svg">
<g filter="url(#filter0_b_532_76010)">
<g filter="url(#filter1_d_532_76010)">
<path d="M4 112C4 120.837 11.1634 128 20 128H205C213.837 128 221 120.837 221 112V16C221 7.16344 213.837 0 205 0H20C11.1634 0 4 7.16344 4 16V112Z" fill="black" fill-opacity="0.6" shape-rendering="crispEdges"/>
</g>
<path opacity="0.2" d="M220.036 109.43H210.513V121H190.577V109.43H149.548V109.252L173.667 58.166H210.513V93.499H220.036V109.43ZM190.577 93.499V64.129H190.399L178.473 93.499H190.577Z" fill="white"/>
<path d="M21.62 45.232V44.368H25.58V45.232H21.62ZM28.8153 45.232V44.368H32.7753V45.232H28.8153ZM36.0106 45.232V44.368H39.9706V45.232H36.0106ZM43.2059 45.232V44.368H47.1659V45.232H43.2059ZM50.4013 45.232V44.368H54.3613V45.232H50.4013ZM56.7686 49V40.6H59.5646C60.4366 40.6 61.0926 40.8 61.5326 41.2C61.9726 41.6 62.1926 42.112 62.1926 42.736C62.1926 43.224 62.0606 43.628 61.7966 43.948C61.5326 44.26 61.2366 44.48 60.9086 44.608V44.692C61.3006 44.82 61.6446 45.052 61.9406 45.388C62.2366 45.724 62.3846 46.156 62.3846 46.684C62.3846 47.116 62.2766 47.508 62.0606 47.86C61.8526 48.204 61.5446 48.48 61.1366 48.688C60.7366 48.896 60.2446 49 59.6606 49H56.7686ZM57.7766 44.224H59.4926C60.0286 44.224 60.4366 44.108 60.7166 43.876C61.0046 43.636 61.1486 43.292 61.1486 42.844C61.1486 42.42 61.0086 42.092 60.7286 41.86C60.4486 41.628 60.0246 41.512 59.4566 41.512H57.7766V44.224ZM57.7766 48.076H59.5526C60.1286 48.076 60.5726 47.948 60.8846 47.692C61.1966 47.428 61.3526 47.06 61.3526 46.588C61.3526 46.116 61.1886 45.752 60.8606 45.496C60.5326 45.232 60.0886 45.1 59.5286 45.1H57.7766V48.076ZM64.2039 49V40.6H69.4479V41.512H65.2119V44.308H69.0879V45.22H65.2119V48.088H69.4479V49H64.2039ZM73.8832 49.144C73.2912 49.144 72.7632 48.972 72.2992 48.628C71.8352 48.276 71.4712 47.776 71.2072 47.128C70.9512 46.48 70.8232 45.704 70.8232 44.8C70.8232 43.904 70.9552 43.132 71.2192 42.484C71.4832 41.836 71.8552 41.336 72.3352 40.984C72.8232 40.632 73.3992 40.456 74.0632 40.456C74.8552 40.456 75.4992 40.688 75.9952 41.152C76.4992 41.616 76.7992 42.24 76.8952 43.024H75.7792C75.6992 42.544 75.5112 42.156 75.2152 41.86C74.9272 41.556 74.5432 41.404 74.0632 41.404C73.3752 41.404 72.8352 41.704 72.4432 42.304C72.0512 42.904 71.8552 43.736 71.8552 44.8C71.8552 45.88 72.0512 46.716 72.4432 47.308C72.8352 47.9 73.3432 48.196 73.9672 48.196C74.4152 48.196 74.7832 48.064 75.0712 47.8C75.3592 47.528 75.5752 47.184 75.7192 46.768C75.8712 46.344 75.9552 45.908 75.9712 45.46H74.0992V44.596H77.0032V49H76.0792L75.9952 47.728H75.9472C75.7792 48.16 75.5312 48.504 75.2032 48.76C74.8832 49.016 74.4432 49.144 73.8832 49.144ZM78.7505 49V48.124H80.6585V41.476H78.7505V40.6H83.5745V41.476H81.6665V48.124H83.5745V49H78.7505ZM85.4418 49V40.6H86.4738L90.2898 47.236V40.6H91.2858V49H90.2418L86.4258 42.364V49H85.4418ZM100.036 49V40.6H102.832C103.472 40.6 103.996 40.716 104.404 40.948C104.812 41.18 105.112 41.488 105.304 41.872C105.496 42.256 105.592 42.68 105.592 43.144C105.592 43.608 105.496 44.032 105.304 44.416C105.112 44.8 104.812 45.108 104.404 45.34C103.996 45.572 103.472 45.688 102.832 45.688H101.044V49H100.036ZM101.044 44.764H102.808C103.4 44.764 103.84 44.616 104.128 44.32C104.416 44.016 104.56 43.624 104.56 43.144C104.56 42.664 104.416 42.272 104.128 41.968C103.84 41.664 103.4 41.512 102.808 41.512H101.044V44.764ZM109.86 49.144C109.268 49.144 108.74 48.972 108.276 48.628C107.812 48.276 107.448 47.776 107.184 47.128C106.928 46.48 106.8 45.704 106.8 44.8C106.8 43.904 106.932 43.132 107.196 42.484C107.46 41.836 107.832 41.336 108.312 40.984C108.8 40.632 109.376 40.456 110.04 40.456C110.832 40.456 111.476 40.688 111.972 41.152C112.476 41.616 112.776 42.24 112.872 43.024H111.756C111.676 42.544 111.488 42.156 111.192 41.86C110.904 41.556 110.52 41.404 110.04 41.404C109.352 41.404 108.812 41.704 108.42 42.304C108.028 42.904 107.832 43.736 107.832 44.8C107.832 45.88 108.028 46.716 108.42 47.308C108.812 47.9 109.32 48.196 109.944 48.196C110.392 48.196 110.76 48.064 111.048 47.8C111.336 47.528 111.552 47.184 111.696 46.768C111.848 46.344 111.932 45.908 111.948 45.46H110.076V44.596H112.98V49H112.056L111.972 47.728H111.924C111.756 48.16 111.508 48.504 111.18 48.76C110.86 49.016 110.42 49.144 109.86 49.144ZM114.427 49V40.6H117.223C117.863 40.6 118.387 40.716 118.795 40.948C119.203 41.18 119.503 41.488 119.695 41.872C119.887 42.256 119.983 42.68 119.983 43.144C119.983 43.608 119.887 44.032 119.695 44.416C119.503 44.8 119.203 45.108 118.795 45.34C118.387 45.572 117.863 45.688 117.223 45.688H115.435V49H114.427ZM115.435 44.764H117.199C117.791 44.764 118.231 44.616 118.519 44.32C118.807 44.016 118.951 43.624 118.951 43.144C118.951 42.664 118.807 42.272 118.519 41.968C118.231 41.664 117.791 41.512 117.199 41.512H115.435V44.764ZM128.53 49V40.6H129.61L131.53 44.596L133.45 40.6H134.53V49H133.546V42.544L131.914 45.94H131.146L129.514 42.556V49H128.53ZM136.157 49V40.6H141.401V41.512H137.165V44.308H141.041V45.22H137.165V48.088H141.401V49H136.157ZM146.004 49.144C145.412 49.144 144.896 49.032 144.456 48.808C144.024 48.584 143.688 48.272 143.448 47.872C143.216 47.472 143.096 47.004 143.088 46.468H144.144C144.152 46.948 144.312 47.364 144.624 47.716C144.944 48.06 145.404 48.232 146.004 48.232C146.556 48.232 146.98 48.1 147.276 47.836C147.58 47.564 147.732 47.24 147.732 46.864C147.732 46.552 147.66 46.292 147.516 46.084C147.372 45.868 147.136 45.68 146.808 45.52C146.488 45.352 146.056 45.18 145.512 45.004C144.744 44.772 144.184 44.456 143.832 44.056C143.48 43.656 143.304 43.16 143.304 42.568C143.304 42.168 143.408 41.808 143.616 41.488C143.824 41.168 144.124 40.916 144.516 40.732C144.908 40.548 145.384 40.456 145.944 40.456C146.472 40.456 146.932 40.556 147.324 40.756C147.724 40.948 148.032 41.22 148.248 41.572C148.472 41.924 148.584 42.328 148.584 42.784H147.528C147.528 42.56 147.468 42.34 147.348 42.124C147.228 41.908 147.048 41.728 146.808 41.584C146.568 41.44 146.264 41.368 145.896 41.368C145.456 41.368 145.088 41.476 144.792 41.692C144.496 41.9 144.348 42.188 144.348 42.556C144.348 42.836 144.412 43.072 144.54 43.264C144.676 43.456 144.896 43.632 145.2 43.792C145.504 43.944 145.916 44.108 146.436 44.284C146.924 44.444 147.34 44.632 147.684 44.848C148.036 45.056 148.304 45.316 148.488 45.628C148.68 45.94 148.776 46.328 148.776 46.792C148.776 47.248 148.66 47.652 148.428 48.004C148.196 48.356 147.872 48.636 147.456 48.844C147.04 49.044 146.556 49.144 146.004 49.144ZM153.2 49.144C152.608 49.144 152.092 49.032 151.652 48.808C151.22 48.584 150.884 48.272 150.644 47.872C150.412 47.472 150.292 47.004 150.284 46.468H151.34C151.348 46.948 151.508 47.364 151.82 47.716C152.14 48.06 152.6 48.232 153.2 48.232C153.752 48.232 154.176 48.1 154.472 47.836C154.776 47.564 154.928 47.24 154.928 46.864C154.928 46.552 154.856 46.292 154.712 46.084C154.568 45.868 154.332 45.68 154.004 45.52C153.684 45.352 153.252 45.18 152.708 45.004C151.94 44.772 151.38 44.456 151.028 44.056C150.676 43.656 150.5 43.16 150.5 42.568C150.5 42.168 150.604 41.808 150.812 41.488C151.02 41.168 151.32 40.916 151.712 40.732C152.104 40.548 152.58 40.456 153.14 40.456C153.668 40.456 154.128 40.556 154.52 40.756C154.92 40.948 155.228 41.22 155.444 41.572C155.668 41.924 155.78 42.328 155.78 42.784H154.724C154.724 42.56 154.664 42.34 154.544 42.124C154.424 41.908 154.244 41.728 154.004 41.584C153.764 41.44 153.46 41.368 153.092 41.368C152.652 41.368 152.284 41.476 151.988 41.692C151.692 41.9 151.544 42.188 151.544 42.556C151.544 42.836 151.608 43.072 151.736 43.264C151.872 43.456 152.092 43.632 152.396 43.792C152.7 43.944 153.112 44.108 153.632 44.284C154.12 44.444 154.536 44.632 154.88 44.848C155.232 45.056 155.5 45.316 155.684 45.628C155.876 45.94 155.972 46.328 155.972 46.792C155.972 47.248 155.856 47.652 155.624 48.004C155.392 48.356 155.068 48.636 154.652 48.844C154.236 49.044 153.752 49.144 153.2 49.144ZM157.107 49L159.735 40.6H160.899L163.515 49H162.411L161.799 46.912H158.823L158.211 49H157.107ZM160.287 42.016L159.075 46.072H161.547L160.335 42.016H160.287ZM167.422 49.144C166.83 49.144 166.302 48.972 165.838 48.628C165.374 48.276 165.01 47.776 164.746 47.128C164.49 46.48 164.362 45.704 164.362 44.8C164.362 43.904 164.494 43.132 164.758 42.484C165.022 41.836 165.394 41.336 165.874 40.984C166.362 40.632 166.938 40.456 167.602 40.456C168.394 40.456 169.038 40.688 169.534 41.152C170.038 41.616 170.338 42.24 170.434 43.024H169.318C169.238 42.544 169.05 42.156 168.754 41.86C168.466 41.556 168.082 41.404 167.602 41.404C166.914 41.404 166.374 41.704 165.982 42.304C165.59 42.904 165.394 43.736 165.394 44.8C165.394 45.88 165.59 46.716 165.982 47.308C166.374 47.9 166.882 48.196 167.506 48.196C167.954 48.196 168.322 48.064 168.61 47.8C168.898 47.528 169.114 47.184 169.258 46.768C169.41 46.344 169.494 45.908 169.51 45.46H167.638V44.596H170.542V49H169.618L169.534 47.728H169.486C169.318 48.16 169.07 48.504 168.742 48.76C168.422 49.016 167.982 49.144 167.422 49.144ZM172.134 49V40.6H177.378V41.512H173.142V44.308H177.018V45.22H173.142V48.088H177.378V49H172.134ZM179.917 45.232V44.368H183.877V45.232H179.917ZM187.112 45.232V44.368H191.072V45.232H187.112ZM194.308 45.232V44.368H198.268V45.232H194.308ZM201.503 45.232V44.368H205.463V45.232H201.503ZM208.698 45.232V44.368H212.658V45.232H208.698ZM45.2699 65.144C44.6779 65.144 44.1619 65.032 43.7219 64.808C43.2899 64.584 42.9539 64.272 42.7139 63.872C42.4819 63.472 42.3619 63.004 42.3539 62.468H43.4099C43.4179 62.948 43.5779 63.364 43.8899 63.716C44.2099 64.06 44.6699 64.232 45.2699 64.232C45.8219 64.232 46.2459 64.1 46.5419 63.836C46.8459 63.564 46.9979 63.24 46.9979 62.864C46.9979 62.552 46.9259 62.292 46.7819 62.084C46.6379 61.868 46.4019 61.68 46.0739 61.52C45.7539 61.352 45.3219 61.18 44.7779 61.004C44.0099 60.772 43.4499 60.456 43.0979 60.056C42.7459 59.656 42.5699 59.16 42.5699 58.568C42.5699 58.168 42.6739 57.808 42.8819 57.488C43.0899 57.168 43.3899 56.916 43.7819 56.732C44.1739 56.548 44.6499 56.456 45.2099 56.456C45.7379 56.456 46.1979 56.556 46.5899 56.756C46.9899 56.948 47.2979 57.22 47.5139 57.572C47.7379 57.924 47.8499 58.328 47.8499 58.784H46.7939C46.7939 58.56 46.7339 58.34 46.6139 58.124C46.4939 57.908 46.3139 57.728 46.0739 57.584C45.8339 57.44 45.5299 57.368 45.1619 57.368C44.7219 57.368 44.3539 57.476 44.0579 57.692C43.7619 57.9 43.6139 58.188 43.6139 58.556C43.6139 58.836 43.6779 59.072 43.8059 59.264C43.9419 59.456 44.1619 59.632 44.4659 59.792C44.7699 59.944 45.1819 60.108 45.7019 60.284C46.1899 60.444 46.6059 60.632 46.9499 60.848C47.3019 61.056 47.5699 61.316 47.7539 61.628C47.9459 61.94 48.0419 62.328 48.0419 62.792C48.0419 63.248 47.9259 63.652 47.6939 64.004C47.4619 64.356 47.1379 64.636 46.7219 64.844C46.3059 65.044 45.8219 65.144 45.2699 65.144ZM52.2733 63.248C51.8573 63.248 51.4853 63.172 51.1573 63.02L50.7493 63.512C50.6613 63.632 50.6373 63.752 50.6773 63.872C50.7253 63.984 50.8413 64.04 51.0253 64.04H52.5973C53.3093 64.04 53.8853 64.18 54.3253 64.46C54.7653 64.732 54.9853 65.168 54.9853 65.768C54.9853 66.128 54.8933 66.46 54.7093 66.764C54.5253 67.068 54.2333 67.312 53.8333 67.496C53.4413 67.688 52.9253 67.784 52.2853 67.784C51.4533 67.784 50.7853 67.628 50.2812 67.316C49.7773 67.004 49.5253 66.528 49.5253 65.888C49.5253 65.656 49.5813 65.44 49.6933 65.24C49.8133 65.048 49.9613 64.876 50.1373 64.724C49.9053 64.58 49.7613 64.364 49.7053 64.076C49.6573 63.788 49.7453 63.504 49.9693 63.224L50.5093 62.552C50.1253 62.152 49.9333 61.66 49.9333 61.076C49.9333 60.692 50.0253 60.336 50.2093 60.008C50.3933 59.672 50.6573 59.404 51.0013 59.204C51.3533 59.004 51.7773 58.904 52.2733 58.904C52.5933 58.904 52.8893 58.952 53.1613 59.048H55.3932V59.804L54.2773 59.84V59.924C54.4853 60.268 54.5893 60.652 54.5893 61.076C54.5893 61.46 54.4973 61.82 54.3133 62.156C54.1373 62.484 53.8733 62.748 53.5213 62.948C53.1773 63.148 52.7613 63.248 52.2733 63.248ZM52.2733 62.384C52.6653 62.384 52.9853 62.268 53.2333 62.036C53.4893 61.804 53.6173 61.484 53.6173 61.076C53.6173 60.668 53.4893 60.352 53.2333 60.128C52.9853 59.896 52.6653 59.78 52.2733 59.78C51.8733 59.78 51.5453 59.896 51.2893 60.128C51.0333 60.352 50.9053 60.668 50.9053 61.076C50.9053 61.484 51.0333 61.804 51.2893 62.036C51.5453 62.268 51.8733 62.384 52.2733 62.384ZM50.5213 65.852C50.5213 66.204 50.6853 66.468 51.0133 66.644C51.3413 66.82 51.7653 66.908 52.2853 66.908C52.7893 66.908 53.1973 66.808 53.5093 66.608C53.8293 66.408 53.9893 66.14 53.9893 65.804C53.9893 65.54 53.8773 65.316 53.6533 65.132C53.4293 64.956 53.0173 64.868 52.4173 64.868H51.0613C50.7013 65.132 50.5213 65.46 50.5213 65.852ZM56.5766 65V56.6H57.6566L59.5766 60.596L61.4966 56.6H62.5766V65H61.5926V58.544L59.9606 61.94H59.1926L57.5606 58.556V65H56.5766ZM66.7599 65.144C66.1999 65.144 65.6999 65.028 65.2599 64.796C64.8279 64.564 64.4839 64.212 64.2279 63.74C63.9799 63.26 63.8559 62.66 63.8559 61.94V56.6H64.8639V61.976C64.8639 62.696 65.0399 63.252 65.3919 63.644C65.7439 64.036 66.2079 64.232 66.7839 64.232C67.3599 64.232 67.8199 64.036 68.1639 63.644C68.5079 63.252 68.6799 62.696 68.6799 61.976V56.6H69.6879V61.94C69.6879 62.66 69.5599 63.26 69.3039 63.74C69.0479 64.212 68.6999 64.564 68.2599 64.796C67.8199 65.028 67.3199 65.144 66.7599 65.144ZM71.6992 65V56.36H72.7072V61.568L75.1912 59.048H76.4752L73.8232 61.7V61.772L76.7992 65H75.5512L72.7072 61.904V65H71.6992ZM81.1625 65.144C80.6025 65.144 80.1065 65.016 79.6745 64.76C79.2425 64.504 78.9025 64.144 78.6545 63.68C78.4065 63.208 78.2825 62.656 78.2825 62.024C78.2825 61.392 78.4065 60.844 78.6545 60.38C78.9025 59.908 79.2425 59.544 79.6745 59.288C80.1065 59.032 80.6025 58.904 81.1625 58.904C81.7225 58.904 82.2185 59.032 82.6505 59.288C83.0825 59.544 83.4225 59.908 83.6705 60.38C83.9185 60.844 84.0425 61.392 84.0425 62.024C84.0425 62.656 83.9185 63.208 83.6705 63.68C83.4225 64.144 83.0825 64.504 82.6505 64.76C82.2185 65.016 81.7225 65.144 81.1625 65.144ZM81.1625 64.184C81.5065 64.184 81.8185 64.108 82.0985 63.956C82.3785 63.804 82.5985 63.568 82.7585 63.248C82.9265 62.928 83.0105 62.52 83.0105 62.024C83.0105 61.528 82.9265 61.12 82.7585 60.8C82.5985 60.48 82.3785 60.244 82.0985 60.092C81.8185 59.94 81.5065 59.864 81.1625 59.864C80.8265 59.864 80.5185 59.94 80.2385 60.092C79.9585 60.244 79.7345 60.48 79.5665 60.8C79.3985 61.12 79.3145 61.528 79.3145 62.024C79.3145 62.768 79.4945 63.316 79.8545 63.668C80.2145 64.012 80.6505 64.184 81.1625 64.184ZM88.3578 65.144C87.6778 65.144 87.0938 64.964 86.6058 64.604C86.1178 64.244 85.7418 63.74 85.4778 63.092C85.2218 62.436 85.0938 61.672 85.0938 60.8C85.0938 59.928 85.2218 59.168 85.4778 58.52C85.7418 57.864 86.1178 57.356 86.6058 56.996C87.0938 56.636 87.6778 56.456 88.3578 56.456C89.0378 56.456 89.6218 56.636 90.1098 56.996C90.5978 57.356 90.9698 57.864 91.2258 58.52C91.4898 59.168 91.6218 59.928 91.6218 60.8C91.6218 61.672 91.4898 62.436 91.2258 63.092C90.9698 63.74 90.5978 64.244 90.1098 64.604C89.6218 64.964 89.0378 65.144 88.3578 65.144ZM88.3578 64.196C89.0218 64.196 89.5578 63.9 89.9658 63.308C90.3818 62.716 90.5898 61.88 90.5898 60.8C90.5898 59.72 90.3818 58.884 89.9658 58.292C89.5578 57.7 89.0218 57.404 88.3578 57.404C87.6858 57.404 87.1458 57.7 86.7378 58.292C86.3298 58.884 86.1258 59.72 86.1258 60.8C86.1258 61.88 86.3298 62.716 86.7378 63.308C87.1458 63.9 87.6858 64.196 88.3578 64.196ZM95.1331 65.144C94.4131 65.144 93.8691 64.928 93.5011 64.496C93.1331 64.064 92.9491 63.44 92.9491 62.624V59.048H93.9571V62.504C93.9571 63.032 94.0731 63.448 94.3051 63.752C94.5451 64.048 94.9051 64.196 95.3851 64.196C95.8651 64.196 96.2691 64.036 96.5971 63.716C96.9251 63.388 97.0891 62.92 97.0891 62.312V59.048H98.0971V65H97.2571L97.1491 64.1H97.0891C96.9291 64.388 96.6771 64.636 96.3331 64.844C95.9891 65.044 95.5891 65.144 95.1331 65.144ZM99.5444 65L102.172 56.6H103.336L105.952 65H104.848L104.236 62.912H101.26L100.648 65H99.5444ZM102.724 58.016L101.512 62.072H103.984L102.772 58.016H102.724ZM110.184 57.992C109.952 57.992 109.752 57.912 109.584 57.752C109.424 57.592 109.344 57.4 109.344 57.176C109.344 56.944 109.424 56.752 109.584 56.6C109.752 56.44 109.952 56.36 110.184 56.36C110.424 56.36 110.624 56.44 110.784 56.6C110.944 56.752 111.024 56.944 111.024 57.176C111.024 57.4 110.944 57.592 110.784 57.752C110.624 57.912 110.424 57.992 110.184 57.992ZM107.076 67.64V66.776H109.452C109.652 66.776 109.752 66.672 109.752 66.464V60.212C109.752 60.012 109.652 59.912 109.452 59.912H108.012V59.048H109.692C110.404 59.048 110.76 59.404 110.76 60.116V66.572C110.76 67.284 110.404 67.64 109.692 67.64H107.076ZM115.327 67.64L116.791 64.424H116.443L114.091 59.048H115.183L117.139 63.656L119.203 59.048H120.259L116.383 67.64H115.327ZM121.574 65V64.088H123.746V57.788L121.694 58.184V57.416L124.082 56.6H124.754V64.088H127.046V65H121.574ZM131.53 65.144C130.954 65.144 130.458 65.036 130.042 64.82C129.626 64.604 129.298 64.312 129.058 63.944C128.818 63.576 128.674 63.156 128.626 62.684H129.658C129.73 63.14 129.934 63.512 130.27 63.8C130.606 64.08 131.03 64.22 131.542 64.22C132.142 64.22 132.614 64.028 132.958 63.644C133.302 63.252 133.474 62.76 133.474 62.168C133.474 61.544 133.298 61.056 132.946 60.704C132.594 60.344 132.138 60.164 131.578 60.164C131.13 60.164 130.746 60.268 130.426 60.476C130.114 60.676 129.862 60.932 129.67 61.244H128.71L129.43 56.6H133.918V57.524H130.222L129.778 60.02H129.838C130.022 59.82 130.27 59.644 130.582 59.492C130.902 59.34 131.27 59.264 131.686 59.264C132.238 59.264 132.718 59.384 133.126 59.624C133.542 59.856 133.866 60.192 134.098 60.632C134.33 61.064 134.446 61.572 134.446 62.156C134.446 62.7 134.33 63.2 134.098 63.656C133.874 64.104 133.542 64.464 133.102 64.736C132.67 65.008 132.146 65.144 131.53 65.144ZM136.457 65V56.36H137.465V61.568L139.949 59.048H141.233L138.581 61.7V61.772L141.557 65H140.309L137.465 61.904V65H136.457ZM146.004 65.144C145.412 65.144 144.896 65.032 144.456 64.808C144.024 64.584 143.688 64.272 143.448 63.872C143.216 63.472 143.096 63.004 143.088 62.468H144.144C144.152 62.948 144.312 63.364 144.624 63.716C144.944 64.06 145.404 64.232 146.004 64.232C146.556 64.232 146.98 64.1 147.276 63.836C147.58 63.564 147.732 63.24 147.732 62.864C147.732 62.552 147.66 62.292 147.516 62.084C147.372 61.868 147.136 61.68 146.808 61.52C146.488 61.352 146.056 61.18 145.512 61.004C144.744 60.772 144.184 60.456 143.832 60.056C143.48 59.656 143.304 59.16 143.304 58.568C143.304 58.168 143.408 57.808 143.616 57.488C143.824 57.168 144.124 56.916 144.516 56.732C144.908 56.548 145.384 56.456 145.944 56.456C146.472 56.456 146.932 56.556 147.324 56.756C147.724 56.948 148.032 57.22 148.248 57.572C148.472 57.924 148.584 58.328 148.584 58.784H147.528C147.528 58.56 147.468 58.34 147.348 58.124C147.228 57.908 147.048 57.728 146.808 57.584C146.568 57.44 146.264 57.368 145.896 57.368C145.456 57.368 145.088 57.476 144.792 57.692C144.496 57.9 144.348 58.188 144.348 58.556C144.348 58.836 144.412 59.072 144.54 59.264C144.676 59.456 144.896 59.632 145.2 59.792C145.504 59.944 145.916 60.108 146.436 60.284C146.924 60.444 147.34 60.632 147.684 60.848C148.036 61.056 148.304 61.316 148.488 61.628C148.68 61.94 148.776 62.328 148.776 62.792C148.776 63.248 148.66 63.652 148.428 64.004C148.196 64.356 147.872 64.636 147.456 64.844C147.04 65.044 146.556 65.144 146.004 65.144ZM153.116 65.144C152.556 65.144 152.064 65.04 151.64 64.832C151.224 64.616 150.896 64.324 150.656 63.956C150.416 63.588 150.296 63.168 150.296 62.696C150.296 62.168 150.436 61.72 150.716 61.352C150.996 60.984 151.32 60.728 151.688 60.584V60.524C151.336 60.356 151.052 60.116 150.836 59.804C150.628 59.484 150.524 59.112 150.524 58.688C150.524 58.28 150.628 57.908 150.836 57.572C151.052 57.228 151.356 56.956 151.748 56.756C152.14 56.556 152.596 56.456 153.116 56.456C153.628 56.456 154.076 56.556 154.46 56.756C154.852 56.956 155.156 57.228 155.372 57.572C155.596 57.908 155.708 58.28 155.708 58.688C155.708 59.112 155.6 59.484 155.384 59.804C155.176 60.116 154.896 60.356 154.544 60.524V60.584C154.912 60.728 155.236 60.984 155.516 61.352C155.796 61.72 155.936 62.168 155.936 62.696C155.936 63.168 155.816 63.588 155.576 63.956C155.336 64.324 155.004 64.616 154.58 64.832C154.164 65.04 153.676 65.144 153.116 65.144ZM153.116 60.152C153.612 60.152 154 60.024 154.28 59.768C154.568 59.504 154.712 59.164 154.712 58.748C154.712 58.34 154.568 58.008 154.28 57.752C154 57.488 153.612 57.356 153.116 57.356C152.62 57.356 152.228 57.488 151.94 57.752C151.66 58.008 151.52 58.34 151.52 58.748C151.52 59.164 151.66 59.504 151.94 59.768C152.228 60.024 152.62 60.152 153.116 60.152ZM153.116 64.232C153.652 64.232 154.084 64.096 154.412 63.824C154.748 63.544 154.916 63.14 154.916 62.612C154.916 62.092 154.748 61.696 154.412 61.424C154.084 61.144 153.652 61.004 153.116 61.004C152.58 61.004 152.144 61.144 151.808 61.424C151.48 61.696 151.316 62.092 151.316 62.612C151.316 63.14 151.48 63.544 151.808 63.824C152.144 64.096 152.58 64.232 153.116 64.232ZM159.807 65.144C159.335 65.144 158.943 65.06 158.631 64.892C158.319 64.724 158.087 64.504 157.935 64.232C157.783 63.952 157.707 63.648 157.707 63.32C157.707 62.712 157.927 62.252 158.367 61.94C158.815 61.62 159.411 61.46 160.155 61.46H161.787V61.34C161.787 60.3 161.311 59.78 160.359 59.78C159.975 59.78 159.651 59.864 159.387 60.032C159.131 60.2 158.967 60.464 158.895 60.824H157.863C157.903 60.424 158.035 60.08 158.259 59.792C158.491 59.504 158.787 59.284 159.147 59.132C159.507 58.98 159.911 58.904 160.359 58.904C161.207 58.904 161.823 59.128 162.207 59.576C162.599 60.016 162.795 60.604 162.795 61.34V65H161.931L161.847 64.076H161.763C161.587 64.364 161.351 64.616 161.055 64.832C160.767 65.04 160.351 65.144 159.807 65.144ZM159.987 64.256C160.371 64.256 160.695 64.164 160.959 63.98C161.231 63.796 161.435 63.552 161.571 63.248C161.715 62.944 161.787 62.612 161.787 62.252H160.239C159.695 62.252 159.311 62.344 159.087 62.528C158.871 62.712 158.763 62.956 158.763 63.26C158.763 63.572 158.867 63.816 159.075 63.992C159.283 64.168 159.587 64.256 159.987 64.256ZM164.902 65V56.36H165.91V59.948C166.07 59.644 166.334 59.396 166.702 59.204C167.07 59.004 167.474 58.904 167.914 58.904C168.642 58.904 169.194 59.124 169.57 59.564C169.954 60.004 170.146 60.62 170.146 61.412V65H169.138V61.544C169.138 61.008 169.006 60.592 168.742 60.296C168.486 60 168.126 59.852 167.662 59.852C167.342 59.852 167.05 59.924 166.786 60.068C166.522 60.212 166.31 60.424 166.15 60.704C165.99 60.984 165.91 61.328 165.91 61.736V65H164.902ZM172.098 66.08L176.25 55.88H177.306L173.142 66.08H172.098ZM37.5346 79.5V77.256H35.2906V76.344H37.5346V74.1H38.4466V76.344H40.6906V77.256H38.4466V79.5H37.5346ZM42.4739 81V80.208C43.3379 79.52 44.0899 78.888 44.7299 78.312C45.3779 77.736 45.8779 77.18 46.2299 76.644C46.5819 76.108 46.7579 75.56 46.7579 75C46.7579 74.496 46.6139 74.1 46.3259 73.812C46.0459 73.516 45.6659 73.368 45.1859 73.368C44.8179 73.368 44.5059 73.448 44.2499 73.608C43.9939 73.768 43.8019 73.98 43.6739 74.244C43.5459 74.508 43.4819 74.792 43.4819 75.096H42.4859C42.4939 74.544 42.6139 74.072 42.8459 73.68C43.0859 73.28 43.4059 72.976 43.8059 72.768C44.2139 72.56 44.6739 72.456 45.1859 72.456C46.0099 72.456 46.6499 72.684 47.1059 73.14C47.5619 73.596 47.7899 74.208 47.7899 74.976C47.7899 75.48 47.6819 75.964 47.4659 76.428C47.2499 76.884 46.9619 77.324 46.6019 77.748C46.2419 78.172 45.8379 78.58 45.3899 78.972C44.9419 79.364 44.4899 79.74 44.0339 80.1H48.0179V81H42.4739ZM54.0733 83.64V80.112C53.9213 80.4 53.6973 80.644 53.4013 80.844C53.1133 81.044 52.7213 81.144 52.2253 81.144C51.7213 81.144 51.2693 81.024 50.8693 80.784C50.4773 80.544 50.1653 80.192 49.9333 79.728C49.7093 79.264 49.5973 78.7 49.5973 78.036C49.5973 77.364 49.7093 76.796 49.9333 76.332C50.1653 75.86 50.4733 75.504 50.8573 75.264C51.2493 75.024 51.6853 74.904 52.1653 74.904C52.6373 74.904 53.0333 75.004 53.3533 75.204C53.6733 75.404 53.9133 75.656 54.0733 75.96H54.1453L54.2653 75.048H55.0813V83.64H54.0733ZM52.3573 80.184C52.8613 80.184 53.2773 80.008 53.6053 79.656C53.9333 79.296 54.0973 78.752 54.0973 78.024C54.0973 77.296 53.9333 76.756 53.6053 76.404C53.2773 76.044 52.8613 75.864 52.3573 75.864C51.8533 75.864 51.4373 76.044 51.1093 76.404C50.7813 76.756 50.6173 77.296 50.6173 78.024C50.6173 78.752 50.7813 79.296 51.1093 79.656C51.4373 80.008 51.8533 80.184 52.3573 80.184ZM59.6366 81.144C58.8766 81.144 58.2606 80.968 57.7886 80.616C57.3246 80.256 57.0646 79.764 57.0086 79.14H58.0526C58.1006 79.468 58.2606 79.736 58.5326 79.944C58.8126 80.152 59.1886 80.256 59.6606 80.256C60.1086 80.256 60.4406 80.16 60.6566 79.968C60.8806 79.776 60.9926 79.556 60.9926 79.308C60.9926 78.972 60.8606 78.744 60.5966 78.624C60.3326 78.496 59.9366 78.4 59.4086 78.336C58.7766 78.264 58.2526 78.092 57.8366 77.82C57.4206 77.548 57.2126 77.14 57.2126 76.596C57.2126 76.108 57.4166 75.704 57.8246 75.384C58.2326 75.064 58.7886 74.904 59.4926 74.904C60.1886 74.904 60.7366 75.064 61.1366 75.384C61.5366 75.696 61.7646 76.144 61.8206 76.728H60.8246C60.8006 76.44 60.6606 76.212 60.4046 76.044C60.1566 75.868 59.8446 75.78 59.4686 75.78C59.0766 75.78 58.7726 75.856 58.5566 76.008C58.3406 76.152 58.2326 76.344 58.2326 76.584C58.2326 76.824 58.3526 77.024 58.5926 77.184C58.8406 77.336 59.2286 77.436 59.7566 77.484C60.1726 77.532 60.5526 77.612 60.8966 77.724C61.2406 77.836 61.5126 78.012 61.7126 78.252C61.9206 78.492 62.0246 78.828 62.0246 79.26C62.0326 79.62 61.9326 79.944 61.7246 80.232C61.5246 80.512 61.2446 80.736 60.8846 80.904C60.5246 81.064 60.1086 81.144 59.6366 81.144ZM66.8559 81.144C66.2639 81.144 65.7479 81.032 65.3079 80.808C64.8759 80.584 64.5399 80.272 64.2999 79.872C64.0679 79.472 63.9479 79.004 63.9399 78.468H64.9959C65.0039 78.948 65.1639 79.364 65.4759 79.716C65.7959 80.06 66.2559 80.232 66.8559 80.232C67.4079 80.232 67.8319 80.1 68.1279 79.836C68.4319 79.564 68.5839 79.24 68.5839 78.864C68.5839 78.552 68.5119 78.292 68.3679 78.084C68.2239 77.868 67.9879 77.68 67.6599 77.52C67.3399 77.352 66.9079 77.18 66.3639 77.004C65.5959 76.772 65.0359 76.456 64.6839 76.056C64.3319 75.656 64.1559 75.16 64.1559 74.568C64.1559 74.168 64.2599 73.808 64.4679 73.488C64.6759 73.168 64.9759 72.916 65.3679 72.732C65.7599 72.548 66.2359 72.456 66.7959 72.456C67.3239 72.456 67.7839 72.556 68.1759 72.756C68.5759 72.948 68.8839 73.22 69.0999 73.572C69.3239 73.924 69.4359 74.328 69.4359 74.784H68.3799C68.3799 74.56 68.3199 74.34 68.1999 74.124C68.0799 73.908 67.8999 73.728 67.6599 73.584C67.4199 73.44 67.1159 73.368 66.7479 73.368C66.3079 73.368 65.9399 73.476 65.6439 73.692C65.3479 73.9 65.1999 74.188 65.1999 74.556C65.1999 74.836 65.2639 75.072 65.3919 75.264C65.5279 75.456 65.7479 75.632 66.0519 75.792C66.3559 75.944 66.7679 76.108 67.2879 76.284C67.7759 76.444 68.1919 76.632 68.5359 76.848C68.8879 77.056 69.1559 77.316 69.3399 77.628C69.5319 77.94 69.6279 78.328 69.6279 78.792C69.6279 79.248 69.5119 79.652 69.2799 80.004C69.0479 80.356 68.7239 80.636 68.3079 80.844C67.8919 81.044 67.4079 81.144 66.8559 81.144ZM71.3632 81V72.36H72.3712V75.948C72.5312 75.644 72.7952 75.396 73.1632 75.204C73.5312 75.004 73.9352 74.904 74.3752 74.904C75.1032 74.904 75.6552 75.124 76.0312 75.564C76.4152 76.004 76.6072 76.62 76.6072 77.412V81H75.5992V77.544C75.5992 77.008 75.4672 76.592 75.2032 76.296C74.9472 76 74.5872 75.852 74.1232 75.852C73.8032 75.852 73.5112 75.924 73.2472 76.068C72.9832 76.212 72.7712 76.424 72.6112 76.704C72.4512 76.984 72.3712 77.328 72.3712 77.736V81H71.3632ZM78.5705 81V80.136H80.0945V76.212C80.0945 76.012 79.9985 75.912 79.8065 75.912H78.7265V75.048H80.1785C80.4425 75.048 80.6545 75.12 80.8145 75.264C80.9745 75.408 81.0545 75.62 81.0545 75.9V76.152H81.1025C81.1985 75.752 81.3785 75.444 81.6425 75.228C81.9145 75.012 82.2905 74.904 82.7705 74.904H83.8625V75.972H82.6265C82.1385 75.972 81.7625 76.136 81.4985 76.464C81.2345 76.784 81.1025 77.196 81.1025 77.7V80.136H82.9745V81H78.5705ZM88.3578 81.144C87.7818 81.144 87.2858 81.036 86.8698 80.82C86.4538 80.604 86.1258 80.312 85.8858 79.944C85.6458 79.576 85.5018 79.156 85.4538 78.684H86.4858C86.5578 79.14 86.7618 79.512 87.0978 79.8C87.4338 80.08 87.8578 80.22 88.3698 80.22C88.9698 80.22 89.4418 80.028 89.7858 79.644C90.1298 79.252 90.3018 78.76 90.3018 78.168C90.3018 77.544 90.1258 77.056 89.7738 76.704C89.4218 76.344 88.9658 76.164 88.4058 76.164C87.9578 76.164 87.5738 76.268 87.2538 76.476C86.9418 76.676 86.6898 76.932 86.4978 77.244H85.5378L86.2578 72.6H90.7458V73.524H87.0498L86.6058 76.02H86.6658C86.8498 75.82 87.0978 75.644 87.4098 75.492C87.7298 75.34 88.0978 75.264 88.5138 75.264C89.0658 75.264 89.5458 75.384 89.9538 75.624C90.3698 75.856 90.6938 76.192 90.9258 76.632C91.1578 77.064 91.2738 77.572 91.2738 78.156C91.2738 78.7 91.1578 79.2 90.9258 79.656C90.7018 80.104 90.3698 80.464 89.9298 80.736C89.4978 81.008 88.9738 81.144 88.3578 81.144ZM95.5531 81.144C94.8731 81.144 94.2891 80.964 93.8011 80.604C93.3131 80.244 92.9371 79.74 92.6731 79.092C92.4171 78.436 92.2891 77.672 92.2891 76.8C92.2891 75.928 92.4171 75.168 92.6731 74.52C92.9371 73.864 93.3131 73.356 93.8011 72.996C94.2891 72.636 94.8731 72.456 95.5531 72.456C96.2331 72.456 96.8171 72.636 97.3051 72.996C97.7931 73.356 98.1651 73.864 98.4211 74.52C98.6851 75.168 98.8171 75.928 98.8171 76.8C98.8171 77.8 98.6451 78.656 98.3011 79.368C97.9571 80.072 97.4771 80.572 96.8611 80.868L98.6611 82.788H97.3411L95.8051 81.132C95.7171 81.14 95.6331 81.144 95.5531 81.144ZM95.5531 80.196C96.2171 80.196 96.7531 79.9 97.1611 79.308C97.5771 78.716 97.7851 77.88 97.7851 76.8C97.7851 75.72 97.5771 74.884 97.1611 74.292C96.7531 73.7 96.2171 73.404 95.5531 73.404C94.8811 73.404 94.3411 73.7 93.9331 74.292C93.5251 74.884 93.3211 75.72 93.3211 76.8C93.3211 77.88 93.5251 78.716 93.9331 79.308C94.3411 79.9 94.8811 80.196 95.5531 80.196ZM102.844 81.144C102.02 81.144 101.388 80.912 100.948 80.448C100.508 79.976 100.288 79.328 100.288 78.504H101.308C101.316 78.976 101.44 79.38 101.68 79.716C101.92 80.044 102.304 80.208 102.832 80.208C103.36 80.208 103.736 80.048 103.96 79.728C104.192 79.408 104.308 79.008 104.308 78.528V72.6H105.316V78.528C105.316 79.368 105.1 80.016 104.668 80.472C104.236 80.92 103.628 81.144 102.844 81.144ZM110.568 81C110.024 81 109.596 80.868 109.284 80.604C108.972 80.34 108.816 79.864 108.816 79.176V75.912H107.304V75.048H108.204C108.612 75.048 108.848 74.848 108.912 74.448L109.08 73.524H109.824V75.048H112.2V75.912H109.824V79.176C109.824 79.512 109.9 79.748 110.052 79.884C110.212 80.02 110.484 80.088 110.868 80.088H112.2V81H110.568ZM114.475 83.64V75.048H115.291L115.411 76.032H115.483C115.635 75.712 115.879 75.444 116.215 75.228C116.551 75.012 116.947 74.904 117.403 74.904C117.883 74.904 118.315 75.024 118.699 75.264C119.091 75.504 119.399 75.86 119.623 76.332C119.847 76.796 119.959 77.364 119.959 78.036C119.959 78.7 119.843 79.264 119.611 79.728C119.387 80.192 119.075 80.544 118.675 80.784C118.283 81.024 117.831 81.144 117.319 81.144C116.863 81.144 116.475 81.048 116.155 80.856C115.843 80.656 115.619 80.424 115.483 80.16V83.64H114.475ZM117.199 80.184C117.703 80.184 118.119 80.008 118.447 79.656C118.775 79.296 118.939 78.752 118.939 78.024C118.939 77.296 118.775 76.756 118.447 76.404C118.119 76.044 117.703 75.864 117.199 75.864C116.695 75.864 116.279 76.044 115.951 76.404C115.623 76.756 115.459 77.296 115.459 78.024C115.459 78.752 115.623 79.296 115.951 79.656C116.279 80.008 116.695 80.184 117.199 80.184ZM123.914 81.144C123.194 81.144 122.65 80.928 122.282 80.496C121.914 80.064 121.73 79.44 121.73 78.624V75.048H122.738V78.504C122.738 79.032 122.854 79.448 123.086 79.752C123.326 80.048 123.686 80.196 124.166 80.196C124.646 80.196 125.05 80.036 125.378 79.716C125.706 79.388 125.87 78.92 125.87 78.312V75.048H126.878V81H126.038L125.93 80.1H125.87C125.71 80.388 125.458 80.636 125.114 80.844C124.77 81.044 124.37 81.144 123.914 81.144ZM131.11 81.144C130.39 81.144 129.846 80.928 129.478 80.496C129.11 80.064 128.926 79.44 128.926 78.624V75.048H129.934V78.504C129.934 79.032 130.05 79.448 130.282 79.752C130.522 80.048 130.882 80.196 131.362 80.196C131.842 80.196 132.246 80.036 132.574 79.716C132.902 79.388 133.066 78.92 133.066 78.312V75.048H134.074V81H133.234L133.126 80.1H133.066C132.906 80.388 132.654 80.636 132.31 80.844C131.966 81.044 131.566 81.144 131.11 81.144ZM138.725 81.144C138.045 81.144 137.461 80.964 136.973 80.604C136.485 80.244 136.109 79.74 135.845 79.092C135.589 78.436 135.461 77.672 135.461 76.8C135.461 75.928 135.589 75.168 135.845 74.52C136.109 73.864 136.485 73.356 136.973 72.996C137.461 72.636 138.045 72.456 138.725 72.456C139.405 72.456 139.989 72.636 140.477 72.996C140.965 73.356 141.337 73.864 141.593 74.52C141.857 75.168 141.989 75.928 141.989 76.8C141.989 77.672 141.857 78.436 141.593 79.092C141.337 79.74 140.965 80.244 140.477 80.604C139.989 80.964 139.405 81.144 138.725 81.144ZM138.725 80.196C139.389 80.196 139.925 79.9 140.333 79.308C140.749 78.716 140.957 77.88 140.957 76.8C140.957 75.72 140.749 74.884 140.333 74.292C139.925 73.7 139.389 73.404 138.725 73.404C138.053 73.404 137.513 73.7 137.105 74.292C136.697 74.884 136.493 75.72 136.493 76.8C136.493 77.88 136.697 78.716 137.105 79.308C137.513 79.9 138.053 80.196 138.725 80.196ZM146.16 73.992C145.928 73.992 145.728 73.912 145.56 73.752C145.4 73.592 145.32 73.4 145.32 73.176C145.32 72.944 145.4 72.752 145.56 72.6C145.728 72.44 145.928 72.36 146.16 72.36C146.4 72.36 146.6 72.44 146.76 72.6C146.92 72.752 147 72.944 147 73.176C147 73.4 146.92 73.592 146.76 73.752C146.6 73.912 146.4 73.992 146.16 73.992ZM143.052 83.64V82.776H145.428C145.628 82.776 145.728 82.672 145.728 82.464V76.212C145.728 76.012 145.628 75.912 145.428 75.912H143.988V75.048H145.668C146.38 75.048 146.736 75.404 146.736 76.116V82.572C146.736 83.284 146.38 83.64 145.668 83.64H143.052ZM152.972 81.144C152.46 81.144 152.004 81.044 151.604 80.844C151.212 80.636 150.896 80.36 150.656 80.016C150.424 79.664 150.288 79.272 150.248 78.84H151.22C151.292 79.264 151.48 79.604 151.784 79.86C152.096 80.108 152.492 80.232 152.972 80.232C153.604 80.232 154.12 79.948 154.52 79.38C154.92 78.804 155.148 77.908 155.204 76.692H155.132C154.916 77.068 154.64 77.376 154.304 77.616C153.968 77.856 153.496 77.976 152.888 77.976C152.384 77.976 151.932 77.86 151.532 77.628C151.132 77.396 150.812 77.076 150.572 76.668C150.34 76.26 150.224 75.796 150.224 75.276C150.224 74.764 150.336 74.296 150.56 73.872C150.792 73.44 151.116 73.096 151.532 72.84C151.956 72.584 152.448 72.456 153.008 72.456C154.064 72.456 154.852 72.816 155.372 73.536C155.892 74.256 156.152 75.236 156.152 76.476C156.152 77.396 156.028 78.208 155.78 78.912C155.532 79.608 155.172 80.156 154.7 80.556C154.228 80.948 153.652 81.144 152.972 81.144ZM153.08 77.064C153.64 77.064 154.088 76.888 154.424 76.536C154.76 76.184 154.928 75.744 154.928 75.216C154.928 74.688 154.76 74.248 154.424 73.896C154.088 73.544 153.64 73.368 153.08 73.368C152.52 73.368 152.072 73.544 151.736 73.896C151.408 74.248 151.244 74.688 151.244 75.216C151.244 75.752 151.408 76.196 151.736 76.548C152.072 76.892 152.52 77.064 153.08 77.064ZM160.311 81.024C160.063 81.024 159.851 80.94 159.675 80.772C159.499 80.604 159.411 80.396 159.411 80.148C159.411 79.908 159.499 79.704 159.675 79.536C159.851 79.368 160.063 79.284 160.311 79.284C160.559 79.284 160.771 79.368 160.947 79.536C161.123 79.704 161.211 79.908 161.211 80.148C161.211 80.396 161.123 80.604 160.947 80.772C160.771 80.94 160.559 81.024 160.311 81.024ZM167.506 81.024C167.258 81.024 167.046 80.94 166.87 80.772C166.694 80.604 166.606 80.396 166.606 80.148C166.606 79.908 166.694 79.704 166.87 79.536C167.046 79.368 167.258 79.284 167.506 79.284C167.754 79.284 167.966 79.368 168.142 79.536C168.318 79.704 168.406 79.908 168.406 80.148C168.406 80.396 168.318 80.604 168.142 80.772C167.966 80.94 167.754 81.024 167.506 81.024ZM174.702 81.024C174.454 81.024 174.242 80.94 174.066 80.772C173.89 80.604 173.802 80.396 173.802 80.148C173.802 79.908 173.89 79.704 174.066 79.536C174.242 79.368 174.454 79.284 174.702 79.284C174.95 79.284 175.162 79.368 175.338 79.536C175.514 79.704 175.602 79.908 175.602 80.148C175.602 80.396 175.514 80.604 175.338 80.772C175.162 80.94 174.95 81.024 174.702 81.024ZM21.62 93.232V92.368H25.58V93.232H21.62ZM28.8153 93.232V92.368H32.7753V93.232H28.8153ZM36.0106 93.232V92.368H39.9706V93.232H36.0106ZM43.2059 93.232V92.368H47.1659V93.232H43.2059ZM50.4013 93.232V92.368H54.3613V93.232H50.4013ZM57.0086 97V88.6H62.2526V89.512H58.0166V92.308H61.8926V93.22H58.0166V96.088H62.2526V97H57.0086ZM63.8559 97V88.6H64.8879L68.7039 95.236V88.6H69.6999V97H68.6559L64.8399 90.364V97H63.8559ZM71.1592 97V88.6H72.9232C74.2992 88.6 75.3152 88.976 75.9712 89.728C76.6352 90.48 76.9672 91.504 76.9672 92.8C76.9672 94.096 76.6352 95.12 75.9712 95.872C75.3152 96.624 74.2992 97 72.9232 97H71.1592ZM72.1672 96.076H72.8992C73.6352 96.076 74.2232 95.94 74.6632 95.668C75.1112 95.396 75.4352 95.016 75.6352 94.528C75.8352 94.04 75.9352 93.464 75.9352 92.8C75.9352 92.136 75.8352 91.56 75.6352 91.072C75.4352 90.584 75.1112 90.204 74.6632 89.932C74.2232 89.66 73.6352 89.524 72.8992 89.524H72.1672V96.076ZM85.6458 97V88.6H88.4418C89.0818 88.6 89.6058 88.716 90.0138 88.948C90.4218 89.18 90.7218 89.488 90.9138 89.872C91.1058 90.256 91.2018 90.68 91.2018 91.144C91.2018 91.608 91.1058 92.032 90.9138 92.416C90.7218 92.8 90.4218 93.108 90.0138 93.34C89.6058 93.572 89.0818 93.688 88.4418 93.688H86.6538V97H85.6458ZM86.6538 92.764H88.4178C89.0098 92.764 89.4498 92.616 89.7378 92.32C90.0258 92.016 90.1698 91.624 90.1698 91.144C90.1698 90.664 90.0258 90.272 89.7378 89.968C89.4498 89.664 89.0098 89.512 88.4178 89.512H86.6538V92.764ZM95.4691 97.144C94.8771 97.144 94.3491 96.972 93.8851 96.628C93.4211 96.276 93.0571 95.776 92.7931 95.128C92.5371 94.48 92.4091 93.704 92.4091 92.8C92.4091 91.904 92.5411 91.132 92.8051 90.484C93.0691 89.836 93.4411 89.336 93.9211 88.984C94.4091 88.632 94.9851 88.456 95.6491 88.456C96.4411 88.456 97.0851 88.688 97.5811 89.152C98.0851 89.616 98.3851 90.24 98.4811 91.024H97.3651C97.2851 90.544 97.0971 90.156 96.8011 89.86C96.5131 89.556 96.1291 89.404 95.6491 89.404C94.9611 89.404 94.4211 89.704 94.0291 90.304C93.6371 90.904 93.4411 91.736 93.4411 92.8C93.4411 93.88 93.6371 94.716 94.0291 95.308C94.4211 95.9 94.9291 96.196 95.5531 96.196C96.0011 96.196 96.3691 96.064 96.6571 95.8C96.9451 95.528 97.1611 95.184 97.3051 94.768C97.4571 94.344 97.5411 93.908 97.5571 93.46H95.6851V92.596H98.5891V97H97.6651L97.5811 95.728H97.5331C97.3651 96.16 97.1171 96.504 96.7891 96.76C96.4691 97.016 96.0291 97.144 95.4691 97.144ZM100.036 97V88.6H102.832C103.472 88.6 103.996 88.716 104.404 88.948C104.812 89.18 105.112 89.488 105.304 89.872C105.496 90.256 105.592 90.68 105.592 91.144C105.592 91.608 105.496 92.032 105.304 92.416C105.112 92.8 104.812 93.108 104.404 93.34C103.996 93.572 103.472 93.688 102.832 93.688H101.044V97H100.036ZM101.044 92.764H102.808C103.4 92.764 103.84 92.616 104.128 92.32C104.416 92.016 104.56 91.624 104.56 91.144C104.56 90.664 104.416 90.272 104.128 89.968C103.84 89.664 103.4 89.512 102.808 89.512H101.044V92.764ZM114.139 97V88.6H115.219L117.139 92.596L119.059 88.6H120.139V97H119.155V90.544L117.523 93.94H116.755L115.123 90.556V97H114.139ZM121.766 97V88.6H127.01V89.512H122.774V92.308H126.65V93.22H122.774V96.088H127.01V97H121.766ZM131.614 97.144C131.022 97.144 130.506 97.032 130.066 96.808C129.634 96.584 129.298 96.272 129.058 95.872C128.826 95.472 128.706 95.004 128.698 94.468H129.754C129.762 94.948 129.922 95.364 130.234 95.716C130.554 96.06 131.014 96.232 131.614 96.232C132.166 96.232 132.59 96.1 132.886 95.836C133.19 95.564 133.342 95.24 133.342 94.864C133.342 94.552 133.27 94.292 133.126 94.084C132.982 93.868 132.746 93.68 132.418 93.52C132.098 93.352 131.666 93.18 131.122 93.004C130.354 92.772 129.794 92.456 129.442 92.056C129.09 91.656 128.914 91.16 128.914 90.568C128.914 90.168 129.018 89.808 129.226 89.488C129.434 89.168 129.734 88.916 130.126 88.732C130.518 88.548 130.994 88.456 131.554 88.456C132.082 88.456 132.542 88.556 132.934 88.756C133.334 88.948 133.642 89.22 133.858 89.572C134.082 89.924 134.194 90.328 134.194 90.784H133.138C133.138 90.56 133.078 90.34 132.958 90.124C132.838 89.908 132.658 89.728 132.418 89.584C132.178 89.44 131.874 89.368 131.506 89.368C131.066 89.368 130.698 89.476 130.402 89.692C130.106 89.9 129.958 90.188 129.958 90.556C129.958 90.836 130.022 91.072 130.15 91.264C130.286 91.456 130.506 91.632 130.81 91.792C131.114 91.944 131.526 92.108 132.046 92.284C132.534 92.444 132.95 92.632 133.294 92.848C133.646 93.056 133.914 93.316 134.098 93.628C134.29 93.94 134.386 94.328 134.386 94.792C134.386 95.248 134.27 95.652 134.038 96.004C133.806 96.356 133.482 96.636 133.066 96.844C132.65 97.044 132.166 97.144 131.614 97.144ZM138.809 97.144C138.217 97.144 137.701 97.032 137.261 96.808C136.829 96.584 136.493 96.272 136.253 95.872C136.021 95.472 135.901 95.004 135.893 94.468H136.949C136.957 94.948 137.117 95.364 137.429 95.716C137.749 96.06 138.209 96.232 138.809 96.232C139.361 96.232 139.785 96.1 140.081 95.836C140.385 95.564 140.537 95.24 140.537 94.864C140.537 94.552 140.465 94.292 140.321 94.084C140.177 93.868 139.941 93.68 139.613 93.52C139.293 93.352 138.861 93.18 138.317 93.004C137.549 92.772 136.989 92.456 136.637 92.056C136.285 91.656 136.109 91.16 136.109 90.568C136.109 90.168 136.213 89.808 136.421 89.488C136.629 89.168 136.929 88.916 137.321 88.732C137.713 88.548 138.189 88.456 138.749 88.456C139.277 88.456 139.737 88.556 140.129 88.756C140.529 88.948 140.837 89.22 141.053 89.572C141.277 89.924 141.389 90.328 141.389 90.784H140.333C140.333 90.56 140.273 90.34 140.153 90.124C140.033 89.908 139.853 89.728 139.613 89.584C139.373 89.44 139.069 89.368 138.701 89.368C138.261 89.368 137.893 89.476 137.597 89.692C137.301 89.9 137.153 90.188 137.153 90.556C137.153 90.836 137.217 91.072 137.345 91.264C137.481 91.456 137.701 91.632 138.005 91.792C138.309 91.944 138.721 92.108 139.241 92.284C139.729 92.444 140.145 92.632 140.489 92.848C140.841 93.056 141.109 93.316 141.293 93.628C141.485 93.94 141.581 94.328 141.581 94.792C141.581 95.248 141.465 95.652 141.233 96.004C141.001 96.356 140.677 96.636 140.261 96.844C139.845 97.044 139.361 97.144 138.809 97.144ZM142.716 97L145.344 88.6H146.508L149.124 97H148.02L147.408 94.912H144.432L143.82 97H142.716ZM145.896 90.016L144.684 94.072H147.156L145.944 90.016H145.896ZM153.032 97.144C152.44 97.144 151.912 96.972 151.448 96.628C150.984 96.276 150.62 95.776 150.356 95.128C150.1 94.48 149.972 93.704 149.972 92.8C149.972 91.904 150.104 91.132 150.368 90.484C150.632 89.836 151.004 89.336 151.484 88.984C151.972 88.632 152.548 88.456 153.212 88.456C154.004 88.456 154.648 88.688 155.144 89.152C155.648 89.616 155.948 90.24 156.044 91.024H154.928C154.848 90.544 154.66 90.156 154.364 89.86C154.076 89.556 153.692 89.404 153.212 89.404C152.524 89.404 151.984 89.704 151.592 90.304C151.2 90.904 151.004 91.736 151.004 92.8C151.004 93.88 151.2 94.716 151.592 95.308C151.984 95.9 152.492 96.196 153.116 96.196C153.564 96.196 153.932 96.064 154.22 95.8C154.508 95.528 154.724 95.184 154.868 94.768C155.02 94.344 155.104 93.908 155.12 93.46H153.248V92.596H156.152V97H155.228L155.144 95.728H155.096C154.928 96.16 154.68 96.504 154.352 96.76C154.032 97.016 153.592 97.144 153.032 97.144ZM157.743 97V88.6H162.987V89.512H158.751V92.308H162.627V93.22H158.751V96.088H162.987V97H157.743ZM165.526 93.232V92.368H169.486V93.232H165.526ZM172.722 93.232V92.368H176.682V93.232H172.722ZM179.917 93.232V92.368H183.877V93.232H179.917ZM187.112 93.232V92.368H191.072V93.232H187.112ZM194.308 93.232V92.368H198.268V93.232H194.308Z" fill="white"/>
<path d="M72.9174 22V21.343H74.3484V16.357H72.9174V15.7H76.5354V16.357H75.1044V21.343H76.5354V22H72.9174ZM78.0889 22V15.7H80.1859C80.6659 15.7 81.0589 15.787 81.3649 15.961C81.6709 16.135 81.8959 16.366 82.0399 16.654C82.1839 16.942 82.2559 17.26 82.2559 17.608C82.2559 17.956 82.1839 18.274 82.0399 18.562C81.8959 18.85 81.6709 19.081 81.3649 19.255C81.0589 19.429 80.6659 19.516 80.1859 19.516H78.8449V22H78.0889ZM78.8449 18.823H80.1679C80.6119 18.823 80.9419 18.712 81.1579 18.49C81.3739 18.262 81.4819 17.968 81.4819 17.608C81.4819 17.248 81.3739 16.954 81.1579 16.726C80.9419 16.498 80.6119 16.384 80.1679 16.384H78.8449V18.823ZM90.9158 22.108C90.4838 22.108 90.1118 22.027 89.7998 21.865C89.4878 21.703 89.2418 21.484 89.0618 21.208C88.8818 20.932 88.7738 20.617 88.7378 20.263H89.5118C89.5658 20.605 89.7188 20.884 89.9708 21.1C90.2228 21.31 90.5408 21.415 90.9248 21.415C91.3748 21.415 91.7288 21.271 91.9868 20.983C92.2448 20.689 92.3738 20.32 92.3738 19.876C92.3738 19.408 92.2418 19.042 91.9778 18.778C91.7138 18.508 91.3718 18.373 90.9518 18.373C90.6158 18.373 90.3278 18.451 90.0878 18.607C89.8538 18.757 89.6648 18.949 89.5208 19.183H88.8008L89.3408 15.7H92.7068V16.393H89.9348L89.6018 18.265H89.6468C89.7848 18.115 89.9708 17.983 90.2048 17.869C90.4448 17.755 90.7208 17.698 91.0328 17.698C91.4468 17.698 91.8068 17.788 92.1128 17.968C92.4248 18.142 92.6678 18.394 92.8418 18.724C93.0158 19.048 93.1028 19.429 93.1028 19.867C93.1028 20.275 93.0158 20.65 92.8418 20.992C92.6738 21.328 92.4248 21.598 92.0948 21.802C91.7708 22.006 91.3778 22.108 90.9158 22.108ZM95.1603 22L97.6173 16.384H94.1793V15.7H98.4003V16.303L95.9613 22H95.1603ZM101.709 22.018C101.523 22.018 101.364 21.955 101.232 21.829C101.1 21.703 101.034 21.547 101.034 21.361C101.034 21.181 101.1 21.028 101.232 20.902C101.364 20.776 101.523 20.713 101.709 20.713C101.895 20.713 102.054 20.776 102.186 20.902C102.318 21.028 102.384 21.181 102.384 21.361C102.384 21.547 102.318 21.703 102.186 21.829C102.054 21.955 101.895 22.018 101.709 22.018ZM107.879 22V20.542H104.864V19.957L107.735 15.7H108.635V19.858H109.535V20.542H108.635V22H107.879ZM105.71 19.858H107.915V16.582L105.71 19.858ZM111.35 22L113.807 16.384H110.369V15.7H114.59V16.303L112.151 22H111.35ZM115.864 22V21.406C116.512 20.89 117.076 20.416 117.556 19.984C118.042 19.552 118.417 19.135 118.681 18.733C118.945 18.331 119.077 17.92 119.077 17.5C119.077 17.122 118.969 16.825 118.753 16.609C118.543 16.387 118.258 16.276 117.898 16.276C117.622 16.276 117.388 16.336 117.196 16.456C117.004 16.576 116.86 16.735 116.764 16.933C116.668 17.131 116.62 17.344 116.62 17.572H115.873C115.879 17.158 115.969 16.804 116.143 16.51C116.323 16.21 116.563 15.982 116.863 15.826C117.169 15.67 117.514 15.592 117.898 15.592C118.516 15.592 118.996 15.763 119.338 16.105C119.68 16.447 119.851 16.906 119.851 17.482C119.851 17.86 119.77 18.223 119.608 18.571C119.446 18.913 119.23 19.243 118.96 19.561C118.69 19.879 118.387 20.185 118.051 20.479C117.715 20.773 117.376 21.055 117.034 21.325H120.022V22H115.864ZM123.295 22.018C123.109 22.018 122.95 21.955 122.818 21.829C122.686 21.703 122.62 21.547 122.62 21.361C122.62 21.181 122.686 21.028 122.818 20.902C122.95 20.776 123.109 20.713 123.295 20.713C123.481 20.713 123.64 20.776 123.772 20.902C123.904 21.028 123.97 21.181 123.97 21.361C123.97 21.547 123.904 21.703 123.772 21.829C123.64 21.955 123.481 22.018 123.295 22.018ZM128.691 22.108C128.217 22.108 127.797 21.976 127.431 21.712C127.071 21.448 126.789 21.073 126.585 20.587C126.387 20.101 126.288 19.522 126.288 18.85C126.288 18.178 126.387 17.599 126.585 17.113C126.789 16.627 127.071 16.252 127.431 15.988C127.797 15.724 128.217 15.592 128.691 15.592C129.171 15.592 129.591 15.724 129.951 15.988C130.311 16.252 130.59 16.627 130.788 17.113C130.992 17.599 131.094 18.178 131.094 18.85C131.094 19.522 130.992 20.101 130.788 20.587C130.59 21.073 130.311 21.448 129.951 21.712C129.591 21.976 129.171 22.108 128.691 22.108ZM127.062 18.85C127.062 19.258 127.104 19.627 127.188 19.957C127.278 20.281 127.401 20.554 127.557 20.776L129.303 16.447C129.117 16.345 128.913 16.294 128.691 16.294C128.373 16.294 128.091 16.399 127.845 16.609C127.599 16.813 127.407 17.107 127.269 17.491C127.131 17.869 127.062 18.322 127.062 18.85ZM128.691 21.415C129.009 21.415 129.291 21.313 129.537 21.109C129.783 20.899 129.975 20.602 130.113 20.218C130.251 19.834 130.32 19.378 130.32 18.85C130.32 18.442 130.275 18.076 130.185 17.752C130.101 17.422 129.981 17.146 129.825 16.924L128.07 21.262C128.262 21.364 128.469 21.415 128.691 21.415ZM134.862 22V20.542H131.847V19.957L134.718 15.7H135.618V19.858H136.518V20.542H135.618V22H134.862ZM132.693 19.858H134.898V16.582L132.693 19.858ZM139.484 22.108C139.064 22.108 138.695 22.03 138.377 21.874C138.065 21.712 137.819 21.493 137.639 21.217C137.459 20.941 137.369 20.626 137.369 20.272C137.369 19.876 137.474 19.54 137.684 19.264C137.894 18.988 138.137 18.796 138.413 18.688V18.643C138.149 18.517 137.936 18.337 137.774 18.103C137.618 17.863 137.54 17.584 137.54 17.266C137.54 16.96 137.618 16.681 137.774 16.429C137.936 16.171 138.164 15.967 138.458 15.817C138.752 15.667 139.094 15.592 139.484 15.592C139.868 15.592 140.204 15.667 140.492 15.817C140.786 15.967 141.014 16.171 141.176 16.429C141.344 16.681 141.428 16.96 141.428 17.266C141.428 17.584 141.347 17.863 141.185 18.103C141.029 18.337 140.819 18.517 140.555 18.643V18.688C140.831 18.796 141.074 18.988 141.284 19.264C141.494 19.54 141.599 19.876 141.599 20.272C141.599 20.626 141.509 20.941 141.329 21.217C141.149 21.493 140.9 21.712 140.582 21.874C140.27 22.03 139.904 22.108 139.484 22.108ZM139.484 18.364C139.856 18.364 140.147 18.268 140.357 18.076C140.573 17.878 140.681 17.623 140.681 17.311C140.681 17.005 140.573 16.756 140.357 16.564C140.147 16.366 139.856 16.267 139.484 16.267C139.112 16.267 138.818 16.366 138.602 16.564C138.392 16.756 138.287 17.005 138.287 17.311C138.287 17.623 138.392 17.878 138.602 18.076C138.818 18.268 139.112 18.364 139.484 18.364ZM139.484 21.424C139.886 21.424 140.21 21.322 140.456 21.118C140.708 20.908 140.834 20.605 140.834 20.209C140.834 19.819 140.708 19.522 140.456 19.318C140.21 19.108 139.886 19.003 139.484 19.003C139.082 19.003 138.755 19.108 138.503 19.318C138.257 19.522 138.134 19.819 138.134 20.209C138.134 20.605 138.257 20.908 138.503 21.118C138.755 21.322 139.082 21.424 139.484 21.424ZM144.881 22.018C144.695 22.018 144.536 21.955 144.404 21.829C144.272 21.703 144.206 21.547 144.206 21.361C144.206 21.181 144.272 21.028 144.404 20.902C144.536 20.776 144.695 20.713 144.881 20.713C145.067 20.713 145.226 20.776 145.358 20.902C145.49 21.028 145.556 21.181 145.556 21.361C145.556 21.547 145.49 21.703 145.358 21.829C145.226 21.955 145.067 22.018 144.881 22.018ZM148.207 22V21.316H149.836V16.591L148.297 16.888V16.312L150.088 15.7H150.592V21.316H152.311V22H148.207Z" fill="#BDA2EB"/>
</g>
<defs>
<filter id="filter0_b_532_76010" x="-8" y="-12" width="241" height="152" filterUnits="userSpaceOnUse" color-interpolation-filters="sRGB">
<feFlood flood-opacity="0" result="BackgroundImageFix"/>
<feGaussianBlur in="BackgroundImageFix" stdDeviation="6"/>
<feComposite in2="SourceAlpha" operator="in" result="effect1_backgroundBlur_532_76010"/>
<feBlend mode="normal" in="SourceGraphic" in2="effect1_backgroundBlur_532_76010" result="shape"/>
</filter>
<filter id="filter1_d_532_76010" x="0" y="0" width="225" height="136" filterUnits="userSpaceOnUse" color-interpolation-filters="sRGB">
<feFlood flood-opacity="0" result="BackgroundImageFix"/>
<feColorMatrix in="SourceAlpha" type="matrix" values="0 0 0 0 0 0 0 0 0 0 0 0 0 0 0 0 0 0 127 0" result="hardAlpha"/>
<feOffset dy="4"/>
<feGaussianBlur stdDeviation="2"/>
<feComposite in2="hardAlpha" operator="out"/>
<feColorMatrix type="matrix" values="0 0 0 0 0 0 0 0 0 0 0 0 0 0 0 0 0 0 0.25 0"/>
<feBlend mode="normal" in2="BackgroundImageFix" result="effect1_dropShadow_532_76010"/>
<feBlend mode="normal" in="SourceGraphic" in2="effect1_dropShadow_532_76010" result="shape"/>
</filter>
</defs>
</svg>
