<svg width="128" height="66" viewBox="0 0 128 66" fill="none" xmlns="http://www.w3.org/2000/svg">
<path d="M0.876 0.528H4.596C6.052 0.528 6.972 0.956 7.356 1.812C7.5 2.124 7.572 2.5 7.572 2.94C7.572 3.364 7.5 3.74 7.356 4.068C6.972 4.924 6.052 5.352 4.596 5.352H1.98V9H0.876V0.528ZM4.404 4.416C4.94 4.416 5.364 4.356 5.676 4.236C5.988 4.116 6.204 3.92 6.324 3.648C6.412 3.432 6.456 3.2 6.456 2.952C6.456 2.68 6.412 2.436 6.324 2.22C6.196 1.948 5.976 1.756 5.664 1.644C5.352 1.524 4.932 1.464 4.404 1.464H1.98V4.416H4.404ZM11.5467 3.072C11.7947 3.072 12.0267 3.104 12.2427 3.168V4.104C12.0027 4.048 11.7587 4.02 11.5107 4.02C10.9107 4.02 10.4587 4.184 10.1547 4.512C9.85872 4.84 9.71072 5.312 9.71072 5.928V9H8.66672V3.18H9.71072V4.008C9.87872 3.712 10.1147 3.484 10.4187 3.324C10.7307 3.156 11.1067 3.072 11.5467 3.072ZM13.7416 2.028C13.5336 2.028 13.3656 1.968 13.2376 1.848C13.1096 1.728 13.0456 1.568 13.0456 1.368C13.0456 1.176 13.1096 1.02 13.2376 0.9C13.3736 0.772 13.5416 0.707999 13.7416 0.707999C13.9416 0.707999 14.1056 0.772 14.2336 0.9C14.3696 1.02 14.4376 1.176 14.4376 1.368C14.4376 1.56 14.3696 1.72 14.2336 1.848C14.1056 1.968 13.9416 2.028 13.7416 2.028ZM13.2136 3.18H14.2576V9H13.2136V3.18ZM15.1432 3.18H16.2832L18.4432 7.884L20.6152 3.18H21.7552L19.0072 9H17.8912L15.1432 3.18ZM27.8288 4.284C27.9888 4.652 28.0688 5.088 28.0688 5.592V9H27.0128V8.1C26.5168 8.812 25.6448 9.168 24.3968 9.168C23.8128 9.168 23.3208 9.084 22.9208 8.916C22.5208 8.74 22.2448 8.48 22.0928 8.136C21.9968 7.928 21.9488 7.684 21.9488 7.404C21.9488 7.124 21.9968 6.884 22.0928 6.684C22.2928 6.244 22.6648 5.944 23.2088 5.784C23.7608 5.616 24.4648 5.532 25.3208 5.532H27.0128V5.412C27.0128 5.108 26.9648 4.848 26.8688 4.632C26.6368 4.104 26.0488 3.84 25.1048 3.84C24.1688 3.84 23.5888 4.084 23.3648 4.572C23.3088 4.692 23.2728 4.844 23.2568 5.028H22.2128C22.2128 4.756 22.2688 4.488 22.3808 4.224C22.7408 3.408 23.6448 3 25.0928 3C25.8128 3 26.4008 3.104 26.8568 3.312C27.3128 3.52 27.6368 3.844 27.8288 4.284ZM24.6367 8.328C25.1808 8.328 25.6448 8.236 26.0288 8.052C26.4128 7.868 26.6848 7.6 26.8448 7.248C26.9568 7.016 27.0128 6.724 27.0128 6.372V6.3H25.3568C24.7568 6.3 24.2608 6.348 23.8688 6.444C23.4848 6.532 23.2328 6.704 23.1128 6.96C23.0568 7.088 23.0288 7.208 23.0288 7.32C23.0288 7.472 23.0568 7.6 23.1128 7.704C23.2088 7.92 23.3928 8.08 23.6648 8.184C23.9368 8.28 24.2608 8.328 24.6367 8.328ZM31.8592 9.108C31.2032 9.108 30.7112 8.944 30.3832 8.616C30.0632 8.288 29.9032 7.796 29.9032 7.14V4.044H28.8112V3.18H29.9032V1.728H30.9472V3.18H33.0952V4.044H30.9472V6.96C30.9472 7.376 31.0472 7.692 31.2472 7.908C31.4472 8.116 31.7352 8.22 32.1112 8.22C32.3912 8.22 32.6992 8.176 33.0352 8.088V8.976C32.6432 9.064 32.2512 9.108 31.8592 9.108ZM38.9467 7.788C39.1947 7.564 39.3427 7.284 39.3907 6.948H40.4467C40.3667 7.524 40.1227 7.992 39.7147 8.352C39.4107 8.624 39.0347 8.828 38.5867 8.964C38.1467 9.1 37.6587 9.168 37.1227 9.168C36.3227 9.168 35.6427 9.02 35.0827 8.724C34.5227 8.42 34.1227 8 33.8827 7.464C33.6987 7.072 33.6067 6.612 33.6067 6.084C33.6067 5.564 33.6987 5.096 33.8827 4.68C34.1227 4.144 34.5147 3.732 35.0587 3.444C35.6107 3.148 36.2747 3 37.0507 3C37.8187 3 38.4707 3.148 39.0067 3.444C39.5427 3.74 39.9347 4.156 40.1827 4.692C40.2787 4.932 40.3507 5.188 40.3987 5.46C40.4467 5.724 40.4747 6.02 40.4827 6.348H34.6627C34.6867 6.676 34.7507 6.96 34.8547 7.2C35.0227 7.568 35.2987 7.848 35.6827 8.04C36.0747 8.232 36.5547 8.328 37.1227 8.328C37.5067 8.328 37.8547 8.284 38.1667 8.196C38.4787 8.108 38.7387 7.972 38.9467 7.788ZM37.0507 3.84C36.4987 3.84 36.0347 3.94 35.6587 4.14C35.2907 4.332 35.0227 4.616 34.8547 4.992C34.7747 5.2 34.7187 5.392 34.6867 5.568H39.4027C39.3787 5.336 39.3267 5.128 39.2467 4.944C39.0787 4.584 38.8067 4.312 38.4307 4.128C38.0547 3.936 37.5947 3.84 37.0507 3.84ZM44.2002 0.528H47.8242C48.8562 0.528 49.7282 0.716 50.4402 1.092C51.1522 1.468 51.6682 2.016 51.9882 2.736C52.2442 3.312 52.3722 3.988 52.3722 4.764C52.3722 5.54 52.2442 6.216 51.9882 6.792C51.6682 7.512 51.1522 8.06 50.4402 8.436C49.7282 8.812 48.8562 9 47.8242 9H44.2002V0.528ZM47.7162 8.04C48.5242 8.04 49.1962 7.904 49.7322 7.632C50.2682 7.352 50.6602 6.944 50.9082 6.408C51.1082 5.976 51.2082 5.428 51.2082 4.764C51.2082 4.1 51.1082 3.552 50.9082 3.12C50.6602 2.584 50.2682 2.18 49.7322 1.908C49.1962 1.628 48.5242 1.488 47.7162 1.488H45.3042V8.04H47.7162ZM58.6459 7.788C58.8939 7.564 59.0419 7.284 59.0899 6.948H60.1459C60.0659 7.524 59.8219 7.992 59.4139 8.352C59.1099 8.624 58.7339 8.828 58.2859 8.964C57.8459 9.1 57.3579 9.168 56.8219 9.168C56.0219 9.168 55.3419 9.02 54.7819 8.724C54.2219 8.42 53.8219 8 53.5819 7.464C53.3979 7.072 53.3059 6.612 53.3059 6.084C53.3059 5.564 53.3979 5.096 53.5819 4.68C53.8219 4.144 54.2139 3.732 54.7579 3.444C55.3099 3.148 55.9739 3 56.7499 3C57.5179 3 58.1699 3.148 58.7059 3.444C59.2419 3.74 59.6339 4.156 59.8819 4.692C59.9779 4.932 60.0499 5.188 60.0979 5.46C60.1459 5.724 60.1739 6.02 60.1819 6.348H54.3619C54.3859 6.676 54.4499 6.96 54.5539 7.2C54.7219 7.568 54.9979 7.848 55.3819 8.04C55.7739 8.232 56.2539 8.328 56.8219 8.328C57.2059 8.328 57.5539 8.284 57.8659 8.196C58.1779 8.108 58.4379 7.972 58.6459 7.788ZM56.7499 3.84C56.1979 3.84 55.7339 3.94 55.3579 4.14C54.9899 4.332 54.7219 4.616 54.5539 4.992C54.4739 5.2 54.4179 5.392 54.3859 5.568H59.1019C59.0779 5.336 59.0259 5.128 58.9459 4.944C58.7779 4.584 58.5059 4.312 58.1299 4.128C57.7539 3.936 57.2939 3.84 56.7499 3.84ZM60.3424 3.18H61.4824L63.6424 7.884L65.8144 3.18H66.9544L64.2064 9H63.0904L60.3424 3.18ZM68.3744 2.028C68.1664 2.028 67.9984 1.968 67.8704 1.848C67.7424 1.728 67.6784 1.568 67.6784 1.368C67.6784 1.176 67.7424 1.02 67.8704 0.9C68.0064 0.772 68.1744 0.707999 68.3744 0.707999C68.5744 0.707999 68.7384 0.772 68.8664 0.9C69.0024 1.02 69.0704 1.176 69.0704 1.368C69.0704 1.56 69.0024 1.72 68.8664 1.848C68.7384 1.968 68.5744 2.028 68.3744 2.028ZM67.8464 3.18H68.8904V9H67.8464V3.18ZM73.436 9.168C72.684 9.168 72.036 9.024 71.492 8.736C70.956 8.448 70.568 8.036 70.328 7.5C70.144 7.084 70.052 6.612 70.052 6.084C70.052 5.556 70.144 5.088 70.328 4.68C70.568 4.144 70.956 3.732 71.492 3.444C72.028 3.148 72.676 3 73.436 3C74.508 3 75.344 3.276 75.944 3.828C76.408 4.236 76.656 4.756 76.688 5.388H75.572C75.54 4.988 75.384 4.664 75.104 4.416C74.912 4.248 74.672 4.12 74.384 4.032C74.104 3.944 73.792 3.9 73.448 3.9C72.936 3.9 72.5 4 72.14 4.2C71.788 4.392 71.528 4.668 71.36 5.028C71.224 5.308 71.156 5.66 71.156 6.084C71.156 6.5 71.224 6.848 71.36 7.128C71.52 7.488 71.78 7.768 72.14 7.968C72.5 8.16 72.936 8.256 73.448 8.256C73.8 8.256 74.116 8.212 74.396 8.124C74.684 8.036 74.92 7.908 75.104 7.74C75.24 7.62 75.348 7.476 75.428 7.308C75.516 7.14 75.564 6.956 75.572 6.756H76.7C76.66 7.404 76.416 7.936 75.968 8.352C75.672 8.624 75.308 8.828 74.876 8.964C74.444 9.1 73.964 9.168 73.436 9.168ZM82.8685 7.788C83.1165 7.564 83.2645 7.284 83.3125 6.948H84.3685C84.2885 7.524 84.0445 7.992 83.6365 8.352C83.3325 8.624 82.9565 8.828 82.5085 8.964C82.0685 9.1 81.5805 9.168 81.0445 9.168C80.2445 9.168 79.5645 9.02 79.0045 8.724C78.4445 8.42 78.0445 8 77.8045 7.464C77.6205 7.072 77.5285 6.612 77.5285 6.084C77.5285 5.564 77.6205 5.096 77.8045 4.68C78.0445 4.144 78.4365 3.732 78.9805 3.444C79.5325 3.148 80.1965 3 80.9725 3C81.7405 3 82.3925 3.148 82.9285 3.444C83.4645 3.74 83.8565 4.156 84.1045 4.692C84.2005 4.932 84.2725 5.188 84.3205 5.46C84.3685 5.724 84.3965 6.02 84.4045 6.348H78.5845C78.6085 6.676 78.6725 6.96 78.7765 7.2C78.9445 7.568 79.2205 7.848 79.6045 8.04C79.9965 8.232 80.4765 8.328 81.0445 8.328C81.4285 8.328 81.7765 8.284 82.0885 8.196C82.4005 8.108 82.6605 7.972 82.8685 7.788ZM80.9725 3.84C80.4205 3.84 79.9565 3.94 79.5805 4.14C79.2125 4.332 78.9445 4.616 78.7765 4.992C78.6965 5.2 78.6405 5.392 78.6085 5.568H83.3245C83.3005 5.336 83.2485 5.128 83.1685 4.944C83.0005 4.584 82.7285 4.312 82.3525 4.128C81.9765 3.936 81.5165 3.84 80.9725 3.84ZM0.876 18.528H1.98V27H0.876V18.528ZM3.73538 18.528H7.45538C8.91138 18.528 9.83138 18.956 10.2154 19.812C10.3594 20.124 10.4314 20.5 10.4314 20.94C10.4314 21.364 10.3594 21.74 10.2154 22.068C9.83138 22.924 8.91138 23.352 7.45538 23.352H4.83938V27H3.73538V18.528ZM7.26338 22.416C7.79938 22.416 8.22338 22.356 8.53538 22.236C8.84738 22.116 9.06338 21.92 9.18338 21.648C9.27138 21.432 9.31538 21.2 9.31538 20.952C9.31538 20.68 9.27138 20.436 9.18338 20.22C9.05538 19.948 8.83538 19.756 8.52338 19.644C8.21138 19.524 7.79138 19.464 7.26338 19.464H4.83938V22.416H7.26338ZM12.2171 27.18C12.0091 27.18 11.8371 27.116 11.7011 26.988C11.5731 26.86 11.5091 26.688 11.5091 26.472C11.5091 26.256 11.5731 26.084 11.7011 25.956C11.8371 25.828 12.0091 25.764 12.2171 25.764C12.4331 25.764 12.6051 25.828 12.7331 25.956C12.8691 26.084 12.9371 26.256 12.9371 26.472C12.9371 26.688 12.8691 26.86 12.7331 26.988C12.6051 27.116 12.4331 27.18 12.2171 27.18ZM12.2171 22.8C12.0091 22.8 11.8371 22.736 11.7011 22.608C11.5731 22.48 11.5091 22.308 11.5091 22.092C11.5091 21.876 11.5731 21.704 11.7011 21.576C11.8371 21.448 12.0091 21.384 12.2171 21.384C12.4331 21.384 12.6051 21.448 12.7331 21.576C12.8691 21.704 12.9371 21.876 12.9371 22.092C12.9371 22.308 12.8691 22.48 12.7331 22.608C12.6051 22.736 12.4331 22.8 12.2171 22.8ZM17.3531 22.044L18.3851 20.772L16.8011 20.352L17.0651 19.572L18.5771 20.16L18.4931 18.528H19.3091L19.2251 20.16L20.7491 19.572L21.0011 20.352L19.4051 20.772L20.4491 22.044L19.7891 22.524L18.9011 21.144L18.0131 22.524L17.3531 22.044ZM22.2516 22.044L23.2836 20.772L21.6996 20.352L21.9636 19.572L23.4756 20.16L23.3916 18.528H24.2076L24.1236 20.16L25.6476 19.572L25.8996 20.352L24.3036 20.772L25.3476 22.044L24.6876 22.524L23.7996 21.144L22.9116 22.524L22.2516 22.044ZM27.15 22.044L28.182 20.772L26.598 20.352L26.862 19.572L28.374 20.16L28.29 18.528H29.106L29.022 20.16L30.546 19.572L30.798 20.352L29.202 20.772L30.246 22.044L29.586 22.524L28.698 21.144L27.81 22.524L27.15 22.044ZM32.0484 22.044L33.0804 20.772L31.4964 20.352L31.7604 19.572L33.2724 20.16L33.1884 18.528H34.0044L33.9204 20.16L35.4444 19.572L35.6964 20.352L34.1004 20.772L35.1444 22.044L34.4844 22.524L33.5964 21.144L32.7084 22.524L32.0484 22.044ZM36.9469 22.044L37.9789 20.772L36.3949 20.352L36.6589 19.572L38.1709 20.16L38.0869 18.528H38.9029L38.8189 20.16L40.3429 19.572L40.5949 20.352L38.9989 20.772L40.0429 22.044L39.3829 22.524L38.4949 21.144L37.6069 22.524L36.9469 22.044ZM41.8453 22.044L42.8773 20.772L41.2933 20.352L41.5573 19.572L43.0693 20.16L42.9853 18.528H43.8013L43.7173 20.16L45.2413 19.572L45.4933 20.352L43.8973 20.772L44.9413 22.044L44.2813 22.524L43.3933 21.144L42.5053 22.524L41.8453 22.044ZM46.7438 22.044L47.7758 20.772L46.1918 20.352L46.4558 19.572L47.9678 20.16L47.8838 18.528H48.6998L48.6158 20.16L50.1398 19.572L50.3918 20.352L48.7958 20.772L49.8398 22.044L49.1798 22.524L48.2918 21.144L47.4038 22.524L46.7438 22.044ZM51.6422 22.044L52.6742 20.772L51.0902 20.352L51.3542 19.572L52.8662 20.16L52.7822 18.528H53.5982L53.5142 20.16L55.0382 19.572L55.2902 20.352L53.6942 20.772L54.7382 22.044L54.0782 22.524L53.1902 21.144L52.3022 22.524L51.6422 22.044ZM56.5406 22.044L57.5726 20.772L55.9886 20.352L56.2526 19.572L57.7646 20.16L57.6806 18.528H58.4966L58.4126 20.16L59.9366 19.572L60.1886 20.352L58.5926 20.772L59.6366 22.044L58.9766 22.524L58.0886 21.144L57.2006 22.524L56.5406 22.044ZM61.4391 22.044L62.4711 20.772L60.8871 20.352L61.1511 19.572L62.6631 20.16L62.5791 18.528H63.3951L63.3111 20.16L64.8351 19.572L65.0871 20.352L63.4911 20.772L64.5351 22.044L63.8751 22.524L62.9871 21.144L62.0991 22.524L61.4391 22.044ZM66.3375 22.044L67.3695 20.772L65.7855 20.352L66.0495 19.572L67.5615 20.16L67.4775 18.528H68.2935L68.2095 20.16L69.7335 19.572L69.9855 20.352L68.3895 20.772L69.4335 22.044L68.7735 22.524L67.8855 21.144L66.9975 22.524L66.3375 22.044ZM71.2359 22.044L72.2679 20.772L70.6839 20.352L70.9479 19.572L72.4599 20.16L72.3759 18.528H73.1919L73.1079 20.16L74.6319 19.572L74.8839 20.352L73.2879 20.772L74.3319 22.044L73.6719 22.524L72.7839 21.144L71.8959 22.524L71.2359 22.044ZM76.1344 22.044L77.1664 20.772L75.5824 20.352L75.8464 19.572L77.3584 20.16L77.2744 18.528H78.0904L78.0064 20.16L79.5304 19.572L79.7824 20.352L78.1864 20.772L79.2304 22.044L78.5704 22.524L77.6824 21.144L76.7944 22.524L76.1344 22.044ZM0.876 36.528H1.98V44.04H5.412V45H0.876V36.528ZM9.12544 45.168C8.33344 45.168 7.66544 45.02 7.12144 44.724C6.57744 44.42 6.18144 43.996 5.93344 43.452C5.74944 43.036 5.65744 42.58 5.65744 42.084C5.65744 41.588 5.74944 41.132 5.93344 40.716C6.18144 40.18 6.57744 39.76 7.12144 39.456C7.66544 39.152 8.33344 39 9.12544 39C9.92544 39 10.5974 39.152 11.1414 39.456C11.6854 39.752 12.0774 40.168 12.3174 40.704C12.5014 41.12 12.5934 41.58 12.5934 42.084C12.5934 42.588 12.5014 43.048 12.3174 43.464C12.0774 44 11.6814 44.42 11.1294 44.724C10.5854 45.02 9.91744 45.168 9.12544 45.168ZM9.12544 44.268C9.66144 44.268 10.1134 44.168 10.4814 43.968C10.8574 43.768 11.1294 43.488 11.2974 43.128C11.4334 42.832 11.5014 42.484 11.5014 42.084C11.5014 41.684 11.4374 41.34 11.3094 41.052C11.1414 40.684 10.8694 40.4 10.4934 40.2C10.1174 40 9.66144 39.9 9.12544 39.9C8.58944 39.9 8.13344 40 7.75744 40.2C7.38944 40.4 7.12144 40.684 6.95344 41.052C6.82544 41.332 6.76144 41.676 6.76144 42.084C6.76144 42.492 6.82544 42.84 6.95344 43.128C7.12144 43.488 7.38944 43.768 7.75744 43.968C8.13344 44.168 8.58944 44.268 9.12544 44.268ZM16.7993 45.168C16.0473 45.168 15.3993 45.024 14.8553 44.736C14.3193 44.448 13.9313 44.036 13.6913 43.5C13.5073 43.084 13.4153 42.612 13.4153 42.084C13.4153 41.556 13.5073 41.088 13.6913 40.68C13.9313 40.144 14.3193 39.732 14.8553 39.444C15.3913 39.148 16.0393 39 16.7993 39C17.8713 39 18.7073 39.276 19.3073 39.828C19.7713 40.236 20.0193 40.756 20.0513 41.388H18.9353C18.9033 40.988 18.7473 40.664 18.4673 40.416C18.2753 40.248 18.0353 40.12 17.7473 40.032C17.4673 39.944 17.1553 39.9 16.8113 39.9C16.2993 39.9 15.8633 40 15.5033 40.2C15.1513 40.392 14.8913 40.668 14.7233 41.028C14.5873 41.308 14.5193 41.66 14.5193 42.084C14.5193 42.5 14.5873 42.848 14.7233 43.128C14.8833 43.488 15.1433 43.768 15.5033 43.968C15.8633 44.16 16.2993 44.256 16.8113 44.256C17.1633 44.256 17.4793 44.212 17.7593 44.124C18.0473 44.036 18.2833 43.908 18.4673 43.74C18.6033 43.62 18.7113 43.476 18.7913 43.308C18.8793 43.14 18.9273 42.956 18.9353 42.756H20.0633C20.0233 43.404 19.7793 43.936 19.3313 44.352C19.0353 44.624 18.6713 44.828 18.2393 44.964C17.8073 45.1 17.3273 45.168 16.7993 45.168ZM26.8209 40.284C26.9809 40.652 27.0609 41.088 27.0609 41.592V45H26.0049V44.1C25.5089 44.812 24.6369 45.168 23.3889 45.168C22.8049 45.168 22.3129 45.084 21.9129 44.916C21.5129 44.74 21.2369 44.48 21.0849 44.136C20.9889 43.928 20.9409 43.684 20.9409 43.404C20.9409 43.124 20.9889 42.884 21.0849 42.684C21.2849 42.244 21.6569 41.944 22.2009 41.784C22.7529 41.616 23.4569 41.532 24.3129 41.532H26.0049V41.412C26.0049 41.108 25.9569 40.848 25.8609 40.632C25.6289 40.104 25.0409 39.84 24.0969 39.84C23.1609 39.84 22.5809 40.084 22.3569 40.572C22.3009 40.692 22.2649 40.844 22.2489 41.028H21.2049C21.2049 40.756 21.2609 40.488 21.3729 40.224C21.7329 39.408 22.6369 39 24.0849 39C24.8049 39 25.3929 39.104 25.8489 39.312C26.3049 39.52 26.6289 39.844 26.8209 40.284ZM23.6289 44.328C24.1729 44.328 24.6369 44.236 25.0209 44.052C25.4049 43.868 25.6769 43.6 25.8369 43.248C25.9489 43.016 26.0049 42.724 26.0049 42.372V42.3H24.3489C23.7489 42.3 23.2529 42.348 22.8609 42.444C22.4769 42.532 22.2249 42.704 22.1049 42.96C22.0489 43.088 22.0209 43.208 22.0209 43.32C22.0209 43.472 22.0489 43.6 22.1049 43.704C22.2009 43.92 22.3849 44.08 22.6569 44.184C22.9289 44.28 23.2529 44.328 23.6289 44.328ZM30.8513 45.108C30.1953 45.108 29.7033 44.944 29.3753 44.616C29.0553 44.288 28.8953 43.796 28.8953 43.14V40.044H27.8033V39.18H28.8953V37.728H29.9393V39.18H32.0873V40.044H29.9393V42.96C29.9393 43.376 30.0393 43.692 30.2393 43.908C30.4393 44.116 30.7273 44.22 31.1033 44.22C31.3833 44.22 31.6913 44.176 32.0273 44.088V44.976C31.6353 45.064 31.2433 45.108 30.8513 45.108ZM33.6869 38.028C33.4789 38.028 33.3109 37.968 33.1829 37.848C33.0549 37.728 32.9909 37.568 32.9909 37.368C32.9909 37.176 33.0549 37.02 33.1829 36.9C33.3189 36.772 33.4869 36.708 33.6869 36.708C33.8869 36.708 34.0509 36.772 34.1789 36.9C34.3149 37.02 34.3829 37.176 34.3829 37.368C34.3829 37.56 34.3149 37.72 34.1789 37.848C34.0509 37.968 33.8869 38.028 33.6869 38.028ZM33.1589 39.18H34.2029V45H33.1589V39.18ZM38.8325 45.168C38.0405 45.168 37.3725 45.02 36.8285 44.724C36.2845 44.42 35.8885 43.996 35.6405 43.452C35.4565 43.036 35.3645 42.58 35.3645 42.084C35.3645 41.588 35.4565 41.132 35.6405 40.716C35.8885 40.18 36.2845 39.76 36.8285 39.456C37.3725 39.152 38.0405 39 38.8325 39C39.6325 39 40.3045 39.152 40.8485 39.456C41.3925 39.752 41.7845 40.168 42.0245 40.704C42.2085 41.12 42.3005 41.58 42.3005 42.084C42.3005 42.588 42.2085 43.048 42.0245 43.464C41.7845 44 41.3885 44.42 40.8365 44.724C40.2925 45.02 39.6245 45.168 38.8325 45.168ZM38.8325 44.268C39.3685 44.268 39.8205 44.168 40.1885 43.968C40.5645 43.768 40.8365 43.488 41.0045 43.128C41.1405 42.832 41.2085 42.484 41.2085 42.084C41.2085 41.684 41.1445 41.34 41.0165 41.052C40.8485 40.684 40.5765 40.4 40.2005 40.2C39.8245 40 39.3685 39.9 38.8325 39.9C38.2965 39.9 37.8405 40 37.4645 40.2C37.0965 40.4 36.8285 40.684 36.6605 41.052C36.5325 41.332 36.4685 41.676 36.4685 42.084C36.4685 42.492 36.5325 42.84 36.6605 43.128C36.8285 43.488 37.0965 43.768 37.4645 43.968C37.8405 44.168 38.2965 44.268 38.8325 44.268ZM46.8314 39C47.6714 39 48.3154 39.228 48.7634 39.684C49.2194 40.132 49.4474 40.792 49.4474 41.664V45H48.4034V41.844C48.4034 40.556 47.7914 39.912 46.5674 39.912C45.9034 39.912 45.3954 40.096 45.0434 40.464C44.6914 40.832 44.5154 41.356 44.5154 42.036V45H43.4714V39.18H44.5154V40.128C44.7474 39.752 45.0594 39.472 45.4514 39.288C45.8434 39.096 46.3034 39 46.8314 39ZM51.9437 45.18C51.7357 45.18 51.5637 45.116 51.4277 44.988C51.2997 44.86 51.2357 44.688 51.2357 44.472C51.2357 44.256 51.2997 44.084 51.4277 43.956C51.5637 43.828 51.7357 43.764 51.9437 43.764C52.1597 43.764 52.3317 43.828 52.4597 43.956C52.5957 44.084 52.6637 44.256 52.6637 44.472C52.6637 44.688 52.5957 44.86 52.4597 44.988C52.3317 45.116 52.1597 45.18 51.9437 45.18ZM51.9437 40.8C51.7357 40.8 51.5637 40.736 51.4277 40.608C51.2997 40.48 51.2357 40.308 51.2357 40.092C51.2357 39.876 51.2997 39.704 51.4277 39.576C51.5637 39.448 51.7357 39.384 51.9437 39.384C52.1597 39.384 52.3317 39.448 52.4597 39.576C52.5957 39.704 52.6637 39.876 52.6637 40.092C52.6637 40.308 52.5957 40.48 52.4597 40.608C52.3317 40.736 52.1597 40.8 51.9437 40.8ZM57.0797 40.044L58.1117 38.772L56.5277 38.352L56.7917 37.572L58.3037 38.16L58.2197 36.528H59.0357L58.9517 38.16L60.4757 37.572L60.7277 38.352L59.1317 38.772L60.1757 40.044L59.5157 40.524L58.6277 39.144L57.7397 40.524L57.0797 40.044ZM61.9781 40.044L63.0101 38.772L61.4261 38.352L61.6901 37.572L63.2021 38.16L63.1181 36.528H63.9341L63.8501 38.16L65.3741 37.572L65.6261 38.352L64.0301 38.772L65.0741 40.044L64.4141 40.524L63.5261 39.144L62.6381 40.524L61.9781 40.044ZM66.8766 40.044L67.9086 38.772L66.3246 38.352L66.5886 37.572L68.1006 38.16L68.0166 36.528H68.8326L68.7486 38.16L70.2726 37.572L70.5246 38.352L68.9286 38.772L69.9726 40.044L69.3126 40.524L68.4246 39.144L67.5366 40.524L66.8766 40.044ZM71.775 40.044L72.807 38.772L71.223 38.352L71.487 37.572L72.999 38.16L72.915 36.528H73.731L73.647 38.16L75.171 37.572L75.423 38.352L73.827 38.772L74.871 40.044L74.211 40.524L73.323 39.144L72.435 40.524L71.775 40.044ZM76.6734 40.044L77.7054 38.772L76.1214 38.352L76.3854 37.572L77.8974 38.16L77.8134 36.528H78.6294L78.5454 38.16L80.0694 37.572L80.3214 38.352L78.7254 38.772L79.7694 40.044L79.1094 40.524L78.2214 39.144L77.3334 40.524L76.6734 40.044ZM81.5719 40.044L82.6039 38.772L81.0199 38.352L81.2839 37.572L82.7959 38.16L82.7119 36.528H83.5279L83.4439 38.16L84.9679 37.572L85.2199 38.352L83.6239 38.772L84.6679 40.044L84.0079 40.524L83.1199 39.144L82.2319 40.524L81.5719 40.044ZM86.4703 40.044L87.5023 38.772L85.9183 38.352L86.1823 37.572L87.6943 38.16L87.6103 36.528H88.4263L88.3423 38.16L89.8663 37.572L90.1183 38.352L88.5223 38.772L89.5663 40.044L88.9063 40.524L88.0183 39.144L87.1303 40.524L86.4703 40.044ZM91.3688 40.044L92.4008 38.772L90.8168 38.352L91.0808 37.572L92.5928 38.16L92.5088 36.528H93.3248L93.2408 38.16L94.7648 37.572L95.0168 38.352L93.4208 38.772L94.4648 40.044L93.8048 40.524L92.9168 39.144L92.0288 40.524L91.3688 40.044ZM4.452 63.204C3.5 63.204 2.708 63.06 2.076 62.772C1.444 62.484 1.004 62.06 0.756 61.5C0.588 61.116 0.504 60.668 0.504 60.156H1.644C1.66 60.532 1.724 60.852 1.836 61.116C2.004 61.508 2.312 61.804 2.76 62.004C3.216 62.196 3.788 62.292 4.476 62.292C5.1 62.292 5.628 62.208 6.06 62.04C6.492 61.872 6.78 61.632 6.924 61.32C6.996 61.136 7.032 60.952 7.032 60.768C7.032 60.584 7 60.416 6.936 60.264C6.832 60.04 6.652 59.86 6.396 59.724C6.14 59.58 5.852 59.472 5.532 59.4C5.22 59.32 4.792 59.232 4.248 59.136L3.924 59.076C3.388 58.972 2.924 58.864 2.532 58.752C2.148 58.632 1.812 58.476 1.524 58.284C1.236 58.084 1.024 57.84 0.888 57.552C0.784 57.304 0.732 57.04 0.732 56.76C0.732 56.44 0.792 56.148 0.912 55.884C1.056 55.556 1.288 55.276 1.608 55.044C1.936 54.812 2.324 54.636 2.772 54.516C3.228 54.388 3.724 54.324 4.26 54.324C5.1 54.324 5.808 54.468 6.384 54.756C6.968 55.036 7.38 55.44 7.62 55.968C7.78 56.32 7.86 56.732 7.86 57.204H6.732C6.716 56.836 6.656 56.54 6.552 56.316C6.392 55.956 6.116 55.684 5.724 55.5C5.332 55.308 4.84 55.212 4.248 55.212C3.68 55.212 3.192 55.3 2.784 55.476C2.376 55.652 2.108 55.888 1.98 56.184C1.916 56.32 1.884 56.476 1.884 56.652C1.884 56.812 1.912 56.96 1.968 57.096C2.056 57.288 2.216 57.448 2.448 57.576C2.68 57.704 2.944 57.808 3.24 57.888C3.544 57.96 3.94 58.044 4.428 58.14L4.8 58.212C5.384 58.316 5.876 58.428 6.276 58.548C6.684 58.668 7.044 58.828 7.356 59.028C7.676 59.228 7.904 59.488 8.04 59.808C8.152 60.04 8.208 60.332 8.208 60.684C8.208 61.06 8.144 61.376 8.016 61.632C7.784 62.144 7.356 62.536 6.732 62.808C6.108 63.072 5.348 63.204 4.452 63.204ZM10.015 56.028C9.80703 56.028 9.63903 55.968 9.51103 55.848C9.38303 55.728 9.31903 55.568 9.31903 55.368C9.31903 55.176 9.38303 55.02 9.51103 54.9C9.64703 54.772 9.81503 54.708 10.015 54.708C10.215 54.708 10.379 54.772 10.507 54.9C10.643 55.02 10.711 55.176 10.711 55.368C10.711 55.56 10.643 55.72 10.507 55.848C10.379 55.968 10.215 56.028 10.015 56.028ZM9.48703 57.18H10.531V63H9.48703V57.18ZM19.9726 57C20.7726 57 21.3886 57.228 21.8206 57.684C22.2526 58.14 22.4686 58.804 22.4686 59.676V63H21.4246V59.832C21.4246 59.192 21.2766 58.712 20.9806 58.392C20.6926 58.072 20.2686 57.912 19.7086 57.912C19.1006 57.912 18.6326 58.092 18.3046 58.452C17.9766 58.812 17.8126 59.32 17.8126 59.976V63H16.7566V59.832C16.7566 58.552 16.1846 57.912 15.0406 57.912C14.4326 57.912 13.9606 58.092 13.6246 58.452C13.2966 58.812 13.1326 59.32 13.1326 59.976V63H12.0886V57.18H13.1326V58.092C13.3566 57.732 13.6526 57.46 14.0206 57.276C14.3966 57.092 14.8366 57 15.3406 57C15.9166 57 16.3966 57.12 16.7806 57.36C17.1726 57.592 17.4526 57.936 17.6206 58.392C18.0366 57.464 18.8206 57 19.9726 57ZM29.5161 63.168C28.7241 63.168 28.0561 63.02 27.5121 62.724C26.9681 62.42 26.5721 61.996 26.3241 61.452C26.1401 61.036 26.0481 60.58 26.0481 60.084C26.0481 59.588 26.1401 59.132 26.3241 58.716C26.5721 58.18 26.9681 57.76 27.5121 57.456C28.0561 57.152 28.7241 57 29.5161 57C30.3161 57 30.9881 57.152 31.5321 57.456C32.0761 57.752 32.4681 58.168 32.7081 58.704C32.8921 59.12 32.9841 59.58 32.9841 60.084C32.9841 60.588 32.8921 61.048 32.7081 61.464C32.4681 62 32.0721 62.42 31.5201 62.724C30.9761 63.02 30.3081 63.168 29.5161 63.168ZM29.5161 62.268C30.0521 62.268 30.5041 62.168 30.8721 61.968C31.2481 61.768 31.5201 61.488 31.6881 61.128C31.8241 60.832 31.8921 60.484 31.8921 60.084C31.8921 59.684 31.8281 59.34 31.7001 59.052C31.5321 58.684 31.2601 58.4 30.8841 58.2C30.5081 58 30.0521 57.9 29.5161 57.9C28.9801 57.9 28.5241 58 28.1481 58.2C27.7801 58.4 27.5121 58.684 27.3441 59.052C27.2161 59.332 27.1521 59.676 27.1521 60.084C27.1521 60.492 27.2161 60.84 27.3441 61.128C27.5121 61.488 27.7801 61.768 28.1481 61.968C28.5241 62.168 28.9801 62.268 29.5161 62.268ZM40.623 58.644C40.815 59.06 40.911 59.54 40.911 60.084C40.911 60.62 40.815 61.1 40.623 61.524C40.391 62.044 40.019 62.448 39.507 62.736C39.003 63.024 38.403 63.168 37.707 63.168C37.155 63.168 36.663 63.076 36.231 62.892C35.799 62.708 35.455 62.436 35.199 62.076V65.436H34.155V57.18H35.187V58.116C35.443 57.748 35.787 57.472 36.219 57.288C36.659 57.096 37.155 57 37.707 57C38.403 57 39.003 57.144 39.507 57.432C40.019 57.72 40.391 58.124 40.623 58.644ZM39.603 61.14C39.739 60.844 39.807 60.492 39.807 60.084C39.807 59.676 39.739 59.324 39.603 59.028C39.435 58.66 39.167 58.38 38.799 58.188C38.431 57.996 37.995 57.9 37.491 57.9C37.051 57.9 36.659 57.98 36.315 58.14C35.971 58.292 35.699 58.528 35.499 58.848C35.299 59.16 35.199 59.544 35.199 60V60.18C35.199 60.628 35.299 61.012 35.499 61.332C35.699 61.644 35.971 61.88 36.315 62.04C36.659 62.192 37.051 62.268 37.491 62.268C37.995 62.268 38.431 62.172 38.799 61.98C39.167 61.788 39.435 61.508 39.603 61.14ZM47.0678 61.788C47.3158 61.564 47.4638 61.284 47.5117 60.948H48.5678C48.4878 61.524 48.2438 61.992 47.8358 62.352C47.5318 62.624 47.1558 62.828 46.7078 62.964C46.2678 63.1 45.7798 63.168 45.2438 63.168C44.4438 63.168 43.7638 63.02 43.2038 62.724C42.6438 62.42 42.2438 62 42.0038 61.464C41.8198 61.072 41.7278 60.612 41.7278 60.084C41.7278 59.564 41.8198 59.096 42.0038 58.68C42.2438 58.144 42.6358 57.732 43.1798 57.444C43.7318 57.148 44.3958 57 45.1718 57C45.9398 57 46.5918 57.148 47.1278 57.444C47.6638 57.74 48.0558 58.156 48.3038 58.692C48.3998 58.932 48.4718 59.188 48.5198 59.46C48.5678 59.724 48.5958 60.02 48.6038 60.348H42.7838C42.8078 60.676 42.8718 60.96 42.9758 61.2C43.1438 61.568 43.4198 61.848 43.8038 62.04C44.1958 62.232 44.6758 62.328 45.2438 62.328C45.6278 62.328 45.9758 62.284 46.2878 62.196C46.5998 62.108 46.8598 61.972 47.0678 61.788ZM45.1718 57.84C44.6198 57.84 44.1558 57.94 43.7798 58.14C43.4118 58.332 43.1438 58.616 42.9758 58.992C42.8958 59.2 42.8398 59.392 42.8078 59.568H47.5238C47.4998 59.336 47.4478 59.128 47.3678 58.944C47.1998 58.584 46.9278 58.312 46.5518 58.128C46.1758 57.936 45.7158 57.84 45.1718 57.84ZM52.6444 57.072C52.8924 57.072 53.1244 57.104 53.3404 57.168V58.104C53.1004 58.048 52.8564 58.02 52.6084 58.02C52.0084 58.02 51.5564 58.184 51.2524 58.512C50.9564 58.84 50.8084 59.312 50.8084 59.928V63H49.7644V57.18H50.8084V58.008C50.9764 57.712 51.2124 57.484 51.5164 57.324C51.8284 57.156 52.2044 57.072 52.6444 57.072ZM59.6334 58.284C59.7934 58.652 59.8734 59.088 59.8734 59.592V63H58.8174V62.1C58.3214 62.812 57.4494 63.168 56.2014 63.168C55.6174 63.168 55.1254 63.084 54.7254 62.916C54.3254 62.74 54.0494 62.48 53.8974 62.136C53.8014 61.928 53.7534 61.684 53.7534 61.404C53.7534 61.124 53.8014 60.884 53.8974 60.684C54.0974 60.244 54.4694 59.944 55.0134 59.784C55.5654 59.616 56.2694 59.532 57.1254 59.532H58.8174V59.412C58.8174 59.108 58.7694 58.848 58.6734 58.632C58.4414 58.104 57.8534 57.84 56.9094 57.84C55.9734 57.84 55.3934 58.084 55.1694 58.572C55.1134 58.692 55.0774 58.844 55.0614 59.028H54.0174C54.0174 58.756 54.0734 58.488 54.1854 58.224C54.5454 57.408 55.4494 57 56.8974 57C57.6174 57 58.2054 57.104 58.6614 57.312C59.1174 57.52 59.4414 57.844 59.6334 58.284ZM56.4414 62.328C56.9854 62.328 57.4494 62.236 57.8334 62.052C58.2174 61.868 58.4894 61.6 58.6494 61.248C58.7614 61.016 58.8174 60.724 58.8174 60.372V60.3H57.1614C56.5614 60.3 56.0654 60.348 55.6734 60.444C55.2894 60.532 55.0374 60.704 54.9174 60.96C54.8614 61.088 54.8334 61.208 54.8334 61.32C54.8334 61.472 54.8614 61.6 54.9174 61.704C55.0134 61.92 55.1974 62.08 55.4694 62.184C55.7414 62.28 56.0654 62.328 56.4414 62.328ZM63.6638 63.108C63.0078 63.108 62.5158 62.944 62.1878 62.616C61.8678 62.288 61.7078 61.796 61.7078 61.14V58.044H60.6158V57.18H61.7078V55.728H62.7518V57.18H64.8998V58.044H62.7518V60.96C62.7518 61.376 62.8518 61.692 63.0518 61.908C63.2518 62.116 63.5398 62.22 63.9158 62.22C64.1958 62.22 64.5038 62.176 64.8398 62.088V62.976C64.4478 63.064 64.0558 63.108 63.6638 63.108ZM68.8793 63.168C68.0873 63.168 67.4193 63.02 66.8753 62.724C66.3313 62.42 65.9353 61.996 65.6873 61.452C65.5033 61.036 65.4113 60.58 65.4113 60.084C65.4113 59.588 65.5033 59.132 65.6873 58.716C65.9353 58.18 66.3313 57.76 66.8753 57.456C67.4193 57.152 68.0873 57 68.8793 57C69.6793 57 70.3513 57.152 70.8953 57.456C71.4393 57.752 71.8313 58.168 72.0713 58.704C72.2553 59.12 72.3473 59.58 72.3473 60.084C72.3473 60.588 72.2553 61.048 72.0713 61.464C71.8313 62 71.4353 62.42 70.8833 62.724C70.3393 63.02 69.6713 63.168 68.8793 63.168ZM68.8793 62.268C69.4153 62.268 69.8673 62.168 70.2353 61.968C70.6113 61.768 70.8833 61.488 71.0513 61.128C71.1873 60.832 71.2553 60.484 71.2553 60.084C71.2553 59.684 71.1913 59.34 71.0633 59.052C70.8953 58.684 70.6233 58.4 70.2473 58.2C69.8713 58 69.4153 57.9 68.8793 57.9C68.3433 57.9 67.8873 58 67.5113 58.2C67.1433 58.4 66.8753 58.684 66.7073 59.052C66.5793 59.332 66.5153 59.676 66.5153 60.084C66.5153 60.492 66.5793 60.84 66.7073 61.128C66.8753 61.488 67.1433 61.768 67.5113 61.968C67.8873 62.168 68.3433 62.268 68.8793 62.268ZM76.3983 57.072C76.6463 57.072 76.8783 57.104 77.0943 57.168V58.104C76.8543 58.048 76.6103 58.02 76.3623 58.02C75.7623 58.02 75.3103 58.184 75.0063 58.512C74.7103 58.84 74.5623 59.312 74.5623 59.928V63H73.5183V57.18H74.5623V58.008C74.7303 57.712 74.9663 57.484 75.2703 57.324C75.5823 57.156 75.9583 57.072 76.3983 57.072ZM78.9554 63.18C78.7474 63.18 78.5754 63.116 78.4394 62.988C78.3114 62.86 78.2474 62.688 78.2474 62.472C78.2474 62.256 78.3114 62.084 78.4394 61.956C78.5754 61.828 78.7474 61.764 78.9554 61.764C79.1714 61.764 79.3434 61.828 79.4714 61.956C79.6074 62.084 79.6754 62.256 79.6754 62.472C79.6754 62.688 79.6074 62.86 79.4714 62.988C79.3434 63.116 79.1714 63.18 78.9554 63.18ZM78.9554 58.8C78.7474 58.8 78.5754 58.736 78.4394 58.608C78.3114 58.48 78.2474 58.308 78.2474 58.092C78.2474 57.876 78.3114 57.704 78.4394 57.576C78.5754 57.448 78.7474 57.384 78.9554 57.384C79.1714 57.384 79.3434 57.448 79.4714 57.576C79.6074 57.704 79.6754 57.876 79.6754 58.092C79.6754 58.308 79.6074 58.48 79.4714 58.608C79.3434 58.736 79.1714 58.8 78.9554 58.8ZM88.4114 63.204C87.3714 63.204 86.4954 63.02 85.7834 62.652C85.0714 62.276 84.5474 61.748 84.2114 61.068C84.0434 60.756 83.9154 60.404 83.8274 60.012C83.7394 59.62 83.6954 59.204 83.6954 58.764C83.6954 57.972 83.8314 57.268 84.1034 56.652C84.4314 55.916 84.9594 55.344 85.6874 54.936C86.4154 54.528 87.3234 54.324 88.4114 54.324C89.4994 54.324 90.4074 54.528 91.1354 54.936C91.8634 55.344 92.3914 55.912 92.7194 56.64C92.9994 57.272 93.1394 57.98 93.1394 58.764C93.1394 59.556 92.9994 60.268 92.7194 60.9C92.3834 61.628 91.8514 62.196 91.1234 62.604C90.3954 63.004 89.4914 63.204 88.4114 63.204ZM88.4114 62.22C89.2354 62.22 89.9194 62.068 90.4634 61.764C91.0074 61.46 91.4034 61.036 91.6514 60.492C91.8674 60.004 91.9754 59.428 91.9754 58.764C91.9754 58.1 91.8674 57.524 91.6514 57.036C91.4034 56.492 91.0074 56.068 90.4634 55.764C89.9194 55.46 89.2354 55.308 88.4114 55.308C87.5954 55.308 86.9154 55.46 86.3714 55.764C85.8274 56.068 85.4314 56.492 85.1834 57.036C84.9674 57.524 84.8594 58.1 84.8594 58.764C84.8594 59.428 84.9674 60.004 85.1834 60.492C85.4314 61.036 85.8274 61.46 86.3714 61.764C86.9154 62.068 87.5954 62.22 88.4114 62.22ZM97.3514 57.072C97.5994 57.072 97.8314 57.104 98.0474 57.168V58.104C97.8074 58.048 97.5634 58.02 97.3154 58.02C96.7154 58.02 96.2634 58.184 95.9594 58.512C95.6634 58.84 95.5154 59.312 95.5154 59.928V63H94.4714V57.18H95.5154V58.008C95.6834 57.712 95.9194 57.484 96.2234 57.324C96.5354 57.156 96.9114 57.072 97.3514 57.072ZM104.34 58.284C104.5 58.652 104.58 59.088 104.58 59.592V63H103.524V62.1C103.028 62.812 102.156 63.168 100.908 63.168C100.324 63.168 99.8325 63.084 99.4325 62.916C99.0325 62.74 98.7565 62.48 98.6045 62.136C98.5085 61.928 98.4605 61.684 98.4605 61.404C98.4605 61.124 98.5085 60.884 98.6045 60.684C98.8045 60.244 99.1765 59.944 99.7205 59.784C100.272 59.616 100.976 59.532 101.832 59.532H103.524V59.412C103.524 59.108 103.476 58.848 103.38 58.632C103.148 58.104 102.56 57.84 101.616 57.84C100.68 57.84 100.1 58.084 99.8765 58.572C99.8205 58.692 99.7845 58.844 99.7685 59.028H98.7245C98.7245 58.756 98.7805 58.488 98.8925 58.224C99.2525 57.408 100.156 57 101.604 57C102.324 57 102.912 57.104 103.368 57.312C103.824 57.52 104.148 57.844 104.34 58.284ZM101.148 62.328C101.692 62.328 102.156 62.236 102.54 62.052C102.924 61.868 103.196 61.6 103.356 61.248C103.468 61.016 103.524 60.724 103.524 60.372V60.3H101.868C101.268 60.3 100.772 60.348 100.38 60.444C99.9965 60.532 99.7445 60.704 99.6245 60.96C99.5685 61.088 99.5405 61.208 99.5405 61.32C99.5405 61.472 99.5685 61.6 99.6245 61.704C99.7205 61.92 99.9045 62.08 100.176 62.184C100.448 62.28 100.772 62.328 101.148 62.328ZM109.445 57C110.285 57 110.929 57.228 111.377 57.684C111.833 58.132 112.061 58.792 112.061 59.664V63H111.017V59.844C111.017 58.556 110.405 57.912 109.181 57.912C108.517 57.912 108.009 58.096 107.657 58.464C107.305 58.832 107.129 59.356 107.129 60.036V63H106.085V57.18H107.129V58.128C107.361 57.752 107.673 57.472 108.065 57.288C108.457 57.096 108.917 57 109.445 57ZM119.909 57.18V62.7C119.909 63.244 119.817 63.72 119.633 64.128C119.185 65.112 118.189 65.604 116.645 65.604C116.093 65.604 115.593 65.54 115.145 65.412C114.705 65.292 114.341 65.104 114.053 64.848C113.653 64.472 113.437 63.992 113.405 63.408H114.509C114.517 63.752 114.653 64.04 114.917 64.272C115.101 64.44 115.341 64.568 115.637 64.656C115.941 64.744 116.273 64.788 116.633 64.788C117.153 64.788 117.585 64.704 117.929 64.536C118.273 64.368 118.521 64.116 118.673 63.78C118.785 63.484 118.841 63.156 118.841 62.796V62.04C118.585 62.392 118.241 62.66 117.809 62.844C117.377 63.028 116.893 63.12 116.357 63.12C115.669 63.12 115.073 62.98 114.569 62.7C114.065 62.412 113.697 62.008 113.465 61.488C113.273 61.08 113.177 60.604 113.177 60.06C113.177 59.516 113.273 59.036 113.465 58.62C113.697 58.1 114.065 57.7 114.569 57.42C115.073 57.14 115.669 57 116.357 57C116.909 57 117.397 57.096 117.821 57.288C118.253 57.472 118.601 57.748 118.865 58.116V57.18H119.909ZM116.573 62.232C117.013 62.232 117.401 62.156 117.737 62.004C118.081 61.844 118.349 61.608 118.541 61.296C118.741 60.976 118.841 60.592 118.841 60.144V59.976C118.841 59.528 118.741 59.148 118.541 58.836C118.349 58.524 118.081 58.292 117.737 58.14C117.401 57.98 117.013 57.9 116.573 57.9C116.069 57.9 115.633 57.996 115.265 58.188C114.905 58.372 114.645 58.648 114.485 59.016C114.349 59.312 114.281 59.66 114.281 60.06C114.281 60.46 114.349 60.808 114.485 61.104C114.645 61.472 114.905 61.752 115.265 61.944C115.633 62.136 116.069 62.232 116.573 62.232ZM126.415 61.788C126.663 61.564 126.811 61.284 126.859 60.948H127.915C127.835 61.524 127.591 61.992 127.183 62.352C126.879 62.624 126.503 62.828 126.055 62.964C125.615 63.1 125.127 63.168 124.591 63.168C123.791 63.168 123.111 63.02 122.551 62.724C121.991 62.42 121.591 62 121.351 61.464C121.167 61.072 121.075 60.612 121.075 60.084C121.075 59.564 121.167 59.096 121.351 58.68C121.591 58.144 121.983 57.732 122.527 57.444C123.079 57.148 123.743 57 124.519 57C125.287 57 125.939 57.148 126.475 57.444C127.011 57.74 127.403 58.156 127.651 58.692C127.747 58.932 127.819 59.188 127.867 59.46C127.915 59.724 127.943 60.02 127.951 60.348H122.131C122.155 60.676 122.219 60.96 122.323 61.2C122.491 61.568 122.767 61.848 123.151 62.04C123.543 62.232 124.023 62.328 124.591 62.328C124.975 62.328 125.323 62.284 125.635 62.196C125.947 62.108 126.207 61.972 126.415 61.788ZM124.519 57.84C123.967 57.84 123.503 57.94 123.127 58.14C122.759 58.332 122.491 58.616 122.323 58.992C122.243 59.2 122.187 59.392 122.155 59.568H126.871C126.847 59.336 126.795 59.128 126.715 58.944C126.547 58.584 126.275 58.312 125.899 58.128C125.523 57.936 125.063 57.84 124.519 57.84Z" fill="white"/>
</svg>
