<svg width="183" height="66" viewBox="0 0 183 66" fill="none" xmlns="http://www.w3.org/2000/svg">
<path d="M0.876 0.528H4.596C6.052 0.528 6.972 0.956 7.356 1.812C7.5 2.124 7.572 2.5 7.572 2.94C7.572 3.364 7.5 3.74 7.356 4.068C6.972 4.924 6.052 5.352 4.596 5.352H1.98V9H0.876V0.528ZM4.404 4.416C4.94 4.416 5.364 4.356 5.676 4.236C5.988 4.116 6.204 3.92 6.324 3.648C6.412 3.432 6.456 3.2 6.456 2.952C6.456 2.68 6.412 2.436 6.324 2.22C6.196 1.948 5.976 1.756 5.664 1.644C5.352 1.524 4.932 1.464 4.404 1.464H1.98V4.416H4.404ZM11.5467 3.072C11.7947 3.072 12.0267 3.104 12.2427 3.168V4.104C12.0027 4.048 11.7587 4.02 11.5107 4.02C10.9107 4.02 10.4587 4.184 10.1547 4.512C9.85872 4.84 9.71072 5.312 9.71072 5.928V9H8.66672V3.18H9.71072V4.008C9.87872 3.712 10.1147 3.484 10.4187 3.324C10.7307 3.156 11.1067 3.072 11.5467 3.072ZM13.7416 2.028C13.5336 2.028 13.3656 1.968 13.2376 1.848C13.1096 1.728 13.0456 1.568 13.0456 1.368C13.0456 1.176 13.1096 1.02 13.2376 0.9C13.3736 0.772 13.5416 0.707999 13.7416 0.707999C13.9416 0.707999 14.1056 0.772 14.2336 0.9C14.3696 1.02 14.4376 1.176 14.4376 1.368C14.4376 1.56 14.3696 1.72 14.2336 1.848C14.1056 1.968 13.9416 2.028 13.7416 2.028ZM13.2136 3.18H14.2576V9H13.2136V3.18ZM15.1432 3.18H16.2832L18.4432 7.884L20.6152 3.18H21.7552L19.0072 9H17.8912L15.1432 3.18ZM27.8288 4.284C27.9888 4.652 28.0688 5.088 28.0688 5.592V9H27.0128V8.1C26.5168 8.812 25.6448 9.168 24.3968 9.168C23.8128 9.168 23.3208 9.084 22.9208 8.916C22.5208 8.74 22.2448 8.48 22.0928 8.136C21.9968 7.928 21.9488 7.684 21.9488 7.404C21.9488 7.124 21.9968 6.884 22.0928 6.684C22.2928 6.244 22.6648 5.944 23.2088 5.784C23.7608 5.616 24.4648 5.532 25.3208 5.532H27.0128V5.412C27.0128 5.108 26.9648 4.848 26.8688 4.632C26.6368 4.104 26.0488 3.84 25.1048 3.84C24.1688 3.84 23.5888 4.084 23.3648 4.572C23.3088 4.692 23.2728 4.844 23.2568 5.028H22.2128C22.2128 4.756 22.2688 4.488 22.3808 4.224C22.7408 3.408 23.6448 3 25.0928 3C25.8128 3 26.4008 3.104 26.8568 3.312C27.3128 3.52 27.6368 3.844 27.8288 4.284ZM24.6367 8.328C25.1808 8.328 25.6448 8.236 26.0288 8.052C26.4128 7.868 26.6848 7.6 26.8448 7.248C26.9568 7.016 27.0128 6.724 27.0128 6.372V6.3H25.3568C24.7568 6.3 24.2608 6.348 23.8688 6.444C23.4848 6.532 23.2328 6.704 23.1128 6.96C23.0568 7.088 23.0288 7.208 23.0288 7.32C23.0288 7.472 23.0568 7.6 23.1128 7.704C23.2088 7.92 23.3928 8.08 23.6648 8.184C23.9368 8.28 24.2608 8.328 24.6367 8.328ZM31.8592 9.108C31.2032 9.108 30.7112 8.944 30.3832 8.616C30.0632 8.288 29.9032 7.796 29.9032 7.14V4.044H28.8112V3.18H29.9032V1.728H30.9472V3.18H33.0952V4.044H30.9472V6.96C30.9472 7.376 31.0472 7.692 31.2472 7.908C31.4472 8.116 31.7352 8.22 32.1112 8.22C32.3912 8.22 32.6992 8.176 33.0352 8.088V8.976C32.6432 9.064 32.2512 9.108 31.8592 9.108ZM38.9467 7.788C39.1947 7.564 39.3427 7.284 39.3907 6.948H40.4467C40.3667 7.524 40.1227 7.992 39.7147 8.352C39.4107 8.624 39.0347 8.828 38.5867 8.964C38.1467 9.1 37.6587 9.168 37.1227 9.168C36.3227 9.168 35.6427 9.02 35.0827 8.724C34.5227 8.42 34.1227 8 33.8827 7.464C33.6987 7.072 33.6067 6.612 33.6067 6.084C33.6067 5.564 33.6987 5.096 33.8827 4.68C34.1227 4.144 34.5147 3.732 35.0587 3.444C35.6107 3.148 36.2747 3 37.0507 3C37.8187 3 38.4707 3.148 39.0067 3.444C39.5427 3.74 39.9347 4.156 40.1827 4.692C40.2787 4.932 40.3507 5.188 40.3987 5.46C40.4467 5.724 40.4747 6.02 40.4827 6.348H34.6627C34.6867 6.676 34.7507 6.96 34.8547 7.2C35.0227 7.568 35.2987 7.848 35.6827 8.04C36.0747 8.232 36.5547 8.328 37.1227 8.328C37.5067 8.328 37.8547 8.284 38.1667 8.196C38.4787 8.108 38.7387 7.972 38.9467 7.788ZM37.0507 3.84C36.4987 3.84 36.0347 3.94 35.6587 4.14C35.2907 4.332 35.0227 4.616 34.8547 4.992C34.7747 5.2 34.7187 5.392 34.6867 5.568H39.4027C39.3787 5.336 39.3267 5.128 39.2467 4.944C39.0787 4.584 38.8067 4.312 38.4307 4.128C38.0547 3.936 37.5947 3.84 37.0507 3.84ZM44.2002 0.528H47.8242C48.8562 0.528 49.7282 0.716 50.4402 1.092C51.1522 1.468 51.6682 2.016 51.9882 2.736C52.2442 3.312 52.3722 3.988 52.3722 4.764C52.3722 5.54 52.2442 6.216 51.9882 6.792C51.6682 7.512 51.1522 8.06 50.4402 8.436C49.7282 8.812 48.8562 9 47.8242 9H44.2002V0.528ZM47.7162 8.04C48.5242 8.04 49.1962 7.904 49.7322 7.632C50.2682 7.352 50.6602 6.944 50.9082 6.408C51.1082 5.976 51.2082 5.428 51.2082 4.764C51.2082 4.1 51.1082 3.552 50.9082 3.12C50.6602 2.584 50.2682 2.18 49.7322 1.908C49.1962 1.628 48.5242 1.488 47.7162 1.488H45.3042V8.04H47.7162ZM58.6459 7.788C58.8939 7.564 59.0419 7.284 59.0899 6.948H60.1459C60.0659 7.524 59.8219 7.992 59.4139 8.352C59.1099 8.624 58.7339 8.828 58.2859 8.964C57.8459 9.1 57.3579 9.168 56.8219 9.168C56.0219 9.168 55.3419 9.02 54.7819 8.724C54.2219 8.42 53.8219 8 53.5819 7.464C53.3979 7.072 53.3059 6.612 53.3059 6.084C53.3059 5.564 53.3979 5.096 53.5819 4.68C53.8219 4.144 54.2139 3.732 54.7579 3.444C55.3099 3.148 55.9739 3 56.7499 3C57.5179 3 58.1699 3.148 58.7059 3.444C59.2419 3.74 59.6339 4.156 59.8819 4.692C59.9779 4.932 60.0499 5.188 60.0979 5.46C60.1459 5.724 60.1739 6.02 60.1819 6.348H54.3619C54.3859 6.676 54.4499 6.96 54.5539 7.2C54.7219 7.568 54.9979 7.848 55.3819 8.04C55.7739 8.232 56.2539 8.328 56.8219 8.328C57.2059 8.328 57.5539 8.284 57.8659 8.196C58.1779 8.108 58.4379 7.972 58.6459 7.788ZM56.7499 3.84C56.1979 3.84 55.7339 3.94 55.3579 4.14C54.9899 4.332 54.7219 4.616 54.5539 4.992C54.4739 5.2 54.4179 5.392 54.3859 5.568H59.1019C59.0779 5.336 59.0259 5.128 58.9459 4.944C58.7779 4.584 58.5059 4.312 58.1299 4.128C57.7539 3.936 57.2939 3.84 56.7499 3.84ZM60.3424 3.18H61.4824L63.6424 7.884L65.8144 3.18H66.9544L64.2064 9H63.0904L60.3424 3.18ZM68.3744 2.028C68.1664 2.028 67.9984 1.968 67.8704 1.848C67.7424 1.728 67.6784 1.568 67.6784 1.368C67.6784 1.176 67.7424 1.02 67.8704 0.9C68.0064 0.772 68.1744 0.707999 68.3744 0.707999C68.5744 0.707999 68.7384 0.772 68.8664 0.9C69.0024 1.02 69.0704 1.176 69.0704 1.368C69.0704 1.56 69.0024 1.72 68.8664 1.848C68.7384 1.968 68.5744 2.028 68.3744 2.028ZM67.8464 3.18H68.8904V9H67.8464V3.18ZM73.436 9.168C72.684 9.168 72.036 9.024 71.492 8.736C70.956 8.448 70.568 8.036 70.328 7.5C70.144 7.084 70.052 6.612 70.052 6.084C70.052 5.556 70.144 5.088 70.328 4.68C70.568 4.144 70.956 3.732 71.492 3.444C72.028 3.148 72.676 3 73.436 3C74.508 3 75.344 3.276 75.944 3.828C76.408 4.236 76.656 4.756 76.688 5.388H75.572C75.54 4.988 75.384 4.664 75.104 4.416C74.912 4.248 74.672 4.12 74.384 4.032C74.104 3.944 73.792 3.9 73.448 3.9C72.936 3.9 72.5 4 72.14 4.2C71.788 4.392 71.528 4.668 71.36 5.028C71.224 5.308 71.156 5.66 71.156 6.084C71.156 6.5 71.224 6.848 71.36 7.128C71.52 7.488 71.78 7.768 72.14 7.968C72.5 8.16 72.936 8.256 73.448 8.256C73.8 8.256 74.116 8.212 74.396 8.124C74.684 8.036 74.92 7.908 75.104 7.74C75.24 7.62 75.348 7.476 75.428 7.308C75.516 7.14 75.564 6.956 75.572 6.756H76.7C76.66 7.404 76.416 7.936 75.968 8.352C75.672 8.624 75.308 8.828 74.876 8.964C74.444 9.1 73.964 9.168 73.436 9.168ZM82.8685 7.788C83.1165 7.564 83.2645 7.284 83.3125 6.948H84.3685C84.2885 7.524 84.0445 7.992 83.6365 8.352C83.3325 8.624 82.9565 8.828 82.5085 8.964C82.0685 9.1 81.5805 9.168 81.0445 9.168C80.2445 9.168 79.5645 9.02 79.0045 8.724C78.4445 8.42 78.0445 8 77.8045 7.464C77.6205 7.072 77.5285 6.612 77.5285 6.084C77.5285 5.564 77.6205 5.096 77.8045 4.68C78.0445 4.144 78.4365 3.732 78.9805 3.444C79.5325 3.148 80.1965 3 80.9725 3C81.7405 3 82.3925 3.148 82.9285 3.444C83.4645 3.74 83.8565 4.156 84.1045 4.692C84.2005 4.932 84.2725 5.188 84.3205 5.46C84.3685 5.724 84.3965 6.02 84.4045 6.348H78.5845C78.6085 6.676 78.6725 6.96 78.7765 7.2C78.9445 7.568 79.2205 7.848 79.6045 8.04C79.9965 8.232 80.4765 8.328 81.0445 8.328C81.4285 8.328 81.7765 8.284 82.0885 8.196C82.4005 8.108 82.6605 7.972 82.8685 7.788ZM80.9725 3.84C80.4205 3.84 79.9565 3.94 79.5805 4.14C79.2125 4.332 78.9445 4.616 78.7765 4.992C78.6965 5.2 78.6405 5.392 78.6085 5.568H83.3245C83.3005 5.336 83.2485 5.128 83.1685 4.944C83.0005 4.584 82.7285 4.312 82.3525 4.128C81.9765 3.936 81.5165 3.84 80.9725 3.84ZM0.876 18.528H1.98V27H0.876V18.528ZM3.73538 18.528H7.45538C8.91138 18.528 9.83138 18.956 10.2154 19.812C10.3594 20.124 10.4314 20.5 10.4314 20.94C10.4314 21.364 10.3594 21.74 10.2154 22.068C9.83138 22.924 8.91138 23.352 7.45538 23.352H4.83938V27H3.73538V18.528ZM7.26338 22.416C7.79938 22.416 8.22338 22.356 8.53538 22.236C8.84738 22.116 9.06338 21.92 9.18338 21.648C9.27138 21.432 9.31538 21.2 9.31538 20.952C9.31538 20.68 9.27138 20.436 9.18338 20.22C9.05538 19.948 8.83538 19.756 8.52338 19.644C8.21138 19.524 7.79138 19.464 7.26338 19.464H4.83938V22.416H7.26338ZM12.2171 27.18C12.0091 27.18 11.8371 27.116 11.7011 26.988C11.5731 26.86 11.5091 26.688 11.5091 26.472C11.5091 26.256 11.5731 26.084 11.7011 25.956C11.8371 25.828 12.0091 25.764 12.2171 25.764C12.4331 25.764 12.6051 25.828 12.7331 25.956C12.8691 26.084 12.9371 26.256 12.9371 26.472C12.9371 26.688 12.8691 26.86 12.7331 26.988C12.6051 27.116 12.4331 27.18 12.2171 27.18ZM12.2171 22.8C12.0091 22.8 11.8371 22.736 11.7011 22.608C11.5731 22.48 11.5091 22.308 11.5091 22.092C11.5091 21.876 11.5731 21.704 11.7011 21.576C11.8371 21.448 12.0091 21.384 12.2171 21.384C12.4331 21.384 12.6051 21.448 12.7331 21.576C12.8691 21.704 12.9371 21.876 12.9371 22.092C12.9371 22.308 12.8691 22.48 12.7331 22.608C12.6051 22.736 12.4331 22.8 12.2171 22.8ZM18.6251 19.476H16.6931L16.9091 18.528H19.6811V27H18.6251V19.476ZM28.2659 20.316C28.5539 20.948 28.6979 21.74 28.6979 22.692C28.6979 23.676 28.5459 24.512 28.2419 25.2C27.9539 25.84 27.5259 26.332 26.9579 26.676C26.3899 27.02 25.6899 27.192 24.8579 27.192C24.3059 27.192 23.8139 27.116 23.3819 26.964C22.9499 26.812 22.5859 26.588 22.2899 26.292C21.8579 25.86 21.5939 25.328 21.4979 24.696H22.5899C22.6699 25.064 22.8339 25.376 23.0819 25.632C23.4899 26.056 24.0859 26.268 24.8699 26.268C25.4619 26.268 25.9579 26.14 26.3579 25.884C26.7659 25.628 27.0739 25.264 27.2819 24.792C27.5139 24.28 27.6299 23.636 27.6299 22.86V22.584C27.3739 23.056 26.9779 23.424 26.4419 23.688C25.9139 23.952 25.2939 24.084 24.5819 24.084C23.8539 24.084 23.2219 23.944 22.6859 23.664C22.1499 23.384 21.7619 22.984 21.5219 22.464C21.3699 22.096 21.2939 21.7 21.2939 21.276C21.2939 20.844 21.3739 20.444 21.5339 20.076C21.7899 19.524 22.2019 19.092 22.7699 18.78C23.3379 18.468 24.0219 18.312 24.8219 18.312C25.6779 18.312 26.3939 18.484 26.9699 18.828C27.5459 19.172 27.9779 19.668 28.2659 20.316ZM27.1259 22.008C27.2299 21.768 27.2819 21.5 27.2819 21.204C27.2819 20.924 27.2299 20.668 27.1259 20.436C26.9659 20.068 26.6819 19.78 26.2739 19.572C25.8739 19.356 25.3899 19.248 24.8219 19.248C24.2779 19.248 23.8099 19.352 23.4179 19.56C23.0259 19.76 22.7459 20.044 22.5779 20.412C22.4659 20.676 22.4099 20.956 22.4099 21.252C22.4099 21.524 22.4619 21.796 22.5659 22.068C22.7339 22.428 23.0099 22.708 23.3939 22.908C23.7859 23.1 24.2539 23.196 24.7979 23.196C25.3819 23.196 25.8739 23.092 26.2739 22.884C26.6739 22.668 26.9579 22.376 27.1259 22.008ZM29.61 26.952L33.558 23.376C33.966 23.008 34.286 22.696 34.518 22.44C34.75 22.184 34.918 21.94 35.022 21.708C35.126 21.476 35.178 21.232 35.178 20.976C35.178 20.712 35.13 20.472 35.034 20.256C34.898 19.944 34.658 19.704 34.314 19.536C33.97 19.368 33.558 19.284 33.078 19.284C32.55 19.284 32.106 19.384 31.746 19.584C31.394 19.784 31.138 20.064 30.978 20.424C30.85 20.704 30.786 21.044 30.786 21.444H29.706C29.706 20.908 29.802 20.424 29.994 19.992C30.234 19.456 30.618 19.044 31.146 18.756C31.674 18.468 32.322 18.324 33.09 18.324C33.802 18.324 34.414 18.452 34.926 18.708C35.446 18.964 35.83 19.352 36.078 19.872C36.222 20.184 36.294 20.552 36.294 20.976C36.294 21.312 36.238 21.616 36.126 21.888C36.022 22.16 35.858 22.432 35.634 22.704C35.41 22.976 35.102 23.288 34.71 23.64C33.91 24.352 32.994 25.16 31.962 26.064H36.414V27H29.61V26.952ZM38.7718 27.18C38.5638 27.18 38.3918 27.116 38.2558 26.988C38.1278 26.86 38.0638 26.688 38.0638 26.472C38.0638 26.256 38.1278 26.084 38.2558 25.956C38.3918 25.828 38.5638 25.764 38.7718 25.764C38.9878 25.764 39.1598 25.828 39.2878 25.956C39.4238 26.084 39.4918 26.256 39.4918 26.472C39.4918 26.688 39.4238 26.86 39.2878 26.988C39.1598 27.116 38.9878 27.18 38.7718 27.18ZM41.5704 19.476H39.6384L39.8544 18.528H42.6264V27H41.5704V19.476ZM51.4272 23.052C51.5872 23.412 51.6672 23.808 51.6672 24.24C51.6672 24.68 51.5832 25.08 51.4152 25.44C51.1672 25.992 50.7552 26.424 50.1792 26.736C49.6112 27.048 48.9272 27.204 48.1272 27.204C47.2712 27.204 46.5552 27.032 45.9792 26.688C45.4032 26.344 44.9712 25.848 44.6832 25.2C44.4032 24.584 44.2632 23.796 44.2632 22.836C44.2632 21.82 44.4152 20.98 44.7192 20.316C45.0072 19.676 45.4352 19.184 46.0032 18.84C46.5712 18.496 47.2672 18.324 48.0912 18.324C48.6432 18.324 49.1352 18.4 49.5672 18.552C49.9992 18.704 50.3632 18.928 50.6592 19.224C50.8672 19.432 51.0392 19.672 51.1752 19.944C51.3112 20.216 51.4032 20.512 51.4512 20.832H50.3712C50.2912 20.472 50.1232 20.156 49.8672 19.884C49.4432 19.46 48.8472 19.248 48.0792 19.248C47.4872 19.248 46.9872 19.376 46.5792 19.632C46.1792 19.888 45.8752 20.252 45.6672 20.724C45.4352 21.26 45.3192 21.904 45.3192 22.656V22.932C45.5752 22.46 45.9672 22.092 46.4952 21.828C47.0312 21.564 47.6552 21.432 48.3672 21.432C49.0952 21.432 49.7272 21.572 50.2632 21.852C50.8072 22.132 51.1952 22.532 51.4272 23.052ZM50.3712 25.104C50.4832 24.84 50.5392 24.56 50.5392 24.264C50.5392 23.96 50.4872 23.692 50.3832 23.46C50.2152 23.1 49.9352 22.82 49.5432 22.62C49.1592 22.42 48.6952 22.32 48.1512 22.32C47.5752 22.32 47.0872 22.428 46.6872 22.644C46.2872 22.852 46.0032 23.14 45.8352 23.508C45.7232 23.74 45.6672 24.008 45.6672 24.312C45.6672 24.608 45.7192 24.864 45.8232 25.08C45.9832 25.448 46.2672 25.74 46.6752 25.956C47.0832 26.172 47.5672 26.28 48.1272 26.28C48.6792 26.28 49.1472 26.176 49.5312 25.968C49.9232 25.76 50.2032 25.472 50.3712 25.104ZM59.8873 23.724C60.0153 24.004 60.0793 24.32 60.0793 24.672C60.0793 25.024 60.0153 25.34 59.8873 25.62C59.6633 26.124 59.2553 26.516 58.6633 26.796C58.0713 27.068 57.3313 27.204 56.4433 27.204C55.5473 27.204 54.8033 27.068 54.2113 26.796C53.6193 26.516 53.2113 26.124 52.9873 25.62C52.8513 25.324 52.7833 25.008 52.7833 24.672C52.7833 24.336 52.8513 24.024 52.9873 23.736C53.1313 23.4 53.3593 23.124 53.6713 22.908C53.9833 22.692 54.3673 22.54 54.8233 22.452C54.4393 22.372 54.1153 22.236 53.8513 22.044C53.5873 21.852 53.3953 21.62 53.2753 21.348C53.1633 21.124 53.1073 20.856 53.1073 20.544C53.1073 20.224 53.1633 19.952 53.2753 19.728C53.4753 19.28 53.8473 18.936 54.3913 18.696C54.9353 18.448 55.6193 18.324 56.4433 18.324C57.2593 18.324 57.9393 18.448 58.4833 18.696C59.0273 18.936 59.4033 19.28 59.6113 19.728C59.7153 19.96 59.7673 20.232 59.7673 20.544C59.7673 20.848 59.7153 21.116 59.6113 21.348C59.4833 21.62 59.2873 21.852 59.0233 22.044C58.7593 22.236 58.4353 22.372 58.0513 22.452C58.4993 22.54 58.8793 22.692 59.1913 22.908C59.5113 23.124 59.7433 23.396 59.8873 23.724ZM54.2953 21.156C54.4393 21.468 54.7033 21.7 55.0873 21.852C55.4713 22.004 55.9233 22.08 56.4433 22.08C56.9633 22.08 57.4153 22.004 57.7993 21.852C58.1833 21.7 58.4433 21.468 58.5793 21.156C58.6513 20.988 58.6873 20.808 58.6873 20.616C58.6873 20.424 58.6513 20.252 58.5793 20.1C58.4433 19.796 58.1833 19.568 57.7993 19.416C57.4153 19.256 56.9633 19.176 56.4433 19.176C55.9153 19.176 55.4593 19.256 55.0753 19.416C54.6913 19.568 54.4313 19.796 54.2953 20.1C54.2233 20.252 54.1873 20.424 54.1873 20.616C54.1873 20.808 54.2233 20.988 54.2953 21.156ZM58.8313 25.236C58.9113 25.052 58.9513 24.852 58.9513 24.636C58.9513 24.396 58.9113 24.184 58.8313 24C58.6713 23.664 58.3793 23.408 57.9553 23.232C57.5393 23.056 57.0353 22.968 56.4433 22.968C55.8513 22.968 55.3433 23.056 54.9193 23.232C54.4953 23.408 54.2033 23.664 54.0433 24C53.9633 24.184 53.9233 24.392 53.9233 24.624C53.9233 24.864 53.9633 25.068 54.0433 25.236C54.2033 25.58 54.4993 25.844 54.9313 26.028C55.3633 26.204 55.8673 26.292 56.4433 26.292C57.0193 26.292 57.5233 26.204 57.9553 26.028C58.3873 25.844 58.6793 25.58 58.8313 25.236ZM62.3031 27.18C62.0951 27.18 61.9231 27.116 61.7871 26.988C61.6591 26.86 61.5951 26.688 61.5951 26.472C61.5951 26.256 61.6591 26.084 61.7871 25.956C61.9231 25.828 62.0951 25.764 62.3031 25.764C62.5191 25.764 62.6911 25.828 62.8191 25.956C62.9551 26.084 63.0231 26.256 63.0231 26.472C63.0231 26.688 62.9551 26.86 62.8191 26.988C62.6911 27.116 62.5191 27.18 62.3031 27.18ZM65.1017 19.476H63.1697L63.3857 18.528H66.1577V27H65.1017V19.476ZM71.8025 27.204C70.9145 27.204 70.1665 27.024 69.5585 26.664C68.9585 26.296 68.5105 25.78 68.2145 25.116C67.9345 24.484 67.7945 23.7 67.7945 22.764C67.7945 21.828 67.9345 21.044 68.2145 20.412C68.5105 19.748 68.9585 19.236 69.5585 18.876C70.1665 18.508 70.9145 18.324 71.8025 18.324C72.6985 18.324 73.4465 18.508 74.0465 18.876C74.6545 19.236 75.1065 19.748 75.4025 20.412C75.6905 21.036 75.8345 21.82 75.8345 22.764C75.8345 23.708 75.6905 24.492 75.4025 25.116C75.1065 25.78 74.6545 26.296 74.0465 26.664C73.4465 27.024 72.6985 27.204 71.8025 27.204ZM71.8025 26.232C72.4425 26.232 72.9745 26.108 73.3985 25.86C73.8225 25.604 74.1425 25.24 74.3585 24.768C74.5825 24.264 74.6945 23.596 74.6945 22.764C74.6945 21.932 74.5825 21.264 74.3585 20.76C73.9105 19.776 73.0585 19.284 71.8025 19.284C71.1625 19.284 70.6305 19.412 70.2065 19.668C69.7825 19.924 69.4665 20.288 69.2585 20.76C69.0345 21.264 68.9225 21.932 68.9225 22.764C68.9225 23.596 69.0345 24.264 69.2585 24.768C69.4665 25.24 69.7825 25.604 70.2065 25.86C70.6305 26.108 71.1625 26.232 71.8025 26.232ZM80.9665 27.204C80.0785 27.204 79.3305 27.024 78.7225 26.664C78.1225 26.296 77.6745 25.78 77.3785 25.116C77.0985 24.484 76.9585 23.7 76.9585 22.764C76.9585 21.828 77.0985 21.044 77.3785 20.412C77.6745 19.748 78.1225 19.236 78.7225 18.876C79.3305 18.508 80.0785 18.324 80.9665 18.324C81.8625 18.324 82.6105 18.508 83.2105 18.876C83.8185 19.236 84.2705 19.748 84.5665 20.412C84.8545 21.036 84.9985 21.82 84.9985 22.764C84.9985 23.708 84.8545 24.492 84.5665 25.116C84.2705 25.78 83.8185 26.296 83.2105 26.664C82.6105 27.024 81.8625 27.204 80.9665 27.204ZM80.9665 26.232C81.6065 26.232 82.1385 26.108 82.5625 25.86C82.9865 25.604 83.3065 25.24 83.5225 24.768C83.7465 24.264 83.8585 23.596 83.8585 22.764C83.8585 21.932 83.7465 21.264 83.5225 20.76C83.0745 19.776 82.2225 19.284 80.9665 19.284C80.3265 19.284 79.7945 19.412 79.3705 19.668C78.9465 19.924 78.6305 20.288 78.4225 20.76C78.1985 21.264 78.0865 21.932 78.0865 22.764C78.0865 23.596 78.1985 24.264 78.4225 24.768C78.6305 25.24 78.9465 25.604 79.3705 25.86C79.7945 26.108 80.3265 26.232 80.9665 26.232ZM87.0413 27.18C86.8333 27.18 86.6613 27.116 86.5253 26.988C86.3973 26.86 86.3333 26.688 86.3333 26.472C86.3333 26.256 86.3973 26.084 86.5253 25.956C86.6613 25.828 86.8333 25.764 87.0413 25.764C87.2573 25.764 87.4293 25.828 87.5573 25.956C87.6933 26.084 87.7613 26.256 87.7613 26.472C87.7613 26.688 87.6933 26.86 87.5573 26.988C87.4293 27.116 87.2573 27.18 87.0413 27.18ZM89.1764 26.952L93.1244 23.376C93.5324 23.008 93.8524 22.696 94.0844 22.44C94.3164 22.184 94.4844 21.94 94.5884 21.708C94.6924 21.476 94.7444 21.232 94.7444 20.976C94.7444 20.712 94.6964 20.472 94.6004 20.256C94.4644 19.944 94.2244 19.704 93.8804 19.536C93.5364 19.368 93.1244 19.284 92.6444 19.284C92.1164 19.284 91.6724 19.384 91.3124 19.584C90.9604 19.784 90.7044 20.064 90.5444 20.424C90.4164 20.704 90.3524 21.044 90.3524 21.444H89.2724C89.2724 20.908 89.3684 20.424 89.5604 19.992C89.8004 19.456 90.1844 19.044 90.7124 18.756C91.2404 18.468 91.8884 18.324 92.6564 18.324C93.3684 18.324 93.9804 18.452 94.4924 18.708C95.0124 18.964 95.3964 19.352 95.6444 19.872C95.7884 20.184 95.8604 20.552 95.8604 20.976C95.8604 21.312 95.8044 21.616 95.6924 21.888C95.5884 22.16 95.4244 22.432 95.2004 22.704C94.9764 22.976 94.6684 23.288 94.2764 23.64C93.4764 24.352 92.5604 25.16 91.5284 26.064H95.9804V27H89.1764V26.952ZM3.444 41.316H1.98V45H0.876V36.528H4.824C5.544 36.528 6.136 36.636 6.6 36.852C7.064 37.068 7.392 37.388 7.584 37.812C7.72 38.132 7.788 38.488 7.788 38.88C7.788 39.312 7.716 39.684 7.572 39.996C7.188 40.876 6.3 41.316 4.908 41.316H4.812L8.364 45H6.924L3.444 41.316ZM1.98 40.392H4.608C5.144 40.392 5.568 40.332 5.88 40.212C6.192 40.084 6.412 39.884 6.54 39.612C6.628 39.412 6.672 39.176 6.672 38.904C6.672 38.64 6.632 38.416 6.552 38.232C6.432 37.96 6.208 37.76 5.88 37.632C5.56 37.504 5.136 37.44 4.608 37.44H1.98V40.392ZM13.7982 43.788C14.0462 43.564 14.1942 43.284 14.2422 42.948H15.2982C15.2182 43.524 14.9742 43.992 14.5662 44.352C14.2622 44.624 13.8862 44.828 13.4382 44.964C12.9982 45.1 12.5102 45.168 11.9742 45.168C11.1742 45.168 10.4942 45.02 9.93422 44.724C9.37422 44.42 8.97422 44 8.73422 43.464C8.55022 43.072 8.45822 42.612 8.45822 42.084C8.45822 41.564 8.55022 41.096 8.73422 40.68C8.97422 40.144 9.36622 39.732 9.91022 39.444C10.4622 39.148 11.1262 39 11.9022 39C12.6702 39 13.3222 39.148 13.8582 39.444C14.3942 39.74 14.7862 40.156 15.0342 40.692C15.1302 40.932 15.2022 41.188 15.2502 41.46C15.2982 41.724 15.3262 42.02 15.3342 42.348H9.51422C9.53822 42.676 9.60222 42.96 9.70622 43.2C9.87422 43.568 10.1502 43.848 10.5342 44.04C10.9262 44.232 11.4062 44.328 11.9742 44.328C12.3582 44.328 12.7062 44.284 13.0182 44.196C13.3302 44.108 13.5902 43.972 13.7982 43.788ZM11.9022 39.84C11.3502 39.84 10.8862 39.94 10.5102 40.14C10.1422 40.332 9.87422 40.616 9.70622 40.992C9.62622 41.2 9.57022 41.392 9.53822 41.568H14.2542C14.2302 41.336 14.1782 41.128 14.0982 40.944C13.9302 40.584 13.6582 40.312 13.2822 40.128C12.9062 39.936 12.4462 39.84 11.9022 39.84ZM22.0748 40.284C22.2348 40.652 22.3148 41.088 22.3148 41.592V45H21.2588V44.1C20.7628 44.812 19.8908 45.168 18.6428 45.168C18.0588 45.168 17.5668 45.084 17.1668 44.916C16.7668 44.74 16.4908 44.48 16.3388 44.136C16.2428 43.928 16.1948 43.684 16.1948 43.404C16.1948 43.124 16.2428 42.884 16.3388 42.684C16.5388 42.244 16.9108 41.944 17.4548 41.784C18.0068 41.616 18.7108 41.532 19.5668 41.532H21.2588V41.412C21.2588 41.108 21.2108 40.848 21.1148 40.632C20.8828 40.104 20.2948 39.84 19.3508 39.84C18.4148 39.84 17.8348 40.084 17.6108 40.572C17.5548 40.692 17.5188 40.844 17.5028 41.028H16.4588C16.4588 40.756 16.5148 40.488 16.6268 40.224C16.9868 39.408 17.8908 39 19.3388 39C20.0588 39 20.6468 39.104 21.1028 39.312C21.5588 39.52 21.8828 39.844 22.0748 40.284ZM18.8828 44.328C19.4268 44.328 19.8908 44.236 20.2748 44.052C20.6588 43.868 20.9308 43.6 21.0908 43.248C21.2028 43.016 21.2588 42.724 21.2588 42.372V42.3H19.6028C19.0028 42.3 18.5068 42.348 18.1148 42.444C17.7308 42.532 17.4788 42.704 17.3588 42.96C17.3028 43.088 17.2748 43.208 17.2748 43.32C17.2748 43.472 17.3028 43.6 17.3588 43.704C17.4548 43.92 17.6388 44.08 17.9108 44.184C18.1828 44.28 18.5068 44.328 18.8828 44.328ZM23.8191 36.528H24.8631V45H23.8191V36.528ZM28.9776 36.528H32.6976C34.1536 36.528 35.0736 36.956 35.4576 37.812C35.6016 38.124 35.6736 38.5 35.6736 38.94C35.6736 39.364 35.6016 39.74 35.4576 40.068C35.0736 40.924 34.1536 41.352 32.6976 41.352H30.0816V45H28.9776V36.528ZM32.5056 40.416C33.0416 40.416 33.4656 40.356 33.7776 40.236C34.0896 40.116 34.3056 39.92 34.4256 39.648C34.5136 39.432 34.5576 39.2 34.5576 38.952C34.5576 38.68 34.5136 38.436 34.4256 38.22C34.2976 37.948 34.0776 37.756 33.7656 37.644C33.4536 37.524 33.0336 37.464 32.5056 37.464H30.0816V40.416H32.5056ZM40.1283 39C40.9683 39 41.6123 39.228 42.0603 39.684C42.5163 40.132 42.7443 40.792 42.7443 41.664V45H41.7003V41.844C41.7003 40.556 41.0883 39.912 39.8643 39.912C39.2003 39.912 38.6923 40.096 38.3403 40.464C37.9883 40.832 37.8123 41.356 37.8123 42.036V45H36.7683V36.528H37.8123V40.128C38.0443 39.752 38.3563 39.472 38.7483 39.288C39.1403 39.096 39.6003 39 40.1283 39ZM49.9882 39.18L47.0482 45L45.8242 47.436H44.7082L46.0042 44.904L43.2682 39.18H44.4442L46.5802 43.848L48.8362 39.18H49.9882ZM53.0556 45.18C52.3836 45.18 51.8236 45.076 51.3756 44.868C50.9276 44.66 50.6116 44.352 50.4276 43.944C50.3156 43.688 50.2516 43.376 50.2356 43.008H51.2796C51.2796 43.208 51.3196 43.408 51.3996 43.608C51.5116 43.856 51.7116 44.048 51.9996 44.184C52.2876 44.312 52.6476 44.376 53.0796 44.376C53.5116 44.376 53.8676 44.328 54.1476 44.232C54.4276 44.128 54.6116 43.976 54.6996 43.776C54.7476 43.68 54.7716 43.568 54.7716 43.44C54.7716 43.328 54.7476 43.224 54.6996 43.128C54.6356 42.992 54.5196 42.884 54.3516 42.804C54.1836 42.724 53.9796 42.66 53.7396 42.612C53.4996 42.556 53.1316 42.488 52.6356 42.408C52.0916 42.32 51.6476 42.196 51.3036 42.036C50.9596 41.876 50.7196 41.64 50.5836 41.328C50.5036 41.128 50.4636 40.924 50.4636 40.716C50.4636 40.492 50.5076 40.28 50.5956 40.08C50.7556 39.728 51.0476 39.46 51.4716 39.276C51.8956 39.092 52.4036 39 52.9956 39C53.6116 39 54.1316 39.1 54.5556 39.3C54.9876 39.5 55.2916 39.788 55.4676 40.164C55.5716 40.396 55.6236 40.664 55.6236 40.968H54.6036C54.6036 40.792 54.5716 40.628 54.5076 40.476C54.4036 40.244 54.2156 40.072 53.9436 39.96C53.6796 39.84 53.3556 39.78 52.9716 39.78C52.6036 39.78 52.2996 39.828 52.0596 39.924C51.8276 40.012 51.6716 40.144 51.5916 40.32C51.5516 40.424 51.5316 40.528 51.5316 40.632C51.5316 40.736 51.5516 40.828 51.5916 40.908C51.6476 41.036 51.7556 41.144 51.9156 41.232C52.0756 41.312 52.2556 41.376 52.4556 41.424C52.6556 41.464 52.9196 41.512 53.2476 41.568C53.3116 41.584 53.3996 41.6 53.5116 41.616C54.1116 41.72 54.5956 41.856 54.9636 42.024C55.3316 42.184 55.5916 42.424 55.7436 42.744C55.8236 42.912 55.8636 43.12 55.8636 43.368C55.8636 43.608 55.8156 43.832 55.7196 44.04C55.5516 44.416 55.2316 44.7 54.7596 44.892C54.2876 45.084 53.7196 45.18 53.0556 45.18ZM57.558 38.028C57.35 38.028 57.182 37.968 57.054 37.848C56.926 37.728 56.862 37.568 56.862 37.368C56.862 37.176 56.926 37.02 57.054 36.9C57.19 36.772 57.358 36.708 57.558 36.708C57.758 36.708 57.922 36.772 58.05 36.9C58.186 37.02 58.254 37.176 58.254 37.368C58.254 37.56 58.186 37.72 58.05 37.848C57.922 37.968 57.758 38.028 57.558 38.028ZM57.03 39.18H58.074V45H57.03V39.18ZM62.6196 45.168C61.8676 45.168 61.2196 45.024 60.6756 44.736C60.1396 44.448 59.7516 44.036 59.5116 43.5C59.3276 43.084 59.2356 42.612 59.2356 42.084C59.2356 41.556 59.3276 41.088 59.5116 40.68C59.7516 40.144 60.1396 39.732 60.6756 39.444C61.2116 39.148 61.8596 39 62.6196 39C63.6916 39 64.5276 39.276 65.1276 39.828C65.5916 40.236 65.8396 40.756 65.8716 41.388H64.7556C64.7236 40.988 64.5676 40.664 64.2876 40.416C64.0956 40.248 63.8556 40.12 63.5676 40.032C63.2876 39.944 62.9756 39.9 62.6316 39.9C62.1196 39.9 61.6836 40 61.3236 40.2C60.9716 40.392 60.7116 40.668 60.5436 41.028C60.4076 41.308 60.3396 41.66 60.3396 42.084C60.3396 42.5 60.4076 42.848 60.5436 43.128C60.7036 43.488 60.9636 43.768 61.3236 43.968C61.6836 44.16 62.1196 44.256 62.6316 44.256C62.9836 44.256 63.2996 44.212 63.5796 44.124C63.8676 44.036 64.1036 43.908 64.2876 43.74C64.4236 43.62 64.5316 43.476 64.6116 43.308C64.6996 43.14 64.7476 42.956 64.7556 42.756H65.8836C65.8436 43.404 65.5996 43.936 65.1516 44.352C64.8556 44.624 64.4916 44.828 64.0596 44.964C63.6276 45.1 63.1476 45.168 62.6196 45.168ZM72.6413 40.284C72.8013 40.652 72.8813 41.088 72.8813 41.592V45H71.8253V44.1C71.3293 44.812 70.4573 45.168 69.2093 45.168C68.6253 45.168 68.1333 45.084 67.7333 44.916C67.3333 44.74 67.0573 44.48 66.9053 44.136C66.8093 43.928 66.7613 43.684 66.7613 43.404C66.7613 43.124 66.8093 42.884 66.9053 42.684C67.1053 42.244 67.4773 41.944 68.0213 41.784C68.5733 41.616 69.2773 41.532 70.1333 41.532H71.8253V41.412C71.8253 41.108 71.7773 40.848 71.6813 40.632C71.4493 40.104 70.8613 39.84 69.9173 39.84C68.9813 39.84 68.4013 40.084 68.1773 40.572C68.1213 40.692 68.0853 40.844 68.0693 41.028H67.0253C67.0253 40.756 67.0813 40.488 67.1933 40.224C67.5533 39.408 68.4573 39 69.9053 39C70.6253 39 71.2133 39.104 71.6693 39.312C72.1253 39.52 72.4493 39.844 72.6413 40.284ZM69.4492 44.328C69.9933 44.328 70.4573 44.236 70.8413 44.052C71.2253 43.868 71.4973 43.6 71.6573 43.248C71.7693 43.016 71.8253 42.724 71.8253 42.372V42.3H70.1693C69.5693 42.3 69.0733 42.348 68.6813 42.444C68.2973 42.532 68.0453 42.704 67.9253 42.96C67.8693 43.088 67.8413 43.208 67.8413 43.32C67.8413 43.472 67.8693 43.6 67.9253 43.704C68.0213 43.92 68.2053 44.08 68.4773 44.184C68.7493 44.28 69.0733 44.328 69.4492 44.328ZM74.3855 36.528H75.4295V45H74.3855V36.528ZM79.544 36.528H80.648V44.04H84.08V45H79.544V36.528ZM87.7934 45.168C87.0014 45.168 86.3334 45.02 85.7894 44.724C85.2454 44.42 84.8494 43.996 84.6014 43.452C84.4174 43.036 84.3254 42.58 84.3254 42.084C84.3254 41.588 84.4174 41.132 84.6014 40.716C84.8494 40.18 85.2454 39.76 85.7894 39.456C86.3334 39.152 87.0014 39 87.7934 39C88.5934 39 89.2654 39.152 89.8094 39.456C90.3534 39.752 90.7454 40.168 90.9854 40.704C91.1694 41.12 91.2614 41.58 91.2614 42.084C91.2614 42.588 91.1694 43.048 90.9854 43.464C90.7454 44 90.3494 44.42 89.7974 44.724C89.2534 45.02 88.5854 45.168 87.7934 45.168ZM87.7934 44.268C88.3294 44.268 88.7814 44.168 89.1494 43.968C89.5254 43.768 89.7974 43.488 89.9654 43.128C90.1014 42.832 90.1694 42.484 90.1694 42.084C90.1694 41.684 90.1054 41.34 89.9774 41.052C89.8094 40.684 89.5374 40.4 89.1614 40.2C88.7854 40 88.3294 39.9 87.7934 39.9C87.2574 39.9 86.8014 40 86.4254 40.2C86.0574 40.4 85.7894 40.684 85.6214 41.052C85.4934 41.332 85.4294 41.676 85.4294 42.084C85.4294 42.492 85.4934 42.84 85.6214 43.128C85.7894 43.488 86.0574 43.768 86.4254 43.968C86.8014 44.168 87.2574 44.268 87.7934 44.268ZM95.4672 45.168C94.7152 45.168 94.0672 45.024 93.5232 44.736C92.9872 44.448 92.5992 44.036 92.3592 43.5C92.1752 43.084 92.0832 42.612 92.0832 42.084C92.0832 41.556 92.1752 41.088 92.3592 40.68C92.5992 40.144 92.9872 39.732 93.5232 39.444C94.0592 39.148 94.7072 39 95.4672 39C96.5392 39 97.3752 39.276 97.9752 39.828C98.4392 40.236 98.6872 40.756 98.7192 41.388H97.6032C97.5712 40.988 97.4152 40.664 97.1352 40.416C96.9432 40.248 96.7032 40.12 96.4152 40.032C96.1352 39.944 95.8232 39.9 95.4792 39.9C94.9672 39.9 94.5312 40 94.1712 40.2C93.8192 40.392 93.5592 40.668 93.3912 41.028C93.2552 41.308 93.1872 41.66 93.1872 42.084C93.1872 42.5 93.2552 42.848 93.3912 43.128C93.5512 43.488 93.8112 43.768 94.1712 43.968C94.5312 44.16 94.9672 44.256 95.4792 44.256C95.8312 44.256 96.1472 44.212 96.4272 44.124C96.7152 44.036 96.9512 43.908 97.1352 43.74C97.2712 43.62 97.3792 43.476 97.4592 43.308C97.5472 43.14 97.5952 42.956 97.6032 42.756H98.7312C98.6912 43.404 98.4472 43.936 97.9992 44.352C97.7032 44.624 97.3392 44.828 96.9072 44.964C96.4752 45.1 95.9952 45.168 95.4672 45.168ZM105.489 40.284C105.649 40.652 105.729 41.088 105.729 41.592V45H104.673V44.1C104.177 44.812 103.305 45.168 102.057 45.168C101.473 45.168 100.981 45.084 100.581 44.916C100.181 44.74 99.9049 44.48 99.7529 44.136C99.6569 43.928 99.6089 43.684 99.6089 43.404C99.6089 43.124 99.6569 42.884 99.7529 42.684C99.9529 42.244 100.325 41.944 100.869 41.784C101.421 41.616 102.125 41.532 102.981 41.532H104.673V41.412C104.673 41.108 104.625 40.848 104.529 40.632C104.297 40.104 103.709 39.84 102.765 39.84C101.829 39.84 101.249 40.084 101.025 40.572C100.969 40.692 100.933 40.844 100.917 41.028H99.8729C99.8729 40.756 99.9289 40.488 100.041 40.224C100.401 39.408 101.305 39 102.753 39C103.473 39 104.061 39.104 104.517 39.312C104.973 39.52 105.297 39.844 105.489 40.284ZM102.297 44.328C102.841 44.328 103.305 44.236 103.689 44.052C104.073 43.868 104.345 43.6 104.505 43.248C104.617 43.016 104.673 42.724 104.673 42.372V42.3H103.017C102.417 42.3 101.921 42.348 101.529 42.444C101.145 42.532 100.893 42.704 100.773 42.96C100.717 43.088 100.689 43.208 100.689 43.32C100.689 43.472 100.717 43.6 100.773 43.704C100.869 43.92 101.053 44.08 101.325 44.184C101.597 44.28 101.921 44.328 102.297 44.328ZM109.519 45.108C108.863 45.108 108.371 44.944 108.043 44.616C107.723 44.288 107.563 43.796 107.563 43.14V40.044H106.471V39.18H107.563V37.728H108.607V39.18H110.755V40.044H108.607V42.96C108.607 43.376 108.707 43.692 108.907 43.908C109.107 44.116 109.395 44.22 109.771 44.22C110.051 44.22 110.359 44.176 110.695 44.088V44.976C110.303 45.064 109.911 45.108 109.519 45.108ZM112.355 38.028C112.147 38.028 111.979 37.968 111.851 37.848C111.723 37.728 111.659 37.568 111.659 37.368C111.659 37.176 111.723 37.02 111.851 36.9C111.987 36.772 112.155 36.708 112.355 36.708C112.555 36.708 112.719 36.772 112.847 36.9C112.983 37.02 113.051 37.176 113.051 37.368C113.051 37.56 112.983 37.72 112.847 37.848C112.719 37.968 112.555 38.028 112.355 38.028ZM111.827 39.18H112.871V45H111.827V39.18ZM117.5 45.168C116.708 45.168 116.04 45.02 115.496 44.724C114.952 44.42 114.556 43.996 114.308 43.452C114.124 43.036 114.032 42.58 114.032 42.084C114.032 41.588 114.124 41.132 114.308 40.716C114.556 40.18 114.952 39.76 115.496 39.456C116.04 39.152 116.708 39 117.5 39C118.3 39 118.972 39.152 119.516 39.456C120.06 39.752 120.452 40.168 120.692 40.704C120.876 41.12 120.968 41.58 120.968 42.084C120.968 42.588 120.876 43.048 120.692 43.464C120.452 44 120.056 44.42 119.504 44.724C118.96 45.02 118.292 45.168 117.5 45.168ZM117.5 44.268C118.036 44.268 118.488 44.168 118.856 43.968C119.232 43.768 119.504 43.488 119.672 43.128C119.808 42.832 119.876 42.484 119.876 42.084C119.876 41.684 119.812 41.34 119.684 41.052C119.516 40.684 119.244 40.4 118.868 40.2C118.492 40 118.036 39.9 117.5 39.9C116.964 39.9 116.508 40 116.132 40.2C115.764 40.4 115.496 40.684 115.328 41.052C115.2 41.332 115.136 41.676 115.136 42.084C115.136 42.492 115.2 42.84 115.328 43.128C115.496 43.488 115.764 43.768 116.132 43.968C116.508 44.168 116.964 44.268 117.5 44.268ZM125.499 39C126.339 39 126.983 39.228 127.431 39.684C127.887 40.132 128.115 40.792 128.115 41.664V45H127.071V41.844C127.071 40.556 126.459 39.912 125.235 39.912C124.571 39.912 124.063 40.096 123.711 40.464C123.359 40.832 123.183 41.356 123.183 42.036V45H122.139V39.18H123.183V40.128C123.415 39.752 123.727 39.472 124.119 39.288C124.511 39.096 124.971 39 125.499 39ZM130.612 45.18C130.404 45.18 130.232 45.116 130.096 44.988C129.968 44.86 129.904 44.688 129.904 44.472C129.904 44.256 129.968 44.084 130.096 43.956C130.232 43.828 130.404 43.764 130.612 43.764C130.828 43.764 131 43.828 131.128 43.956C131.264 44.084 131.332 44.256 131.332 44.472C131.332 44.688 131.264 44.86 131.128 44.988C131 45.116 130.828 45.18 130.612 45.18ZM130.612 40.8C130.404 40.8 130.232 40.736 130.096 40.608C129.968 40.48 129.904 40.308 129.904 40.092C129.904 39.876 129.968 39.704 130.096 39.576C130.232 39.448 130.404 39.384 130.612 39.384C130.828 39.384 131 39.448 131.128 39.576C131.264 39.704 131.332 39.876 131.332 40.092C131.332 40.308 131.264 40.48 131.128 40.608C131 40.736 130.828 40.8 130.612 40.8ZM135.808 45.06C135.472 45.06 135.192 45.04 134.968 45V44.028C135.152 44.06 135.364 44.076 135.604 44.076C136.004 44.076 136.32 44.02 136.552 43.908C136.792 43.796 136.964 43.616 137.068 43.368C137.18 43.112 137.236 42.776 137.236 42.36V36.528H138.328V42.516C138.328 43.108 138.24 43.592 138.064 43.968C137.896 44.336 137.624 44.612 137.248 44.796C136.88 44.972 136.4 45.06 135.808 45.06ZM145.497 40.284C145.657 40.652 145.737 41.088 145.737 41.592V45H144.681V44.1C144.185 44.812 143.313 45.168 142.065 45.168C141.481 45.168 140.989 45.084 140.589 44.916C140.189 44.74 139.913 44.48 139.761 44.136C139.665 43.928 139.617 43.684 139.617 43.404C139.617 43.124 139.665 42.884 139.761 42.684C139.961 42.244 140.333 41.944 140.877 41.784C141.429 41.616 142.133 41.532 142.989 41.532H144.681V41.412C144.681 41.108 144.633 40.848 144.537 40.632C144.305 40.104 143.717 39.84 142.773 39.84C141.837 39.84 141.257 40.084 141.033 40.572C140.977 40.692 140.941 40.844 140.925 41.028H139.881C139.881 40.756 139.937 40.488 140.049 40.224C140.409 39.408 141.313 39 142.761 39C143.481 39 144.069 39.104 144.525 39.312C144.981 39.52 145.305 39.844 145.497 40.284ZM142.305 44.328C142.849 44.328 143.313 44.236 143.697 44.052C144.081 43.868 144.353 43.6 144.513 43.248C144.625 43.016 144.681 42.724 144.681 42.372V42.3H143.025C142.425 42.3 141.929 42.348 141.537 42.444C141.153 42.532 140.901 42.704 140.781 42.96C140.725 43.088 140.697 43.208 140.697 43.32C140.697 43.472 140.725 43.6 140.781 43.704C140.877 43.92 141.061 44.08 141.333 44.184C141.605 44.28 141.929 44.328 142.305 44.328ZM155.125 39C155.925 39 156.541 39.228 156.973 39.684C157.405 40.14 157.621 40.804 157.621 41.676V45H156.577V41.832C156.577 41.192 156.429 40.712 156.133 40.392C155.845 40.072 155.421 39.912 154.861 39.912C154.253 39.912 153.785 40.092 153.457 40.452C153.129 40.812 152.965 41.32 152.965 41.976V45H151.909V41.832C151.909 40.552 151.337 39.912 150.193 39.912C149.585 39.912 149.113 40.092 148.777 40.452C148.449 40.812 148.285 41.32 148.285 41.976V45H147.241V39.18H148.285V40.092C148.509 39.732 148.805 39.46 149.173 39.276C149.549 39.092 149.989 39 150.493 39C151.069 39 151.549 39.12 151.933 39.36C152.325 39.592 152.605 39.936 152.773 40.392C153.189 39.464 153.973 39 155.125 39ZM164.715 40.284C164.875 40.652 164.955 41.088 164.955 41.592V45H163.899V44.1C163.403 44.812 162.531 45.168 161.283 45.168C160.699 45.168 160.207 45.084 159.807 44.916C159.407 44.74 159.131 44.48 158.979 44.136C158.883 43.928 158.835 43.684 158.835 43.404C158.835 43.124 158.883 42.884 158.979 42.684C159.179 42.244 159.551 41.944 160.095 41.784C160.647 41.616 161.351 41.532 162.207 41.532H163.899V41.412C163.899 41.108 163.851 40.848 163.755 40.632C163.523 40.104 162.935 39.84 161.991 39.84C161.055 39.84 160.475 40.084 160.251 40.572C160.195 40.692 160.159 40.844 160.143 41.028H159.099C159.099 40.756 159.155 40.488 159.267 40.224C159.627 39.408 160.531 39 161.979 39C162.699 39 163.287 39.104 163.743 39.312C164.199 39.52 164.523 39.844 164.715 40.284ZM161.523 44.328C162.067 44.328 162.531 44.236 162.915 44.052C163.299 43.868 163.571 43.6 163.731 43.248C163.843 43.016 163.899 42.724 163.899 42.372V42.3H162.243C161.643 42.3 161.147 42.348 160.755 42.444C160.371 42.532 160.119 42.704 159.999 42.96C159.943 43.088 159.915 43.208 159.915 43.32C159.915 43.472 159.943 43.6 159.999 43.704C160.095 43.92 160.279 44.08 160.551 44.184C160.823 44.28 161.147 44.328 161.523 44.328ZM166.988 38.028C166.78 38.028 166.612 37.968 166.484 37.848C166.356 37.728 166.292 37.568 166.292 37.368C166.292 37.176 166.356 37.02 166.484 36.9C166.62 36.772 166.788 36.708 166.988 36.708C167.188 36.708 167.352 36.772 167.48 36.9C167.616 37.02 167.684 37.176 167.684 37.368C167.684 37.56 167.616 37.72 167.48 37.848C167.352 37.968 167.188 38.028 166.988 38.028ZM166.46 39.18H167.504V45H166.46V39.18ZM172.049 45.168C171.297 45.168 170.649 45.024 170.105 44.736C169.569 44.448 169.181 44.036 168.941 43.5C168.757 43.084 168.665 42.612 168.665 42.084C168.665 41.556 168.757 41.088 168.941 40.68C169.181 40.144 169.569 39.732 170.105 39.444C170.641 39.148 171.289 39 172.049 39C173.121 39 173.957 39.276 174.557 39.828C175.021 40.236 175.269 40.756 175.301 41.388H174.185C174.153 40.988 173.997 40.664 173.717 40.416C173.525 40.248 173.285 40.12 172.997 40.032C172.717 39.944 172.405 39.9 172.061 39.9C171.549 39.9 171.113 40 170.753 40.2C170.401 40.392 170.141 40.668 169.973 41.028C169.837 41.308 169.769 41.66 169.769 42.084C169.769 42.5 169.837 42.848 169.973 43.128C170.133 43.488 170.393 43.768 170.753 43.968C171.113 44.16 171.549 44.256 172.061 44.256C172.413 44.256 172.729 44.212 173.009 44.124C173.297 44.036 173.533 43.908 173.717 43.74C173.853 43.62 173.961 43.476 174.041 43.308C174.129 43.14 174.177 42.956 174.185 42.756H175.313C175.273 43.404 175.029 43.936 174.581 44.352C174.285 44.624 173.921 44.828 173.489 44.964C173.057 45.1 172.577 45.168 172.049 45.168ZM182.071 40.284C182.231 40.652 182.311 41.088 182.311 41.592V45H181.255V44.1C180.759 44.812 179.887 45.168 178.639 45.168C178.055 45.168 177.563 45.084 177.163 44.916C176.763 44.74 176.487 44.48 176.335 44.136C176.239 43.928 176.191 43.684 176.191 43.404C176.191 43.124 176.239 42.884 176.335 42.684C176.535 42.244 176.907 41.944 177.451 41.784C178.003 41.616 178.707 41.532 179.563 41.532H181.255V41.412C181.255 41.108 181.207 40.848 181.111 40.632C180.879 40.104 180.291 39.84 179.347 39.84C178.411 39.84 177.831 40.084 177.607 40.572C177.551 40.692 177.515 40.844 177.499 41.028H176.455C176.455 40.756 176.511 40.488 176.623 40.224C176.983 39.408 177.887 39 179.335 39C180.055 39 180.643 39.104 181.099 39.312C181.555 39.52 181.879 39.844 182.071 40.284ZM178.879 44.328C179.423 44.328 179.887 44.236 180.271 44.052C180.655 43.868 180.927 43.6 181.087 43.248C181.199 43.016 181.255 42.724 181.255 42.372V42.3H179.599C178.999 42.3 178.503 42.348 178.111 42.444C177.727 42.532 177.475 42.704 177.355 42.96C177.299 43.088 177.271 43.208 177.271 43.32C177.271 43.472 177.299 43.6 177.355 43.704C177.451 43.92 177.635 44.08 177.907 44.184C178.179 44.28 178.503 44.328 178.879 44.328ZM2.172 55.476H0.24L0.456 54.528H3.228V63H2.172V55.476ZM8.87278 63.204C7.98478 63.204 7.23678 63.024 6.62878 62.664C6.02878 62.296 5.58078 61.78 5.28478 61.116C5.00478 60.484 4.86478 59.7 4.86478 58.764C4.86478 57.828 5.00478 57.044 5.28478 56.412C5.58078 55.748 6.02878 55.236 6.62878 54.876C7.23678 54.508 7.98478 54.324 8.87278 54.324C9.76878 54.324 10.5168 54.508 11.1168 54.876C11.7248 55.236 12.1768 55.748 12.4728 56.412C12.7608 57.036 12.9048 57.82 12.9048 58.764C12.9048 59.708 12.7608 60.492 12.4728 61.116C12.1768 61.78 11.7248 62.296 11.1168 62.664C10.5168 63.024 9.76878 63.204 8.87278 63.204ZM8.87278 62.232C9.51278 62.232 10.0448 62.108 10.4688 61.86C10.8928 61.604 11.2128 61.24 11.4288 60.768C11.6528 60.264 11.7648 59.596 11.7648 58.764C11.7648 57.932 11.6528 57.264 11.4288 56.76C10.9808 55.776 10.1288 55.284 8.87278 55.284C8.23278 55.284 7.70078 55.412 7.27678 55.668C6.85278 55.924 6.53678 56.288 6.32878 56.76C6.10478 57.264 5.99278 57.932 5.99278 58.764C5.99278 59.596 6.10478 60.264 6.32878 60.768C6.53678 61.24 6.85278 61.604 7.27678 61.86C7.70078 62.108 8.23278 62.232 8.87278 62.232ZM16.7888 63.108C16.1328 63.108 15.6408 62.944 15.3128 62.616C14.9928 62.288 14.8328 61.796 14.8328 61.14V58.044H13.7408V57.18H14.8328V55.728H15.8768V57.18H18.0248V58.044H15.8768V60.96C15.8768 61.376 15.9768 61.692 16.1768 61.908C16.3768 62.116 16.6648 62.22 17.0408 62.22C17.3208 62.22 17.6288 62.176 17.9648 62.088V62.976C17.5728 63.064 17.1808 63.108 16.7888 63.108ZM22.4564 57C23.2964 57 23.9404 57.228 24.3884 57.684C24.8444 58.132 25.0724 58.792 25.0724 59.664V63H24.0284V59.844C24.0284 58.556 23.4164 57.912 22.1924 57.912C21.5284 57.912 21.0204 58.096 20.6684 58.464C20.3164 58.832 20.1404 59.356 20.1404 60.036V63H19.0964V54.528H20.1404V58.128C20.3724 57.752 20.6844 57.472 21.0764 57.288C21.4684 57.096 21.9284 57 22.4564 57ZM29.1416 54.528H30.5336L33.9776 61.38L37.4456 54.528H38.8016V63H37.7576V55.98L34.2296 63H33.7136L30.1976 55.98V63H29.1416V54.528ZM46.0397 58.284C46.1997 58.652 46.2797 59.088 46.2797 59.592V63H45.2237V62.1C44.7277 62.812 43.8557 63.168 42.6077 63.168C42.0237 63.168 41.5317 63.084 41.1317 62.916C40.7317 62.74 40.4557 62.48 40.3037 62.136C40.2077 61.928 40.1597 61.684 40.1597 61.404C40.1597 61.124 40.2077 60.884 40.3037 60.684C40.5037 60.244 40.8757 59.944 41.4197 59.784C41.9717 59.616 42.6757 59.532 43.5317 59.532H45.2237V59.412C45.2237 59.108 45.1757 58.848 45.0797 58.632C44.8477 58.104 44.2597 57.84 43.3157 57.84C42.3797 57.84 41.7997 58.084 41.5757 58.572C41.5197 58.692 41.4837 58.844 41.4677 59.028H40.4237C40.4237 58.756 40.4797 58.488 40.5917 58.224C40.9517 57.408 41.8557 57 43.3037 57C44.0237 57 44.6117 57.104 45.0677 57.312C45.5237 57.52 45.8477 57.844 46.0397 58.284ZM42.8477 62.328C43.3917 62.328 43.8557 62.236 44.2397 62.052C44.6237 61.868 44.8957 61.6 45.0557 61.248C45.1677 61.016 45.2237 60.724 45.2237 60.372V60.3H43.5677C42.9677 60.3 42.4717 60.348 42.0797 60.444C41.6957 60.532 41.4437 60.704 41.3237 60.96C41.2677 61.088 41.2397 61.208 41.2397 61.32C41.2397 61.472 41.2677 61.6 41.3237 61.704C41.4197 61.92 41.6037 62.08 41.8757 62.184C42.1477 62.28 42.4717 62.328 42.8477 62.328ZM53.4335 57.18L50.4935 63L49.2695 65.436H48.1535L49.4495 62.904L46.7135 57.18H47.8895L50.0255 61.848L52.2815 57.18H53.4335ZM54.1309 61.104H55.1509L54.0949 65.076H53.2669L54.1309 61.104ZM66.5626 60.816H65.1226V63H64.0546V60.816H58.5706V60.78L63.1426 54.528H65.1226V59.892H66.5626V60.816ZM64.0546 59.892V54.924H64.0426L60.4306 59.892H64.0546ZM68.4788 63.18C68.2708 63.18 68.0988 63.116 67.9628 62.988C67.8348 62.86 67.7708 62.688 67.7708 62.472C67.7708 62.256 67.8348 62.084 67.9628 61.956C68.0988 61.828 68.2708 61.764 68.4788 61.764C68.6948 61.764 68.8668 61.828 68.9948 61.956C69.1308 62.084 69.1988 62.256 69.1988 62.472C69.1988 62.688 69.1308 62.86 68.9948 62.988C68.8668 63.116 68.6948 63.18 68.4788 63.18ZM68.4788 58.8C68.2708 58.8 68.0988 58.736 67.9628 58.608C67.8348 58.48 67.7708 58.308 67.7708 58.092C67.7708 57.876 67.8348 57.704 67.9628 57.576C68.0988 57.448 68.2708 57.384 68.4788 57.384C68.6948 57.384 68.8668 57.448 68.9948 57.576C69.1308 57.704 69.1988 57.876 69.1988 58.092C69.1988 58.308 69.1308 58.48 68.9948 58.608C68.8668 58.736 68.6948 58.8 68.4788 58.8ZM74.1539 63.204C73.3779 63.204 72.7259 63.072 72.1979 62.808C71.6779 62.544 71.3019 62.148 71.0699 61.62C70.8779 61.212 70.7819 60.692 70.7819 60.06H71.8499C71.8499 60.5 71.9219 60.884 72.0659 61.212C72.2259 61.564 72.4779 61.832 72.8219 62.016C73.1659 62.192 73.6019 62.28 74.1299 62.28C74.6739 62.28 75.1259 62.188 75.4859 62.004C75.8459 61.82 76.1059 61.552 76.2659 61.2C76.3779 60.936 76.4339 60.656 76.4339 60.36C76.4339 60.024 76.3779 59.732 76.2659 59.484C75.9059 58.692 74.9979 58.296 73.5419 58.296C73.1259 58.296 72.7099 58.328 72.2939 58.392C71.8779 58.448 71.4819 58.532 71.1059 58.644L71.8979 54.528H77.0579L76.8419 55.452H72.7259L72.2939 57.66C72.9259 57.516 73.5059 57.444 74.0339 57.444C74.8019 57.444 75.4739 57.576 76.0499 57.84C76.6339 58.104 77.0539 58.52 77.3099 59.088C77.4779 59.472 77.5619 59.88 77.5619 60.312C77.5619 60.784 77.4779 61.208 77.3099 61.584C77.0779 62.096 76.6939 62.496 76.1579 62.784C75.6219 63.064 74.9539 63.204 74.1539 63.204ZM80.1134 55.476H78.1814L78.3974 54.528H81.1694V63H80.1134V55.476ZM85.5791 54.528H89.2991C90.7551 54.528 91.6751 54.956 92.0591 55.812C92.2031 56.124 92.2751 56.5 92.2751 56.94C92.2751 57.364 92.2031 57.74 92.0591 58.068C91.6751 58.924 90.7551 59.352 89.2991 59.352H86.6831V63H85.5791V54.528ZM89.1071 58.416C89.6431 58.416 90.0671 58.356 90.3791 58.236C90.6911 58.116 90.9071 57.92 91.0271 57.648C91.1151 57.432 91.1591 57.2 91.1591 56.952C91.1591 56.68 91.1151 56.436 91.0271 56.22C90.8991 55.948 90.6791 55.756 90.3671 55.644C90.0551 55.524 89.6351 55.464 89.1071 55.464H86.6831V58.416H89.1071ZM93.4658 54.528H94.8578L98.3018 61.38L101.77 54.528H103.126V63H102.082V55.98L98.5538 63H98.0378L94.5218 55.98V63H93.4658V54.528Z" fill="white"/>
</svg>
