<svg width="44" height="36" viewBox="0 0 44 36" fill="none" xmlns="http://www.w3.org/2000/svg">
<path d="M1.86759 33.5467H40.0581L30.5487 19.5195L30.7104 19.1249C31.2874 17.7105 31.58 16.2238 31.58 14.7087C31.58 13.4592 31.3841 12.1888 30.9997 10.9319C30.4479 9.13857 29.4767 7.51832 28.1114 6.11813C26.7745 4.74629 25.0954 3.66389 23.1189 2.89927C21.266 2.18463 19.248 1.837 16.9538 1.837H1.8684V33.546H1.86678L1.86759 33.5467ZM43.4186 35.2602H0V0.125H16.9522C19.4984 0.125 21.752 0.516635 23.8406 1.32079C26.0756 2.18388 27.9797 3.41324 29.5011 4.9753C31.0582 6.57243 32.1668 8.4202 32.795 10.4671C33.2257 11.8755 33.4443 13.3018 33.4443 14.7087C33.4443 16.2872 33.1648 17.8373 32.6138 19.3241L43.4178 35.2617L43.4194 35.2602H43.4186Z" fill="#7867E4"/>
<path d="M4.85327 30.8038H34.6786L27.1384 19.6813L27.3822 19.2479C27.5707 18.9145 27.7398 18.5684 27.8853 18.217C28.3517 17.0936 28.5882 15.912 28.5882 14.7057C28.5882 13.7076 28.4306 12.6871 28.1201 11.6734C27.6935 10.2858 26.9401 9.03038 25.8795 7.9435C24.8401 6.87751 23.5202 6.03008 21.9566 5.4251C20.4767 4.85518 18.8391 4.57693 16.9487 4.57693H4.85164V30.8015L4.85327 30.8038ZM38.04 32.5173H2.9873V2.86493H16.952C19.0943 2.86493 20.9692 3.18644 22.6831 3.84737C24.5052 4.55157 26.0494 5.54595 27.2741 6.80291C28.5249 8.08598 29.4148 9.56971 29.9203 11.2108C30.2779 12.3768 30.4575 13.5532 30.4575 14.708C30.4575 16.1238 30.1795 17.5098 29.6326 18.8294C29.5245 19.0868 29.4074 19.3434 29.2799 19.5948L38.0408 32.518V32.5165L38.04 32.5173Z" fill="#7867E4"/>
<path d="M7.84269 28.0625H29.3037L23.5498 19.5756L23.9521 19.1034C24.4324 18.5387 24.8184 17.9128 25.0964 17.2422C25.432 16.4313 25.6043 15.5787 25.6043 14.7081C25.6043 13.9614 25.4848 13.1908 25.2483 12.4202C24.946 11.4378 24.4121 10.5471 23.6571 9.77427C22.9159 9.01263 21.9545 8.40093 20.8045 7.95633C19.6968 7.52964 18.4379 7.32226 16.9539 7.32226H7.84431V28.064L7.84269 28.0625ZM32.6643 29.7767H5.9751V5.60876H16.9523C18.689 5.60876 20.1868 5.86016 21.5278 6.37637C22.937 6.92018 24.1211 7.67883 25.0484 8.63144C25.9944 9.6012 26.6649 10.7187 27.0444 11.9555C27.3264 12.8782 27.4695 13.8033 27.4695 14.7081C27.4695 15.7883 27.2582 16.8461 26.8396 17.8524C26.573 18.4939 26.2285 19.1019 25.8099 19.6681L32.6626 29.7752V29.7767H32.6643Z" fill="#7867E4"/>
<path d="M16.4704 20.9719L19.2043 25.3216H23.9245L19.5717 18.9003L20.3519 18.4445C20.7541 18.2103 21.1117 17.9321 21.4124 17.618C21.7977 17.2174 22.0975 16.7616 22.3032 16.2656C22.5104 15.768 22.6152 15.2436 22.6152 14.708C22.6152 14.2119 22.5332 13.6927 22.3714 13.1646C22.1943 12.5879 21.8765 12.062 21.4287 11.6025C20.9833 11.146 20.3836 10.7693 19.6448 10.4843C18.9101 10.2016 18.03 10.0636 16.9491 10.0636H10.827V25.3209H14.6946V20.9808L16.4696 20.9719H16.4712H16.4704ZM27.2858 27.0351H18.1267L16.5639 24.5481V27.0351H8.96265V8.35156H16.9523C18.2852 8.35156 19.4026 8.53283 20.3706 8.90582C21.3661 9.29074 22.191 9.81441 22.8217 10.4612C23.4613 11.1169 23.9147 11.8703 24.1699 12.7013C24.378 13.3809 24.4836 14.056 24.4836 14.7095C24.4836 15.4554 24.3374 16.185 24.0497 16.878C23.7636 17.5665 23.3475 18.1976 22.8135 18.7534C22.5949 18.9802 22.3584 19.192 22.1032 19.3897L27.2866 27.0359H27.285L27.2858 27.0351Z" fill="#7867E4"/>
<path d="M13.7632 16.8884H16.3891C16.7776 16.8884 17.1636 16.86 17.5464 16.8026C17.9275 16.7451 18.2681 16.64 18.5671 16.4863C18.8662 16.3326 19.1059 16.1126 19.2864 15.8261C19.4668 15.5397 19.557 15.1659 19.557 14.7072C19.557 14.2484 19.466 13.8754 19.2864 13.5882C19.1059 13.3017 18.8654 13.0817 18.5671 12.928C18.2681 12.7743 17.9275 12.6707 17.5464 12.6132C17.1636 12.5558 16.7776 12.5274 16.3891 12.5274H13.7632V16.8884ZM11.7632 10.9199H16.9523C17.8966 10.9199 18.6752 11.0385 19.2864 11.2742C19.8975 11.5099 20.3811 11.8105 20.7338 12.1738C21.0881 12.5371 21.3352 12.9459 21.4742 13.3987C21.6131 13.8515 21.6822 14.2879 21.6822 14.7094C21.6822 15.1309 21.5985 15.5605 21.4327 15.9626C21.2653 16.3647 21.0255 16.728 20.7135 17.0532C20.4014 17.3785 20.0186 17.653 19.5676 17.876C19.1165 18.0998 18.6118 18.2363 18.0559 18.2871L22.2446 24.4652H19.7431L15.9917 18.4967H13.7616V24.4652H11.7607V10.9221L11.7624 10.9206L11.7632 10.9199Z" fill="#7867E4"/>
</svg>
