<svg width="165" height="70" viewBox="0 0 165 70" fill="none" xmlns="http://www.w3.org/2000/svg">
<rect width="165" height="70" rx="8" fill="white"/>
<path d="M22.492 16.34L18.988 11.528H20.296L23.02 15.332L25.756 11.528H27.052L23.572 16.34V20H22.492V16.34ZM29.5083 20.168C28.7163 20.168 28.0483 20.02 27.5043 19.724C26.9603 19.42 26.5643 18.996 26.3163 18.452C26.1323 18.036 26.0403 17.58 26.0403 17.084C26.0403 16.588 26.1323 16.132 26.3163 15.716C26.5643 15.18 26.9603 14.76 27.5043 14.456C28.0483 14.152 28.7163 14 29.5083 14C30.3083 14 30.9803 14.152 31.5243 14.456C32.0683 14.752 32.4603 15.168 32.7003 15.704C32.8843 16.12 32.9763 16.58 32.9763 17.084C32.9763 17.588 32.8843 18.048 32.7003 18.464C32.4603 19 32.0643 19.42 31.5123 19.724C30.9683 20.02 30.3003 20.168 29.5083 20.168ZM29.5083 19.268C30.0443 19.268 30.4963 19.168 30.8643 18.968C31.2403 18.768 31.5123 18.488 31.6803 18.128C31.8163 17.832 31.8843 17.484 31.8843 17.084C31.8843 16.684 31.8203 16.34 31.6923 16.052C31.5243 15.684 31.2523 15.4 30.8763 15.2C30.5003 15 30.0443 14.9 29.5083 14.9C28.9723 14.9 28.5163 15 28.1403 15.2C27.7723 15.4 27.5043 15.684 27.3363 16.052C27.2083 16.332 27.1443 16.676 27.1443 17.084C27.1443 17.492 27.2083 17.84 27.3363 18.128C27.5043 18.488 27.7723 18.768 28.1403 18.968C28.5163 19.168 28.9723 19.268 29.5083 19.268ZM40.0752 14.18V20H39.0192V19.064C38.7792 19.44 38.4632 19.72 38.0712 19.904C37.6872 20.088 37.2352 20.18 36.7152 20.18C35.8752 20.18 35.2272 19.956 34.7712 19.508C34.3232 19.052 34.0992 18.388 34.0992 17.516V14.18H35.1432V17.336C35.1432 18.624 35.7552 19.268 36.9792 19.268C37.6432 19.268 38.1472 19.084 38.4912 18.716C38.8432 18.348 39.0192 17.824 39.0192 17.144V14.18H40.0752ZM44.5155 14.072C44.7635 14.072 44.9955 14.104 45.2115 14.168V15.104C44.9715 15.048 44.7275 15.02 44.4795 15.02C43.8795 15.02 43.4275 15.184 43.1235 15.512C42.8275 15.84 42.6795 16.312 42.6795 16.928V20H41.6355V14.18H42.6795V15.008C42.8475 14.712 43.0835 14.484 43.3875 14.324C43.6995 14.156 44.0755 14.072 44.5155 14.072ZM55.0033 11.528V20H53.9833V19.052C53.7193 19.42 53.3673 19.7 52.9273 19.892C52.4953 20.076 52.0033 20.168 51.4513 20.168C50.7633 20.168 50.1633 20.024 49.6513 19.736C49.1393 19.448 48.7673 19.044 48.5353 18.524C48.3433 18.076 48.2473 17.596 48.2473 17.084C48.2473 16.572 48.3433 16.092 48.5353 15.644C48.7673 15.124 49.1393 14.72 49.6513 14.432C50.1633 14.144 50.7633 14 51.4513 14C51.9953 14 52.4833 14.092 52.9153 14.276C53.3553 14.46 53.7033 14.728 53.9593 15.08V11.528H55.0033ZM53.9593 17C53.9593 16.544 53.8593 16.16 53.6593 15.848C53.4593 15.528 53.1873 15.292 52.8433 15.14C52.4993 14.98 52.1073 14.9 51.6673 14.9C51.1633 14.9 50.7273 14.996 50.3593 15.188C49.9913 15.38 49.7233 15.66 49.5553 16.028C49.4193 16.324 49.3513 16.676 49.3513 17.084C49.3513 17.492 49.4193 17.844 49.5553 18.14C49.7233 18.508 49.9913 18.788 50.3593 18.98C50.7273 19.172 51.1633 19.268 51.6673 19.268C52.1073 19.268 52.4993 19.192 52.8433 19.04C53.1873 18.88 53.4593 18.644 53.6593 18.332C53.8593 18.012 53.9593 17.628 53.9593 17.18V17ZM61.5092 18.788C61.7572 18.564 61.9052 18.284 61.9532 17.948H63.0092C62.9292 18.524 62.6852 18.992 62.2772 19.352C61.9732 19.624 61.5972 19.828 61.1492 19.964C60.7092 20.1 60.2212 20.168 59.6852 20.168C58.8852 20.168 58.2052 20.02 57.6452 19.724C57.0852 19.42 56.6852 19 56.4452 18.464C56.2612 18.072 56.1692 17.612 56.1692 17.084C56.1692 16.564 56.2612 16.096 56.4452 15.68C56.6852 15.144 57.0772 14.732 57.6212 14.444C58.1732 14.148 58.8372 14 59.6132 14C60.3812 14 61.0332 14.148 61.5692 14.444C62.1052 14.74 62.4972 15.156 62.7452 15.692C62.8412 15.932 62.9132 16.188 62.9612 16.46C63.0092 16.724 63.0372 17.02 63.0452 17.348H57.2252C57.2492 17.676 57.3132 17.96 57.4172 18.2C57.5852 18.568 57.8612 18.848 58.2452 19.04C58.6372 19.232 59.1172 19.328 59.6852 19.328C60.0692 19.328 60.4172 19.284 60.7292 19.196C61.0412 19.108 61.3012 18.972 61.5092 18.788ZM59.6132 14.84C59.0612 14.84 58.5972 14.94 58.2212 15.14C57.8532 15.332 57.5852 15.616 57.4172 15.992C57.3372 16.2 57.2812 16.392 57.2492 16.568H61.9652C61.9412 16.336 61.8892 16.128 61.8092 15.944C61.6412 15.584 61.3692 15.312 60.9932 15.128C60.6172 14.936 60.1572 14.84 59.6132 14.84ZM63.2057 14.18H64.3457L66.5057 18.884L68.6777 14.18H69.8177L67.0697 20H65.9537L63.2057 14.18ZM71.2377 13.028C71.0297 13.028 70.8617 12.968 70.7337 12.848C70.6057 12.728 70.5417 12.568 70.5417 12.368C70.5417 12.176 70.6057 12.02 70.7337 11.9C70.8697 11.772 71.0377 11.708 71.2377 11.708C71.4377 11.708 71.6017 11.772 71.7297 11.9C71.8657 12.02 71.9337 12.176 71.9337 12.368C71.9337 12.56 71.8657 12.72 71.7297 12.848C71.6017 12.968 71.4377 13.028 71.2377 13.028ZM70.7097 14.18H71.7537V20H70.7097V14.18ZM76.2993 20.168C75.5473 20.168 74.8993 20.024 74.3553 19.736C73.8193 19.448 73.4313 19.036 73.1913 18.5C73.0073 18.084 72.9153 17.612 72.9153 17.084C72.9153 16.556 73.0073 16.088 73.1913 15.68C73.4313 15.144 73.8193 14.732 74.3553 14.444C74.8913 14.148 75.5393 14 76.2993 14C77.3713 14 78.2073 14.276 78.8073 14.828C79.2713 15.236 79.5193 15.756 79.5513 16.388H78.4353C78.4033 15.988 78.2473 15.664 77.9673 15.416C77.7753 15.248 77.5353 15.12 77.2473 15.032C76.9673 14.944 76.6553 14.9 76.3113 14.9C75.7993 14.9 75.3633 15 75.0033 15.2C74.6513 15.392 74.3913 15.668 74.2233 16.028C74.0873 16.308 74.0193 16.66 74.0193 17.084C74.0193 17.5 74.0873 17.848 74.2233 18.128C74.3833 18.488 74.6433 18.768 75.0033 18.968C75.3633 19.16 75.7993 19.256 76.3113 19.256C76.6633 19.256 76.9793 19.212 77.2593 19.124C77.5473 19.036 77.7833 18.908 77.9673 18.74C78.1033 18.62 78.2113 18.476 78.2913 18.308C78.3793 18.14 78.4273 17.956 78.4353 17.756H79.5633C79.5233 18.404 79.2793 18.936 78.8313 19.352C78.5353 19.624 78.1713 19.828 77.7393 19.964C77.3073 20.1 76.8273 20.168 76.2993 20.168ZM85.7318 18.788C85.9798 18.564 86.1278 18.284 86.1758 17.948H87.2318C87.1518 18.524 86.9078 18.992 86.4998 19.352C86.1958 19.624 85.8198 19.828 85.3718 19.964C84.9318 20.1 84.4438 20.168 83.9078 20.168C83.1078 20.168 82.4278 20.02 81.8678 19.724C81.3078 19.42 80.9078 19 80.6678 18.464C80.4838 18.072 80.3918 17.612 80.3918 17.084C80.3918 16.564 80.4838 16.096 80.6678 15.68C80.9078 15.144 81.2998 14.732 81.8438 14.444C82.3958 14.148 83.0598 14 83.8358 14C84.6038 14 85.2558 14.148 85.7918 14.444C86.3278 14.74 86.7198 15.156 86.9678 15.692C87.0638 15.932 87.1358 16.188 87.1838 16.46C87.2318 16.724 87.2598 17.02 87.2678 17.348H81.4478C81.4718 17.676 81.5358 17.96 81.6398 18.2C81.8078 18.568 82.0838 18.848 82.4678 19.04C82.8598 19.232 83.3398 19.328 83.9078 19.328C84.2918 19.328 84.6398 19.284 84.9518 19.196C85.2638 19.108 85.5238 18.972 85.7318 18.788ZM83.8358 14.84C83.2838 14.84 82.8198 14.94 82.4438 15.14C82.0758 15.332 81.8078 15.616 81.6398 15.992C81.5598 16.2 81.5038 16.392 81.4718 16.568H86.1878C86.1638 16.336 86.1118 16.128 86.0318 15.944C85.8638 15.584 85.5918 15.312 85.2158 15.128C84.8398 14.936 84.3798 14.84 83.8358 14.84ZM94.2494 14C95.0894 14 95.7334 14.228 96.1814 14.684C96.6374 15.132 96.8654 15.792 96.8654 16.664V20H95.8214V16.844C95.8214 15.556 95.2094 14.912 93.9854 14.912C93.3214 14.912 92.8134 15.096 92.4614 15.464C92.1094 15.832 91.9334 16.356 91.9334 17.036V20H90.8894V11.528H91.9334V15.128C92.1654 14.752 92.4774 14.472 92.8694 14.288C93.2614 14.096 93.7214 14 94.2494 14ZM103.958 15.284C104.118 15.652 104.198 16.088 104.198 16.592V20H103.142V19.1C102.646 19.812 101.774 20.168 100.526 20.168C99.9417 20.168 99.4497 20.084 99.0497 19.916C98.6497 19.74 98.3737 19.48 98.2217 19.136C98.1257 18.928 98.0777 18.684 98.0777 18.404C98.0777 18.124 98.1257 17.884 98.2217 17.684C98.4217 17.244 98.7937 16.944 99.3377 16.784C99.8897 16.616 100.594 16.532 101.45 16.532H103.142V16.412C103.142 16.108 103.094 15.848 102.998 15.632C102.766 15.104 102.178 14.84 101.234 14.84C100.298 14.84 99.7177 15.084 99.4937 15.572C99.4377 15.692 99.4017 15.844 99.3857 16.028H98.3417C98.3417 15.756 98.3977 15.488 98.5097 15.224C98.8697 14.408 99.7737 14 101.222 14C101.942 14 102.53 14.104 102.986 14.312C103.442 14.52 103.766 14.844 103.958 15.284ZM100.766 19.328C101.31 19.328 101.774 19.236 102.158 19.052C102.542 18.868 102.814 18.6 102.974 18.248C103.086 18.016 103.142 17.724 103.142 17.372V17.3H101.486C100.886 17.3 100.39 17.348 99.9977 17.444C99.6137 17.532 99.3617 17.704 99.2417 17.96C99.1857 18.088 99.1577 18.208 99.1577 18.32C99.1577 18.472 99.1857 18.6 99.2417 18.704C99.3377 18.92 99.5217 19.08 99.7937 19.184C100.066 19.28 100.39 19.328 100.766 19.328ZM108.126 20.18C107.454 20.18 106.894 20.076 106.446 19.868C105.998 19.66 105.682 19.352 105.498 18.944C105.386 18.688 105.322 18.376 105.306 18.008H106.35C106.35 18.208 106.39 18.408 106.47 18.608C106.582 18.856 106.782 19.048 107.07 19.184C107.358 19.312 107.718 19.376 108.15 19.376C108.582 19.376 108.938 19.328 109.218 19.232C109.498 19.128 109.682 18.976 109.77 18.776C109.818 18.68 109.842 18.568 109.842 18.44C109.842 18.328 109.818 18.224 109.77 18.128C109.706 17.992 109.59 17.884 109.422 17.804C109.254 17.724 109.05 17.66 108.81 17.612C108.57 17.556 108.202 17.488 107.706 17.408C107.162 17.32 106.718 17.196 106.374 17.036C106.03 16.876 105.79 16.64 105.654 16.328C105.574 16.128 105.534 15.924 105.534 15.716C105.534 15.492 105.578 15.28 105.666 15.08C105.826 14.728 106.118 14.46 106.542 14.276C106.966 14.092 107.474 14 108.066 14C108.682 14 109.202 14.1 109.626 14.3C110.058 14.5 110.362 14.788 110.538 15.164C110.642 15.396 110.694 15.664 110.694 15.968H109.674C109.674 15.792 109.642 15.628 109.578 15.476C109.474 15.244 109.286 15.072 109.014 14.96C108.75 14.84 108.426 14.78 108.042 14.78C107.674 14.78 107.37 14.828 107.13 14.924C106.898 15.012 106.742 15.144 106.662 15.32C106.622 15.424 106.602 15.528 106.602 15.632C106.602 15.736 106.622 15.828 106.662 15.908C106.718 16.036 106.826 16.144 106.986 16.232C107.146 16.312 107.326 16.376 107.526 16.424C107.726 16.464 107.99 16.512 108.318 16.568C108.382 16.584 108.47 16.6 108.582 16.616C109.182 16.72 109.666 16.856 110.034 17.024C110.402 17.184 110.662 17.424 110.814 17.744C110.894 17.912 110.934 18.12 110.934 18.368C110.934 18.608 110.886 18.832 110.79 19.04C110.622 19.416 110.302 19.7 109.83 19.892C109.358 20.084 108.79 20.18 108.126 20.18ZM121.029 15.644C121.221 16.06 121.317 16.54 121.317 17.084C121.317 17.62 121.221 18.1 121.029 18.524C120.797 19.044 120.425 19.448 119.913 19.736C119.409 20.024 118.809 20.168 118.113 20.168C117.569 20.168 117.077 20.076 116.637 19.892C116.205 19.7 115.857 19.424 115.593 19.064V20H114.561V11.528H115.605V15.08C115.861 14.728 116.205 14.46 116.637 14.276C117.077 14.092 117.569 14 118.113 14C118.809 14 119.409 14.144 119.913 14.432C120.425 14.72 120.797 15.124 121.029 15.644ZM120.009 18.14C120.145 17.844 120.213 17.492 120.213 17.084C120.213 16.676 120.145 16.324 120.009 16.028C119.841 15.66 119.573 15.38 119.205 15.188C118.837 14.996 118.401 14.9 117.897 14.9C117.457 14.9 117.065 14.98 116.721 15.14C116.377 15.292 116.105 15.528 115.905 15.848C115.705 16.16 115.605 16.544 115.605 17V17.18C115.605 17.628 115.705 18.012 115.905 18.332C116.105 18.644 116.377 18.88 116.721 19.04C117.065 19.192 117.457 19.268 117.897 19.268C118.401 19.268 118.837 19.172 119.205 18.98C119.573 18.788 119.841 18.508 120.009 18.14ZM127.474 18.788C127.722 18.564 127.87 18.284 127.918 17.948H128.974C128.894 18.524 128.65 18.992 128.242 19.352C127.938 19.624 127.562 19.828 127.114 19.964C126.674 20.1 126.186 20.168 125.65 20.168C124.85 20.168 124.17 20.02 123.61 19.724C123.05 19.42 122.65 19 122.41 18.464C122.226 18.072 122.134 17.612 122.134 17.084C122.134 16.564 122.226 16.096 122.41 15.68C122.65 15.144 123.042 14.732 123.586 14.444C124.138 14.148 124.802 14 125.578 14C126.346 14 126.998 14.148 127.534 14.444C128.07 14.74 128.462 15.156 128.71 15.692C128.806 15.932 128.878 16.188 128.926 16.46C128.974 16.724 129.002 17.02 129.01 17.348H123.19C123.214 17.676 123.278 17.96 123.382 18.2C123.55 18.568 123.826 18.848 124.21 19.04C124.602 19.232 125.082 19.328 125.65 19.328C126.034 19.328 126.382 19.284 126.694 19.196C127.006 19.108 127.266 18.972 127.474 18.788ZM125.578 14.84C125.026 14.84 124.562 14.94 124.186 15.14C123.818 15.332 123.55 15.616 123.382 15.992C123.302 16.2 123.246 16.392 123.214 16.568H127.93C127.906 16.336 127.854 16.128 127.774 15.944C127.606 15.584 127.334 15.312 126.958 15.128C126.582 14.936 126.122 14.84 125.578 14.84ZM135.162 18.788C135.41 18.564 135.558 18.284 135.605 17.948H136.662C136.582 18.524 136.338 18.992 135.93 19.352C135.626 19.624 135.25 19.828 134.802 19.964C134.362 20.1 133.874 20.168 133.338 20.168C132.538 20.168 131.858 20.02 131.298 19.724C130.738 19.42 130.338 19 130.098 18.464C129.914 18.072 129.822 17.612 129.822 17.084C129.822 16.564 129.914 16.096 130.098 15.68C130.338 15.144 130.73 14.732 131.274 14.444C131.826 14.148 132.49 14 133.266 14C134.034 14 134.686 14.148 135.222 14.444C135.758 14.74 136.15 15.156 136.398 15.692C136.494 15.932 136.566 16.188 136.614 16.46C136.662 16.724 136.69 17.02 136.698 17.348H130.878C130.902 17.676 130.966 17.96 131.07 18.2C131.238 18.568 131.514 18.848 131.898 19.04C132.29 19.232 132.77 19.328 133.338 19.328C133.722 19.328 134.07 19.284 134.382 19.196C134.694 19.108 134.954 18.972 135.162 18.788ZM133.266 14.84C132.714 14.84 132.25 14.94 131.874 15.14C131.506 15.332 131.238 15.616 131.07 15.992C130.99 16.2 130.934 16.392 130.902 16.568H135.618C135.594 16.336 135.542 16.128 135.462 15.944C135.294 15.584 135.022 15.312 134.646 15.128C134.27 14.936 133.81 14.84 133.266 14.84ZM141.218 14C142.058 14 142.702 14.228 143.15 14.684C143.606 15.132 143.834 15.792 143.834 16.664V20H142.79V16.844C142.79 15.556 142.178 14.912 140.954 14.912C140.29 14.912 139.782 15.096 139.43 15.464C139.078 15.832 138.902 16.356 138.902 17.036V20H137.858V14.18H138.902V15.128C139.134 14.752 139.446 14.472 139.838 14.288C140.23 14.096 140.69 14 141.218 14ZM22.66 32.072C22.908 32.072 23.14 32.104 23.356 32.168V33.104C23.116 33.048 22.872 33.02 22.624 33.02C22.024 33.02 21.572 33.184 21.268 33.512C20.972 33.84 20.824 34.312 20.824 34.928V38H19.78V32.18H20.824V33.008C20.992 32.712 21.228 32.484 21.532 32.324C21.844 32.156 22.22 32.072 22.66 32.072ZM29.1185 36.788C29.3665 36.564 29.5145 36.284 29.5625 35.948H30.6185C30.5385 36.524 30.2945 36.992 29.8865 37.352C29.5825 37.624 29.2065 37.828 28.7585 37.964C28.3185 38.1 27.8305 38.168 27.2945 38.168C26.4945 38.168 25.8145 38.02 25.2545 37.724C24.6945 37.42 24.2945 37 24.0545 36.464C23.8705 36.072 23.7785 35.612 23.7785 35.084C23.7785 34.564 23.8705 34.096 24.0545 33.68C24.2945 33.144 24.6865 32.732 25.2305 32.444C25.7825 32.148 26.4465 32 27.2225 32C27.9905 32 28.6425 32.148 29.1785 32.444C29.7145 32.74 30.1065 33.156 30.3545 33.692C30.4505 33.932 30.5225 34.188 30.5705 34.46C30.6185 34.724 30.6465 35.02 30.6545 35.348H24.8345C24.8585 35.676 24.9225 35.96 25.0265 36.2C25.1945 36.568 25.4705 36.848 25.8545 37.04C26.2465 37.232 26.7265 37.328 27.2945 37.328C27.6785 37.328 28.0265 37.284 28.3385 37.196C28.6505 37.108 28.9105 36.972 29.1185 36.788ZM27.2225 32.84C26.6705 32.84 26.2065 32.94 25.8305 33.14C25.4625 33.332 25.1945 33.616 25.0265 33.992C24.9465 34.2 24.8905 34.392 24.8585 34.568H29.5745C29.5505 34.336 29.4985 34.128 29.4185 33.944C29.2505 33.584 28.9785 33.312 28.6025 33.128C28.2265 32.936 27.7665 32.84 27.2225 32.84ZM35.1752 32C36.0152 32 36.6592 32.228 37.1072 32.684C37.5632 33.132 37.7912 33.792 37.7912 34.664V38H36.7472V34.844C36.7472 33.556 36.1352 32.912 34.9112 32.912C34.2472 32.912 33.7392 33.096 33.3872 33.464C33.0352 33.832 32.8592 34.356 32.8592 35.036V38H31.8152V32.18H32.8592V33.128C33.0912 32.752 33.4032 32.472 33.7952 32.288C34.1872 32.096 34.6472 32 35.1752 32ZM41.5428 38.108C40.8868 38.108 40.3948 37.944 40.0668 37.616C39.7468 37.288 39.5868 36.796 39.5868 36.14V33.044H38.4948V32.18H39.5868V30.728H40.6308V32.18H42.7788V33.044H40.6308V35.96C40.6308 36.376 40.7308 36.692 40.9308 36.908C41.1308 37.116 41.4188 37.22 41.7948 37.22C42.0748 37.22 42.3828 37.176 42.7188 37.088V37.976C42.3268 38.064 41.9348 38.108 41.5428 38.108ZM48.6303 36.788C48.8783 36.564 49.0263 36.284 49.0742 35.948H50.1303C50.0503 36.524 49.8063 36.992 49.3983 37.352C49.0943 37.624 48.7183 37.828 48.2703 37.964C47.8303 38.1 47.3423 38.168 46.8063 38.168C46.0063 38.168 45.3263 38.02 44.7663 37.724C44.2063 37.42 43.8063 37 43.5663 36.464C43.3823 36.072 43.2903 35.612 43.2903 35.084C43.2903 34.564 43.3823 34.096 43.5663 33.68C43.8063 33.144 44.1983 32.732 44.7423 32.444C45.2943 32.148 45.9583 32 46.7343 32C47.5023 32 48.1543 32.148 48.6903 32.444C49.2263 32.74 49.6183 33.156 49.8663 33.692C49.9623 33.932 50.0343 34.188 50.0823 34.46C50.1303 34.724 50.1583 35.02 50.1663 35.348H44.3463C44.3703 35.676 44.4343 35.96 44.5383 36.2C44.7063 36.568 44.9823 36.848 45.3663 37.04C45.7583 37.232 46.2383 37.328 46.8063 37.328C47.1903 37.328 47.5383 37.284 47.8503 37.196C48.1623 37.108 48.4223 36.972 48.6303 36.788ZM46.7343 32.84C46.1823 32.84 45.7183 32.94 45.3423 33.14C44.9743 33.332 44.7063 33.616 44.5383 33.992C44.4583 34.2 44.4023 34.392 44.3703 34.568H49.0863C49.0623 34.336 49.0103 34.128 48.9303 33.944C48.7623 33.584 48.4903 33.312 48.1143 33.128C47.7383 32.936 47.2783 32.84 46.7343 32.84ZM57.7338 29.528V38H56.7138V37.052C56.4498 37.42 56.0978 37.7 55.6578 37.892C55.2258 38.076 54.7338 38.168 54.1818 38.168C53.4938 38.168 52.8938 38.024 52.3818 37.736C51.8698 37.448 51.4978 37.044 51.2658 36.524C51.0738 36.076 50.9778 35.596 50.9778 35.084C50.9778 34.572 51.0738 34.092 51.2658 33.644C51.4978 33.124 51.8698 32.72 52.3818 32.432C52.8938 32.144 53.4938 32 54.1818 32C54.7258 32 55.2138 32.092 55.6458 32.276C56.0858 32.46 56.4338 32.728 56.6898 33.08V29.528H57.7338ZM56.6898 35C56.6898 34.544 56.5898 34.16 56.3898 33.848C56.1898 33.528 55.9178 33.292 55.5738 33.14C55.2298 32.98 54.8378 32.9 54.3978 32.9C53.8938 32.9 53.4578 32.996 53.0898 33.188C52.7218 33.38 52.4538 33.66 52.2858 34.028C52.1498 34.324 52.0818 34.676 52.0818 35.084C52.0818 35.492 52.1498 35.844 52.2858 36.14C52.4538 36.508 52.7218 36.788 53.0898 36.98C53.4578 37.172 53.8938 37.268 54.3978 37.268C54.8378 37.268 55.2298 37.192 55.5738 37.04C55.9178 36.88 56.1898 36.644 56.3898 36.332C56.5898 36.012 56.6898 35.628 56.6898 35.18V35ZM62.3326 33.044H61.2166V32.18H62.3326V31.424C62.3326 30.72 62.5046 30.204 62.8486 29.876C63.1926 29.548 63.7326 29.384 64.4686 29.384C64.8046 29.384 65.0886 29.416 65.3206 29.48V30.38C65.1126 30.316 64.8766 30.284 64.6126 30.284C63.7886 30.284 63.3766 30.692 63.3766 31.508V32.18H65.3086V33.044H63.3766V38H62.3326V33.044ZM69.0825 38.168C68.2905 38.168 67.6225 38.02 67.0785 37.724C66.5345 37.42 66.1385 36.996 65.8905 36.452C65.7065 36.036 65.6145 35.58 65.6145 35.084C65.6145 34.588 65.7065 34.132 65.8905 33.716C66.1385 33.18 66.5345 32.76 67.0785 32.456C67.6225 32.152 68.2905 32 69.0825 32C69.8825 32 70.5545 32.152 71.0985 32.456C71.6425 32.752 72.0345 33.168 72.2745 33.704C72.4585 34.12 72.5505 34.58 72.5505 35.084C72.5505 35.588 72.4585 36.048 72.2745 36.464C72.0345 37 71.6385 37.42 71.0865 37.724C70.5425 38.02 69.8745 38.168 69.0825 38.168ZM69.0825 37.268C69.6185 37.268 70.0705 37.168 70.4385 36.968C70.8145 36.768 71.0865 36.488 71.2545 36.128C71.3905 35.832 71.4585 35.484 71.4585 35.084C71.4585 34.684 71.3945 34.34 71.2665 34.052C71.0985 33.684 70.8265 33.4 70.4505 33.2C70.0745 33 69.6185 32.9 69.0825 32.9C68.5465 32.9 68.0905 33 67.7145 33.2C67.3465 33.4 67.0785 33.684 66.9105 34.052C66.7825 34.332 66.7185 34.676 66.7185 35.084C66.7185 35.492 66.7825 35.84 66.9105 36.128C67.0785 36.488 67.3465 36.768 67.7145 36.968C68.0905 37.168 68.5465 37.268 69.0825 37.268ZM76.6014 32.072C76.8494 32.072 77.0814 32.104 77.2974 32.168V33.104C77.0574 33.048 76.8134 33.02 76.5654 33.02C75.9654 33.02 75.5134 33.184 75.2094 33.512C74.9134 33.84 74.7654 34.312 74.7654 34.928V38H73.7214V32.18H74.7654V33.008C74.9334 32.712 75.1694 32.484 75.4734 32.324C75.7854 32.156 76.1614 32.072 76.6014 32.072ZM88.6132 32C89.4132 32 90.0292 32.228 90.4612 32.684C90.8932 33.14 91.1092 33.804 91.1092 34.676V38H90.0652V34.832C90.0652 34.192 89.9172 33.712 89.6212 33.392C89.3332 33.072 88.9092 32.912 88.3492 32.912C87.7412 32.912 87.2732 33.092 86.9452 33.452C86.6172 33.812 86.4532 34.32 86.4532 34.976V38H85.3972V34.832C85.3972 33.552 84.8252 32.912 83.6812 32.912C83.0732 32.912 82.6012 33.092 82.2652 33.452C81.9372 33.812 81.7732 34.32 81.7732 34.976V38H80.7292V32.18H81.7732V33.092C81.9972 32.732 82.2932 32.46 82.6612 32.276C83.0372 32.092 83.4772 32 83.9812 32C84.5572 32 85.0372 32.12 85.4212 32.36C85.8132 32.592 86.0932 32.936 86.2612 33.392C86.6772 32.464 87.4612 32 88.6132 32ZM97.5678 36.788C97.8158 36.564 97.9638 36.284 98.0117 35.948H99.0678C98.9878 36.524 98.7438 36.992 98.3358 37.352C98.0318 37.624 97.6558 37.828 97.2078 37.964C96.7678 38.1 96.2798 38.168 95.7438 38.168C94.9438 38.168 94.2638 38.02 93.7038 37.724C93.1438 37.42 92.7438 37 92.5038 36.464C92.3198 36.072 92.2278 35.612 92.2278 35.084C92.2278 34.564 92.3198 34.096 92.5038 33.68C92.7438 33.144 93.1358 32.732 93.6798 32.444C94.2318 32.148 94.8958 32 95.6718 32C96.4398 32 97.0918 32.148 97.6278 32.444C98.1638 32.74 98.5558 33.156 98.8038 33.692C98.8998 33.932 98.9718 34.188 99.0198 34.46C99.0678 34.724 99.0958 35.02 99.1038 35.348H93.2838C93.3078 35.676 93.3718 35.96 93.4758 36.2C93.6438 36.568 93.9198 36.848 94.3038 37.04C94.6958 37.232 95.1758 37.328 95.7438 37.328C96.1278 37.328 96.4758 37.284 96.7878 37.196C97.0998 37.108 97.3598 36.972 97.5678 36.788ZM95.6718 32.84C95.1198 32.84 94.6558 32.94 94.2798 33.14C93.9118 33.332 93.6438 33.616 93.4758 33.992C93.3958 34.2 93.3398 34.392 93.3078 34.568H98.0238C97.9998 34.336 97.9478 34.128 97.8678 33.944C97.6998 33.584 97.4278 33.312 97.0518 33.128C96.6758 32.936 96.2158 32.84 95.6718 32.84ZM102.688 38.18C102.016 38.18 101.456 38.076 101.008 37.868C100.56 37.66 100.244 37.352 100.06 36.944C99.9484 36.688 99.8844 36.376 99.8684 36.008H100.912C100.912 36.208 100.952 36.408 101.032 36.608C101.144 36.856 101.344 37.048 101.632 37.184C101.92 37.312 102.28 37.376 102.712 37.376C103.144 37.376 103.5 37.328 103.78 37.232C104.06 37.128 104.244 36.976 104.332 36.776C104.38 36.68 104.404 36.568 104.404 36.44C104.404 36.328 104.38 36.224 104.332 36.128C104.268 35.992 104.152 35.884 103.984 35.804C103.816 35.724 103.612 35.66 103.372 35.612C103.132 35.556 102.764 35.488 102.268 35.408C101.724 35.32 101.28 35.196 100.936 35.036C100.592 34.876 100.352 34.64 100.216 34.328C100.136 34.128 100.096 33.924 100.096 33.716C100.096 33.492 100.14 33.28 100.228 33.08C100.388 32.728 100.68 32.46 101.104 32.276C101.528 32.092 102.036 32 102.628 32C103.244 32 103.764 32.1 104.188 32.3C104.62 32.5 104.924 32.788 105.1 33.164C105.204 33.396 105.256 33.664 105.256 33.968H104.236C104.236 33.792 104.204 33.628 104.14 33.476C104.036 33.244 103.848 33.072 103.576 32.96C103.312 32.84 102.988 32.78 102.604 32.78C102.236 32.78 101.932 32.828 101.692 32.924C101.46 33.012 101.304 33.144 101.224 33.32C101.184 33.424 101.164 33.528 101.164 33.632C101.164 33.736 101.184 33.828 101.224 33.908C101.28 34.036 101.388 34.144 101.548 34.232C101.708 34.312 101.888 34.376 102.088 34.424C102.288 34.464 102.552 34.512 102.88 34.568C102.944 34.584 103.032 34.6 103.144 34.616C103.744 34.72 104.228 34.856 104.596 35.024C104.964 35.184 105.224 35.424 105.376 35.744C105.456 35.912 105.496 36.12 105.496 36.368C105.496 36.608 105.448 36.832 105.352 37.04C105.184 37.416 104.864 37.7 104.392 37.892C103.92 38.084 103.352 38.18 102.688 38.18ZM109.087 38.18C108.415 38.18 107.855 38.076 107.407 37.868C106.959 37.66 106.643 37.352 106.459 36.944C106.347 36.688 106.283 36.376 106.267 36.008H107.311C107.311 36.208 107.351 36.408 107.431 36.608C107.543 36.856 107.743 37.048 108.031 37.184C108.319 37.312 108.679 37.376 109.111 37.376C109.543 37.376 109.899 37.328 110.179 37.232C110.459 37.128 110.643 36.976 110.731 36.776C110.779 36.68 110.803 36.568 110.803 36.44C110.803 36.328 110.779 36.224 110.731 36.128C110.667 35.992 110.551 35.884 110.383 35.804C110.215 35.724 110.011 35.66 109.771 35.612C109.531 35.556 109.163 35.488 108.667 35.408C108.123 35.32 107.679 35.196 107.335 35.036C106.991 34.876 106.751 34.64 106.615 34.328C106.535 34.128 106.495 33.924 106.495 33.716C106.495 33.492 106.539 33.28 106.627 33.08C106.787 32.728 107.079 32.46 107.503 32.276C107.927 32.092 108.435 32 109.027 32C109.643 32 110.163 32.1 110.587 32.3C111.019 32.5 111.323 32.788 111.499 33.164C111.603 33.396 111.655 33.664 111.655 33.968H110.635C110.635 33.792 110.603 33.628 110.539 33.476C110.435 33.244 110.247 33.072 109.975 32.96C109.711 32.84 109.387 32.78 109.003 32.78C108.635 32.78 108.331 32.828 108.091 32.924C107.859 33.012 107.703 33.144 107.623 33.32C107.583 33.424 107.563 33.528 107.563 33.632C107.563 33.736 107.583 33.828 107.623 33.908C107.679 34.036 107.787 34.144 107.947 34.232C108.107 34.312 108.287 34.376 108.487 34.424C108.687 34.464 108.951 34.512 109.279 34.568C109.343 34.584 109.431 34.6 109.543 34.616C110.143 34.72 110.627 34.856 110.995 35.024C111.363 35.184 111.623 35.424 111.775 35.744C111.855 35.912 111.895 36.12 111.895 36.368C111.895 36.608 111.847 36.832 111.751 37.04C111.583 37.416 111.263 37.7 110.791 37.892C110.319 38.084 109.751 38.18 109.087 38.18ZM118.641 33.284C118.801 33.652 118.881 34.088 118.881 34.592V38H117.825V37.1C117.329 37.812 116.457 38.168 115.209 38.168C114.625 38.168 114.133 38.084 113.733 37.916C113.333 37.74 113.057 37.48 112.905 37.136C112.809 36.928 112.761 36.684 112.761 36.404C112.761 36.124 112.809 35.884 112.905 35.684C113.105 35.244 113.477 34.944 114.021 34.784C114.573 34.616 115.277 34.532 116.133 34.532H117.825V34.412C117.825 34.108 117.777 33.848 117.681 33.632C117.449 33.104 116.861 32.84 115.917 32.84C114.981 32.84 114.401 33.084 114.177 33.572C114.121 33.692 114.085 33.844 114.069 34.028H113.025C113.025 33.756 113.081 33.488 113.193 33.224C113.553 32.408 114.457 32 115.905 32C116.625 32 117.213 32.104 117.669 32.312C118.125 32.52 118.449 32.844 118.641 33.284ZM115.449 37.328C115.993 37.328 116.457 37.236 116.841 37.052C117.225 36.868 117.497 36.6 117.657 36.248C117.769 36.016 117.825 35.724 117.825 35.372V35.3H116.169C115.569 35.3 115.073 35.348 114.681 35.444C114.297 35.532 114.045 35.704 113.925 35.96C113.869 36.088 113.841 36.208 113.841 36.32C113.841 36.472 113.869 36.6 113.925 36.704C114.021 36.92 114.205 37.08 114.477 37.184C114.749 37.28 115.073 37.328 115.449 37.328ZM126.721 32.18V37.7C126.721 38.244 126.629 38.72 126.445 39.128C125.997 40.112 125.001 40.604 123.457 40.604C122.905 40.604 122.405 40.54 121.957 40.412C121.517 40.292 121.153 40.104 120.865 39.848C120.465 39.472 120.249 38.992 120.217 38.408H121.321C121.329 38.752 121.465 39.04 121.729 39.272C121.913 39.44 122.153 39.568 122.449 39.656C122.753 39.744 123.085 39.788 123.445 39.788C123.965 39.788 124.397 39.704 124.741 39.536C125.085 39.368 125.333 39.116 125.485 38.78C125.597 38.484 125.653 38.156 125.653 37.796V37.04C125.397 37.392 125.053 37.66 124.621 37.844C124.189 38.028 123.705 38.12 123.169 38.12C122.481 38.12 121.885 37.98 121.381 37.7C120.877 37.412 120.509 37.008 120.277 36.488C120.085 36.08 119.989 35.604 119.989 35.06C119.989 34.516 120.085 34.036 120.277 33.62C120.509 33.1 120.877 32.7 121.381 32.42C121.885 32.14 122.481 32 123.169 32C123.721 32 124.209 32.096 124.633 32.288C125.065 32.472 125.413 32.748 125.677 33.116V32.18H126.721ZM123.385 37.232C123.825 37.232 124.213 37.156 124.549 37.004C124.893 36.844 125.161 36.608 125.353 36.296C125.553 35.976 125.653 35.592 125.653 35.144V34.976C125.653 34.528 125.553 34.148 125.353 33.836C125.161 33.524 124.893 33.292 124.549 33.14C124.213 32.98 123.825 32.9 123.385 32.9C122.881 32.9 122.445 32.996 122.077 33.188C121.717 33.372 121.457 33.648 121.297 34.016C121.161 34.312 121.093 34.66 121.093 35.06C121.093 35.46 121.161 35.808 121.297 36.104C121.457 36.472 121.717 36.752 122.077 36.944C122.445 37.136 122.881 37.232 123.385 37.232ZM128.812 31.028C128.604 31.028 128.436 30.968 128.308 30.848C128.18 30.728 128.116 30.568 128.116 30.368C128.116 30.176 128.18 30.02 128.308 29.9C128.444 29.772 128.612 29.708 128.812 29.708C129.012 29.708 129.176 29.772 129.304 29.9C129.44 30.02 129.508 30.176 129.508 30.368C129.508 30.56 129.44 30.72 129.304 30.848C129.176 30.968 129.012 31.028 128.812 31.028ZM128.284 32.18H129.328V38H128.284V32.18ZM134.245 32C135.085 32 135.729 32.228 136.177 32.684C136.633 33.132 136.861 33.792 136.861 34.664V38H135.817V34.844C135.817 33.556 135.205 32.912 133.981 32.912C133.317 32.912 132.809 33.096 132.457 33.464C132.105 33.832 131.929 34.356 131.929 35.036V38H130.885V32.18H131.929V33.128C132.161 32.752 132.473 32.472 132.865 32.288C133.257 32.096 133.717 32 134.245 32ZM144.71 32.18V37.7C144.71 38.244 144.618 38.72 144.434 39.128C143.986 40.112 142.99 40.604 141.446 40.604C140.894 40.604 140.394 40.54 139.946 40.412C139.506 40.292 139.142 40.104 138.854 39.848C138.454 39.472 138.238 38.992 138.206 38.408H139.31C139.318 38.752 139.454 39.04 139.718 39.272C139.902 39.44 140.142 39.568 140.438 39.656C140.742 39.744 141.074 39.788 141.434 39.788C141.954 39.788 142.386 39.704 142.73 39.536C143.074 39.368 143.322 39.116 143.474 38.78C143.586 38.484 143.642 38.156 143.642 37.796V37.04C143.386 37.392 143.042 37.66 142.61 37.844C142.178 38.028 141.694 38.12 141.158 38.12C140.47 38.12 139.874 37.98 139.37 37.7C138.866 37.412 138.498 37.008 138.266 36.488C138.074 36.08 137.978 35.604 137.978 35.06C137.978 34.516 138.074 34.036 138.266 33.62C138.498 33.1 138.866 32.7 139.37 32.42C139.874 32.14 140.47 32 141.158 32C141.71 32 142.198 32.096 142.622 32.288C143.054 32.472 143.402 32.748 143.666 33.116V32.18H144.71ZM141.374 37.232C141.814 37.232 142.202 37.156 142.538 37.004C142.882 36.844 143.15 36.608 143.342 36.296C143.542 35.976 143.642 35.592 143.642 35.144V34.976C143.642 34.528 143.542 34.148 143.342 33.836C143.15 33.524 142.882 33.292 142.538 33.14C142.202 32.98 141.814 32.9 141.374 32.9C140.87 32.9 140.434 32.996 140.066 33.188C139.706 33.372 139.446 33.648 139.286 34.016C139.15 34.312 139.082 34.66 139.082 35.06C139.082 35.46 139.15 35.808 139.286 36.104C139.446 36.472 139.706 36.752 140.066 36.944C140.434 37.136 140.87 37.232 141.374 37.232ZM26.248 51.644C26.44 52.06 26.536 52.54 26.536 53.084C26.536 53.62 26.44 54.1 26.248 54.524C26.016 55.044 25.644 55.448 25.132 55.736C24.628 56.024 24.028 56.168 23.332 56.168C22.78 56.168 22.288 56.076 21.856 55.892C21.424 55.708 21.08 55.436 20.824 55.076V58.436H19.78V50.18H20.812V51.116C21.068 50.748 21.412 50.472 21.844 50.288C22.284 50.096 22.78 50 23.332 50C24.028 50 24.628 50.144 25.132 50.432C25.644 50.72 26.016 51.124 26.248 51.644ZM25.228 54.14C25.364 53.844 25.432 53.492 25.432 53.084C25.432 52.676 25.364 52.324 25.228 52.028C25.06 51.66 24.792 51.38 24.424 51.188C24.056 50.996 23.62 50.9 23.116 50.9C22.676 50.9 22.284 50.98 21.94 51.14C21.596 51.292 21.324 51.528 21.124 51.848C20.924 52.16 20.824 52.544 20.824 53V53.18C20.824 53.628 20.924 54.012 21.124 54.332C21.324 54.644 21.596 54.88 21.94 55.04C22.284 55.192 22.676 55.268 23.116 55.268C23.62 55.268 24.056 55.172 24.424 54.98C24.792 54.788 25.06 54.508 25.228 54.14ZM33.6299 50.18V56H32.5739V55.064C32.3339 55.44 32.0179 55.72 31.6259 55.904C31.2419 56.088 30.7899 56.18 30.2699 56.18C29.4299 56.18 28.7819 55.956 28.3259 55.508C27.8779 55.052 27.6539 54.388 27.6539 53.516V50.18H28.6979V53.336C28.6979 54.624 29.3099 55.268 30.5339 55.268C31.1979 55.268 31.7019 55.084 32.0459 54.716C32.3979 54.348 32.5739 53.824 32.5739 53.144V50.18H33.6299ZM38.0702 50.072C38.3182 50.072 38.5502 50.104 38.7662 50.168V51.104C38.5262 51.048 38.2822 51.02 38.0342 51.02C37.4342 51.02 36.9822 51.184 36.6782 51.512C36.3822 51.84 36.2342 52.312 36.2342 52.928V56H35.1902V50.18H36.2342V51.008C36.4022 50.712 36.6382 50.484 36.9422 50.324C37.2542 50.156 37.6302 50.072 38.0702 50.072ZM46.205 51.644C46.397 52.06 46.493 52.54 46.493 53.084C46.493 53.62 46.397 54.1 46.205 54.524C45.973 55.044 45.601 55.448 45.089 55.736C44.585 56.024 43.985 56.168 43.289 56.168C42.737 56.168 42.245 56.076 41.813 55.892C41.381 55.708 41.037 55.436 40.781 55.076V58.436H39.737V50.18H40.769V51.116C41.025 50.748 41.369 50.472 41.801 50.288C42.241 50.096 42.737 50 43.289 50C43.985 50 44.585 50.144 45.089 50.432C45.601 50.72 45.973 51.124 46.205 51.644ZM45.185 54.14C45.321 53.844 45.389 53.492 45.389 53.084C45.389 52.676 45.321 52.324 45.185 52.028C45.017 51.66 44.749 51.38 44.381 51.188C44.013 50.996 43.577 50.9 43.073 50.9C42.633 50.9 42.241 50.98 41.897 51.14C41.553 51.292 41.281 51.528 41.081 51.848C40.881 52.16 40.781 52.544 40.781 53V53.18C40.781 53.628 40.881 54.012 41.081 54.332C41.281 54.644 41.553 54.88 41.897 55.04C42.241 55.192 42.633 55.268 43.073 55.268C43.577 55.268 44.013 55.172 44.381 54.98C44.749 54.788 45.017 54.508 45.185 54.14ZM50.7778 56.168C49.9858 56.168 49.3178 56.02 48.7738 55.724C48.2298 55.42 47.8338 54.996 47.5858 54.452C47.4018 54.036 47.3098 53.58 47.3098 53.084C47.3098 52.588 47.4018 52.132 47.5858 51.716C47.8338 51.18 48.2298 50.76 48.7738 50.456C49.3178 50.152 49.9858 50 50.7778 50C51.5778 50 52.2498 50.152 52.7938 50.456C53.3378 50.752 53.7298 51.168 53.9698 51.704C54.1538 52.12 54.2458 52.58 54.2458 53.084C54.2458 53.588 54.1538 54.048 53.9698 54.464C53.7298 55 53.3338 55.42 52.7818 55.724C52.2378 56.02 51.5698 56.168 50.7778 56.168ZM50.7778 55.268C51.3138 55.268 51.7658 55.168 52.1338 54.968C52.5098 54.768 52.7818 54.488 52.9498 54.128C53.0858 53.832 53.1538 53.484 53.1538 53.084C53.1538 52.684 53.0898 52.34 52.9618 52.052C52.7938 51.684 52.5218 51.4 52.1458 51.2C51.7698 51 51.3138 50.9 50.7778 50.9C50.2418 50.9 49.7858 51 49.4098 51.2C49.0418 51.4 48.7738 51.684 48.6058 52.052C48.4778 52.332 48.4138 52.676 48.4138 53.084C48.4138 53.492 48.4778 53.84 48.6058 54.128C48.7738 54.488 49.0418 54.768 49.4098 54.968C49.7858 55.168 50.2418 55.268 50.7778 55.268ZM57.8407 56.18C57.1687 56.18 56.6087 56.076 56.1607 55.868C55.7127 55.66 55.3967 55.352 55.2127 54.944C55.1007 54.688 55.0367 54.376 55.0207 54.008H56.0647C56.0647 54.208 56.1047 54.408 56.1847 54.608C56.2967 54.856 56.4967 55.048 56.7847 55.184C57.0727 55.312 57.4327 55.376 57.8647 55.376C58.2967 55.376 58.6527 55.328 58.9327 55.232C59.2127 55.128 59.3967 54.976 59.4847 54.776C59.5327 54.68 59.5567 54.568 59.5567 54.44C59.5567 54.328 59.5327 54.224 59.4847 54.128C59.4207 53.992 59.3047 53.884 59.1367 53.804C58.9687 53.724 58.7647 53.66 58.5247 53.612C58.2847 53.556 57.9167 53.488 57.4207 53.408C56.8767 53.32 56.4327 53.196 56.0887 53.036C55.7447 52.876 55.5047 52.64 55.3687 52.328C55.2887 52.128 55.2487 51.924 55.2487 51.716C55.2487 51.492 55.2927 51.28 55.3807 51.08C55.5407 50.728 55.8327 50.46 56.2567 50.276C56.6807 50.092 57.1887 50 57.7807 50C58.3967 50 58.9167 50.1 59.3407 50.3C59.7727 50.5 60.0767 50.788 60.2527 51.164C60.3567 51.396 60.4087 51.664 60.4087 51.968H59.3887C59.3887 51.792 59.3567 51.628 59.2927 51.476C59.1887 51.244 59.0007 51.072 58.7287 50.96C58.4647 50.84 58.1407 50.78 57.7567 50.78C57.3887 50.78 57.0847 50.828 56.8447 50.924C56.6127 51.012 56.4567 51.144 56.3767 51.32C56.3367 51.424 56.3167 51.528 56.3167 51.632C56.3167 51.736 56.3367 51.828 56.3767 51.908C56.4327 52.036 56.5407 52.144 56.7007 52.232C56.8607 52.312 57.0407 52.376 57.2407 52.424C57.4407 52.464 57.7047 52.512 58.0327 52.568C58.0967 52.584 58.1847 52.6 58.2967 52.616C58.8967 52.72 59.3807 52.856 59.7487 53.024C60.1167 53.184 60.3767 53.424 60.5287 53.744C60.6087 53.912 60.6487 54.12 60.6487 54.368C60.6487 54.608 60.6007 54.832 60.5047 55.04C60.3367 55.416 60.0167 55.7 59.5447 55.892C59.0727 56.084 58.5047 56.18 57.8407 56.18ZM66.7592 54.788C67.0072 54.564 67.1552 54.284 67.2032 53.948H68.2592C68.1792 54.524 67.9352 54.992 67.5272 55.352C67.2232 55.624 66.8472 55.828 66.3992 55.964C65.9592 56.1 65.4712 56.168 64.9352 56.168C64.1352 56.168 63.4552 56.02 62.8952 55.724C62.3352 55.42 61.9352 55 61.6952 54.464C61.5112 54.072 61.4192 53.612 61.4192 53.084C61.4192 52.564 61.5112 52.096 61.6952 51.68C61.9352 51.144 62.3272 50.732 62.8712 50.444C63.4232 50.148 64.0872 50 64.8632 50C65.6312 50 66.2832 50.148 66.8192 50.444C67.3552 50.74 67.7472 51.156 67.9952 51.692C68.0912 51.932 68.1632 52.188 68.2112 52.46C68.2592 52.724 68.2872 53.02 68.2952 53.348H62.4752C62.4992 53.676 62.5632 53.96 62.6672 54.2C62.8352 54.568 63.1112 54.848 63.4952 55.04C63.8872 55.232 64.3672 55.328 64.9352 55.328C65.3192 55.328 65.6672 55.284 65.9792 55.196C66.2912 55.108 66.5512 54.972 66.7592 54.788ZM64.8632 50.84C64.3112 50.84 63.8472 50.94 63.4712 51.14C63.1032 51.332 62.8352 51.616 62.6672 51.992C62.5872 52.2 62.5312 52.392 62.4992 52.568H67.2152C67.1912 52.336 67.1392 52.128 67.0592 51.944C66.8912 51.584 66.6192 51.312 66.2432 51.128C65.8672 50.936 65.4072 50.84 64.8632 50.84Z" fill="#5300F8"/>
</svg>
