<svg width="102" height="59" viewBox="0 0 102 59" fill="none" xmlns="http://www.w3.org/2000/svg">
<path d="M50.9899 58.8699C48.8299 58.8699 46.76 58.4299 45.22 57.5399L3.10995 33.2299C1.54995 32.3299 0.699951 31.0699 0.699951 29.6799C0.699951 28.0299 1.91995 26.3799 4.03995 25.1499L43.5999 2.30994C47.5 0.0599371 53.43 -0.180062 56.82 1.77994L98.9299 26.0899C100.49 26.9899 101.34 28.2499 101.34 29.6399C101.34 31.2899 100.12 32.9399 98 34.1699L58.44 57.0099C56.31 58.2399 53.58 58.8699 50.98 58.8699H50.9899ZM45.61 56.8799C48.79 58.7199 54.38 58.4799 58.07 56.3499L97.63 33.5099C99.51 32.4299 100.58 31.0199 100.58 29.6499C100.58 28.5399 99.86 27.5199 98.55 26.7599L56.44 2.44994C53.26 0.619936 47.67 0.849943 43.98 2.97994L4.41995 25.8199C2.53995 26.8999 1.46995 28.3099 1.46995 29.6799C1.46995 30.7899 2.18995 31.8099 3.49995 32.5699L45.61 56.8799Z" fill="#6EE8FC"/>
</svg>
