<svg width="40" height="24" viewBox="0 0 40 24" fill="none" xmlns="http://www.w3.org/2000/svg">
<path d="M20.0499 2.22002L18.8999 1.56001L20.0499 0.890015L21.1999 1.56001L20.0499 2.22002Z" fill="#6DE0F6"/>
<path d="M22.36 3.54997L21.2 2.88997L22.36 2.21997L23.51 2.88997L22.36 3.54997Z" fill="#6DE0F6"/>
<path opacity="0.4" d="M24.66 4.88005L23.51 4.22005L24.66 3.55005L25.81 4.22005L24.66 4.88005Z" fill="#6DE0F6"/>
<path d="M26.9598 6.21L25.8098 5.55L26.9598 4.88L28.1198 5.55L26.9598 6.21Z" fill="#6DE0F6"/>
<path opacity="0.4" d="M29.2699 7.54996L28.1199 6.87996L29.2699 6.20996L30.4199 6.87996L29.2699 7.54996Z" fill="#6DE0F6"/>
<path d="M31.5699 8.88005L30.4199 8.21005L31.5699 7.55005L32.7299 8.21005L31.5699 8.88005Z" fill="#6DE0F6"/>
<path d="M33.88 10.21L32.73 9.54L33.88 8.88L35.03 9.54L33.88 10.21Z" fill="#6DE0F6"/>
<path d="M36.1798 11.54L35.0298 10.87L36.1798 10.21L37.3298 10.87L36.1798 11.54Z" fill="#6DE0F6"/>
<path d="M38.4898 12.87L37.3298 12.2L38.4898 11.54L39.6398 12.2L38.4898 12.87Z" fill="#6DE0F6"/>
<path d="M17.7398 3.55998L16.5898 2.88998L17.7398 2.22998L18.8898 2.88998L17.7398 3.55998Z" fill="#6DE0F6"/>
<path d="M20.0399 4.88994L18.8899 4.21994L20.0399 3.55994L21.1899 4.21994L20.0399 4.88994Z" fill="#6DE0F6"/>
<path d="M22.3499 6.22001L21.1899 5.55001L22.3499 4.89001L23.4999 5.55001L22.3499 6.22001Z" fill="#6DE0F6"/>
<path d="M24.6498 7.54997L23.4998 6.88997L24.6498 6.21997L25.7998 6.88997L24.6498 7.54997Z" fill="#6DE0F6"/>
<path d="M26.9598 8.87993L25.7998 8.21993L26.9598 7.54993L28.1098 8.21993L26.9598 8.87993Z" fill="#6DE0F6"/>
<path d="M29.2599 10.21L28.1099 9.55L29.2599 8.88L30.4099 9.55L29.2599 10.21Z" fill="#6DE0F6"/>
<path d="M31.5599 11.54L30.4099 10.88L31.5599 10.21L32.7199 10.88L31.5599 11.54Z" fill="#6DE0F6"/>
<path d="M33.8697 12.87L32.7197 12.21L33.8697 11.54L35.0197 12.21L33.8697 12.87Z" fill="#6DE0F6"/>
<path d="M36.1698 14.2L35.0198 13.54L36.1698 12.87L37.3198 13.54L36.1698 14.2Z" fill="#6DE0F6"/>
<path d="M15.4198 4.89006L14.2698 4.23006L15.4198 3.56006L16.5798 4.23006L15.4198 4.89006Z" fill="#6DE0F6"/>
<path d="M17.7298 6.23001L16.5798 5.56001L17.7298 4.89001L18.8798 5.56001L17.7298 6.23001Z" fill="#6DE0F6"/>
<path d="M20.0299 7.5601L18.8799 6.8901L20.0299 6.2301L21.1799 6.8901L20.0299 7.5601Z" fill="#6DE0F6"/>
<path d="M22.3397 8.89006L21.1797 8.22006L22.3397 7.56006L23.4897 8.22006L22.3397 8.89006Z" fill="#6DE0F6"/>
<path opacity="0.4" d="M24.6397 10.22L23.4897 9.55001L24.6397 8.89001L25.7897 9.55001L24.6397 10.22Z" fill="#6DE0F6"/>
<path opacity="0.4" d="M26.9498 11.5501L25.7898 10.8801L26.9498 10.2201L28.0998 10.8801L26.9498 11.5501Z" fill="#6DE0F6"/>
<path d="M29.2499 12.88L28.0999 12.21L29.2499 11.55L30.3999 12.21L29.2499 12.88Z" fill="#6DE0F6"/>
<path d="M31.5499 14.21L30.3999 13.54L31.5499 12.88L32.7099 13.54L31.5499 14.21Z" fill="#6DE0F6"/>
<path d="M33.8597 15.5401L32.7097 14.8701L33.8597 14.2101L35.0097 14.8701L33.8597 15.5401Z" fill="#6DE0F6"/>
<path opacity="0.4" d="M13.11 6.23002L11.96 5.57002L13.11 4.90002L14.26 5.57002L13.11 6.23002Z" fill="#6DE0F6"/>
<path opacity="0.4" d="M15.41 7.55998L14.26 6.89998L15.41 6.22998L16.57 6.89998L15.41 7.55998Z" fill="#6DE0F6"/>
<path d="M17.7201 8.89006L16.5701 8.23006L17.7201 7.56006L18.8701 8.23006L17.7201 8.89006Z" fill="#6DE0F6"/>
<path d="M20.0199 10.22L18.8699 9.56001L20.0199 8.89001L21.1799 9.56001L20.0199 10.22Z" fill="#6DE0F6"/>
<path d="M22.3299 11.55L21.1799 10.89L22.3299 10.22L23.4799 10.89L22.3299 11.55Z" fill="#6DE0F6"/>
<path d="M24.63 12.88L23.48 12.22L24.63 11.55L25.78 12.22L24.63 12.88Z" fill="#6DE0F6"/>
<path opacity="0.4" d="M26.94 14.21L25.78 13.55L26.94 12.88L28.09 13.55L26.94 14.21Z" fill="#6DE0F6"/>
<path d="M29.2398 15.5401L28.0898 14.8801L29.2398 14.2101L30.3898 14.8801L29.2398 15.5401Z" fill="#6DE0F6"/>
<path d="M31.5499 16.87L30.3899 16.21L31.5499 15.54L32.6999 16.21L31.5499 16.87Z" fill="#6DE0F6"/>
<path d="M10.7999 7.56999L9.63989 6.89999L10.7999 6.23999L11.9499 6.89999L10.7999 7.56999Z" fill="#6DE0F6"/>
<path d="M13.1 8.89995L11.95 8.22995L13.1 7.56995L14.25 8.22995L13.1 8.89995Z" fill="#6DE0F6"/>
<path d="M15.41 10.23L14.25 9.56003L15.41 8.90002L16.56 9.56003L15.41 10.23Z" fill="#6DE0F6"/>
<path d="M17.7098 11.56L16.5598 10.89L17.7098 10.23L18.8598 10.89L17.7098 11.56Z" fill="#6DE0F6"/>
<path d="M20.0099 12.8899L18.8599 12.2199L20.0099 11.5599L21.1699 12.2199L20.0099 12.8899Z" fill="#6DE0F6"/>
<path d="M22.3199 14.22L21.1699 13.55L22.3199 12.89L23.4699 13.55L22.3199 14.22Z" fill="#6DE0F6"/>
<path d="M24.62 15.55L23.47 14.88L24.62 14.22L25.78 14.88L24.62 15.55Z" fill="#6DE0F6"/>
<path d="M26.9298 16.88L25.7798 16.21L26.9298 15.55L28.0798 16.21L26.9298 16.88Z" fill="#6DE0F6"/>
<path d="M29.2298 18.21L28.0798 17.54L29.2298 16.88L30.3798 17.54L29.2298 18.21Z" fill="#6DE0F6"/>
<path d="M8.47984 8.90007L7.32983 8.24007L8.47984 7.57007L9.63983 8.24007L8.47984 8.90007Z" fill="#6DE0F6"/>
<path d="M10.7899 10.23L9.63989 9.57002L10.7899 8.90002L11.9399 9.57002L10.7899 10.23Z" fill="#6DE0F6"/>
<path opacity="0.4" d="M13.0899 11.5601L11.9399 10.9001L13.0899 10.2301L14.2399 10.9001L13.0899 11.5601Z" fill="#6DE0F6"/>
<path d="M15.3997 12.8901L14.2397 12.2301L15.3997 11.5601L16.5498 12.2301L15.3997 12.8901Z" fill="#6DE0F6"/>
<path d="M17.6998 14.22L16.5498 13.56L17.6998 12.89L18.8498 13.56L17.6998 14.22Z" fill="#6DE0F6"/>
<path d="M19.9999 15.5501L18.8499 14.8901L19.9999 14.2201L21.1599 14.8901L19.9999 15.5501Z" fill="#6DE0F6"/>
<path d="M22.3099 16.88L21.1599 16.22L22.3099 15.55L23.4599 16.22L22.3099 16.88Z" fill="#6DE0F6"/>
<path d="M24.6097 18.2201L23.4597 17.5501L24.6097 16.8801L25.7697 17.5501L24.6097 18.2201Z" fill="#6DE0F6"/>
<path d="M26.9198 19.5501L25.7698 18.8801L26.9198 18.2201L28.0698 18.8801L26.9198 19.5501Z" fill="#6DE0F6"/>
<path d="M6.16978 10.24L5.01978 9.57003L6.16978 8.91003L7.31978 9.57003L6.16978 10.24Z" fill="#6DE0F6"/>
<path d="M8.46983 11.57L7.31982 10.9L8.46983 10.24L9.62982 10.9L8.46983 11.57Z" fill="#6DE0F6"/>
<path opacity="0.4" d="M10.7799 12.9001L9.62988 12.2301L10.7799 11.5701L11.9299 12.2301L10.7799 12.9001Z" fill="#6DE0F6"/>
<path d="M13.0797 14.23L11.9297 13.56L13.0797 12.9L14.2297 13.56L13.0797 14.23Z" fill="#6DE0F6"/>
<path d="M15.3897 15.56L14.2297 14.89L15.3897 14.23L16.5397 14.89L15.3897 15.56Z" fill="#6DE0F6"/>
<path d="M17.6898 16.8901L16.5398 16.2301L17.6898 15.5601L18.8398 16.2301L17.6898 16.8901Z" fill="#6DE0F6"/>
<path opacity="0.4" d="M19.9998 18.22L18.8398 17.56L19.9998 16.89L21.1498 17.56L19.9998 18.22Z" fill="#6DE0F6"/>
<path d="M22.2999 19.5501L21.1499 18.8901L22.2999 18.2201L23.4499 18.8901L22.2999 19.5501Z" fill="#6DE0F6"/>
<path d="M24.5997 20.88L23.4497 20.22L24.5997 19.55L25.7597 20.22L24.5997 20.88Z" fill="#6DE0F6"/>
<path d="M3.85995 11.57L2.69995 10.91L3.85995 10.24L5.00996 10.91L3.85995 11.57Z" fill="#6DE0F6"/>
<path opacity="0.4" d="M6.16001 12.8999L5.01001 12.2399L6.16001 11.5699L7.31001 12.2399L6.16001 12.8999Z" fill="#6DE0F6"/>
<path d="M8.46006 14.23L7.31006 13.57L8.46006 12.9L9.62006 13.57L8.46006 14.23Z" fill="#6DE0F6"/>
<path d="M10.7699 15.57L9.61987 14.9L10.7699 14.23L11.9199 14.9L10.7699 15.57Z" fill="#6DE0F6"/>
<path d="M13.0699 16.8999L11.9199 16.2299L13.0699 15.5699L14.2299 16.2299L13.0699 16.8999Z" fill="#6DE0F6"/>
<path d="M15.38 18.23L14.23 17.56L15.38 16.9L16.53 17.56L15.38 18.23Z" fill="#6DE0F6"/>
<path d="M17.68 19.56L16.53 18.89L17.68 18.23L18.83 18.89L17.68 19.56Z" fill="#6DE0F6"/>
<path opacity="0.4" d="M19.9901 20.8899L18.8301 20.2199L19.9901 19.5599L21.1401 20.2199L19.9901 20.8899Z" fill="#6DE0F6"/>
<path d="M22.2899 22.22L21.1399 21.55L22.2899 20.89L23.4399 21.55L22.2899 22.22Z" fill="#6DE0F6"/>
<path d="M1.53989 12.91L0.389893 12.24L1.53989 11.58L2.6899 12.24L1.53989 12.91Z" fill="#6DE0F6"/>
<path d="M3.84994 14.2399L2.68994 13.5799L3.84994 12.9099L4.99994 13.5799L3.84994 14.2399Z" fill="#6DE0F6"/>
<path d="M6.15 15.57L5 14.91L6.15 14.24L7.3 14.91L6.15 15.57Z" fill="#6DE0F6"/>
<path d="M8.4498 16.8999L7.2998 16.2399L8.4498 15.5699L9.6098 16.2399L8.4498 16.8999Z" fill="#6DE0F6"/>
<path d="M10.7599 18.2299L9.60986 17.5699L10.7599 16.8999L11.9099 17.5699L10.7599 18.2299Z" fill="#6DE0F6"/>
<path d="M13.0599 19.56L11.9099 18.9L13.0599 18.23L14.2199 18.9L13.0599 19.56Z" fill="#6DE0F6"/>
<path opacity="0.4" d="M15.37 20.8899L14.22 20.2299L15.37 19.5599L16.52 20.2299L15.37 20.8899Z" fill="#6DE0F6"/>
<path d="M17.6698 22.22L16.5198 21.56L17.6698 20.89L18.8198 21.56L17.6698 22.22Z" fill="#6DE0F6"/>
<path d="M19.9798 23.55L18.8198 22.89L19.9798 22.22L21.1298 22.89L19.9798 23.55Z" fill="#6DE0F6"/>
</svg>
