<svg width="48" height="29" viewBox="0 0 48 29" fill="none" xmlns="http://www.w3.org/2000/svg">
<path d="M23.85 28.2C22.91 28.2 22 28.01 21.33 27.62L1.36004 16.09C0.670039 15.69 0.290039 15.13 0.290039 14.5C0.290039 13.76 0.83004 13.03 1.76004 12.49L20.93 1.42001C22.63 0.440011 25.22 0.330011 26.7 1.19001L46.67 12.72C47.36 13.12 47.74 13.68 47.74 14.31C47.74 15.05 47.2 15.78 46.27 16.32L27.1 27.39C26.17 27.92 24.98 28.2 23.85 28.2ZM24.18 1.07001C23.13 1.07001 22.02 1.33001 21.16 1.83001L1.99004 12.9C1.20004 13.35 0.750038 13.94 0.750038 14.51C0.750038 14.96 1.05003 15.39 1.59003 15.7L21.56 27.23C22.91 28.01 25.3 27.91 26.87 27L46.04 15.93C46.83 15.47 47.28 14.89 47.28 14.32C47.28 13.87 46.98 13.44 46.44 13.13L26.47 1.60001C25.86 1.25001 25.04 1.07001 24.18 1.07001Z" fill="url(#paint0_linear_2706_5558)"/>
<defs>
<linearGradient id="paint0_linear_2706_5558" x1="0.290039" y1="14.41" x2="47.74" y2="14.41" gradientUnits="userSpaceOnUse">
<stop stop-color="#3FC1FF"/>
<stop offset="0.41" stop-color="#4902A6"/>
<stop offset="0.44" stop-color="#613FAA"/>
<stop offset="0.62" stop-color="#31006A"/>
<stop offset="0.85" stop-color="#310055"/>
</linearGradient>
</defs>
</svg>
